<svg width="106" height="77" viewBox="0 0 106 77" fill="none" xmlns="http://www.w3.org/2000/svg">
<path d="M45.4263 1.15159C43.9163 2.63549 43.6466 4.17435 44.5634 5.93305C45.9117 8.40622 51.0352 6.20784 51.0352 3.13012C51.0352 1.42638 50.3341 0.656951 48.2307 0.107358C47.0982 -0.167439 46.451 0.0523982 45.4263 1.15159ZM49.4172 2.30573C51.0352 4.28427 47.6375 7.03223 45.8038 5.16362C44.9949 4.39419 44.9949 4.17435 45.8578 2.91028C46.8285 1.31646 48.3925 1.04167 49.4172 2.30573Z" fill="white"/>
<path d="M33.5864 22.213C32.8979 23.2941 32.845 23.6355 33.4805 24.6598C33.8512 25.2857 34.5927 25.9117 35.0693 25.9686C36.1815 26.2531 38.0352 24.546 38.0352 23.2372C38.0352 20.8473 34.9104 20.1644 33.5864 22.213ZM36.4463 23.2372C36.4463 23.977 36.0756 24.3753 35.3871 24.3753C34.2219 24.3753 33.9042 22.9527 35.0164 22.4975C36.1815 21.9284 36.4463 22.0992 36.4463 23.2372Z" fill="white"/>
<path d="M67.9262 12.8679C66.6727 14.089 66.7324 15.0193 68.1649 16.2985C69.4781 17.4614 70.7913 17.1707 71.7463 15.4845C72.2239 14.496 72.1642 14.089 71.1494 13.1005C69.7169 11.705 69.12 11.6469 67.9262 12.8679ZM70.5525 14.5541C70.5525 15.0193 70.1944 15.4263 69.7169 15.4263C68.7021 15.4263 68.0455 14.6123 68.5828 14.0308C69.299 13.3331 70.5525 13.682 70.5525 14.5541Z" fill="white"/>
<path d="M91.026 47.2445C90.68 46.3121 89.9114 45.6677 89.0714 45.2024C87.9515 44.582 86.7025 44.2113 85.4758 43.8796C82.5027 43.0757 79.4125 42.5726 76.5775 41.3153C75.1284 40.6724 73.7214 39.8022 72.7579 38.4976C72.6999 38.42 72.5926 38.4089 72.5364 38.4976C71.3555 40.3606 69.4523 41.4171 67.3187 41.6991C66.7246 41.7767 66.1299 41.7868 65.532 41.7979C65.4216 41.8 65.2465 41.778 65.1473 41.8418C65.071 41.8909 65.071 41.947 65.0438 42.0354C64.9559 42.3314 64.8895 42.6359 64.8122 42.9348C63.5507 47.8205 62.246 52.6971 60.9351 57.5704C60.4834 59.2498 60.0309 60.9289 59.5775 62.6076C59.4712 63.004 59.3653 63.3994 59.2597 63.7939C59.158 64.1708 59.0248 64.6167 58.6811 64.84C58.2471 65.1223 57.9141 64.7193 57.8485 64.2972C57.7745 63.8208 57.9486 63.3084 58.0615 62.8467C58.2027 62.2708 58.3461 61.6953 58.4917 61.1204C58.9493 59.3008 59.4118 57.4826 59.879 55.666C60.9819 51.3577 62.0921 47.0502 63.2095 42.7437C63.3199 42.3183 63.43 41.8926 63.54 41.4667C63.5472 41.439 63.5453 41.4097 63.5347 41.3832C63.524 41.3567 63.5052 41.3344 63.4811 41.3197C61.7899 40.4725 60.0842 39.3191 59.398 37.4455C59.2364 37.001 59.1298 36.5378 59.0805 36.0666C59.0539 35.8115 59.0407 35.5551 59.0411 35.2986C59.0411 35.0882 59.0891 34.8558 59.0368 34.6524C58.9844 34.4489 58.8288 34.306 58.7251 34.1353C58.5049 33.7706 58.555 33.3293 58.6379 32.9281C58.7396 32.4341 58.8799 31.8424 59.2 31.441C59.3431 31.26 59.5142 31.1967 59.71 31.0992C59.9365 30.986 60.0351 30.8193 60.1699 30.6081C60.4605 30.1533 60.8029 29.7349 61.1899 29.3616C62.8973 27.7007 65.3891 26.858 67.7128 27.4515C69.6234 27.9396 71.3644 29.1437 72.4007 30.8619C72.9823 31.8294 73.3335 32.9216 73.4263 34.0516C73.456 34.4241 73.1136 34.5143 72.8026 34.5911C71.3888 34.9406 69.7574 34.6741 68.356 34.406C66.1071 33.9743 63.9312 33.2149 61.8956 32.1511C61.3445 31.8626 60.8056 31.5514 60.2792 31.2174C60.0362 31.0623 59.8755 30.9056 59.638 31.1334C59.1504 31.6007 58.9516 32.5551 58.9285 33.2014C58.8827 34.4205 59.9441 35.2203 60.8762 35.7792C62.2457 36.6004 63.7897 37.1345 65.3187 37.5528C66.8982 37.9847 68.5276 38.2947 70.1626 38.3898C70.8145 38.4275 71.4737 38.4317 72.122 38.3435C72.662 38.2704 73.1939 38.1571 73.544 37.6957C73.9762 37.1254 74.1315 36.3256 74.1404 35.6202C74.1447 35.2761 74.1109 34.4523 73.5671 34.5324C72.9928 34.6172 73.0749 35.963 73.05 36.3572C73.0246 36.7682 72.7467 36.9556 72.3829 37.0903C71.1053 37.5639 69.5283 37.3581 68.2241 37.1407C66.0918 36.7822 64.0116 36.0666 62.0774 35.0921C60.9709 34.5301 59.91 33.8798 58.9046 33.1474C58.3648 32.7568 57.7783 32.414 57.1313 32.247C54.7414 31.6302 53.1972 33.973 52.2667 35.8402C51.6474 37.0825 51.1504 38.3838 50.6427 39.6761C50.1993 40.8045 49.7727 41.9703 49.1427 43.0079C48.548 43.9877 47.6172 44.5476 46.5848 44.9754C45.1331 45.5775 43.5731 45.9138 42.0266 46.1441C40.4679 46.3767 38.8827 46.4926 37.3072 46.452C36.6716 46.4354 36.031 46.3959 35.4027 46.2881C35.0079 46.2203 34.5732 46.14 34.2238 45.9293C33.8252 45.6886 33.9744 45.3495 34.0055 44.9237C34.0296 44.592 34.2005 43.321 33.5748 43.3949C33.0686 43.4544 33.0132 44.2361 32.9827 44.6213C32.9277 45.3133 32.9923 46.1464 33.4205 46.72C33.7324 47.1373 34.2871 47.298 34.7656 47.425C35.3969 47.5925 36.05 47.6778 36.6993 47.7316C38.3473 47.8688 40.0184 47.7939 41.6569 47.5863C43.1951 47.3914 44.7604 47.0918 46.1963 46.4799C47.184 46.059 48.2793 45.4332 48.4036 44.2407C48.4697 43.6087 48.414 42.6013 47.9828 42.0882C47.7726 41.838 47.5761 41.9974 47.3188 42.1112C46.6888 42.3895 46.0468 42.6373 45.3929 42.8546C43.1424 43.6059 40.7679 44.0251 38.3981 44.0595C37.5193 44.0722 36.6325 44.0368 35.7635 43.8959C35.2352 43.8103 34.6377 43.7077 34.1745 43.4169C34.0728 43.3523 33.935 43.2618 33.9083 43.1325C33.8796 42.9922 33.9722 42.8048 34.01 42.6708C34.0859 42.3947 34.1767 42.1231 34.2818 41.8571C34.6828 40.8479 35.3043 39.9447 36.0993 39.216C37.579 37.8609 39.6825 37.0903 41.6755 37.2513C43.9128 37.4323 45.995 38.8442 47.1617 40.7711C47.3699 41.1154 47.4886 41.5347 47.7164 41.8599C47.8181 42.0049 47.9638 42.0758 48.1039 42.1732C48.3383 42.3366 48.456 42.5752 48.5383 42.8474C48.6977 43.3737 48.7809 43.9848 48.7262 44.5344C48.6934 44.8668 48.575 45.1072 48.3494 45.3422C48.2007 45.4973 48.0805 45.6335 48.0444 45.852C47.8817 46.8446 47.7228 47.7621 47.1868 48.6327C46.2029 50.2305 44.4469 51.0546 42.7435 51.6106C42.6947 51.6264 42.6418 51.6786 42.6495 51.7363C43.129 56.1014 43.6009 60.4673 44.0653 64.8341C44.4029 68.0007 44.7988 71.1702 45.0454 74.347C45.0729 74.7017 45.0769 75.0804 44.903 75.4009C44.6775 75.8166 44.2382 75.8404 43.9641 75.4591C43.6626 75.0403 43.6618 74.4444 43.6026 73.9424C43.4236 72.4223 43.2428 70.9023 43.0601 69.3824C42.4654 64.3773 41.8769 59.3712 41.3257 54.3609C41.2579 53.7461 41.191 53.1313 41.1251 52.5164C41.1012 52.2946 41.1622 51.9596 40.9326 51.8495C40.804 51.788 40.6275 51.7854 40.489 51.7632C40.2314 51.7218 39.9744 51.6789 39.7189 51.6264C37.9454 51.2624 36.2453 50.4551 35.0877 48.9998C34.7145 48.5306 34.4148 48.0089 34.1705 47.4601C34.1563 47.4351 34.1344 47.4157 34.1081 47.4048C34.0819 47.3939 34.0528 47.3923 34.0255 47.4002C31.6126 48.4083 29.0776 49.1145 26.6135 49.9782C23.8805 50.936 21.0659 51.9565 18.6252 53.5618C17.6296 54.2166 16.6363 55.0094 16.0523 56.0817C15.9723 56.2288 16.1937 56.3604 16.2738 56.2135C16.7988 55.2504 17.6721 54.5237 18.5573 53.9191C19.6821 53.1521 20.9072 52.5415 22.1459 51.9914C24.838 50.7956 27.646 49.8919 30.434 48.962C31.6619 48.5523 32.8975 48.1508 34.0937 47.6517L33.949 47.5917C34.8101 49.5253 36.4197 50.8711 38.3821 51.5377C39.0154 51.7531 39.6678 51.8927 40.3263 51.9994C40.4534 52.0201 40.7211 52.0118 40.8297 52.0899C40.8536 52.107 40.8574 52.0964 40.8622 52.1015C40.8266 52.063 40.8523 52.365 40.8576 52.4141C40.8927 52.7429 40.9282 53.0716 40.9641 53.4003C41.5278 58.5812 42.1359 63.7569 42.7502 68.9316C42.9429 70.556 43.1361 72.1804 43.3298 73.8046C43.3842 74.264 43.3974 74.7733 43.5535 75.2088C43.7755 75.8279 44.4688 76.3398 44.9994 75.7171C45.3879 75.2603 45.3273 74.6163 45.2765 74.0572C45.2279 73.5216 45.1735 72.9862 45.1196 72.4509C44.9323 70.5969 44.7392 68.7435 44.5402 66.8907C44.0543 62.3033 43.5605 57.7169 43.0588 53.1314C43.008 52.6661 42.9571 52.2014 42.9063 51.7373L42.8122 51.8629C44.4764 51.3201 46.1681 50.5345 47.2184 49.0525C47.7192 48.3468 48.0337 47.5198 48.1916 46.6676C48.2589 46.3036 48.2144 45.8662 48.4735 45.5852C48.6243 45.4218 48.7705 45.2797 48.8602 45.07C49.0171 44.7035 49.0087 44.2756 48.9756 43.8861C48.9362 43.4208 48.8739 42.9268 48.6838 42.4977C48.5905 42.2883 48.4621 42.113 48.277 41.9806C48.1379 41.8801 47.9884 41.8191 47.8956 41.6653C47.6561 41.2654 47.5036 40.8184 47.2448 40.4245C46.4027 39.1445 45.2145 38.1395 43.8233 37.5308C40.1369 35.9425 35.6148 37.9583 34.0817 41.6686C33.9104 42.0822 33.6767 42.6052 33.6526 43.0596C33.6457 43.1839 33.6851 43.3063 33.7629 43.4024C34.0016 43.7193 34.4699 43.8579 34.8289 43.9605C36.4258 44.4163 38.1915 44.3832 39.8282 44.2511C42.2526 44.0554 44.6587 43.496 46.9135 42.5654C47.0293 42.5175 47.1446 42.4687 47.2595 42.4191C47.3686 42.372 47.5776 42.2267 47.6869 42.2283C47.8283 42.2301 47.8865 42.417 47.9411 42.5602C48.0962 42.9759 48.1639 43.4391 48.1656 43.8809C48.1682 44.567 47.9294 45.0729 47.4103 45.4937C46.3349 46.3649 44.8463 46.7345 43.5286 47.0119C41.8649 47.3637 40.1569 47.5289 38.4584 47.5359C37.1036 47.541 35.6476 47.4955 34.3583 47.0258C34.0675 46.9199 33.7881 46.7958 33.602 46.5326C33.3752 46.2126 33.2842 45.793 33.2461 45.4074C33.229 45.2336 33.2305 43.4197 33.6683 43.6718C33.8893 43.7987 33.77 44.6282 33.7558 44.8327C33.738 45.1023 33.646 45.4296 33.705 45.6966C33.7639 45.9637 34.0261 46.1309 34.2566 46.2377C35.2072 46.6771 36.3922 46.6939 37.4145 46.7151C38.9653 46.7472 40.5197 46.628 42.0533 46.4018C43.6029 46.1736 45.1641 45.838 46.6204 45.2404C47.6058 44.8361 48.578 44.3098 49.1955 43.4032C49.8311 42.4682 50.2443 41.3724 50.6615 40.3247C51.1834 39.0136 51.6749 37.688 52.2756 36.4115C52.8011 35.2945 53.4103 34.1416 54.3164 33.2926C55.1208 32.5386 56.1387 32.2152 57.2052 32.5383C57.9751 32.771 58.5977 33.2585 59.2508 33.7127C60.2617 34.4146 61.3274 35.0313 62.4372 35.5566C64.3058 36.443 66.2977 37.1006 68.3387 37.4178C69.628 37.6187 71.1201 37.7895 72.3862 37.3607C72.7012 37.2539 73.0551 37.0874 73.2185 36.7744C73.3281 36.5648 73.3078 36.314 73.3218 36.0845C73.3355 35.8598 73.3502 35.6347 73.3813 35.4124C73.4006 35.2748 73.4214 34.9375 73.5391 34.8393C73.8135 34.6105 73.8747 35.2787 73.8811 35.4147C73.8964 35.8058 73.8556 36.1972 73.7601 36.5764C73.6668 36.9543 73.5221 37.355 73.2516 37.6417C73.0319 37.8743 72.7495 37.9576 72.4485 38.0219C71.0832 38.3135 69.587 38.1253 68.2251 37.911C66.5403 37.645 64.8692 37.2195 63.269 36.6154C62.0085 36.1395 60.5683 35.5377 59.6589 34.4838C59.1847 33.9337 59.1082 33.312 59.2648 32.6024C59.353 32.2023 59.485 31.7675 59.7224 31.4312C59.8676 31.2264 59.8818 31.2693 60.0923 31.4038C60.3657 31.5787 60.6429 31.7475 60.924 31.9102C62.907 33.0574 65.0629 33.9063 67.2826 34.4378C68.8589 34.8147 70.5437 35.0993 72.1668 34.9491C72.5718 34.9116 73.0347 34.8599 73.3899 34.6389C73.817 34.3734 73.6802 33.9314 73.6119 33.4886C73.3068 31.5053 72.2293 29.7429 70.6406 28.5576C69.0519 27.3724 67.0371 26.7654 65.0784 27.0842C63.0244 27.4176 61.0729 28.6908 59.9462 30.4729C59.7995 30.7055 59.7082 30.8089 59.4669 30.9201C59.2742 31.0093 59.1184 31.1199 58.9864 31.2918C58.7035 31.6602 58.5631 32.1508 58.4497 32.5952C58.3463 32.9997 58.2532 33.4482 58.3419 33.866C58.3928 34.1059 58.5163 34.2811 58.6518 34.4773C58.8807 34.8082 58.7726 35.2236 58.7886 35.6124C58.8245 36.4802 59.0159 37.3392 59.4072 38.1147C60.2243 39.7324 61.7896 40.7639 63.3478 41.5446C63.328 41.4954 63.3083 41.4463 63.2889 41.3972C62.1648 45.7228 61.0483 50.0506 59.9393 54.3805C59.4308 56.3641 58.925 58.3483 58.4218 60.3333C58.1558 61.3854 57.8624 62.4367 57.6387 63.4992C57.5146 64.0904 57.5624 65.2495 58.4238 65.1994C59.1054 65.1595 59.3777 64.3401 59.5244 63.7848C59.8572 62.5262 60.2009 61.2706 60.5398 60.0135C61.8457 55.1685 63.1378 50.3196 64.4161 45.4668C64.5772 44.8514 64.7374 44.2358 64.8969 43.6201C64.9762 43.3142 65.0552 43.0085 65.1338 42.7029C65.1633 42.5889 65.2523 42.0825 65.2622 42.0753C65.3385 42.0132 65.6309 42.0592 65.7252 42.0582C66.0135 42.0551 66.3018 42.0489 66.5896 42.0308C68.4381 41.9147 70.2694 41.3228 71.6395 40.0111C72.0647 39.5987 72.4389 39.1352 72.7538 38.6307H72.5324C74.2391 40.9397 77.1376 41.96 79.771 42.7052C81.2679 43.1292 82.7859 43.4683 84.2946 43.8447C85.6186 44.1748 86.9603 44.5168 88.2144 45.071C89.2484 45.527 90.3568 46.1865 90.7753 47.3146C90.8363 47.4694 91.0857 47.402 91.026 47.2445Z" fill="white" stroke="white" stroke-width="0.5"/>
<path d="M0.660556 30.4977C2.7068 30.6971 9.2138 28.9626 13.4398 31.5582C11.3344 33.3048 11.5964 34.5028 12.5198 35.712C14.9778 38.912 17.7313 34.4437 14.6583 31.4987C17.3168 29.7401 20.4438 30.8427 22.9731 32.7488C23.0081 32.7732 23.0477 32.7902 23.0895 32.7985C23.1314 32.8069 23.1745 32.8065 23.2161 32.7974C23.2578 32.7884 23.2972 32.7708 23.3317 32.7458C23.3663 32.7207 23.3953 32.6889 23.4169 32.6521C23.4386 32.6154 23.4524 32.5745 23.4575 32.5322C23.4626 32.4898 23.4589 32.4469 23.4466 32.4061C23.4344 32.3652 23.4138 32.3273 23.3862 32.2948C23.3586 32.2623 23.3246 32.2358 23.2863 32.2171C20.4525 30.0733 17.004 29.0251 14.0963 31.0559C11.7085 29.3881 8.58025 29.232 5.76805 29.3586C4.50531 29.4199 3.26348 29.5622 2.03555 29.6593C1.60949 29.6928 0.917228 29.5746 0.534925 29.7278C-0.0814263 29.9896 -0.0868732 30.4257 0.660556 30.4977ZM14.0032 31.9814C16.2447 34.0227 15.0102 37.6409 13.0674 35.2219C12.5702 34.5354 11.9097 33.7121 14.0032 31.9814Z" fill="white"/>
<path d="M102.97 15.8782C100.973 15.384 99.1776 15.762 97.1794 16.5463C94.4126 17.6352 91.9098 19.581 91.0009 22.4396C87.2167 22.278 83.9571 25.1689 83.2606 26.5496C82.6509 27.7684 83.8002 27.8917 83.8564 27.3183C83.9599 26.2631 87.2477 23.0837 90.8081 23.1736C90.1037 26.3008 92.9567 28.1361 94.792 28.0355C96.1631 27.9604 97.7778 25.583 94.6139 23.5503C93.802 23.0347 92.8927 22.6917 91.9425 22.5426C93.3028 18.6664 99.2876 15.3644 103.963 17.1937C104.363 17.3502 104.494 17.537 104.784 17.4021C104.895 17.3501 104.981 17.2564 105.023 17.1414C105.065 17.0263 105.059 16.8994 105.008 16.7883C104.839 16.4095 103.365 15.9738 102.97 15.8782ZM95.4628 26.6274C94.7243 27.7838 92.7079 26.6166 92.0353 25.581C91.6335 24.8632 91.5255 24.0176 91.7339 23.2217C93.5122 23.4849 96.2681 24.9342 95.4628 26.6274Z" fill="white"/>
</svg>
