<svg width="113" height="39" viewBox="0 0 113 39" fill="none" xmlns="http://www.w3.org/2000/svg">
<path d="M112.402 18.9101C111.729 17.3782 110.193 15.9448 108.608 14.5041C107.024 13.0635 105.314 11.6444 103.069 10.3031C99.0291 7.89765 93.3877 5.8406 86.5884 4.29367C79.5343 2.68602 71.3791 1.66241 63.0292 1.12345C55.2694 0.622403 45.9552 0.251483 38.8494 1.67163C35.625 2.31612 33.2828 3.38277 31.2447 4.41355C30.7489 4.66151 30.2652 4.91255 29.7816 5.16359L28.8021 5.36851C25.1883 6.13904 21.8332 6.97821 18.8096 8.00079C15.8407 9.00493 13.2125 10.1249 10.6756 11.253C8.00818 12.4138 5.72157 13.6684 3.85573 14.9949C2.00019 16.3495 1.08156 17.7615 0.485355 19.2308C-0.123018 20.7483 -0.265979 22.278 0.683084 23.7832C1.60666 25.1856 2.98054 26.5499 4.78047 27.8521C8.29991 30.4608 13.5471 32.9537 20.294 34.7222C23.8073 35.6444 27.5945 36.5102 31.5824 37.1711C35.3725 37.7972 39.4608 38.1845 43.6038 38.4335C47.8411 38.6886 52.2184 38.8546 56.4922 38.6169C58.7645 38.4908 60.9789 38.207 63.2056 38.0144C65.4322 37.8218 67.7684 37.8371 70.0437 37.666C71.5553 37.5364 73.0325 37.365 74.4605 37.1537C75.0322 37.1291 75.593 37.0813 76.1305 37.0113C76.3288 36.9856 76.4916 36.9359 76.5868 36.8719C78.5153 36.627 80.4591 36.3965 82.342 36.1116C84.304 35.8145 86.3968 35.6731 88.3193 35.3339C90.2417 34.9948 92.2037 34.6239 94.0653 34.2366C97.5817 33.506 100.289 32.5244 102.643 31.3901C105.162 30.1759 107.605 28.8511 109.445 27.5047C113.056 24.8458 113.658 21.7719 112.402 18.9101ZM11.5091 29.7025C10.4243 29.0091 9.56357 28.2785 8.94176 27.5232C9.89386 28.1984 11.4878 28.9474 11.5091 29.7025ZM1.79337 20.6509C2.15231 18.3701 3.71279 16.1948 6.96455 14.1875C10.0673 12.2766 14.2255 10.5142 18.5814 8.91067C20.3859 8.25118 22.3496 7.6432 24.4522 7.09297C22.7762 7.69238 21.1761 8.32253 19.5852 8.91682C16.5478 10.0448 13.8516 11.2719 11.5364 12.5799C9.24304 13.8552 7.28572 15.1958 5.68694 16.5862C4.10821 18.0074 3.73713 19.5279 3.99873 21.0331C4.24519 22.3878 4.95142 23.7286 6.10367 25.0292C6.10367 25.0794 6.10367 25.1317 6.10367 25.1808C6.14017 26.4518 6.89376 27.7088 8.32425 28.8849C4.15081 26.3879 1.34314 23.5219 1.79638 20.6509H1.79337ZM25.0454 7.66062L24.5191 7.93727C22.0857 9.20576 19.6765 10.4855 17.5745 11.8237C15.4726 13.1619 13.9243 14.5902 12.4034 16.0247C9.74782 18.4941 7.17137 20.9624 6.36831 23.564C5.98808 22.9184 5.70216 22.2658 5.50748 21.6172C5.06945 20.1376 5.32497 18.6519 6.60863 17.2256C7.88013 15.8157 10.1615 14.4478 12.3091 13.1711C14.4929 11.8919 17.055 10.6904 19.9563 9.58487C21.599 8.93526 23.2902 8.28462 25.0484 7.66062H25.0454ZM54.0557 38.0728C49.5963 38.2029 44.8632 37.917 40.5346 37.5717C36.2053 37.2197 32.0736 36.6339 28.3002 35.837C26.326 35.4272 24.367 34.9938 22.4963 34.5234C27.2234 35.5645 32.5557 36.3565 37.7391 36.9242C42.0616 37.4093 46.5562 37.6991 51.1051 37.7859C54.0006 37.8185 56.8992 37.7746 59.7744 37.6547C57.8976 37.8371 56.0329 38.0113 54.0587 38.0728H54.0557ZM110.996 22.1151C110.836 23.6423 109.95 25.1509 108.371 26.5836C106.811 28.0006 104.189 29.3255 101.761 30.5889C99.3338 31.8522 96.4532 32.926 92.5931 33.7273C90.8653 34.0869 89.0493 34.4107 87.2698 34.7417C85.2318 35.1208 82.926 35.2796 80.8119 35.6024C78.6978 35.9251 76.5533 36.1536 74.4423 36.4375C73.9039 36.5102 73.3685 36.5819 72.8331 36.6506C71.5008 36.6752 70.1198 36.6506 68.8787 36.6916C66.3935 36.7694 63.9144 36.8842 61.4352 36.9836C56.5682 37.1793 51.683 37.291 46.81 37.0338C37.9064 36.5676 29.4439 35.3442 22.0127 33.6443C17.8764 32.7024 14.4413 31.4516 11.9745 29.9894C12.1109 29.9909 12.2437 29.9745 12.3451 29.9438C12.4466 29.9131 12.5088 29.8703 12.519 29.8245C12.6741 29.2425 11.9319 28.7527 11.2018 28.2424C10.2011 27.5436 9.28243 26.8315 8.46417 26.1051C8.27354 25.9316 8.09004 25.7567 7.91361 25.5804C7.66113 24.2208 8.3638 22.8139 9.08472 21.4993C9.94557 19.9306 11.6916 18.4254 13.2947 16.9284C14.9251 15.4109 16.4491 13.8914 18.6057 12.4467C20.6255 11.0962 23.0256 9.81338 25.456 8.54385C27.1067 7.67975 28.7534 6.81426 30.396 5.94742C33.3355 5.14574 36.6264 4.50249 40.1513 4.04058C41.7993 3.83268 43.4861 3.66154 45.2008 3.52826C45.6267 3.49855 46.0525 3.46986 46.4814 3.44527C47.5461 3.3838 48.6107 3.38482 49.6875 3.33257C50.3993 3.29773 51.0929 3.24957 51.7955 3.2301C52.1849 3.2301 52.5743 3.21985 52.9667 3.21882C54.0709 3.21882 54.0587 2.66347 52.9667 2.644C52.1856 2.63313 51.4032 2.6441 50.6275 2.6768C48.3478 2.73464 46.0886 2.86222 43.8776 3.05796C42.6693 3.16073 41.4774 3.28418 40.3064 3.42785L40.1634 3.4463C37.7582 3.74106 35.4199 4.09447 33.1672 4.50372C35.1657 3.51802 37.4653 2.60097 40.6197 2.01693C44.5164 1.29968 49.2404 1.25666 53.569 1.33453C57.9558 1.41825 62.309 1.64228 66.5699 2.00361C75.0689 2.72085 83.2089 4.02214 89.9497 5.91669C96.6905 7.81124 101.603 10.3523 104.952 13.0891C108.545 15.9981 111.322 18.9295 110.999 22.1151H110.996Z" fill="#C58A46"/>
</svg>
