<svg width="26" height="29" viewBox="0 0 26 29" fill="none" xmlns="http://www.w3.org/2000/svg">
<path d="M18.78 11.26C18.4067 11.3533 17.9867 11.54 17.52 11.82C17.0533 12.0067 16.7267 12.1467 16.54 12.24C16.6333 12.4267 16.82 12.52 17.1 12.52C17.38 12.52 17.5667 12.6133 17.66 12.8C18.6867 12.3333 19.4333 12.1467 19.9 12.24C19.9 12.1467 19.8067 12.0533 19.62 11.96C19.5267 11.7733 19.5267 11.6333 19.62 11.54H20.18C19.9933 11.7267 19.9467 11.82 20.04 11.82C20.2267 11.54 20.5533 11.3533 21.02 11.26C21.58 11.1667 21.9533 11.0267 22.14 10.84C22.14 10.7467 22.0467 10.6533 21.86 10.56C21.7667 10.4667 21.72 10.3733 21.72 10.28C21.8133 10.1867 21.9533 10.14 22.14 10.14C22.3267 10.0467 22.4667 10 22.56 10C22.7467 9.90667 22.84 9.81333 22.84 9.71999C22.9333 9.71999 22.98 9.76666 22.98 9.86C23.0733 9.95333 23.0733 10.0933 22.98 10.28C23.26 10.28 23.4933 10.2333 23.68 10.14C23.4 9.85999 23.26 9.62666 23.26 9.44C23.4467 9.44 23.68 9.44 23.96 9.44C24.24 9.34667 24.4733 9.3 24.66 9.3C24.8467 9.3 24.9867 9.25333 25.08 9.15999C25.2667 9.34666 25.4533 9.44 25.64 9.44C25.5467 9.72 25.5 10.0933 25.5 10.56C25.5 10.7467 25.3133 11.0267 24.94 11.4C22.3267 12.7067 20.6933 13.5933 20.04 14.06C20.1333 14.1533 20.32 14.34 20.6 14.62C20.88 14.9 21.16 15.0867 21.44 15.18C21.5333 15.2733 21.58 15.4133 21.58 15.6C21.6733 15.6 21.7667 15.6933 21.86 15.88C22.0467 15.9733 22.2333 16.02 22.42 16.02C22.3267 16.6733 22.3267 17.4667 22.42 18.4C22.6067 19.24 22.6533 19.8933 22.56 20.36C22.28 20.36 22.14 20.4533 22.14 20.64C22.0467 20.64 22 20.64 22 20.64C21.9067 20.64 21.86 20.6867 21.86 20.78C21.3 20.4067 20.6 19.8 19.76 18.96C19.8533 18.96 19.9467 18.96 20.04 18.96L20.32 19.1C20.1333 18.82 19.9467 18.68 19.76 18.68C19.2933 18.68 18.5 18.4 17.38 17.84C16.3533 17.1867 15.56 16.8133 15 16.72C14.5333 17.84 14.3 19.24 14.3 20.92C13.8333 21.8533 13.5533 23.2067 13.46 24.98C13.3667 26.7533 13.18 28.0133 12.9 28.76C12.34 28.6667 11.78 28.4333 11.22 28.06V26.8C11.0333 26.8 10.8933 26.8933 10.8 27.08C10.8 27.1733 10.8 27.3133 10.8 27.5C10.8933 27.6867 10.94 27.8267 10.94 27.92C10.5667 27.5467 10.2867 27.1733 10.1 26.8C9.91333 26.3333 9.82 25.7733 9.82 25.12C9.82 24.4667 9.82 23.9533 9.82 23.58C9.91333 23.1133 10.0533 22.46 10.24 21.62C10.4267 20.6867 10.5667 20.0333 10.66 19.66C10.2867 19.8467 9.82 20.1733 9.26 20.64C8.79334 21.1067 8.46667 21.3867 8.28 21.48C8.28 21.5733 8.32667 21.6667 8.42 21.76C8.51334 21.76 8.51334 21.8067 8.42 21.9C8.23333 22.2733 7.95333 22.3667 7.58 22.18C7.48667 22.2733 7.34667 22.4133 7.16 22.6C6.97333 22.6933 6.83333 22.7867 6.74 22.88C6.64667 22.88 6.50667 22.8333 6.32 22.74C5.66667 24.14 4.59333 24.6533 3.1 24.28C3.00667 24.0933 2.72667 23.02 2.26 21.06C2.44667 20.6867 2.77333 20.1733 3.24 19.52C3.8 18.8667 4.17333 18.3067 4.36 17.84C4.54667 17.7467 4.78 17.7 5.06 17.7C5.43333 17.42 6.08667 17 7.02 16.44C8.04667 15.7867 8.79334 15.2733 9.26 14.9C9.07333 14.9 8.60667 14.8067 7.86 14.62C7.11333 14.34 6.55333 14.2 6.18 14.2C5.99333 14.0133 5.38667 13.92 4.36 13.92C3.42667 13.8267 2.91333 13.5933 2.82 13.22C2.63333 13.3133 2.4 13.3133 2.12 13.22C1.93333 13.1267 1.79333 13.08 1.7 13.08C1.14 12.0533 1.09333 10.98 1.56 9.86C2.12 8.64667 2.86667 7.94666 3.8 7.75999C4.54667 8.04 5.9 8.50666 7.86 9.15999C9.82 9.72 11.2667 10.1867 12.2 10.56C12.3867 10.0933 12.5733 9.20667 12.76 7.9C12.9467 6.5 13.1333 5.56666 13.32 5.09999L13.18 4.96C13.0867 4.86666 12.9933 4.77333 12.9 4.68C13.18 4.21333 13.32 3.79333 13.32 3.42C13.4133 3.04667 13.4133 2.58 13.32 2.01999C13.2267 1.36666 13.18 0.899996 13.18 0.619994C14.3933 0.24666 15.28 0.526662 15.84 1.46H16.54C16.7267 1.46 16.8667 1.55333 16.96 1.74C17.1467 1.83333 17.2867 2.02 17.38 2.3C17.5667 2.48666 17.7067 2.62666 17.8 2.71999C17.6133 3.65333 17.2867 5.00667 16.82 6.78C16.4467 8.55333 16.1667 10 15.98 11.12C20.0867 8.97333 22.84 7.66666 24.24 7.19999C24.3333 7.10666 24.4267 7.01333 24.52 6.92C24.8 7.10666 25.08 7.71333 25.36 8.74C25.2667 8.92666 25.0333 9.06666 24.66 9.15999C24.38 9.15999 24.1933 9.11333 24.1 9.01999L24.24 8.88C24.3333 8.78666 24.4267 8.74 24.52 8.74C24.4267 8.64667 24.2867 8.6 24.1 8.6C23.9133 8.6 23.82 8.69333 23.82 8.88C23.7267 8.88 23.68 8.83333 23.68 8.74C23.68 8.64667 23.7267 8.6 23.82 8.6C23.7267 8.6 23.54 8.69333 23.26 8.88C22.98 9.16 22.84 9.20666 22.84 9.01999C22.6533 9.20666 22.56 9.39333 22.56 9.58C22.4667 9.48666 22.3733 9.44 22.28 9.44C22.28 9.34667 22.2333 9.3 22.14 9.3C21.86 9.58 21.02 9.95333 19.62 10.42C19.5267 10.6067 19.48 10.7933 19.48 10.98C19.3867 10.98 19.34 10.9333 19.34 10.84C19.34 10.7467 19.34 10.6533 19.34 10.56C19.1533 10.6533 19.06 10.7467 19.06 10.84C19.06 11.0267 19.0133 11.12 18.92 11.12C18.8267 11.12 18.78 11.1667 18.78 11.26ZM22.42 10.56C22.6067 10.56 22.7 10.42 22.7 10.14C22.3267 10.3267 22.2333 10.4667 22.42 10.56ZM23.12 9.3C23.12 9.20666 23.2133 9.15999 23.4 9.15999C23.3067 9.25333 23.2133 9.3 23.12 9.3ZM21.16 10.7C21.2533 10.7933 21.2067 10.9333 21.02 11.12C20.9267 11.2133 20.7867 11.2133 20.6 11.12C20.6 10.9333 20.6933 10.84 20.88 10.84C21.0667 10.84 21.16 10.7933 21.16 10.7ZM18.78 11.26C18.9667 11.26 18.9667 11.3533 18.78 11.54H18.64C18.7333 11.4467 18.78 11.3533 18.78 11.26ZM18.64 11.68H18.78V11.82H18.64V11.68Z" fill="#C58A46"/>
</svg>
