<svg width="97" height="85" viewBox="0 0 97 85" fill="none" xmlns="http://www.w3.org/2000/svg">
<path d="M40.3559 14.1771C40.504 8.89606 36.2675 4.77458 31.3254 3.13832C25.6924 1.27204 19.7436 3.52961 15.3813 7.03215C10.4466 10.9947 6.82457 17.0655 6.08683 23.2121C5.43791 28.6212 8.12734 34.9481 13.6962 37.0159C16.3362 37.9977 19.6178 37.7819 21.345 35.3915C21.4033 35.297 21.4381 35.1907 21.4465 35.081C21.4549 34.9714 21.4368 34.8613 21.3935 34.7595C21.3503 34.6577 21.283 34.567 21.1971 34.4943C21.1112 34.4217 21.0089 34.3693 20.8984 34.341C13.9898 32.8044 9.35855 38.8727 6.84925 44.1348C4.23632 49.6175 1.52963 55.7546 2.1292 61.9202C2.68929 67.678 6.9726 71.6761 12.5735 73.2294C15.3641 74.0048 18.3446 74.1613 21.2315 74.0214C24.059 73.8863 27.0297 73.3812 29.127 71.4129C31.4019 69.2787 31.0466 64.6924 27.691 63.7865C27.5516 63.7517 27.4043 63.7611 27.271 63.8132C27.1376 63.8653 27.0253 63.9575 26.9508 64.0759C23.8814 68.6313 25.0016 74.6214 28.5101 78.6314C32.3987 83.0777 38.9273 84.7685 44.7601 84.5599C50.5535 84.363 56.6257 82.0154 60.2157 77.505C63.6379 73.2057 64.7827 67.4266 62.5498 62.3779L61.437 63.0016C65.0837 67.8179 70.28 71.6097 76.3916 72.9377C79.2069 73.5606 82.1412 73.4814 84.9157 72.7078C87.6903 71.9341 90.213 70.4917 92.2444 68.5175C96.3056 64.6236 97.6874 59.0532 95.4347 53.95C94.2207 51.1992 91.9952 48.9179 89.6833 46.9853C87.3713 45.0526 84.7485 43.191 81.8913 42.0409C79.7497 41.1777 77.3638 41.0212 75.3084 42.1547C75.236 42.1962 75.1744 42.253 75.128 42.3207C75.0817 42.3884 75.052 42.4653 75.0411 42.5457C75.0301 42.626 75.0383 42.7077 75.0649 42.7846C75.0916 42.8614 75.1361 42.9315 75.195 42.9895C78.9133 46.2596 84.6721 45.7996 88.5187 42.9776C93.0808 39.6316 93.5546 33.3996 91.5585 28.5857C89.2638 23.0556 83.6629 19.7143 77.872 18.2702C73.4308 17.158 64.7235 16.4442 64.7186 22.9276C64.7186 25.7305 67.4869 26.6008 69.937 26.4419C72.7029 26.2617 75.718 25.8349 77.8745 24.035C82.4292 20.2408 78.3458 13.6009 74.9852 10.556C70.2479 6.27567 63.7168 3.39445 57.1685 3.42765C54.3207 3.46107 51.524 4.15904 49.0191 5.46151C46.5141 6.76398 44.376 8.63193 42.7887 10.9046C41.5298 12.7488 40.78 14.8706 40.61 17.0702C40.5508 17.8219 41.7697 17.8172 41.8289 17.0702C42.3224 10.9544 47.5853 6.3563 53.5464 4.92398C60.5463 3.24504 67.9632 6.37054 73.2852 10.5963C75.718 12.5267 77.7265 15.064 78.4889 18.0449C79.3598 21.4573 77.1639 23.9306 73.8404 24.7867C71.1608 25.4768 65.5501 26.4775 65.8165 22.3584C66.0633 18.5642 70.9684 18.2915 73.9045 18.5855C82.4835 19.4487 91.2821 24.8081 91.6152 33.8217C91.7608 37.7487 89.7795 41.3674 86.1327 43.1792C82.9252 44.7727 78.7035 44.6423 75.9771 42.2306L75.8636 43.0653C78.9059 41.3912 82.3848 43.2195 84.9681 44.8913C87.5305 46.5099 89.8543 48.4529 91.8767 50.668C93.8728 52.9066 95.2545 55.6764 95.3828 58.6501C95.4963 61.3084 94.4107 63.8672 92.839 66.0014C89.365 70.7205 83.3076 72.7954 77.4822 71.8777C71.4298 70.9291 66.1028 67.0614 62.5547 62.3921C62.4686 62.2503 62.3275 62.1472 62.1623 62.1054C61.9971 62.0636 61.8214 62.0865 61.6739 62.1693C61.5263 62.252 61.419 62.3876 61.3755 62.5464C61.332 62.7051 61.3559 62.874 61.4419 63.0158C63.512 67.6898 62.2118 73.1654 58.9746 77.0378C55.5721 81.1071 50.06 83.0611 44.7675 83.322C39.4233 83.5852 33.7755 82.0059 29.9634 78.2923C26.3636 74.785 25.2409 68.9467 28.0981 64.7185L27.3579 65.0078C30.072 65.7429 29.5316 69.2763 27.9476 70.756C25.7739 72.7954 21.9495 72.8073 19.1194 72.7883C13.2372 72.748 6.76782 70.7963 4.33254 65.1596C1.91454 59.5607 4.46578 52.9303 6.76535 47.7038C9.08466 42.4369 13.025 34.0328 20.5209 35.733L20.0767 34.6825C18.3767 37.0231 14.841 36.2144 12.7141 34.9789C10.227 33.53 8.6282 30.9476 7.84358 28.3177C6.01034 22.1711 9.35855 15.4055 13.3902 10.7528C17.074 6.50806 22.5959 3.1644 28.5398 3.75488C34.0025 4.29318 39.364 8.68025 39.3344 14.189C39.3344 14.8364 40.3608 14.834 40.3781 14.189L40.3559 14.1771Z" fill="#ADBBC4"/>
<path d="M40.6195 14.1534C39.9928 8.99563 36.2473 4.76271 31.5939 2.3605C26.6888 -0.172145 21.0015 -0.248029 15.9385 1.88622C5.32891 6.35865 -0.523649 20.4162 6.05432 30.1247C9.4642 35.1591 17.0908 37.476 22.482 33.9426C22.5814 33.8832 22.6635 33.8004 22.7204 33.7021C22.7773 33.6038 22.8071 33.4931 22.8071 33.3806C22.8071 33.2681 22.7773 33.1574 22.7204 33.0591C22.6635 32.9607 22.5814 32.8779 22.482 32.8186C17.261 29.1334 10.7793 36.2571 7.92458 39.762C3.86578 44.7585 0.877807 51.0948 0.594061 57.4881C0.477123 60.378 1.21468 63.2407 2.72127 65.7442C4.22785 68.2478 6.44177 70.2897 9.10643 71.6334C14.3126 74.3036 20.74 73.4902 25.4181 70.194C26.7811 69.2435 27.9342 68.0425 28.8107 66.6606C29.1488 66.1294 28.3173 65.4749 27.8953 65.9824C24.3004 70.3173 18.7341 72.8096 12.9555 71.5789C7.32995 70.3813 3.06882 65.6955 2.12382 60.3266C1.03819 54.161 4.11251 47.4334 7.58161 42.4084C9.27485 40.0112 11.2751 37.8282 13.5353 35.9109C15.6523 34.0802 19.1757 32.0123 21.8898 33.9426V32.8186C19.1757 34.4785 16.1606 34.6564 13.2294 33.7932C10.1279 32.8778 7.76173 30.6416 6.29366 27.924C3.31063 22.4034 4.47768 15.4814 7.74199 10.3568C10.8977 5.40061 16.4542 1.73444 22.5658 1.40482C28.4357 1.08943 34.3055 4.1414 37.555 8.7822C38.6836 10.4467 39.4507 12.3131 39.8102 14.2696C39.8965 14.7012 40.6688 14.6063 40.6145 14.1629L40.6195 14.1534Z" fill="#ADBBC4"/>
<path d="M40.0048 14.7696C41.3495 9.18025 36.9329 4.09837 31.6577 2.40757C25.7089 0.510464 18.8423 2.50481 14.0038 6.03106C11.5216 7.81567 9.52201 10.1474 8.1733 12.8299C6.82459 15.5123 6.16628 18.467 6.25381 21.4451C6.33527 24.5104 7.36615 27.4828 9.21464 29.9821C10.005 31.0224 11.0364 31.8716 12.2273 32.4625C13.5251 33.1075 15.0129 33.2901 16.3527 33.8356C16.9873 34.0959 17.558 34.4812 18.028 34.9667C18.45 35.4007 19.1852 34.841 18.8743 34.3383C17.7097 32.4412 15.3287 32.2254 13.3524 31.5424C10.431 30.5346 8.87168 27.4138 8.07966 24.7413C6.35251 18.9669 8.49171 12.7634 12.7676 8.55894C16.8634 4.52758 22.9356 2.31033 28.7734 2.86761C34.8233 3.45571 40.1602 8.4546 39.2201 14.5491C39.1461 15.0233 39.8789 15.2605 39.9998 14.7554L40.0048 14.7696Z" fill="#ADBBC4"/>
<path d="M60.9252 61.8821C63.5628 66.5561 68.5913 69.4373 74.0022 70.1084C79.7141 70.8198 85.1991 68.3299 88.7397 64.0661C92.2804 59.8024 93.4869 54.1063 91.6635 48.9367C89.8945 43.9188 85.4507 39.9254 80.2175 38.365C79.4426 38.1456 78.6504 37.987 77.8488 37.8908C77.7227 37.8617 77.5898 37.8798 77.4771 37.9415C77.3643 38.0031 77.2803 38.1037 77.2419 38.2228C76.7484 39.7001 77.4886 41.1846 78.779 42.0573C80.2422 43.0485 81.957 43.2122 83.6742 42.8398C87.168 42.081 89.6576 38.7682 89.8944 35.453C90.1658 31.6588 87.5505 28.1633 84.4293 26.1121C80.516 23.5391 75.4728 23.3921 70.9254 23.7621C70.3703 23.8071 70.1531 24.675 70.7823 24.7628C75.606 25.4505 78.9641 20.7101 78.4015 16.4819C77.7304 11.4308 72.8426 7.77891 68.2854 5.94583C58.6948 2.09232 45.8571 6.13078 41.8008 15.7183C41.5836 16.2305 42.4324 16.5412 42.7063 16.0858C45.0059 12.2916 47.8483 9.19698 51.9786 7.20027C56.2595 5.13005 61.2312 4.88579 65.8131 6.09757C70.3357 7.28326 74.8781 10.3068 76.7237 14.5706C77.6045 16.6076 77.6268 18.8248 76.5288 20.7741C75.4308 22.7234 73.2151 24.0016 70.9945 23.7549V24.7746C77.6564 23.9826 85.9121 25.5762 88.414 32.4745C88.9539 33.9621 88.9792 35.5775 88.4861 37.08C87.993 38.5825 87.0079 39.8916 85.6777 40.8123C84.497 41.6505 83.0504 42.0695 81.5844 41.998C79.7931 41.9197 77.5281 40.3902 78.1967 38.4623L77.5873 38.7942C82.9266 39.546 87.4345 42.9157 89.8574 47.5044C92.3815 52.2851 91.6265 57.8768 88.6484 62.2852C87.1878 64.4588 85.162 66.2283 82.7716 67.4186C80.3811 68.609 77.7087 69.1789 75.0188 69.0721C69.6251 68.8563 64.4758 65.8636 61.6728 61.4576C61.6074 61.3795 61.5149 61.3266 61.4123 61.3087C61.3097 61.2907 61.2037 61.3089 61.1139 61.3598C61.024 61.4108 60.9563 61.4911 60.923 61.5861C60.8897 61.6812 60.8931 61.7845 60.9326 61.8773L60.9252 61.8821Z" fill="#ADBBC4"/>
</svg>
