<svg width="162" height="108" viewBox="0 0 162 108" fill="none" xmlns="http://www.w3.org/2000/svg">
<path d="M149.256 102.949C152.116 102.455 154.412 100.606 156.118 98.4145C157.753 96.3134 158.657 93.772 158.702 91.1508C158.67 90.0704 158.218 89.0406 157.434 88.2645C157.068 87.8682 156.625 87.5352 156.24 87.1475C155.553 86.4579 155.474 85.3311 155.322 84.4325C154.988 82.4533 154.012 81.0982 152.686 80.2605C152.185 79.5796 151.538 79.0095 150.788 78.5887C144.952 75.4062 139.305 80.04 138.601 85.6172C136.715 86.3795 134.526 85.9972 132.631 86.9042C131.175 87.5991 130.073 89.0577 129.297 90.3849C127.734 93.058 127.323 96.7162 128.561 99.5706C129.961 102.771 133.43 104.739 136.9 105.337C140.571 105.975 142.906 103.867 145.307 101.683C146.034 102.857 147.62 103.232 149.256 102.949ZM155.816 88.7164C157.661 90.4059 157.364 92.3259 156.58 94.482C155.883 96.3614 154.717 98.0483 153.184 99.395C152.729 99.7522 152.239 100.067 151.723 100.337C152.255 99.8261 152.7 99.239 153.043 98.5964C154.277 96.3523 154.701 93.6914 155 91.2012C155.131 90.1612 155.198 89.1148 155.202 88.0674C155.389 88.2988 155.594 88.5158 155.816 88.7164ZM145.116 97.8945C143.108 98.6365 142.117 100.7 140.015 101.426C137.381 102.333 134.387 101.949 132.487 99.9096C128.286 95.4082 134.138 85.7885 139.975 90.4661C140.598 90.9704 141.717 90.2949 141.18 89.5667C140.485 88.6946 140.112 87.6263 140.117 86.5287C140.148 86.478 140.171 86.4241 140.188 86.3681C140.315 85.8921 140.418 85.4102 140.494 84.9244C142.062 81.4234 148.117 79.3313 151.591 81.3491C152.096 82.1155 152.469 82.9544 152.697 83.8339C153.266 85.8715 153.423 88.7547 152.007 90.5234C151.595 91.0251 152.109 91.8343 152.773 91.4656L153.201 91.225C153.322 91.1644 153.417 91.0632 153.466 90.9405C153.515 90.8178 153.516 90.682 153.469 90.5588C153.576 90.3805 153.673 90.197 153.76 90.0089C153.607 92.0226 153.23 94.0149 152.635 95.9518C152.18 97.41 151.389 99.5087 149.676 99.9613C147.579 100.529 147.296 97.0922 145.116 97.8945ZM148.087 79.2085C146.081 79.3153 144.134 79.9006 142.422 80.9114C143.153 80.2105 144.049 79.6897 145.035 79.3933C146.021 79.0969 147.067 79.0339 148.083 79.2095L148.087 79.2085ZM130.246 99.137C129.069 96.8527 129.532 93.8574 130.569 91.6202C131.131 90.4021 132.01 89.3434 133.122 88.5462C134.498 87.5671 136.373 87.7097 137.998 87.4894C138.152 87.4498 138.357 87.4326 138.574 87.3808C138.608 87.6212 138.661 87.8589 138.731 88.092C133.855 86.3994 129.414 91.3953 129.642 96.5272C129.687 97.4842 129.923 98.4239 130.336 99.2959L130.246 99.137ZM146.532 100.264C146.54 100.106 146.498 99.949 146.409 99.8152C146.321 99.6814 146.192 99.5773 146.039 99.5171C145.887 99.4569 145.718 99.4436 145.557 99.4792C145.397 99.5148 145.251 99.5974 145.141 99.7156C142.873 101.696 140.997 103.986 137.645 103.781C136.446 103.691 135.278 103.368 134.213 102.832C136.778 103.731 140.452 103.494 142.57 101.746C143.146 101.269 145.418 98.4615 146.191 99.4853C146.907 100.428 147.459 101.074 148.697 101.317C148.906 101.355 149.119 101.373 149.331 101.371C147.859 101.814 146.557 101.761 146.528 100.265L146.532 100.264Z" fill="#ADBBC4"/>
<path d="M116.761 15.9344C115.002 14.7298 113.1 13.7315 111.094 12.9606C105.832 10.7082 100.18 9.418 94.4262 9.15625C91.418 9.01294 88.4157 9.53691 85.6519 10.6875C85.3913 7.33652 81.5913 4.21058 78.7776 2.83149C74.7632 0.862725 69.7691 0.422035 65.3259 0.47593C64.8212 0.47593 64.3165 0.510836 63.8151 0.54888C61.6516 0.477673 59.4858 0.591176 57.3432 0.888086C51.6742 1.64376 46.1965 3.3886 41.18 6.03667C39.3394 7.01313 35.2425 8.72193 34.5498 11.1092C32.6531 9.47012 30.2286 8.47463 27.8107 7.76765C26.7647 7.45936 25.6963 7.22625 24.6144 7.0702C22.048 5.72281 19.0826 4.8066 16.1534 5.21875C13.5904 5.57699 10.7668 7.33652 8.96905 9.06751C7.1713 10.7985 6.52807 13.2111 6.2279 15.5888C5.83207 18.6957 5.61436 21.5871 6.32356 24.6718C6.32356 24.8747 6.35325 25.0744 6.36974 25.2773C5.35377 29.5572 5.9904 34.2144 8.53363 37.9934C8.89978 38.5356 9.92894 38.1963 9.66835 37.5337C9.26592 36.5065 9.3121 35.4445 9.17686 34.3634C9.04162 33.2823 8.63259 32.1442 8.39839 31.0758L8.32912 30.7588C8.38849 30.8951 8.44457 31.0346 8.50394 31.1709C8.85433 32.3441 9.27506 33.4969 9.76401 34.6234C10.15 35.5111 10.6546 36.5604 11.4133 37.2104C11.6539 37.3917 11.9124 37.55 12.1852 37.6828C12.3765 38.0188 12.5546 38.3612 12.7724 38.6782L11.8125 39.1094C4.63797 39.1316 1.10845 46.1665 1.42842 52.5452C1.34265 52.9542 1.26679 53.36 1.20081 53.7721C1.15793 54.0606 1.11835 54.3491 1.08536 54.6408C0.910538 55.3674 0.779474 56.103 0.692826 56.8441C-0.141723 64.1358 3.89578 71.7605 10.3017 75.6853C13 77.3402 17.2288 79.3438 20.5274 78.7922C21.3059 78.6622 21.9854 78.2786 22.7342 78.063C23.3939 77.8728 24.1823 78.919 24.5385 79.2963C24.7496 79.515 24.9475 79.7433 25.1422 79.9715C25.1817 80.0445 25.2213 80.1174 25.2642 80.1903C25.3246 80.3953 25.4064 80.5939 25.5083 80.7832C26.5606 82.6853 27.758 84.5019 28.7508 86.4232C29.6201 88.1364 30.85 89.6575 32.3628 90.8901C35.1501 93.1093 38.8215 94.3014 42.3312 94.9196C49.796 96.2321 57.3003 93.55 62.7397 88.6233C65.659 85.9825 67.625 82.6441 69.2413 79.16C69.3007 79.0331 69.3568 78.9032 69.4161 78.7732C70.6106 77.5455 71.7036 76.23 72.6851 74.8388C73.5742 73.5533 74.3467 72.1967 74.9941 70.784C75.954 72.0775 77.6033 73.0539 79.2823 73.7958C81.4231 75.7836 83.6299 77.4163 86.7273 77.9426C90.4019 78.5766 94.2415 77.6446 97.6292 76.3035C104.586 73.5517 109.992 68.2002 112.143 61.216C113.238 57.567 113.123 53.6808 111.813 50.0977C111.737 49.8853 111.658 49.6697 111.576 49.4636C114.848 50.0406 118.503 49.7426 121.514 48.4587C124.12 47.3427 125.522 45.2883 126.159 42.8757C126.311 42.7331 126.456 42.5872 126.601 42.4414C135.827 33.0763 125.684 21.6188 116.761 15.9344ZM104.081 12.279L104.269 12.3297C109.705 13.8134 114.686 16.0929 119.04 19.4059C120.991 21.4174 122.32 23.9118 122.877 26.6088C120.238 22.3194 116.28 18.7306 111.523 16.8474C107.786 15.3701 103.56 15.2623 99.5952 15.6237C97.719 15.811 95.8548 16.0957 94.0106 16.4765C91.5235 16.9711 89.2969 17.9222 86.7306 17.2691C86.2688 17.1518 85.8202 17.0281 85.3715 16.9203C86.0749 16.4396 86.8086 16.0013 87.5684 15.6079C88.9173 14.8265 90.3203 14.1348 91.7675 13.5376C94.4026 12.5338 97.2093 12.0113 100.044 11.9969C101.395 11.9848 102.746 12.0791 104.081 12.279ZM81.3208 10.4688C79.1668 7.1114 74.8556 5.87181 71.0721 5.07923C66.1786 4.11294 61.1513 3.94042 56.1986 4.56882C54.6864 4.74789 53.1938 5.05665 51.7389 5.49139C55.4366 3.45288 59.4741 2.02939 63.7293 1.62993C67.629 1.80546 71.434 2.84261 74.849 4.66077C76.8611 5.73867 78.5071 7.16214 80.1267 8.70292C81.2714 9.78082 82.5347 10.9602 84.0488 11.5562C83.3256 12.1144 82.6625 12.7411 82.0696 13.4267C81.8915 13.6137 80.6149 12.3234 79.9783 11.6862C80.1224 11.728 80.2762 11.728 80.4203 11.6862L80.8195 11.5879C80.9375 11.5578 81.047 11.5025 81.1396 11.4259C81.2322 11.3494 81.3055 11.2536 81.3541 11.1459C81.4027 11.0382 81.4252 10.9213 81.42 10.8041C81.4148 10.6868 81.382 10.5721 81.3241 10.4688H81.3208ZM79.5231 11.2455C78.8474 10.6946 78.1158 10.2102 77.3394 9.79983C74.089 8.03034 70.5843 6.73233 66.9389 5.94789C68.0142 6.0652 69.0863 6.22057 70.1484 6.41396C73.3745 7.00681 77.4054 7.9991 79.5066 10.6368C79.4321 10.8347 79.4392 11.0525 79.5264 11.2455H79.5231ZM76.3102 3.0027C78.2995 3.61342 80.1087 4.67085 81.588 6.08741C82.7524 7.21921 84.184 8.86143 84.4644 10.5258C82.5083 9.7618 80.9811 7.90715 79.5165 6.54391C77.6751 4.90061 75.5556 3.57119 73.2491 2.61276C72.5652 2.31897 71.878 2.05792 71.1875 1.82966C72.9278 2.07528 74.6428 2.46456 76.3135 2.99318L76.3102 3.0027ZM38.6368 8.43976C40.164 7.53305 41.7968 6.7373 43.4099 5.98276C47.684 4.01709 52.2442 2.6873 56.9342 2.03891C54.7427 2.81112 52.6284 3.7725 50.6173 4.91123C48.9311 5.82269 47.3375 6.88411 45.8574 8.08155C45.1548 8.5032 44.4687 8.95971 43.8057 9.45111C41.7276 10.9887 38.8578 12.9163 37.9573 15.4747C37.3668 14.0417 36.1199 12.6658 35.1765 11.7084L35.1073 11.6386C35.4338 10.1961 37.4988 9.10872 38.6401 8.43027L38.6368 8.43976ZM34.9489 13.0145C35.7179 13.79 36.3517 14.6796 36.8258 15.6491L36.5257 15.4494C36.2552 15.0214 36.0111 14.5807 35.767 14.2193C35.4832 13.805 35.1512 13.4231 34.7774 13.0811C34.8431 13.076 34.9049 13.0491 34.9522 13.005L34.9489 13.0145ZM33.3755 13.2143C33.709 13.4845 34.017 13.7827 34.2958 14.1051C33.7383 13.7881 33.1677 13.5028 32.5904 13.2301C32.4356 13.0372 32.2693 12.853 32.0923 12.6785C31.5909 12.203 31.0764 11.7274 30.5552 11.2804C31.5476 11.8494 32.4917 12.4929 33.3788 13.2047L33.3755 13.2143ZM23.4401 8.01812L23.7139 8.15129C21.3454 7.99277 18.9243 8.46832 16.6581 9.10238C18.7198 8.04984 21.0651 7.79619 23.4434 8.0086L23.4401 8.01812ZM19.7753 7.06702C17.5284 7.38448 15.4549 8.41047 13.8807 9.98374C13.1583 10.2437 12.4425 10.5195 11.73 10.7953C11.2829 10.9704 10.8524 11.1826 10.4435 11.4294L10.4633 11.3977C12.7097 8.24322 16.0149 6.75315 19.7786 7.0575L19.7753 7.06702ZM10.6546 9.48915C11.0997 9.09093 11.5762 8.72633 12.0796 8.39858C11.4986 8.84776 10.96 9.3453 10.4699 9.88544C9.72598 10.7058 9.07778 11.602 8.53693 12.558C8.9809 11.3888 9.7066 10.3371 10.6546 9.48915ZM7.53745 21.6124C7.47807 20.9086 7.45498 20.1974 7.46818 19.4788C7.69665 17.2088 8.37755 15.0023 9.47374 12.9797C9.72682 12.7549 9.99219 12.5432 10.2687 12.3456C11.1635 11.7781 12.1345 11.3301 13.155 11.0141C13.1607 11.085 13.1876 11.1528 13.2324 11.2095C13.2771 11.2661 13.3379 11.3092 13.4074 11.3336C13.477 11.358 13.5523 11.3627 13.6245 11.3471C13.6968 11.3314 13.7628 11.2962 13.8147 11.2455C14.0346 11.0025 14.2622 10.7742 14.4975 10.5607L14.7944 10.4624C18.0435 9.35915 21.5566 8.62681 24.997 9.19429C25.2653 9.23868 25.5325 9.29257 25.7986 9.35598C26.4583 9.77763 27.0883 10.2278 27.692 10.6875C28.2066 11.0743 28.6981 11.4833 29.183 11.8986C28.7508 11.7623 28.3154 11.6386 27.8635 11.5277C26.9498 11.2836 26.0856 11.106 25.3797 10.9887C24.0913 10.7744 22.779 10.7265 21.4774 10.8461C16.9946 11.0299 12.6008 12.6975 9.85637 16.2356C8.66342 17.8314 7.86984 19.6704 7.53745 21.6093V21.6124ZM9.74752 40.2031C9.36178 40.4506 8.99472 40.7239 8.64908 41.0211C8.49735 41.1542 8.35551 41.2906 8.21367 41.4269C7.08992 42.2717 6.07944 43.2472 5.20533 44.3309C4.26389 45.4879 3.47811 46.7544 2.86661 48.1004C3.73745 44.4324 6.07616 41.2208 9.74752 40.2V40.2031ZM24.4494 77.0802C23.229 76.1672 22.114 76.611 20.821 77.131C19.1222 77.8062 16.6383 76.8139 15.0352 76.2369C12.9974 75.5041 11.0902 74.472 9.38137 73.1776C9.03172 72.9049 8.69526 72.6196 8.3654 72.3216C11.3605 74.3569 15.5168 75.1749 19.0562 75.6124C20.0953 75.7392 21.131 75.8311 22.1734 75.8945C23.1399 75.9548 24.2482 75.5965 24.6869 76.6618C24.7875 76.9148 24.8605 77.1772 24.9047 77.4448C24.7496 77.3339 24.6045 77.1975 24.4494 77.0802ZM28.7772 81.7723C29.7146 82.4412 30.7075 83.035 31.746 83.5477C34.0007 84.5762 36.4113 85.2537 38.8875 85.5545C43.5055 86.2107 48.3083 85.8271 52.9033 85.1645C53.8929 85.0219 54.8825 84.8475 55.8885 84.6287C55.4035 84.8698 54.9034 85.0815 54.391 85.2628C51.0264 86.4897 47.2561 87.0382 43.6837 87.2538C41.014 87.4497 38.3289 87.2605 35.7175 86.6926C35.4899 86.5912 35.2623 86.4834 35.038 86.3756C32.7051 85.1776 30.5906 83.6229 28.7772 81.7723ZM58.8738 83.833C60.4394 83.3456 61.9465 82.6995 63.3698 81.9055C58.2481 85.5032 52.205 87.6949 45.8871 88.2461C44.7605 88.3394 43.6284 88.3553 42.4995 88.2936H42.5984C46.699 88.2186 50.7609 87.5166 54.6318 86.2139C56.1931 85.6848 57.6334 84.8709 58.8738 83.8171V83.833ZM61.826 87.1238C59.0606 89.8226 55.5937 91.7605 51.7855 92.7361C47.9774 93.7118 43.9669 93.6896 40.1706 92.6718C36.0606 91.5876 32.6762 89.5649 30.5321 85.9666C30.41 85.7637 30.2946 85.5608 30.1758 85.3548C30.3804 85.5133 30.5882 85.6718 30.8059 85.8113C31.3788 86.2002 31.9897 86.5347 32.63 86.8099C33.5933 87.4196 34.6085 87.9499 35.6647 88.3951C38.8908 89.752 42.4203 90.0278 45.8904 89.79C52.9396 89.3113 59.8996 86.4897 65.4182 82.2891C65.57 82.1749 65.7151 82.0545 65.8635 81.9372C64.7539 83.8208 63.3957 85.5587 61.8227 87.1079L61.826 87.1238ZM99.1696 73.9416C95.5742 75.7677 91.253 76.9883 87.1759 76.4367C86.1485 76.2956 85.1548 75.9823 84.2401 75.5109C89.5542 76.871 95.2146 76.3257 99.9283 73.4439C104.919 70.3909 107.825 65.3786 108.274 59.764C108.463 56.9941 108.012 54.2183 106.954 51.6353C106.387 50.2731 105.648 48.9827 104.754 47.7929C104.329 47.2127 103.867 46.6579 103.412 46.1031C102.92 45.5883 102.457 45.0497 102.023 44.4894C103.138 44.9174 104.266 46.3155 105.074 46.8862C106.505 47.8614 108.101 48.5908 109.791 49.042C110.713 50.937 111.263 52.979 111.414 55.0656C112.024 63.0992 106.242 70.3401 99.1696 73.9258V73.9416ZM120.159 47.2856C117.246 48.3604 113.825 48.3318 110.761 47.6026C110.366 46.8391 109.91 46.1058 109.399 45.4088C109.042 44.9983 108.724 44.5592 108.445 44.0963C108.509 44.1214 108.571 44.1511 108.63 44.185C108.98 44.3467 109.313 44.5496 109.643 44.743C110.603 45.3073 111.503 45.9604 112.47 46.5121C113.809 47.2761 115.722 47.311 117.22 47.1968C119.37 47.001 121.438 46.2999 123.24 45.1552C122.431 46.1153 121.366 46.8463 120.159 47.2698V47.2856ZM124.76 42.0007C123.074 43.5192 121.04 44.6356 118.823 45.2598C117.203 45.7068 114.864 45.8939 113.334 45.0823C112.259 44.5243 111.282 43.7729 110.233 43.1801C109.517 42.7711 108.673 42.2797 107.812 42.4414C106.568 42.6728 106.615 43.9948 107.007 44.8318C107.28 45.3134 107.619 45.7571 108.017 46.1507C108.225 46.3996 108.417 46.66 108.594 46.9305C106.839 46.2521 105.49 45.1425 104.065 43.9917C103.092 43.2086 101.98 42.6316 100.7 42.9835C100.539 43.0269 100.396 43.1197 100.294 43.2478C100.193 43.376 100.137 43.5325 100.136 43.6937C100.156 44.5623 100.624 45.0664 101.261 45.6402C102.402 46.6674 103.329 48.0053 104.187 49.2512C105.696 51.5179 106.615 54.1006 106.865 56.7807C107.159 59.3563 106.816 61.9621 105.864 64.3861C104.912 66.8101 103.378 68.9838 101.386 70.7301C97.1542 74.4996 91.4113 75.6346 85.8465 74.6106C84.2776 74.3222 82.7338 73.9194 81.2285 73.4058C80.2389 72.5403 79.3054 71.5893 78.3191 70.6921C77.699 70.1278 76.2377 68.587 75.225 68.5489C75.1897 68.2445 75.2019 67.9368 75.2613 67.6359C75.3767 67.0208 74.4234 66.7513 74.2717 67.3759C74.1423 67.9014 74.1176 68.4458 74.1991 68.9801C73.6186 69.5571 73.3811 70.5652 73.0347 71.2564C72.5511 72.2048 72.0001 73.12 71.3854 73.9955C71.4745 73.7641 71.5668 73.5327 71.6592 73.3012C72.2332 71.827 72.3189 69.7885 73.4833 68.6155C73.6179 68.4739 73.6905 68.2879 73.686 68.0962C73.6814 67.9045 73.6002 67.7218 73.4591 67.5862C73.318 67.4506 73.128 67.3726 72.9285 67.3682C72.729 67.3639 72.5355 67.4336 72.3882 67.563C71.3524 68.5141 70.983 69.8646 70.6267 71.1581C70.2681 72.396 69.8274 73.6106 69.3073 74.7944C68.093 76.7861 66.4783 78.5256 64.5573 79.9113C63.3455 80.7625 62.0335 81.4733 60.6484 82.0291C61.0527 81.5487 61.4304 81.0481 61.7799 80.5295C62.08 80.0857 61.3642 79.7084 61.0509 80.1206C60.3354 81.0766 59.5209 81.9603 58.6198 82.7583C56.3887 83.4267 54.0987 83.8978 51.7785 84.1659C47.454 84.7112 43.0173 84.9553 38.6863 84.3625C36.319 84.0471 34.0188 83.3729 31.8713 82.3651C30.0538 81.4996 28.4968 80.2347 26.8574 79.0997C26.6529 78.0503 26.676 76.9344 26.2637 75.9294C26.0572 75.3871 25.674 74.9236 25.1712 74.6076C24.6683 74.2917 24.0727 74.1404 23.4731 74.1762C21.2229 74.2157 18.9757 74.0029 16.7769 73.5422C12.5217 72.7242 8.70186 71.2247 6.00359 67.8356C3.71106 64.9633 2.70498 61.3809 2.6522 57.7762C4.51262 61.9357 8.17738 65.385 12.2479 67.5186C16.5361 69.7727 22.4736 70.9869 27.0916 69.0752C27.6062 68.8628 27.2368 68.0385 26.7123 68.2097C22.2394 69.6458 16.9748 68.4601 12.8845 66.4597C8.6058 64.3274 5.25676 60.8007 3.43727 56.5112C3.18947 55.9088 2.99095 55.2887 2.84352 54.6566C2.87981 54.3776 2.91939 54.0986 2.96557 53.8196C3.31294 52.6625 3.7439 51.5301 4.25533 50.4306C5.11297 48.5791 6.26418 46.9083 7.26366 45.1361C7.53686 44.647 7.84664 44.1777 8.19058 43.7317C8.9412 43.068 9.76018 42.4795 10.6348 41.9753C11.4946 41.4585 12.464 41.1335 13.4717 41.0242C14.2105 40.9608 14.867 41.056 15.596 40.8689C15.7144 40.8387 15.8254 40.7864 15.9227 40.7149C16.02 40.6434 16.1016 40.5541 16.1629 40.4521C16.2242 40.3502 16.2639 40.2377 16.2799 40.1209C16.2958 40.0042 16.2876 39.8857 16.2557 39.772C15.9671 39.1071 15.4611 38.5507 14.8142 38.1868C14.8126 38.1774 14.8126 38.1678 14.8142 38.1583C14.795 38.0554 14.7594 37.9559 14.7086 37.8635C15.428 38.2341 16.1881 38.5265 16.9748 38.7353C17.0894 38.7692 17.2115 38.7725 17.3279 38.7447C17.4443 38.7169 17.5506 38.6592 17.6354 38.5777C17.7202 38.4962 17.7803 38.3939 17.8092 38.2821C17.8381 38.1702 17.8347 38.0529 17.7994 37.9427C17.6312 37.3308 17.2156 37.147 16.5823 37.1406C16.5071 37.14 16.4323 37.1518 16.3612 37.1755C14.6122 36.5047 13.0719 35.413 11.8883 34.0052C10.8756 32.3284 10.0359 30.5605 9.38137 28.7266C8.8952 26.715 8.90423 24.622 9.40776 22.6143C9.79213 21.1894 10.4077 19.8317 11.2319 18.5911C12.1088 17.6885 13.0817 16.8767 14.1347 16.169C18.0105 13.544 22.942 12.019 27.6821 12.8021L27.9394 12.8528C29.2588 13.2333 30.9081 13.8356 32.0923 14.679C32.2771 14.8787 32.4684 15.0752 32.6465 15.2813C32.8246 15.4874 33.072 15.7537 33.3062 15.9978C33.4369 16.2454 33.5186 16.5141 33.547 16.7904C33.5658 16.9107 33.6203 17.0232 33.7038 17.1146C33.7873 17.206 33.8965 17.2724 34.0182 17.3058C34.1399 17.3392 34.269 17.3383 34.3902 17.3031C34.5114 17.268 34.6194 17.2 34.7015 17.1074C35.2096 17.4225 35.8167 17.556 36.4168 17.4847C37.3327 18.0562 38.3188 18.5163 39.3526 18.8543C39.887 19.0191 40.3422 18.2899 39.9133 17.9285C39.7187 17.7668 39.5175 17.6115 39.3196 17.453C40.263 16.467 40.9689 15.3035 41.8496 14.2478C41.8979 14.2764 41.9519 14.2951 42.0082 14.3026C42.0644 14.3101 42.1216 14.3063 42.1762 14.2914C42.2308 14.2765 42.2816 14.2508 42.3253 14.216C42.3691 14.1812 42.4048 14.1381 42.4302 14.0893C42.5951 13.731 42.7765 13.3918 42.9646 13.0621C44.551 11.517 46.3448 10.1821 48.2984 9.09286C52.0061 7.06386 56.3239 6.45833 60.533 6.63904C64.742 6.81975 68.9708 7.90716 72.8863 9.40354C75.0469 10.2247 77.2174 11.2677 78.9491 12.7704C79.8793 13.582 81.0537 15.5476 82.6172 14.8596C83.0966 14.6022 83.5005 14.2326 83.7915 13.7849C84.3524 13.148 85.0457 12.6307 85.8267 12.2663C87.6014 11.3343 89.7521 10.9253 91.7478 10.7319C93.852 10.5552 95.971 10.634 98.0547 10.9665C95.7901 11.1671 93.5648 11.6653 91.441 12.447C89.9953 12.9957 88.6015 13.6628 87.2748 14.4412C85.9818 15.1799 84.6161 15.8171 83.5474 16.8601C83.2472 17.1518 83.3363 17.8112 83.8278 17.8746C85.6552 18.1219 87.2715 18.8859 89.1518 18.8257C91.032 18.7655 92.9682 18.0109 94.8419 17.6495C98.7771 16.8887 102.861 16.5019 106.855 17.0694C114.482 18.1536 120.297 23.8919 123.184 30.5178C123.094 32.5731 122.742 34.6101 122.135 36.5826C121.574 38.4848 121.016 41.411 118.424 41.3381C117.82 41.3159 117.675 42.248 118.279 42.3621C120.545 42.7774 121.772 41.5347 122.59 39.6388C123.408 37.6628 123.962 35.5951 124.239 33.4852C125.031 36.1705 125.42 39.3186 124.76 41.9849V42.0007ZM126.617 39.9369C126.673 37.4514 126.324 34.9727 125.582 32.5912C125.296 31.6454 124.951 30.7169 124.549 29.8109C124.575 27.5172 124.12 25.242 123.21 23.1215C127.083 27.2017 130.219 32.8861 127.597 38.301C127.317 38.8666 126.989 39.4095 126.617 39.9242V39.9369Z" fill="#ADBBC4"/>
</svg>
