<svg width="32" height="32" viewBox="0 0 32 32" fill="none" xmlns="http://www.w3.org/2000/svg">
<circle opacity="0.2" cx="16" cy="16" r="16" transform="matrix(-1 0 0 1 32 0)" fill="#50735F"/>
<g opacity="0.8">
<path fill-rule="evenodd" clip-rule="evenodd" d="M12.4902 17.9776C13.4586 19.2533 13.9996 20.7316 14.2063 21.7239L12.9881 22C12.8149 21.1683 12.3445 19.8803 11.513 18.7848C10.6887 17.6989 9.54318 16.8411 8 16.7348L8 15.4358C9.08285 15.4358 11.9203 14.4617 12.9926 10L14.2018 10.3162C13.5928 12.8501 12.4559 14.4612 11.264 15.4358L23 15.4358L23 16.7362L11.3053 16.7362C11.7586 17.1074 12.1524 17.5325 12.4902 17.9776Z" fill="#50735F"/>
</g>
</svg>
