<svg width="100" height="60" viewBox="0 0 100 60" fill="none" xmlns="http://www.w3.org/2000/svg">
<path d="M59.8019 22.526C59.7002 21.8262 60.2703 21.2541 60.7641 20.8896C61.4317 20.4177 62.1661 20.0492 62.9427 19.7962C64.7582 19.1548 66.6936 19.0673 68.6144 19.1074C69.7317 19.1091 70.8478 19.1858 71.9549 19.337C73.0855 19.5564 74.1639 19.9906 75.1321 20.6162C77.0565 21.7898 78.7159 23.3716 80.4624 24.8003C81.9148 25.9884 83.32 27.2202 84.1334 28.9988C84.6081 30.1231 84.9482 31.3001 85.1465 32.5049C85.2709 33.1388 85.3341 33.7832 85.3353 34.4293C85.3353 34.9213 85.259 35.4096 85.2445 35.8871C85.2227 36.7946 85.4878 37.7094 86.3628 38.0738C87.3033 38.4602 88.2946 37.9499 89.1878 37.6438C90.1563 37.3629 91.1703 37.275 92.1725 37.385C93.2279 37.4234 94.2397 37.8175 95.0446 38.5039C95.9964 39.3307 96.7593 40.3538 97.2813 41.5034C97.5403 42.0584 97.7246 42.6455 97.8296 43.2492C97.9349 43.8797 97.9204 44.5175 98.0511 45.148C98.3234 46.4491 98.8826 47.8049 98.3017 49.106C97.8514 50.1156 96.94 50.8408 96.3373 51.752C96.3 51.818 96.2802 51.8924 96.2797 51.9683C96.2792 52.0441 96.298 52.1189 96.3344 52.1854C96.3708 52.2518 96.4236 52.3078 96.4876 52.3481C96.5517 52.3883 96.6249 52.4115 96.7004 52.4153C97.8224 52.3934 98.5776 52.9802 98.879 54.11C99.0957 55.0941 99.1787 56.1031 99.1259 57.1095C99.1259 57.8603 99.0351 58.6986 98.1564 58.7204C97.9224 58.7249 97.6893 58.6904 97.4665 58.6184C97.2059 58.537 96.9332 58.5012 96.6604 58.5127H73.4872C70.0595 58.5127 66.6137 58.4143 63.1896 58.6257C59.86 58.8334 56.5049 59.2926 53.1644 59.0885C51.5377 58.9865 49.9218 58.7241 48.3024 58.5309C46.6988 58.3706 45.0846 58.345 43.4768 58.4544C41.861 58.5236 40.2415 58.5163 38.6221 58.5674C37.0027 58.6184 35.3142 58.684 33.6621 58.6439C32.0088 58.6357 30.3644 58.4003 28.7747 57.9442C28.0451 57.7006 27.3033 57.495 26.5526 57.3282C25.7681 57.2298 24.9749 57.2225 24.1888 57.3064C23.3951 57.3045 22.6077 57.1651 21.8613 56.8945C21.1406 56.6826 20.3967 56.5602 19.6463 56.5301C17.9434 56.4316 16.2441 56.5118 14.5447 56.5738C13.7278 56.5993 12.9108 56.6248 12.0938 56.6248V57.5068L12.5731 57.474C12.5368 57.1861 12.5005 56.8981 12.4605 56.6102C11.4838 56.8143 11.3712 55.6699 11.3095 54.9046C11.2405 53.8768 11.3422 52.8344 11.1715 51.814C10.8375 49.8349 10.133 47.9361 9.62107 46.0045C9.0907 43.9836 8.84623 41.8979 8.89486 39.8087C8.88217 38.8928 9.05511 37.9839 9.40321 37.1372C9.75192 36.3802 10.1843 35.6651 10.6922 35.0051C11.1897 34.3381 11.7343 33.7149 12.2282 33.0407C12.722 32.3664 13.2049 31.6594 13.942 31.2439C14.6791 30.8284 15.5396 30.7519 16.3385 30.5623C17.1373 30.3728 17.987 30.0594 18.8221 29.8334C20.4609 29.4612 22.1383 29.2874 23.8184 29.3159C25.6521 29.3159 27.9868 28.9514 29.5264 30.2708C30.1272 30.868 30.6876 31.5048 31.2039 32.1769C31.8357 32.8854 32.5296 33.5355 33.2772 34.1194C33.6403 34.4183 34.0034 33.8643 33.8509 33.5145C33.4228 32.5631 33.1483 31.5493 33.0376 30.5113C32.9867 29.5386 33.0921 28.5639 33.3498 27.6248C33.8073 25.7734 33.9889 23.849 34.5771 22.0304C35.1271 20.4796 36.0182 19.0732 37.1842 17.9156C38.3423 16.6788 39.6556 15.5982 41.0912 14.7011C42.3838 13.892 43.8326 13.1776 45.3467 13.0173C47.0092 12.8034 48.6933 12.823 50.3503 13.0756C52.0423 13.3388 53.6115 14.1218 54.8419 15.317C55.4227 15.9482 55.9117 16.6586 56.2943 17.4272C56.9299 18.538 57.4728 19.6998 57.9174 20.9005C58.105 21.3673 58.2272 21.8579 58.2805 22.3584C58.2868 22.4803 58.2795 22.6025 58.2587 22.7228C58.2187 22.8103 58.2587 22.7666 58.1897 22.8212C58.1389 22.8212 58.2696 22.7556 58.1897 22.8212C58.1529 22.8261 58.1166 22.8334 58.0808 22.8431C57.547 22.9269 57.7721 23.7761 58.3023 23.6923C60.3393 23.3679 58.128 19.1511 57.7068 18.2946C57.2448 17.32 56.7121 16.3808 56.1128 15.4847C55.1787 14.2313 53.8966 13.2828 52.4272 12.7585C50.6938 12.157 48.8581 11.9092 47.0279 12.0296C46.1753 12.0389 45.3251 12.1206 44.4862 12.2738C43.6751 12.4589 42.889 12.7403 42.1442 13.112C40.4891 13.9317 38.9624 14.9902 37.6127 16.2537C36.2917 17.3958 35.185 18.7659 34.3447 20.2992C33.299 22.362 33.1102 24.7274 32.6091 26.9651C32.3441 28.1496 32.0681 29.294 32.1625 30.5222C32.2862 31.7141 32.6001 32.8782 33.092 33.97L33.6694 33.3687C32.9457 32.7948 32.2771 32.1542 31.6723 31.4553C31.1717 30.8127 30.6295 30.204 30.0492 29.633C28.5968 28.3902 26.5598 28.3938 24.7879 28.4375C22.9506 28.4849 21.1569 28.4667 19.3413 28.8348C18.4263 29.0243 17.5258 29.294 16.6399 29.5637C15.8047 29.8188 14.9224 29.8917 14.0981 30.2015C13.2969 30.5196 12.6019 31.0592 12.0938 31.7578C11.5383 32.4867 11.0045 33.1937 10.4344 33.9081C9.34512 35.3112 8.30301 36.8565 8.08515 38.7007C7.8845 40.8713 8.03904 43.0603 8.54265 45.1808C9.01106 47.3202 9.7881 49.3721 10.2456 51.5151C10.5252 52.8235 10.34 54.1611 10.5179 55.4841C10.554 56.0612 10.7656 56.6133 11.1243 57.0658C11.3258 57.263 11.576 57.4028 11.8491 57.4707C12.1223 57.5386 12.4085 57.5322 12.6784 57.4521C13.1395 57.3537 13.0415 56.5556 12.5658 56.5884L12.0865 56.6175C11.5491 56.654 11.5383 57.4995 12.0865 57.4995C13.8476 57.4995 15.6014 57.3829 17.3624 57.361C18.2375 57.361 19.1126 57.361 19.984 57.423C20.7977 57.5195 21.5995 57.699 22.3769 57.9587C23.1291 58.1532 23.9091 58.2161 24.6826 58.1446C25.5369 58.0721 26.3973 58.151 27.2243 58.3779C28.0159 58.5965 28.7965 58.8699 29.5954 59.0703C30.3982 59.2607 31.2157 59.3826 32.039 59.4348C33.7424 59.5392 35.45 59.5563 37.1551 59.4858C38.869 59.4348 40.5865 59.4166 42.3039 59.3692C44.0214 59.3218 45.699 59.1651 47.3874 59.2999C49.0758 59.4348 50.6771 59.7409 52.3256 59.8904C55.8005 60.2074 59.2899 59.7592 62.7539 59.5259C66.3268 59.2854 69.9179 59.3801 73.4945 59.3801H96.2211C96.5679 59.3502 96.9172 59.376 97.2559 59.4566C97.7354 59.619 98.2517 59.6367 98.741 59.5077C99.5979 59.2562 99.903 58.4143 99.9683 57.5542C100.036 56.5455 99.9949 55.5325 99.8448 54.5328C99.6923 53.505 99.2711 52.4408 98.3634 51.9051C97.8559 51.6316 97.2826 51.5054 96.7076 51.5406L97.0707 52.2039C97.6553 51.3183 98.5014 50.6331 98.9807 49.6527C99.5289 48.5593 99.4636 47.3748 99.1876 46.2122C99.0497 45.6218 98.8681 45.035 98.7846 44.43C98.7011 43.825 98.7083 43.2127 98.5667 42.6077C98.279 41.4575 97.7668 40.3761 97.0599 39.426C96.4319 38.5217 95.6293 37.7532 94.6997 37.1663C93.7375 36.5978 92.5719 36.4739 91.4826 36.4739C90.4554 36.4526 89.4329 36.6193 88.4652 36.9659C87.5611 37.3012 86.1922 37.6948 86.0978 36.2552C86.0906 35.8011 86.1124 35.347 86.1631 34.8957C86.202 34.2371 86.1716 33.5762 86.0724 32.924C85.8947 31.5886 85.5583 30.2794 85.0702 29.0243C84.2968 27.0854 82.917 25.6932 81.3629 24.4139C79.5474 22.9196 77.8045 21.2723 75.8256 20.0113C74.8426 19.3471 73.755 18.8542 72.6085 18.5534C71.4455 18.3283 70.2635 18.2172 69.0792 18.2217C66.8134 18.1379 64.5258 18.2218 62.3799 19.0527C60.8803 19.6286 58.7017 20.7147 58.9958 22.7374C59.0793 23.295 59.889 23.0581 59.8091 22.5005L59.8019 22.526Z" fill="#434343"/>
<path d="M14.4698 30.1356C12.3193 29.6465 11.9437 26.6784 11.8445 24.7144C11.7438 23.5984 11.7819 22.4735 11.9579 21.3676C12.2724 20.007 12.9107 18.75 13.8144 17.7118C14.745 16.6227 15.7696 15.6243 16.8754 14.729L18.3989 13.4675C18.9637 12.9449 19.5885 12.4965 20.2589 12.1325C21.6017 11.4815 23.1854 11.3969 24.6202 11.1247C26.1577 10.7307 27.7732 10.8203 29.2614 11.3822C30.0798 11.5881 30.9195 11.6727 31.7415 11.8677C32.1375 11.9446 32.5238 12.0679 32.8929 12.2355C33.201 12.4102 33.4948 12.6107 33.7716 12.8349C34.357 13.2299 34.9104 13.674 35.4261 14.1627C35.8619 14.615 36.287 15.2035 36.1665 15.8986C36.0673 16.4576 36.8751 16.6967 36.9602 16.134C37.233 14.5672 36.0532 13.4749 34.9868 12.6584C34.4726 12.2242 33.9252 11.8343 33.35 11.4925C32.6297 11.1507 31.8642 10.9226 31.0789 10.8158C30.2641 10.6724 29.4811 10.4921 28.6804 10.2678C27.8401 10.0356 26.968 9.95348 26.1012 10.0251C25.2225 10.0949 24.3581 10.2788 23.4936 10.437C22.7177 10.5767 21.9276 10.6724 21.1624 10.8746C20.396 11.0701 19.6691 11.4051 19.0154 11.864C18.4131 12.2943 17.8533 12.8129 17.2793 13.2873C16.0638 14.245 14.9121 15.287 13.8321 16.4061C12.7854 17.4809 11.9672 18.7714 11.43 20.1944C11.0013 21.4301 10.9801 22.7689 11.0084 24.0708C11.0615 26.5754 11.4973 30.36 14.2643 30.9889C14.7781 31.1066 15.0013 30.2533 14.4805 30.1319L14.4698 30.1356Z" fill="#434343"/>
<path d="M5.54254 26H0.457464C0.336136 26 0.219781 26.0527 0.133989 26.1464C0.0481972 26.2402 0 26.3674 0 26.5C0 26.6326 0.0481972 26.7598 0.133989 26.8535C0.219781 26.9473 0.336136 27 0.457464 27H5.54254C5.66386 27 5.78022 26.9473 5.86601 26.8535C5.9518 26.7598 6 26.6326 6 26.5C6 26.3674 5.9518 26.2402 5.86601 26.1464C5.78022 26.0527 5.66386 26 5.54254 26Z" fill="#434343"/>
<path d="M7.71806 11.1629C7.63915 11.1416 7.56157 11.1147 7.48581 11.0823C7.5588 11.1153 7.45263 11.0823 7.44931 11.0603L7.33651 10.9907C7.20549 10.9054 7.08408 10.8033 6.97485 10.6864C6.70943 10.4188 6.47055 10.1145 6.22503 9.82128C5.73067 9.22009 5.19981 8.61523 4.45329 8.50525L4.82489 8.83151L4.75522 8.32197C4.74247 8.26726 4.72007 8.21588 4.68929 8.17076C4.65852 8.12565 4.61999 8.0877 4.5759 8.05909C4.53182 8.03048 4.48304 8.01176 4.4324 8.00403C4.38175 7.9963 4.33021 7.99972 4.28076 8.01405C4.18247 8.05181 4.10046 8.12871 4.05076 8.22972C4.00106 8.33073 3.98725 8.44858 4.01201 8.56025L4.08169 9.06613C4.10372 9.15738 4.15176 9.23836 4.21868 9.29712C4.2856 9.35587 4.36786 9.38926 4.45329 9.39236C4.36371 9.39236 4.47983 9.39236 4.49974 9.39236L4.61254 9.42904C4.62913 9.42904 4.71872 9.48036 4.64573 9.42904C4.67765 9.44393 4.70868 9.46108 4.73862 9.48036C4.81254 9.52483 4.88351 9.57505 4.95097 9.63065L5.04055 9.70397C4.98746 9.65631 5.08036 9.74429 5.08036 9.74429C5.34384 10.0091 5.59205 10.292 5.82356 10.5911C6.29469 11.1629 6.81892 11.8118 7.51235 11.9877C7.6126 12.0146 7.71837 11.997 7.80704 11.9388C7.89571 11.8805 7.96023 11.7863 7.9868 11.6762C8.01305 11.5649 7.99984 11.4468 7.94989 11.346C7.89994 11.2451 7.81701 11.1691 7.71806 11.1336V11.1629Z" fill="#434343"/>
<path d="M19.6979 3.25555L19.2098 3.16423L19.4983 3.42876C19.4371 3.15931 19.4239 2.88305 19.4592 2.61C19.4878 2.32118 19.4662 2.03019 19.395 1.74717C19.2561 1.23388 18.8927 0.802471 18.8108 0.276585C18.7971 0.229589 18.773 0.185449 18.74 0.146695C18.707 0.107941 18.6656 0.0753272 18.6182 0.0507484C18.5709 0.0261696 18.5185 0.0101067 18.4641 0.003467C18.4098 -0.00317268 18.3544 -0.000257786 18.3013 0.0120584C18.1961 0.0438498 18.1081 0.109321 18.0547 0.195572C18.0013 0.281823 17.9863 0.382602 18.0128 0.478107C18.0947 1.00714 18.4617 1.42283 18.6006 1.94871C18.6534 2.20113 18.6618 2.45924 18.6255 2.71392C18.5951 3.02199 18.6203 3.33238 18.7003 3.63343C18.7184 3.69585 18.7545 3.75306 18.805 3.79944C18.8556 3.84581 18.919 3.87976 18.9889 3.89796L19.477 3.98927C19.5841 4.01244 19.6973 3.99776 19.7924 3.94837C19.8875 3.89898 19.9571 3.81878 19.9864 3.72477C20.0139 3.62881 19.9994 3.52724 19.9459 3.44029C19.8925 3.35334 19.8039 3.28736 19.6979 3.25555Z" fill="#434343"/>
<path d="M18 22C19.3304 22 19.3363 20 18 20C16.6637 20 16.6696 22 18 22Z" fill="#434343"/>
<path d="M28 18C29.3304 18 29.3363 16 28 16C26.6637 16 26.6696 18 28 18Z" fill="#434343"/>
<path d="M36.7502 4.87102L39.8796 1.7476C40.259 1.34763 39.6558 0.729483 39.2575 1.12946L36.1281 4.24924C35.7298 4.64921 36.3519 5.271 36.7502 4.87102Z" fill="#434343"/>
</svg>
