<svg width="597" height="363" viewBox="0 0 597 363" fill="none" xmlns="http://www.w3.org/2000/svg">
<path d="M555.339 362.981C554.783 362.981 554.235 362.847 553.662 362.705C552.838 362.505 551.999 362.318 551.161 362.115C550.288 361.903 549.566 361.516 549.123 360.555C548.045 358.234 546.87 355.97 544.588 354.673C544.152 354.426 543.877 353.824 543.545 353.373C543.484 353.29 543.343 353.254 543.16 353.254C542.533 353.254 541.392 353.671 541.029 354.119C540.749 354.166 540.468 354.185 540.19 354.185C539.376 354.185 538.57 354.019 537.765 353.856C536.961 353.69 536.158 353.527 535.356 353.527C534.966 353.527 534.579 353.566 534.188 353.661C534.157 353.668 534.123 353.671 534.089 353.671C533.791 353.671 533.396 353.398 533.104 353.2C531.67 352.23 530.239 351.294 528.516 351.294C528.452 351.294 528.387 351.296 528.323 351.299C528.313 351.299 528.306 351.299 528.296 351.299C528.057 351.299 527.799 351.172 527.553 351.101C526.551 350.811 525.546 350.516 524.547 350.231C524.169 350.124 523.716 350.141 523.409 349.916C522.233 349.068 520.954 348.773 519.693 348.773C519.052 348.773 518.416 348.851 517.799 348.968C516.831 349.153 515.9 349.334 514.966 349.334C514.33 349.334 513.691 349.251 513.045 349.027C512.804 349.473 512.619 349.807 512.346 350.324C510.746 349.741 509.191 349.119 507.616 348.622C507.165 348.481 506.583 348.3 506.117 348.3C505.903 348.3 505.712 348.339 505.571 348.437C503.416 349.924 500.842 349.37 498.496 349.836C498.209 349.892 497.914 349.914 497.616 349.914C496.946 349.914 496.256 349.809 495.583 349.765C495.005 349.729 494.408 349.636 493.828 349.522C492.736 349.302 491.644 349.051 490.551 348.824C489.71 348.651 488.76 348.715 488.045 348.298C485.947 347.074 483.884 345.865 481.463 345.75L481.09 345.609C479.589 345.087 478.092 344.522 476.583 344.071C476.483 344.039 476.378 344.027 476.268 344.027C475.934 344.027 475.574 344.144 475.237 344.188C474.535 344.275 473.833 344.426 473.133 344.461C472.097 344.509 471.112 344.546 470.193 345.265C469.696 345.653 469.089 345.909 468.482 345.909C467.994 345.909 467.507 345.743 467.075 345.343C465.183 343.581 462.997 343.23 460.686 343.193C460.232 343.186 459.737 343.212 459.323 343.039C456.522 341.852 453.409 341.596 450.881 339.522C450.21 338.971 449.382 338.356 448.411 338.356C448.204 338.356 447.99 338.383 447.77 338.447C447.751 338.451 447.729 338.454 447.704 338.454C447.417 338.454 446.895 338.039 446.734 337.713C445.559 335.309 443.299 335.133 441.254 334.507C440.7 334.336 440.086 334.256 439.608 333.944C439.138 333.632 438.692 333.568 438.226 333.568C437.958 333.568 437.68 333.59 437.385 333.598C437.002 333.61 436.607 333.62 436.207 333.62C435.008 333.62 433.787 333.52 432.78 333.013C431.617 332.428 430.471 331.786 429.252 331.311C428.96 331.196 428.609 330.977 428.47 330.702C427.936 329.624 427.11 329.375 426.195 329.375C425.993 329.375 425.786 329.388 425.576 329.407C425.459 329.417 425.345 329.422 425.232 329.422C424.33 329.422 423.57 329.088 422.977 328.227C422.768 327.925 422.37 327.747 421.985 327.45C421.351 328.381 420.588 328.788 419.694 328.788C419.369 328.788 419.026 328.734 418.667 328.632C418.538 328.595 418.402 328.585 418.265 328.585C418.165 328.585 418.068 328.59 417.968 328.595C417.868 328.6 417.768 328.607 417.67 328.607C417.548 328.607 417.426 328.598 417.312 328.571C416.619 328.405 415.866 328.269 415.281 327.876C413.092 326.387 410.825 325.058 408.326 324.334C407.01 323.951 405.786 323.41 404.564 322.779C403.389 322.172 402.058 321.879 400.903 321.233C400.179 320.828 399.504 320.585 398.753 320.585C398.538 320.585 398.316 320.606 398.087 320.645C397.726 320.711 397.373 320.743 397.027 320.743C395.486 320.743 394.096 320.117 392.834 318.983C392.034 318.261 391.137 317.908 389.984 317.871C388.004 317.813 385.913 317.988 384.14 316.633C383.402 316.07 382.661 315.511 382.032 315.034C381.044 315.017 380.135 315.014 379.231 314.99C378.453 314.968 377.668 314.921 376.895 314.87C376.832 314.865 376.771 314.863 376.71 314.861C377.451 314.739 378.194 314.668 378.95 314.668C379.072 314.668 379.194 314.67 379.316 314.673C380.084 314.704 380.852 314.724 381.617 314.724C381.639 314.724 381.661 314.724 381.683 314.724C382.602 314.722 383.521 314.7 384.523 314.685C385.159 315.148 385.91 315.684 386.661 316.228C387.958 317.174 389.426 317.308 390.896 317.308C391.461 317.308 392.027 317.289 392.583 317.286C392.587 317.286 392.59 317.286 392.592 317.286C393.758 317.286 394.664 317.61 395.474 318.308C396.7 319.356 398.041 319.936 399.523 319.936C399.935 319.936 400.362 319.892 400.796 319.8C401.076 319.741 401.339 319.712 401.598 319.712C402.309 319.712 402.958 319.926 403.653 320.287C404.823 320.894 406.171 321.14 407.363 321.706C408.602 322.296 409.84 322.793 411.176 323.125C413.711 323.759 416.008 325.002 418.228 326.406C418.818 326.777 419.581 326.879 420.286 327.02C420.374 327.037 420.464 327.042 420.554 327.042C420.686 327.042 420.817 327.03 420.949 327.018C421.083 327.006 421.215 326.994 421.344 326.994C421.451 326.994 421.558 327.003 421.661 327.028C421.978 327.103 422.283 327.145 422.575 327.145C423.536 327.145 424.352 326.708 425.023 325.702C425.415 325.984 425.817 326.145 426.029 326.44C426.6 327.233 427.317 327.545 428.168 327.545C428.328 327.545 428.494 327.532 428.665 327.513C428.948 327.476 429.226 327.45 429.496 327.45C430.342 327.45 431.098 327.705 431.6 328.685C431.739 328.954 432.095 329.158 432.392 329.261C433.628 329.682 434.789 330.275 435.969 330.809C436.775 331.174 437.724 331.279 438.689 331.279C439.343 331.279 440.005 331.231 440.637 331.182C441.007 331.155 441.351 331.109 441.685 331.109C442.088 331.109 442.48 331.174 442.892 331.423C443.375 331.713 443.996 331.767 444.56 331.911C446.634 332.442 448.933 332.484 450.118 334.856C450.279 335.165 450.786 335.55 451.083 335.55C451.112 335.55 451.142 335.546 451.166 335.536C451.434 335.45 451.69 335.414 451.936 335.414C452.877 335.414 453.67 335.957 454.323 336.457C456.9 338.403 460.042 338.5 462.882 339.539C463.111 339.622 463.367 339.644 463.623 339.644C463.838 339.644 464.055 339.626 464.265 339.619C464.542 339.609 464.815 339.602 465.088 339.602C467.129 339.602 469.052 339.956 470.747 341.421C471.149 341.767 471.6 341.913 472.056 341.913C472.709 341.913 473.37 341.611 473.906 341.17C474.84 340.399 475.832 340.316 476.89 340.199C477.602 340.129 478.311 339.936 479.021 339.807C479.391 339.739 479.786 339.585 480.149 339.585C480.23 339.585 480.31 339.592 480.388 339.612C481.919 339.978 483.438 340.453 484.959 340.887L485.339 341.006C485.369 341.004 485.4 341.004 485.43 341.004C487.845 341.004 489.913 342.072 492.014 343.151C492.741 343.527 493.701 343.4 494.557 343.525C495.669 343.681 496.773 343.866 497.88 344.014C498.465 344.095 499.062 344.151 499.645 344.151C499.65 344.151 499.657 344.151 499.662 344.151C500.169 344.151 500.685 344.185 501.195 344.185C501.678 344.185 502.156 344.153 502.616 344.034C505.003 343.425 507.607 343.819 509.796 342.181C509.969 342.052 510.21 342.006 510.483 342.006C510.929 342.006 511.451 342.133 511.87 342.233C513.472 342.632 515.044 343.139 516.668 343.61C516.946 343.076 517.133 342.732 517.377 342.271C517.877 342.408 518.369 342.464 518.859 342.464C519.964 342.464 521.058 342.181 522.202 341.889C523.006 341.682 523.842 341.54 524.679 341.54C525.776 341.54 526.87 341.784 527.892 342.445C528.206 342.642 528.667 342.593 529.05 342.676C530.066 342.886 531.083 343.11 532.099 343.327C532.331 343.376 532.572 343.471 532.799 343.471C532.826 343.471 532.853 343.471 532.88 343.468C533.065 343.447 533.245 343.437 533.423 343.437C535.02 343.437 536.375 344.21 537.733 345.014C538.018 345.182 538.396 345.411 538.694 345.411C538.742 345.411 538.789 345.407 538.833 345.392C539.398 345.214 539.961 345.153 540.522 345.153C541.171 345.153 541.819 345.236 542.468 345.319C543.116 345.402 543.767 345.485 544.42 345.485C544.871 345.485 545.322 345.446 545.778 345.338C546.163 344.843 547.424 344.314 548.031 344.314C548.172 344.314 548.279 344.344 548.331 344.407C548.667 344.831 548.942 345.409 549.388 345.621C551.712 346.755 552.899 348.895 553.991 351.118C554.445 352.037 555.176 352.366 556.061 352.505C556.914 352.642 557.76 352.766 558.601 352.898C559.025 352.966 559.437 353.034 559.847 353.047C559.442 356.079 559.04 359.107 558.637 362.137C557.965 362.157 557.311 362.359 556.7 362.661C556.229 362.895 555.781 362.981 555.339 362.981ZM361.722 315.955C361.235 315.897 360.742 315.816 360.255 315.797C359.433 315.76 358.67 315.387 357.897 315.082C358.087 315.043 358.275 315.026 358.458 315.026C359.601 315.026 360.625 315.699 361.722 315.955ZM370.701 315.526C370.625 315.526 370.552 315.526 370.476 315.524C370.757 315.507 371.039 315.502 371.322 315.502C371.349 315.502 371.376 315.502 371.403 315.502C371.171 315.519 370.935 315.526 370.701 315.526ZM355.35 314.839L354.662 314.492C353.972 313.781 353.18 313.383 352.341 313.122C353.867 313.352 355.398 313.571 356.632 314.722C356.498 314.705 356.364 314.695 356.227 314.695C355.942 314.695 355.652 314.736 355.35 314.839ZM346.303 312.759C345.696 312.759 345.133 312.469 344.543 312.106C343.911 311.713 343.28 311.311 342.627 310.984C344.053 311.155 345.284 311.942 346.527 312.684C346.556 312.701 346.583 312.715 346.612 312.732C346.508 312.749 346.403 312.759 346.303 312.759ZM338.453 310.385C338.065 310.336 337.675 310.212 337.346 310.041C337.722 310.134 338.09 310.243 338.453 310.385ZM327.256 308.42C327.003 308.388 326.732 308.356 326.444 308.322C326.452 308.332 326.456 308.337 326.456 308.337C326.456 308.337 326.254 308.127 326.035 307.947C325.815 307.769 325.593 307.593 325.369 307.433C326.044 307.615 326.659 307.983 327.256 308.42ZM281.383 307.14C280.984 306.955 280.572 306.823 280.152 306.738C280.23 306.145 280.284 305.758 280.345 305.295C280.755 305.453 281.162 305.619 281.566 305.792L281.383 307.14ZM317.083 307.133C316.91 307.076 316.747 306.996 316.591 306.903C316.764 306.957 316.925 307.037 317.083 307.133ZM254.536 301.711C254.397 301.587 254.275 301.443 254.17 301.282C254.299 301.406 254.421 301.548 254.536 301.711ZM188.724 290.453C187.864 290.453 187.098 290.204 186.267 289.944C184.175 289.283 182.135 288.347 179.892 288.347C179.256 288.347 178.602 288.422 177.929 288.6C177.481 288.72 177.049 288.771 176.628 288.771C174.512 288.771 172.678 287.474 170.718 286.816C170.355 286.694 170.136 286.182 169.911 285.921C169.243 285.897 168.592 285.836 167.946 285.836C167.844 285.836 167.739 285.838 167.637 285.841C167.547 285.845 167.454 285.845 167.361 285.845C167.169 285.845 166.974 285.841 166.779 285.836C166.584 285.831 166.389 285.824 166.196 285.824C165.589 285.824 165.004 285.877 164.548 286.143C163.7 286.635 162.947 287.155 162.14 287.155C161.693 287.155 161.23 286.994 160.728 286.582L160.15 286.56C160.014 286.579 159.88 286.589 159.748 286.589C158.956 286.589 158.268 286.245 157.574 285.875C156.825 285.473 156.045 285.17 155.199 285.17C154.819 285.17 154.421 285.231 154.009 285.373C153.778 285.453 153.515 285.485 153.246 285.485C152.915 285.485 152.574 285.436 152.266 285.37C150.889 285.075 149.548 284.578 148.151 284.361C146.421 284.09 144.631 284.095 142.9 283.834C140.489 283.473 137.949 283.817 135.633 282.871C135.172 282.686 134.631 282.571 134.119 282.571C133.978 282.571 133.841 282.579 133.707 282.598C133.449 282.632 133.2 282.65 132.959 282.65C131.735 282.65 130.692 282.206 129.782 281.289C129.148 281.548 128.527 281.716 127.934 281.716C127.245 281.716 126.594 281.487 126.013 280.907C125.353 281.328 124.802 281.679 124.261 282.021C123.478 281.584 122.805 281.075 122.037 280.821C121.728 280.719 121.35 280.646 120.987 280.646C120.689 280.646 120.402 280.694 120.177 280.814C119.612 281.116 119.041 281.197 118.473 281.197C118.149 281.197 117.822 281.17 117.498 281.143C117.174 281.116 116.85 281.089 116.525 281.089C116.208 281.089 115.892 281.116 115.577 281.189C115.55 281.197 115.521 281.199 115.492 281.199C115.282 281.199 115.046 281.038 114.802 280.877C114.56 280.714 114.312 280.553 114.075 280.553C114.068 280.553 114.061 280.553 114.053 280.553C112.257 280.633 110.465 280.495 108.695 281.45C107.32 282.189 105.828 282.547 104.288 282.547C103.778 282.547 103.264 282.508 102.749 282.43C102.588 282.406 102.42 282.396 102.247 282.396C101.65 282.396 101.009 282.532 100.47 282.759C99.4289 283.196 98.4074 283.364 97.347 283.364C97.0422 283.364 96.7351 283.349 96.4255 283.325C94.6142 283.176 92.7737 283.266 90.955 283.191C90.3943 283.166 89.7824 283.035 89.3021 282.776C88.0491 282.106 86.7571 281.835 85.4358 281.835C84.2802 281.835 83.1004 282.042 81.9034 282.372C81.2062 282.564 80.4626 282.628 79.741 282.628C79.685 282.628 79.6313 282.628 79.5752 282.625C78.4685 282.613 77.3617 282.447 76.2525 282.408C76.0307 282.401 75.7845 282.384 75.5407 282.384C75.1579 282.384 74.7849 282.425 74.5363 282.61C73.3052 283.53 72.0107 283.732 70.6967 283.732C70.0116 283.732 69.3217 283.678 68.6318 283.642C67.8224 283.598 66.9643 283.349 66.1721 283.349C65.8966 283.349 65.6285 283.378 65.3725 283.459C64.0146 283.876 62.686 283.985 61.3573 283.985C60.5577 283.985 59.7581 283.946 58.9512 283.91C58.5928 283.895 58.2149 283.873 57.8346 283.873C57.1301 283.873 56.4281 283.944 55.8674 284.241C54.9166 284.744 53.9952 284.865 53.0761 284.865C52.4788 284.865 51.884 284.814 51.2794 284.78C51.0551 284.768 50.8259 284.734 50.6016 284.734C50.5017 284.734 50.4018 284.741 50.3043 284.761C48.8196 285.058 47.3472 285.163 45.8771 285.163C44.3681 285.163 42.864 285.053 41.3574 284.929C40.375 284.848 39.5022 284.731 38.6148 284.249C37.0741 283.41 35.4165 282.73 33.7319 282.189C32.3424 281.743 30.8236 281.623 29.3901 281.296C28.5272 281.099 27.7031 280.777 26.867 280.504C25.4798 280.051 24.1268 279.466 22.6934 279.188C21.4135 278.939 20.258 278.547 19.0829 278.02C17.9737 277.52 16.8182 277.147 15.609 277.147C14.9898 277.147 14.3584 277.245 13.71 277.472C14.1098 274.514 14.512 271.553 14.9119 268.595C15.4482 268.791 15.9723 269.039 16.4867 269.31C17.6788 269.941 18.8538 270.431 20.1532 270.78C21.6086 271.17 22.981 271.874 24.3901 272.44C25.2433 272.784 26.0771 273.171 26.9523 273.437C28.4126 273.873 29.9508 274.105 31.3623 274.661C33.0761 275.336 34.7558 276.15 36.3233 277.118C37.2229 277.674 38.1102 277.854 39.1073 278.005C41.2111 278.317 43.3125 278.603 45.4261 278.603C46.3452 278.603 47.2643 278.549 48.1907 278.42C48.2492 278.413 48.3102 278.408 48.3735 278.408C48.6368 278.408 48.9098 278.471 49.178 278.503C49.9751 278.598 50.7602 278.725 51.5476 278.725C52.3009 278.725 53.059 278.608 53.8366 278.242C54.2706 278.035 54.7874 277.971 55.3237 277.971C55.8722 277.971 56.4427 278.037 56.9693 278.093C58.176 278.222 59.3681 278.359 60.5676 278.359C61.5329 278.359 62.5007 278.271 63.4856 278.023C63.6806 277.974 63.8829 277.952 64.0901 277.952C64.9507 277.952 65.899 278.305 66.7962 278.405C67.703 278.51 68.6099 278.642 69.5022 278.642C70.626 278.642 71.7303 278.432 72.7859 277.693C72.9882 277.552 73.271 277.511 73.5733 277.511C73.8926 277.511 74.2316 277.557 74.529 277.584C75.6553 277.686 76.7766 277.92 77.9004 277.996C78.1539 278.013 78.4124 278.025 78.6708 278.025C79.2096 278.025 79.7483 277.981 80.2626 277.866C81.2987 277.632 82.3178 277.489 83.3222 277.489C84.8458 277.489 86.3305 277.82 87.7712 278.686C88.2612 278.973 88.878 279.139 89.4484 279.195C91.2963 279.368 93.1613 279.375 94.997 279.619C95.4821 279.683 95.955 279.719 96.4206 279.719C97.3226 279.719 98.2051 279.583 99.0997 279.246C99.5922 279.064 100.163 278.956 100.709 278.956C100.95 278.956 101.189 278.978 101.413 279.022C102.098 279.161 102.781 279.232 103.451 279.232C104.846 279.232 106.194 278.927 107.447 278.305C108.634 277.715 109.829 277.615 111.031 277.615C111.647 277.615 112.264 277.642 112.881 277.642C113.376 277.645 113.922 278.371 114.358 278.371C114.383 278.371 114.405 278.369 114.429 278.364C114.665 278.32 114.904 278.3 115.143 278.3C115.553 278.3 115.962 278.354 116.374 278.405C116.784 278.456 117.193 278.51 117.603 278.51C118.1 278.51 118.597 278.432 119.095 278.188C119.295 278.091 119.541 278.049 119.802 278.049C120.202 278.049 120.633 278.144 120.982 278.276C121.762 278.571 122.442 279.124 123.237 279.605C123.785 279.278 124.341 278.942 125.014 278.539C125.64 279.198 126.347 279.451 127.098 279.451C127.659 279.451 128.242 279.31 128.836 279.09C129.809 280.119 130.928 280.619 132.262 280.619C132.442 280.619 132.627 280.609 132.815 280.592C132.908 280.582 133.003 280.577 133.1 280.577C133.658 280.577 134.263 280.721 134.77 280.95C137.125 282.008 139.692 281.76 142.14 282.218C143.897 282.552 145.711 282.61 147.466 282.952C148.88 283.225 150.24 283.781 151.64 284.129C151.984 284.217 152.371 284.283 152.742 284.283C152.973 284.283 153.2 284.258 153.405 284.195C153.785 284.073 154.148 284.02 154.499 284.02C155.401 284.02 156.225 284.371 157.02 284.829C157.749 285.243 158.454 285.636 159.292 285.636C159.404 285.636 159.516 285.629 159.633 285.614L160.219 285.655C160.753 286.121 161.24 286.297 161.71 286.297C162.505 286.297 163.251 285.794 164.092 285.331C164.487 285.109 164.977 285.053 165.497 285.053C165.774 285.053 166.062 285.07 166.35 285.087C166.637 285.102 166.923 285.119 167.196 285.119C167.205 285.119 167.215 285.119 167.223 285.119C167.237 285.119 167.249 285.119 167.261 285.119C168.007 285.119 168.756 285.219 169.529 285.273C169.758 285.543 169.98 286.072 170.348 286.209C172.378 286.955 174.273 288.376 176.479 288.376C176.862 288.376 177.254 288.332 177.659 288.235C178.266 288.091 178.856 288.03 179.431 288.03C181.793 288.03 183.924 289.078 186.113 289.826C186.986 290.124 187.793 290.407 188.707 290.407C188.863 290.407 189.024 290.399 189.187 290.38C189.346 290.363 189.504 290.358 189.663 290.358C189.877 290.358 190.092 290.37 190.309 290.39C190.175 290.382 190.041 290.377 189.906 290.377C189.702 290.377 189.499 290.387 189.299 290.414C189.102 290.441 188.912 290.453 188.724 290.453ZM408.889 81.4751C408.719 81.4751 408.541 81.4605 408.35 81.4288C408.382 81.3167 408.411 81.2045 408.438 81.085L408.653 81.1582L408.889 81.0582C409.092 81.0704 409.291 81.0778 409.491 81.0778C409.752 81.0778 410.01 81.0631 410.254 81.0119C409.891 81.3142 409.443 81.4751 408.889 81.4751Z" fill="url(#paint0_linear_100_32)"/>
<path d="M587.544 102.786C587.166 102.84 586.786 102.727 586.381 102.596C585.425 102.557 584.543 102.328 583.873 101.645C583.295 101.594 582.795 101.416 582.327 101.145C580.45 100.877 578.631 100.497 576.515 100.709C575.501 100.809 574.392 100.316 573.27 99.6388C571.257 99.0854 569.026 97.1448 567.347 95.4969C566.062 94.234 564.626 93.2176 563.173 92.2327L452.188 77.2912C451.711 77.3156 451.235 77.3497 450.762 77.4155C447.908 77.8177 444.88 79.0439 442.161 77.2838C441.554 77.0864 440.987 76.5988 440.406 76.1161C439.802 75.9918 439.08 76.9182 438.402 77.1498C437.035 77.6276 435.806 77.162 434.651 76.4306C432.744 76.1673 430.821 76.0674 429.351 77.6642C426.645 80.6017 424.163 78.1737 421.589 77.5252C420.672 78.0859 419.758 78.2078 418.812 77.6837C417.379 77.5301 415.969 77.3131 414.573 77.8177L414.526 77.847C413.895 79.022 412.825 79.0318 411.747 78.9977L411.508 79.1024L411.291 79.0342C410.857 80.8919 409.872 81.8402 407.959 81.3453L407.327 81.1478C406.233 80.8553 405.136 80.5555 404.054 80.2629C402.72 80.7651 401.511 80.436 400.321 79.9826C399.951 79.9777 399.534 79.6437 399.039 79.5169C397.515 79.5389 395.989 80.1751 394.463 79.5705C392.418 80.2385 390.328 80.7724 388.191 80.8796C387.423 80.9016 386.704 80.9553 386.338 80.1459L385.831 79.7949C382.762 79.5267 380.124 77.9909 377.318 76.8597C376.716 76.6111 376.072 76.1138 375.463 76.143C369.648 76.3941 364.383 74.4292 359.144 72.2742C354.746 70.458 350.565 71.4989 346.421 73.3784C343.12 74.8826 340.068 73.8343 337.038 72.4179C335.882 70.0143 333.13 71.9353 331.689 70.3044C329.78 70.4823 327.927 70.0557 326.087 69.5803L326.158 69.0562C324.551 69.1635 322.932 68.7319 321.277 68.5296L321.023 68.5223C320.199 68.4345 319.361 68.476 318.515 68.632C318.395 68.6491 318.276 68.6443 318.159 68.6418C318.008 68.6369 317.859 68.632 317.708 68.6686C316.667 68.9197 315.607 68.988 314.549 69.0733C313.03 68.6053 311.238 67.5252 310.007 66.3502C309.69 66.1819 309.4 65.9845 309.588 65.5457C309.373 65.2727 309.161 64.9899 308.949 64.7218C308.015 64.7583 307.079 64.6729 306.143 64.5876C304.373 64.4267 302.606 64.2658 300.868 64.9387C299.132 65.0167 297.394 64.8924 295.636 65.2873C294.056 65.6579 292.303 65.5652 291.27 63.8246C289.707 62.869 287.947 62.6203 286.209 62.2863C285.551 62.1108 284.902 62.4083 284.254 62.7057C283.257 63.1616 282.26 63.6198 281.241 62.3619C276.431 59.946 270.729 61.633 265.958 59.0392C263.786 58.3127 261.787 57.2766 259.366 58.988C258.242 59.7779 256.348 59.1513 255.99 57.1036C255.339 57.2255 255.095 58.6736 254.132 57.6716C252.618 56.1041 250.687 56.1308 248.813 56.1576C248.479 56.1625 248.147 56.1674 247.82 56.1625C244.932 56.1161 242.07 56.3381 239.683 54.2586C239.459 54.0709 239.025 53.9465 238.776 54.0245C234.761 55.3385 231.48 53.3346 228.074 51.7988C225.782 50.7676 223.81 51.0114 222.104 52.1304C221.787 52.4205 221.465 52.6643 221.18 53.0104C220.926 53.3322 220.707 53.4906 220.5 53.5516L220.168 53.849C219.727 54.4 219.483 54.6364 218.92 54.3024C216.375 52.8251 213.861 51.3113 211.331 49.8145C207.057 49.4025 203.13 47.5423 198.971 46.711L139.754 38.7369C138.845 38.8759 137.935 39.0027 137.021 39.0539C132.497 39.3172 128.235 40.8847 123.759 41.2991C123.184 41.3454 122.631 41.4259 122.099 41.1626L121.531 41.2821C120.1 42.4986 118.369 42.1353 116.734 41.9427C111.804 41.3991 106.875 41.1577 101.958 41.8086C100.159 42.045 98.8083 41.9792 97.6698 40.5238C93.6766 40.5994 90.2734 38.1445 86.2534 38.0007C81.5533 37.8276 76.858 37.4035 72.1676 38.1543C71.68 38.7077 71.1803 39.2026 70.4222 38.7687C69.7737 39.4756 69.1983 40.4995 67.9526 39.166C66.5386 39.6316 65.1321 39.4317 63.723 39.2318C62.8357 39.1051 61.9483 38.9783 61.0584 39.0222C60.7123 39.1514 60.3953 39.2416 60.1296 39.2684L59.7956 39.4829C57.6211 40.5312 57.0044 40.3094 56.4461 38.3128C56.0512 37.9837 55.6465 37.657 55.2565 37.3279C54.8981 37.0475 54.708 36.6941 54.4081 36.382C52.7333 37.0744 52.1287 36.7623 51.6167 34.968C51.2267 34.6414 50.8196 34.3074 50.4271 33.9807C47.7479 31.9573 46.8946 29.0392 46.0414 26.1211L43.6817 25.8043L11.0293 268.341C12.9771 267.79 14.786 268.407 16.4876 269.309C17.6797 269.94 18.8548 270.431 20.1541 270.779C21.6095 271.169 22.982 271.874 24.391 272.439C25.2443 272.783 26.0781 273.171 26.9533 273.436C28.4135 273.873 29.9518 274.104 31.3633 274.66C33.077 275.335 34.7567 276.15 36.3243 277.118C37.2238 277.673 38.1112 277.854 39.1082 278.005C42.1263 278.451 45.1346 278.846 48.1916 278.419C48.5086 278.378 48.8498 278.463 49.1789 278.502C50.7416 278.69 52.2457 278.992 53.8376 278.241C54.7128 277.824 55.9268 277.983 56.9702 278.093C59.1472 278.324 61.2778 278.58 63.4865 278.022C64.4933 277.766 65.683 278.283 66.7971 278.405C68.8449 278.639 70.8902 279.021 72.7868 277.693C73.1988 277.405 73.9497 277.529 74.5299 277.583C75.6562 277.685 76.7775 277.92 77.9014 277.995C78.6863 278.049 79.5006 278.034 80.2636 277.866C82.8696 277.278 85.3831 277.252 87.7722 278.685C88.2622 278.973 88.8789 279.138 89.4494 279.195C91.2972 279.368 93.1623 279.375 94.9979 279.619C96.4192 279.806 97.7428 279.758 99.1007 279.246C99.8101 278.982 100.683 278.875 101.414 279.021C103.528 279.448 105.593 279.226 107.448 278.305C109.245 277.412 111.061 277.639 112.882 277.642C113.404 277.644 113.981 278.451 114.43 278.363C115.076 278.241 115.727 278.322 116.375 278.405C117.282 278.519 118.189 278.634 119.096 278.188C119.6 277.941 120.41 278.059 120.983 278.275C121.763 278.57 122.443 279.124 123.238 279.604C123.786 279.277 124.342 278.941 125.015 278.539C126.105 279.687 127.445 279.604 128.837 279.09C129.944 280.257 131.236 280.745 132.816 280.591C133.45 280.53 134.179 280.682 134.771 280.95C137.126 282.008 139.693 281.759 142.141 282.217C143.898 282.551 145.712 282.61 147.467 282.951C148.881 283.224 150.241 283.78 151.641 284.129C152.204 284.272 152.874 284.358 153.406 284.194C154.756 283.763 155.917 284.192 157.021 284.828C157.845 285.296 158.642 285.738 159.634 285.613L160.22 285.655C161.653 286.905 162.755 286.069 164.093 285.331C164.703 284.992 165.534 285.038 166.351 285.087C166.648 285.104 166.943 285.121 167.223 285.118C167.982 285.116 168.745 285.218 169.53 285.272C169.759 285.543 169.981 286.072 170.349 286.208C172.73 287.083 174.927 288.89 177.66 288.234C180.758 287.5 183.391 288.895 186.114 289.826C187.138 290.174 188.067 290.504 189.188 290.379C190.09 290.284 191.026 290.499 191.945 290.601C193.501 290.779 194.971 291.518 196.633 291.115C197.206 290.979 197.916 291.374 198.547 291.569C198.864 291.666 199.137 291.978 199.442 292C201.828 292.164 203.369 294.029 205.373 294.96C205.661 295.096 205.863 295.535 205.985 295.877C206.782 298.124 207.63 298.658 210.041 298.224C212.131 297.854 214.203 297.383 216.292 296.991C216.804 296.896 217.382 296.791 217.862 296.932C220.212 297.607 222.667 297.81 224.937 298.912C226.577 299.709 228.484 299.948 230.28 300.399C230.575 300.474 230.97 300.416 231.238 300.274C232.562 299.558 233.854 298.785 235.161 298.051C235.682 297.756 236.212 297.476 236.758 297.242C237.309 297.01 237.998 296.981 238.435 296.622C240.785 294.675 242.779 296.003 244.839 297.166C245.292 297.422 245.817 297.581 246.324 297.72C247.347 298.005 248.249 298.339 249.022 299.236C249.551 299.848 250.658 300.06 251.545 300.233C252.884 300.496 254.069 300.713 254.795 302.147C255.278 303.105 256.233 303.614 257.513 303.178C258.357 302.89 259.325 302.773 260.222 302.834C261.209 302.902 262.174 302.693 263.137 302.481C264.444 302.193 265.746 301.908 267.099 302.32C267.623 302.481 268.218 302.707 268.569 303.1C269.841 304.524 271.133 304.777 272.884 303.882C273.257 303.69 273.766 303.619 274.19 303.668C276.765 303.994 279.2 304.784 281.567 305.791L281.272 307.971C281.923 308.102 282.555 308.344 283.162 308.717C283.883 309.158 284.39 309.258 285.112 308.634C285.802 308.034 286.589 307.715 287.445 307.637C288.315 307.79 289.215 308.136 289.885 308.66C291.072 309.582 292.35 310.072 293.671 310.357L294.051 307.534H294.068C296.887 307.654 299.758 308.068 302.559 307.12C304.105 306.596 305.626 306.279 307.235 307.01C307.832 307.283 308.725 307.268 309.351 307.02C310.697 306.479 312.038 306.61 313.378 306.742C314.278 306.832 315.175 306.92 316.072 306.805L316.27 306.832C317.503 306.976 318.2 308.524 319.688 308.119C320.897 307.785 322.181 307.8 323.386 307.456C325.178 306.947 326.479 307.793 327.771 308.812C328.025 309.016 328.257 309.258 328.186 309.182C329.451 309.309 330.334 309.426 331.216 309.47C331.572 309.489 331.93 309.48 332.289 309.47C332.786 309.455 333.281 309.441 333.766 309.506C335.604 309.755 337.474 309.826 339.195 310.716C339.758 311.015 340.526 311.162 341.143 311.04C343.244 310.628 344.875 311.698 346.528 312.683C347.442 313.227 348.3 313.592 349.336 313.005C349.673 312.817 350.146 312.671 350.48 312.766C352.615 313.348 355.026 313.08 356.784 314.87L357.481 315.204C359.307 314.524 360.75 316.018 362.452 316.05C363.359 316.064 364.278 316.284 365.175 316.201C366.864 316.054 368.547 315.701 370.236 315.542C370.802 315.491 371.377 315.499 371.95 315.506C372.849 315.518 373.746 315.53 374.592 315.316C376.17 314.906 377.715 314.623 379.317 314.672C380.107 314.706 380.897 314.726 381.684 314.723C382.603 314.721 383.522 314.699 384.524 314.684C385.16 315.148 385.911 315.684 386.662 316.227C388.459 317.537 390.58 317.29 392.584 317.286C393.754 317.286 394.663 317.61 395.475 318.307C397.045 319.65 398.8 320.223 400.797 319.799C401.852 319.577 402.708 319.797 403.654 320.287C404.824 320.894 406.172 321.14 407.364 321.705C408.603 322.295 409.841 322.793 411.177 323.124C413.712 323.758 416.008 325.001 418.229 326.405C418.819 326.776 419.582 326.878 420.287 327.02C420.499 327.061 420.726 327.039 420.95 327.017C421.194 326.995 421.438 326.971 421.662 327.027C423.027 327.356 424.148 327.013 425.024 325.701C425.416 325.984 425.818 326.145 426.03 326.44C426.708 327.383 427.596 327.644 428.666 327.512C429.838 327.359 430.94 327.393 431.601 328.685C431.74 328.953 432.096 329.158 432.393 329.26C433.629 329.682 434.79 330.274 435.97 330.808C437.327 331.42 439.078 331.301 440.638 331.181C441.452 331.123 442.137 330.967 442.893 331.422C443.376 331.713 443.997 331.766 444.561 331.91C446.635 332.441 448.934 332.483 450.119 334.855C450.297 335.199 450.896 335.628 451.167 335.535C452.452 335.123 453.498 335.825 454.324 336.457C456.901 338.402 460.043 338.5 462.883 339.538C463.305 339.689 463.805 339.636 464.266 339.618C466.613 339.528 468.827 339.757 470.748 341.42C471.728 342.261 472.995 341.92 473.907 341.169C474.841 340.399 475.833 340.316 476.891 340.199C477.603 340.128 478.312 339.935 479.021 339.806C479.475 339.723 479.967 339.511 480.389 339.611C481.92 339.977 483.439 340.452 484.96 340.886L485.34 341.006C487.793 340.976 489.887 342.059 492.015 343.151C492.742 343.526 493.702 343.4 494.558 343.524C495.67 343.68 496.774 343.865 497.881 344.014C498.471 344.094 499.075 344.15 499.663 344.15C500.65 344.15 501.671 344.28 502.617 344.033C505.004 343.424 507.608 343.819 509.797 342.181C510.253 341.842 511.198 342.071 511.871 342.232C513.473 342.632 515.045 343.139 516.669 343.609C516.947 343.075 517.134 342.732 517.378 342.271C518.999 342.712 520.552 342.312 522.203 341.888C524.058 341.413 526.094 341.281 527.893 342.444C528.207 342.641 528.668 342.593 529.051 342.676C530.067 342.885 531.084 343.109 532.1 343.326C532.359 343.382 532.632 343.495 532.881 343.468C534.719 343.265 536.225 344.121 537.734 345.013C538.066 345.208 538.522 345.489 538.834 345.391C540.053 345.009 541.257 345.162 542.469 345.318C543.563 345.457 544.662 345.596 545.779 345.338C546.254 344.726 548.058 344.065 548.331 344.406C548.668 344.831 548.943 345.408 549.389 345.62C551.713 346.754 552.9 348.894 553.992 351.118C554.445 352.037 555.177 352.366 556.062 352.505C556.915 352.641 557.761 352.766 558.602 352.897C559.648 353.068 560.606 353.219 561.686 352.612C562.305 352.261 562.971 352.008 563.653 351.934L597 104.232C593.846 103.81 590.701 103.288 587.544 102.786Z" fill="white"/>
<path d="M11.5021 111.806C8.54746 111.804 1.78974 99.522 0.158833 97.4571C-1.55252 95.2923 11.129 84.8292 11.1607 81.287C11.1948 77.7302 8.40353 74.0906 5.84868 71.3456C3.28897 68.5982 4.13982 59.5831 4.13982 59.5831C4.13982 59.5831 20.839 51.1238 41.6921 40.5827L33.5936 100.736C23.2377 105.977 15.5635 109.863 12.8965 111.214C12.3626 111.484 12.0286 111.653 11.9165 111.711C11.7873 111.775 11.6508 111.806 11.5021 111.806ZM118.927 42.1477C118.201 42.1477 117.457 42.0283 116.733 41.943C113.896 41.631 111.058 41.4164 108.223 41.4164C106.134 41.4164 104.044 41.5334 101.958 41.8088C101.48 41.8722 101.036 41.9137 100.617 41.9137C99.4565 41.9137 98.5057 41.5943 97.6696 40.5241C97.6086 40.5265 97.5476 40.5266 97.4891 40.5266C93.5715 40.5266 90.2122 38.1423 86.2532 38.0009C83.5935 37.901 80.9338 37.7255 78.2766 37.7255C76.2385 37.7255 74.2029 37.8279 72.1674 38.1546C71.8114 38.5593 71.4459 38.9346 70.9802 38.9346C70.8096 38.9346 70.6243 38.886 70.422 38.7689C70.0026 39.2248 69.615 39.8148 69.0567 39.8148C68.7496 39.8148 68.3936 39.6368 67.9523 39.1663C67.3136 39.3759 66.675 39.4515 66.0362 39.4515C65.2659 39.4515 64.4956 39.3418 63.7228 39.2321C62.9549 39.1224 62.1845 39.0127 61.4166 39.0127C61.2972 39.0127 61.1777 39.0176 61.0582 39.0225C60.712 39.1517 60.3951 39.2418 60.1294 39.2686L59.7954 39.4831C58.9616 39.8854 58.3571 40.1 57.8963 40.1C57.1552 40.1 56.7896 39.5441 56.4459 38.313C56.0509 37.9839 55.6463 37.6573 55.2562 37.3281C54.8979 37.0478 54.7077 36.6943 54.4079 36.3823C53.8716 36.6041 53.4448 36.7236 53.0962 36.7236C52.4697 36.7236 52.0919 36.3409 51.7798 35.4828C84.4028 19.0006 121.899 0.102501 122.511 0.00498962C122.531 0.00254822 122.55 0.000106812 122.569 0.000106812C122.682 0.000106812 122.755 0.0611038 122.794 0.170807C123.096 0.994789 121.614 4.57839 121.853 6.26049C121.889 6.5189 121.989 6.69688 122.138 6.82365C123.125 7.6525 126.282 6.21171 127.784 9.89283C129.51 14.1298 137.933 17.2526 140.714 19.4467C143.491 21.6358 144.778 26.8577 145.019 27.3038C145.217 27.6694 140.639 35.2901 140.634 38.8567L139.754 38.7372C138.844 38.8761 137.935 39.003 137.021 39.0541C132.496 39.3174 128.235 40.8849 123.759 41.2994C123.501 41.3213 123.247 41.3481 122.999 41.3481C122.691 41.3481 122.392 41.3067 122.099 41.1628L121.531 41.2824C120.734 41.9601 119.842 42.1477 118.927 42.1477Z" fill="url(#paint1_linear_100_32)"/>
<path d="M33.5938 100.736L41.6923 40.5824C44.9711 38.9247 48.3451 37.2183 51.78 35.4825C52.092 36.3406 52.4698 36.7233 53.0964 36.7233C53.445 36.7233 53.8717 36.6039 54.408 36.3821C54.7079 36.6941 54.898 37.0476 55.2564 37.3279C55.6464 37.657 56.0511 37.9837 56.446 38.3128C56.7897 39.5439 57.1553 40.0998 57.8964 40.0998C58.3572 40.0998 58.9618 39.8852 59.7955 39.4829L60.1295 39.2684C60.3953 39.2416 60.7122 39.1515 61.0584 39.0223C61.1778 39.0174 61.2973 39.0125 61.4168 39.0125C62.1847 39.0125 62.955 39.1222 63.7229 39.2319C64.4957 39.3416 65.266 39.4513 66.0364 39.4513C66.6751 39.4513 67.3138 39.3757 67.9525 39.1661C68.3937 39.6366 68.7497 39.8146 69.0569 39.8146C69.6151 39.8146 70.0028 39.2246 70.4221 38.7687C70.6244 38.8857 70.8097 38.9344 70.9804 38.9344C71.446 38.9344 71.8116 38.5591 72.1675 38.1544C74.2031 37.8277 76.2387 37.7253 78.2767 37.7253C80.9339 37.7253 83.5937 37.9008 86.2533 38.0007C90.2124 38.1421 93.5716 40.5264 97.4892 40.5264C97.5477 40.5264 97.6087 40.5263 97.6697 40.5239C98.5059 41.5941 99.4566 41.9135 100.617 41.9135C101.036 41.9135 101.48 41.872 101.958 41.8086C104.045 41.5331 106.134 41.4162 108.223 41.4162C111.058 41.4162 113.896 41.6307 116.733 41.9428C117.457 42.0281 118.201 42.1475 118.927 42.1475C119.842 42.1475 120.734 41.9598 121.531 41.2821L122.099 41.1626C122.392 41.3064 122.692 41.3478 122.999 41.3478C123.247 41.3478 123.501 41.3211 123.759 41.2992C128.235 40.8847 132.496 39.3172 137.021 39.0539C137.935 39.0027 138.845 38.8759 139.754 38.7369L140.634 38.8564C140.634 39.639 140.853 40.2264 141.392 40.4995C144.4 42.0109 141.672 46.0383 141.672 46.0383C141.672 46.0383 141.29 46.2309 140.568 46.5965C131.424 51.226 67.833 83.4078 33.5938 100.736Z" fill="#F0F0E5"/>
<path opacity="0.15" d="M189.859 106.389L191.188 108.728C176.614 116.038 168.426 123.796 166.624 132C165.88 135.386 166.25 138.675 167.733 141.868C170.836 139.546 174.016 138.743 177.272 139.458C180.528 140.173 183.084 141.895 184.942 144.624C186.829 147.222 187.386 150.28 186.613 153.796C185.812 157.442 183.801 160.072 180.58 161.685C177.49 163.327 174.121 163.748 170.475 162.947C166.047 161.974 162.577 159.437 160.065 155.336C157.712 151.134 157.193 146.037 158.509 140.047C161.569 126.112 172.02 114.893 189.859 106.389ZM153.721 98.4509L155.05 100.79C140.476 108.101 132.287 115.858 130.485 124.062C129.742 127.448 130.111 130.738 131.594 133.93C134.698 131.609 137.878 130.805 141.133 131.52C144.389 132.236 146.946 133.957 148.804 136.686C150.69 139.285 151.247 142.342 150.475 145.858C149.674 149.505 147.663 152.135 144.442 153.748C141.351 155.39 137.982 155.81 134.336 155.009C129.908 154.037 126.438 151.5 123.926 147.399C121.573 143.196 121.054 138.099 122.37 132.109C125.431 118.174 135.881 106.955 153.721 98.4509Z" fill="#50735F"/>
<defs>
<linearGradient id="paint0_linear_100_32" x1="-1828.43" y1="81.1484" x2="924.077" y2="1389.84" gradientUnits="userSpaceOnUse">
<stop stop-color="#BBB9B9"/>
<stop offset="1" stop-color="#D9D9D9"/>
</linearGradient>
<linearGradient id="paint1_linear_100_32" x1="-1828.43" y1="81.148" x2="924.077" y2="1389.84" gradientUnits="userSpaceOnUse">
<stop stop-color="#50735F"/>
<stop offset="1" stop-color="#DBD9D3"/>
</linearGradient>
</defs>
</svg>
