<svg width="21" height="32" viewBox="0 0 21 32" fill="none" xmlns="http://www.w3.org/2000/svg">
<path d="M11.68 18.72C11.6533 18.7733 11.6133 18.8133 11.56 18.84C11.5333 18.8667 11.52 18.8933 11.52 18.92C11.6267 18.92 11.76 18.8933 11.92 18.84L11.68 18.72L11.76 18.44C11.84 18.4667 11.96 18.4133 12.12 18.28C12.28 18.12 12.3867 18.1333 12.44 18.32C12.36 18.32 12.32 18.36 12.32 18.44H12.24C12.2667 18.3867 12.2133 18.36 12.08 18.36L12.12 18.44C12.1733 18.4133 12.2133 18.4133 12.24 18.44C12.24 18.4933 12.2667 18.5333 12.32 18.56C12.4 18.56 12.44 18.5733 12.44 18.6C12.4933 18.6 12.56 18.5733 12.64 18.52C12.72 18.4667 12.8 18.44 12.88 18.44C12.9067 18.3867 12.8933 18.3467 12.84 18.32C12.8133 18.2667 12.8 18.2267 12.8 18.2C12.8533 18.1733 12.9733 18.16 13.16 18.16C13.1867 18.2133 13.1733 18.2533 13.12 18.28C13.0667 18.28 13.04 18.3067 13.04 18.36C13.12 18.36 13.1867 18.3067 13.24 18.2C13.24 18.1733 13.2133 18.1333 13.16 18.08C13.3467 18.0267 13.6533 17.88 14.08 17.64C14.5333 17.3733 14.9067 17.2267 15.2 17.2C15.2 17.2533 15.1467 17.3067 15.04 17.36C14.96 17.3867 14.92 17.4267 14.92 17.48C14.8933 17.4267 14.8533 17.4133 14.8 17.44C14.7467 17.4667 14.6933 17.48 14.64 17.48C14.6667 17.56 14.7333 17.5733 14.84 17.52C14.8667 17.4933 14.8933 17.48 14.92 17.48C14.9467 17.5333 14.9333 17.5733 14.88 17.6C14.8267 17.6 14.8133 17.6267 14.84 17.68H14.8H14.84C14.8667 17.68 14.8933 17.68 14.92 17.68C14.9733 17.6533 15.0133 17.64 15.04 17.64C15.04 17.5067 15.2 17.4 15.52 17.32C15.84 17.24 16.0133 17.1067 16.04 16.92C16.0933 17.0267 16.1867 17.0533 16.32 17C16.4533 16.9467 16.5867 16.9333 16.72 16.96C16.6933 16.88 16.7067 16.84 16.76 16.84C16.84 16.8133 16.9333 16.7867 17.04 16.76C17.1733 16.7333 17.2667 16.6933 17.32 16.64C17.5867 16.6933 17.72 16.6933 17.72 16.64C17.7467 16.6133 17.76 16.5733 17.76 16.52C17.9467 16.52 18.3733 16.4533 19.04 16.32C18.9867 16.2667 18.8267 16.2533 18.56 16.28C18.32 16.3067 18.1467 16.28 18.04 16.2H17.84C17.9467 16.2533 17.9733 16.32 17.92 16.4C17.84 16.3733 17.8 16.3067 17.8 16.2C17.72 16.3067 17.5733 16.3733 17.36 16.4C17.1467 16.4 16.9867 16.44 16.88 16.52C16.88 16.4933 16.8267 16.4 16.72 16.24C16.7467 16.2667 16.8267 16.2667 16.96 16.24C17.0933 16.1867 17.1733 16.2133 17.2 16.32C17.2267 16.2933 17.24 16.24 17.24 16.16C17.24 16.08 17.2667 16.0267 17.32 16H17.44V16.16C17.6533 16.1067 17.7733 16.04 17.8 15.96C17.8533 16.0133 17.8667 16.0533 17.84 16.08C17.8933 16.08 17.9333 16.0533 17.96 16C17.96 15.9733 17.9467 15.9467 17.92 15.92C17.8933 15.8933 17.8533 15.9067 17.8 15.96V15.72C17.8 15.7733 17.8533 15.8267 17.96 15.88C18.0667 15.9067 18.1067 15.96 18.08 16.04C18.1333 16.04 18.1733 16.0267 18.2 16C18.2267 15.9467 18.2533 15.9467 18.28 16C18.2267 15.84 18.1467 15.76 18.04 15.76C18.3067 15.6 18.5067 15.6133 18.64 15.8C18.6133 15.88 18.5733 15.92 18.52 15.92C18.4667 15.8933 18.4267 15.8933 18.4 15.92C18.4533 16.0533 18.5467 16.04 18.68 15.88C18.7333 15.8267 18.76 15.7733 18.76 15.72C18.8667 15.8267 19.0933 15.8533 19.44 15.8C19.4667 15.9067 19.5467 16.0133 19.68 16.12C19.8133 16.2 19.8933 16.2533 19.92 16.28C19.92 16.3333 19.9067 16.3733 19.88 16.4L19.84 16.44C20.1333 16.5467 20.3867 16.7333 20.6 17C20.6 17.0267 20.5867 17.08 20.56 17.16C20.5067 17.2133 20.52 17.24 20.6 17.24C20.5467 17.4267 20.4133 17.5733 20.2 17.68C19.9867 17.76 19.7867 17.7467 19.6 17.64C19.6 17.6133 19.6 17.5867 19.6 17.56C19.6267 17.5333 19.64 17.5067 19.64 17.48C19.32 17.2933 18.9467 17.2267 18.52 17.28C18.0933 17.3067 17.7333 17.3733 17.44 17.48C16.8267 17.5867 16.1867 17.7467 15.52 17.96C14.8533 18.1733 14.1333 18.4267 13.36 18.72C12.5867 19.0133 11.9867 19.2267 11.56 19.36C11.4533 19.44 10.8933 19.6933 9.88 20.12C9.90667 20.1733 9.89333 20.2133 9.84 20.24C9.84 20.3467 9.74667 20.5867 9.56 20.96C9.53333 20.96 9.49333 20.9867 9.44 21.04C9.46667 21.12 9.50667 21.12 9.56 21.04C9.56 21.0133 9.56 20.9867 9.56 20.96C9.64 21.0133 9.61333 21.1067 9.48 21.24C9.34667 21.3733 9.33333 21.48 9.44 21.56C9.36 21.56 9.29333 21.7067 9.24 22C9.21333 22.2933 9.10667 22.4667 8.92 22.52C8.92 22.5467 8.93333 22.5867 8.96 22.64C8.98667 22.6667 8.98667 22.7067 8.96 22.76C8.93333 22.7067 8.89333 22.7067 8.84 22.76C8.81333 22.7867 8.77333 22.8 8.72 22.8C8.72 22.8267 8.76 22.8533 8.84 22.88C8.92 22.88 8.94667 22.9067 8.92 22.96C8.94667 23.0667 8.86667 23.1467 8.68 23.2C8.68 23.28 8.72 23.3067 8.8 23.28C8.77333 23.3333 8.64 23.3867 8.4 23.44C8.42667 23.4667 8.50667 23.4667 8.64 23.44C8.66667 23.4933 8.64 23.5867 8.56 23.72C8.48 23.8267 8.48 23.92 8.56 24C8.48 24 8.41333 24.0267 8.36 24.08C8.44 24.1867 8.46667 24.28 8.44 24.36C8.44 24.4133 8.4 24.5333 8.32 24.72C8.26667 24.88 8.22667 24.9867 8.2 25.04C8.14667 24.9867 8.08 24.96 8 24.96C8.10667 25.0133 8.14667 25.1067 8.12 25.24C8.09333 25.3467 8.02667 25.4133 7.92 25.44C7.92 26.0533 7.76 26.5333 7.44 26.88C7.52 27.2267 7.41333 27.5467 7.12 27.84C7.12 27.9733 7.09333 28.1067 7.04 28.24C7.01333 28.4 6.96 28.5733 6.88 28.76C6.82667 28.9467 6.78667 29.0933 6.76 29.2H6.56C6.64 29.3067 6.62667 29.4933 6.52 29.76C6.44 30.0267 6.41333 30.2267 6.44 30.36C6.30667 30.52 6.21333 30.7467 6.16 31.04C6.10667 31.36 6.05333 31.6 6 31.76H5.56V31.56C5.48 31.56 5.45333 31.5867 5.48 31.64C5.34667 31.5867 5.29333 31.4667 5.32 31.28C5.29333 31.2267 5.26667 31.24 5.24 31.32C5.21333 31.3733 5.17333 31.3867 5.12 31.36C5.14667 31.28 5.13333 31.1867 5.08 31.08C5.05333 31 5.05333 30.9333 5.08 30.88L4.96 30.84L4.88 30.88C4.58667 30.24 4.54667 29.7867 4.76 29.52C4.81333 29.52 4.82667 29.56 4.8 29.64C4.8 29.6933 4.81333 29.72 4.84 29.72C6.25333 25.8267 7.22667 22.96 7.76 21.12C6.21333 21.8133 5.33333 22.2 5.12 22.28C4.05333 22.7067 3.25333 22.92 2.72 22.92C2 22.92 1.50667 22.4667 1.24 21.56C1.21333 21.5067 1.14667 21.44 1.04 21.36C0.933333 20.5867 0.933333 19.8533 1.04 19.16C1.17333 18.44 1.42667 17.5733 1.8 16.56C2.2 15.5467 2.42667 14.9333 2.48 14.72C2.48 14.5867 2.46667 14.52 2.44 14.52C2.62667 14.0933 2.98667 13.28 3.52 12.08C4.05333 10.8533 4.48 9.92 4.8 9.28C4.8 9.25333 4.78667 9.21333 4.76 9.16C4.73333 9.10667 4.73333 9.06667 4.76 9.04C4.81333 9.01333 4.85333 8.97333 4.88 8.92C4.90667 8.86667 4.92 8.8 4.92 8.72C4.94667 8.61333 4.97333 8.53333 5 8.48C5.16 8.45333 5.26667 8.18667 5.32 7.68C5.53333 7.62667 5.66667 7.38667 5.72 6.96C5.85333 6.69333 6.04 6.32 6.28 5.84C6.52 5.33333 6.73333 4.88 6.92 4.48C7.13333 4.08 7.33333 3.70667 7.52 3.36C7.57333 3.38667 7.62667 3.37333 7.68 3.32C7.86667 3.42667 8.08 3.64 8.32 3.96C8.56 4.25333 8.76 4.45333 8.92 4.56C8.92 4.93333 8.81333 5.13333 8.6 5.16C8.41333 5.4 8.17333 5.77333 7.88 6.28C7.61333 6.78667 7.41333 7.13333 7.28 7.32V7.44C7.22667 7.52 7.10667 7.77333 6.92 8.2C6.76 8.62667 6.58667 8.90667 6.4 9.04C6.4 9.28 6.28 9.61333 6.04 10.04C5.82667 10.44 5.72 10.7333 5.72 10.92H5.56C5.50667 11.24 5.17333 12.0533 4.56 13.36C4.58667 13.7067 4.48 14.0933 4.24 14.52C4 14.92 3.86667 15.2 3.84 15.36C3.73333 15.4133 3.66667 15.4933 3.64 15.6C3.61333 15.68 3.6 15.7733 3.6 15.88C3.6 15.9867 3.58667 16.0533 3.56 16.08C3.53333 16.16 3.46667 16.2667 3.36 16.4C3.28 16.5333 3.22667 16.64 3.2 16.72C3.12 17.4933 2.94667 17.9733 2.68 18.16C2.65333 18.48 2.53333 18.96 2.32 19.6C2.10667 20.2133 2 20.68 2 21C2.18667 21.1333 2.52 21.1467 3 21.04C3.48 20.9333 3.81333 20.9067 4 20.96C4 20.9067 4.02667 20.88 4.08 20.88C4.13333 20.88 4.16 20.84 4.16 20.76C4.26667 20.7867 4.33333 20.8 4.36 20.8C4.38667 20.7733 4.42667 20.7333 4.48 20.68C4.56 20.6 4.61333 20.56 4.64 20.56C4.8 20.6133 4.94667 20.6267 5.08 20.6C5.08 20.5733 5.05333 20.5467 5 20.52C4.97333 20.4667 4.97333 20.4133 5 20.36C5.05333 20.3333 5.14667 20.32 5.28 20.32C5.41333 20.2933 5.52 20.2667 5.6 20.24C5.70667 20.1867 5.77333 20.1067 5.8 20C5.85333 20.0267 5.94667 20.04 6.08 20.04C6.24 20.0133 6.32 20.0267 6.32 20.08C6.53333 19.7867 6.88 19.56 7.36 19.4C7.36 19.4267 7.34667 19.4533 7.32 19.48C7.29333 19.5067 7.28 19.5333 7.28 19.56C7.2 19.5867 7.08 19.64 6.92 19.72C6.78667 19.7733 6.70667 19.8133 6.68 19.84C6.68 19.92 6.73333 19.9333 6.84 19.88C6.97333 19.8 7.09333 19.7733 7.2 19.8C7.28 19.8 7.30667 19.7733 7.28 19.72C7.25333 19.64 7.25333 19.5867 7.28 19.56C7.33333 19.5333 7.4 19.5333 7.48 19.56C7.58667 19.56 7.64 19.52 7.64 19.44C7.66667 19.4667 7.69333 19.5067 7.72 19.56C7.77333 19.6133 7.81333 19.64 7.84 19.64C7.86667 19.64 7.90667 19.6267 7.96 19.6C7.93333 19.68 7.94667 19.7333 8 19.76C7.92 19.8667 7.74667 19.9867 7.48 20.12C7.21333 20.2267 7.04 20.32 6.96 20.4C7.06667 20.48 7.2 20.4533 7.36 20.32C7.54667 20.1867 7.68 20.1333 7.76 20.16C7.84 20.16 7.88 20.1067 7.88 20C7.98667 20 8.05333 20.0133 8.08 20.04C8.13333 19.9867 8.17333 19.88 8.2 19.72C8.25333 19.56 8.30667 19.4533 8.36 19.4C8.36 19.3733 8.29333 19.36 8.16 19.36C8.16 19.3333 8.2 19.3067 8.28 19.28C8.36 19.2533 8.38667 19.2133 8.36 19.16H8.56C8.56 19.1067 8.58667 19.0267 8.64 18.92C8.69333 18.8133 8.69333 18.7333 8.64 18.68C9.04 17.7467 9.28 17.0933 9.36 16.72C9.73333 15.8133 9.92 15.3067 9.92 15.2C9.94667 15.2 9.97333 15.1867 10 15.16C10.0267 15.1333 10.0533 15.12 10.08 15.12C10.08 14.56 10.2267 14.1867 10.52 14C10.5733 13.5733 10.6133 13.3467 10.64 13.32C10.72 12.9467 10.9067 12.4 11.2 11.68C11.4933 10.9333 11.68 10.3733 11.76 10C11.92 9.73333 12.1067 9.26667 12.32 8.6C12.5333 7.90667 12.72 7.42667 12.88 7.16C12.8267 6.89333 12.9067 6.69333 13.12 6.56C13.1467 6.24 13.2533 5.84 13.44 5.36C13.6267 4.85333 13.72 4.46667 13.72 4.2C14.36 2.6 14.64 1.44 14.56 0.72C14.6133 0.746666 14.6933 0.786666 14.8 0.839998C14.9067 0.893332 14.9867 0.92 15.04 0.92C15.04 0.973332 15.0133 1.02667 14.96 1.08C14.9867 1.10667 15.08 1.17333 15.24 1.28C15.4267 1.36 15.5333 1.46666 15.56 1.6C15.72 1.6 15.88 1.73333 16.04 2C16.04 2.13333 16.0133 2.29333 15.96 2.48C15.9067 2.66667 15.8533 2.81333 15.8 2.92C15.7733 3 15.7867 3.09333 15.84 3.2C15.7333 3.44 15.56 3.94667 15.32 4.72C15.1067 5.49333 14.9067 6.05333 14.72 6.4C14.5867 7.17333 14.3733 7.73333 14.08 8.08C14.1333 8.24 14.1333 8.36 14.08 8.44C14.0533 8.52 13.9867 8.62667 13.88 8.76C13.7733 8.89333 13.7067 9 13.68 9.08H13.84C13.84 9.13333 13.7733 9.2 13.64 9.28C13.5867 9.86667 13.44 10.2133 13.2 10.32C13.2 10.3733 13.2 10.4533 13.2 10.56C13.2267 10.64 13.24 10.7067 13.24 10.76C13.24 10.8133 13.2133 10.8667 13.16 10.92C13.1333 10.9733 13.0667 11.0133 12.96 11.04C13.0667 11.0667 13.08 11.2 13 11.44C12.9467 11.68 12.92 11.8133 12.92 11.84H12.72C12.6933 11.8933 12.72 11.92 12.8 11.92C12.8267 11.9467 12.8267 11.9733 12.8 12C12.64 12.0267 12.5867 12.1867 12.64 12.48C12.56 12.4267 12.4933 12.4533 12.44 12.56C12.4133 12.6133 12.4267 12.64 12.48 12.64C12.5333 12.6667 12.5467 12.6933 12.52 12.72C12.28 12.8533 12.12 13.28 12.04 14C12.04 14.0267 11.9733 14.04 11.84 14.04C11.92 14.2533 11.9467 14.4 11.92 14.48C11.8933 14.48 11.8667 14.4667 11.84 14.44C11.84 14.3867 11.8133 14.36 11.76 14.36C11.7867 14.44 11.7467 14.6 11.64 14.84C11.5333 15.0533 11.5067 15.2267 11.56 15.36C11.5067 15.36 11.4267 15.3867 11.32 15.44C11.4267 15.44 11.44 15.5067 11.36 15.64C11.3067 15.7733 11.3067 15.88 11.36 15.96H11.28C11.2267 15.96 11.2 15.9867 11.2 16.04C11.2 16.0667 11.2 16.1067 11.2 16.16C11.2533 16.16 11.2933 16.1333 11.32 16.08C11.32 16.16 11.3067 16.2267 11.28 16.28C11.28 16.3067 11.2667 16.3467 11.24 16.4C11.2133 16.4267 11.1733 16.4533 11.12 16.48C11.0933 16.48 11.0533 16.48 11 16.48C11.0267 16.5333 11.0133 16.6267 10.96 16.76C10.9333 16.8933 10.9467 16.9867 11 17.04C10.8933 17.12 10.7867 17.2933 10.68 17.56C10.6 17.8267 10.5067 18.0133 10.4 18.12C10.4533 18.1467 10.5067 18.0933 10.56 17.96C10.5867 18.0133 10.5733 18.12 10.52 18.28C10.4933 18.44 10.5067 18.56 10.56 18.64C10.56 18.6667 10.52 18.72 10.44 18.8C10.36 18.8533 10.32 18.9067 10.32 18.96C10.32 18.9867 10.3467 19 10.4 19C10.4533 19 10.4933 19.0267 10.52 19.08C10.3333 19.1867 10.24 19.2667 10.24 19.32C10.2933 19.32 10.3467 19.3067 10.4 19.28C10.4533 19.2267 10.4933 19.2 10.52 19.2C10.5467 19.2 10.5867 19.2267 10.64 19.28C10.72 19.28 10.7333 19.2533 10.68 19.2C10.6533 19.1467 10.64 19.1067 10.64 19.08C10.6933 19.08 10.76 19.0533 10.84 19C10.9467 18.9467 11.0267 18.92 11.08 18.92C11.1067 19 11.0667 19.0533 10.96 19.08C10.88 19.08 10.84 19.1067 10.84 19.16C10.92 19.2933 11.0267 19.3333 11.16 19.28C11.2933 19.2 11.3333 19.0933 11.28 18.96H11.44C11.44 18.9333 11.4133 18.9067 11.36 18.88C11.3333 18.8267 11.3333 18.7733 11.36 18.72H11.68ZM13.16 8.6C13.1867 8.54667 13.2267 8.50667 13.28 8.48C13.3333 8.42667 13.36 8.38667 13.36 8.36C13.2 8.30667 13.1067 8.34667 13.08 8.48C13.08 8.53333 13.1067 8.57333 13.16 8.6ZM13.12 9.28C13.04 9.28 13 9.29333 13 9.32C13.08 9.32 13.12 9.30667 13.12 9.28ZM12.8 9.6L12.76 9.64C12.7333 9.64 12.72 9.65333 12.72 9.68L12.8 9.6ZM12.08 11.4C12.1867 11.3733 12.2933 11.4133 12.4 11.52C12.4 11.4667 12.4267 11.4133 12.48 11.36C12.56 11.28 12.6133 11.2 12.64 11.12C12.5867 11.12 12.5467 11.1467 12.52 11.2C12.4933 11.2267 12.4533 11.2533 12.4 11.28C12.3733 11.28 12.3333 11.28 12.28 11.28C12.28 11.1467 12.3467 10.9467 12.48 10.68C12.6133 10.3867 12.64 10.16 12.56 10C12.5333 10.1333 12.4533 10.36 12.32 10.68C12.1867 11 12.1067 11.24 12.08 11.4ZM11.96 10.88H12.04V10.76H11.96V10.88ZM4.8 11.2V11.04V11.2ZM11.68 11.48C11.76 11.48 11.8 11.4533 11.8 11.4C11.72 11.4 11.68 11.4267 11.68 11.48ZM11.8 12.16H12C11.9733 12.08 11.9867 11.9867 12.04 11.88C12.12 11.7467 12.16 11.6533 12.16 11.6C12.1333 11.6 12.1067 11.5867 12.08 11.56C12.08 11.5067 12.0533 11.48 12 11.48C11.9733 11.6933 11.9067 11.92 11.8 12.16ZM12.28 11.64C12.2267 11.64 12.2 11.6533 12.2 11.68C12.2533 11.68 12.28 11.6667 12.28 11.64ZM12.28 12.12C12.2267 12.12 12.2 12.1333 12.2 12.16C12.2533 12.16 12.28 12.1467 12.28 12.12ZM11.76 12.4H11.92C11.92 12.3733 11.9067 12.3467 11.88 12.32C11.88 12.2667 11.8667 12.2267 11.84 12.2C11.84 12.2267 11.8267 12.24 11.8 12.24C11.7467 12.2933 11.7333 12.3467 11.76 12.4ZM12.24 12.44C12.24 12.3333 12.2267 12.2667 12.2 12.24C12.1467 12.2667 12.12 12.3067 12.12 12.36C12.1467 12.4133 12.1867 12.44 12.24 12.44ZM11.32 13.76C11.32 13.68 11.36 13.6267 11.44 13.6C11.5467 13.5733 11.6 13.5467 11.6 13.52C11.4933 13.4667 11.44 13.4267 11.44 13.4C11.5733 13.2667 11.6133 13.16 11.56 13.08C11.5867 13.0267 11.6267 13.0267 11.68 13.08C11.7333 13.1067 11.76 13.0933 11.76 13.04C11.76 13.0133 11.7333 13 11.68 13C11.6267 12.9733 11.6 12.9333 11.6 12.88C11.6267 12.8267 11.6667 12.7867 11.72 12.76C11.8 12.7333 11.84 12.7067 11.84 12.68C11.8667 12.68 11.88 12.7467 11.88 12.88C11.88 12.9067 11.9067 12.92 11.96 12.92C12.04 12.7867 11.9467 12.64 11.68 12.48C11.6533 12.56 11.5733 12.76 11.44 13.08C11.3333 13.3733 11.2933 13.6 11.32 13.76ZM11.28 13.12C11.2267 13.12 11.2 13.1333 11.2 13.16C11.2533 13.16 11.28 13.1467 11.28 13.12ZM11 13.32V13.4C11.0267 13.4267 11.0533 13.4267 11.08 13.4C11.08 13.3467 11.0667 13.3067 11.04 13.28C11.04 13.3067 11.0267 13.32 11 13.32ZM10.96 13.76C10.96 13.7067 10.9733 13.68 11 13.68C11 13.6267 10.96 13.6 10.88 13.6L10.92 13.68C10.92 13.7067 10.9333 13.7333 10.96 13.76ZM3.6 14.04C3.6 14.0133 3.62667 13.96 3.68 13.88C3.76 13.7467 3.74667 13.6667 3.64 13.64C3.64 13.6933 3.61333 13.7733 3.56 13.88C3.53333 13.9867 3.54667 14.04 3.6 14.04ZM10.64 13.8C10.6933 13.72 10.6933 13.6667 10.64 13.64V13.8ZM11.08 14.16C11 14.16 10.96 14.2667 10.96 14.48C11.12 14.4267 11.16 14.32 11.08 14.16C11.1067 14.1333 11.1467 14.1067 11.2 14.08C11.2533 14.0533 11.2933 14.0267 11.32 14C11.2933 14 11.2667 13.9733 11.24 13.92C11.24 13.8667 11.2267 13.84 11.2 13.84C11.2 13.8667 11.1733 13.92 11.12 14C11.0933 14.0533 11.08 14.1067 11.08 14.16ZM11.48 14.04C11.6133 14.04 11.68 14 11.68 13.92C11.5467 13.92 11.48 13.96 11.48 14.04ZM10.76 14.36C10.76 14.36 10.7867 14.3333 10.84 14.28L10.8 14.32L10.76 14.36ZM11.44 14.52V14.36V14.52ZM10.96 14.76C11.0667 14.6533 11.0667 14.5867 10.96 14.56C10.9333 14.56 10.9067 14.56 10.88 14.56C10.88 14.5867 10.88 14.6267 10.88 14.68C10.9067 14.7067 10.9333 14.7333 10.96 14.76ZM3.16 15.04C3.21333 15.04 3.25333 15.0133 3.28 14.96C3.30667 14.9067 3.32 14.8533 3.32 14.8C3.32 14.72 3.30667 14.6667 3.28 14.64C3.30667 14.72 3.29333 14.8 3.24 14.88C3.18667 14.9333 3.16 14.9867 3.16 15.04ZM10.84 15.24C10.84 15.16 10.8667 15.0933 10.92 15.04C11 14.96 11.04 14.8933 11.04 14.84C10.9867 14.8667 10.9467 14.8667 10.92 14.84C10.8667 14.8133 10.8267 14.8 10.8 14.8C10.72 15.0667 10.7333 15.2133 10.84 15.24ZM11.08 14.96C11.2133 14.96 11.28 14.92 11.28 14.84C11.2 14.84 11.1467 14.8267 11.12 14.8C11.1467 14.8533 11.1333 14.9067 11.08 14.96ZM2.96 15.52C2.90667 15.52 2.88 15.5467 2.88 15.6C2.88 15.6533 2.90667 15.6933 2.96 15.72V15.52C3.04 15.4933 3.09333 15.4267 3.12 15.32C3.17333 15.2133 3.17333 15.1333 3.12 15.08C3.14667 15.16 3.12 15.24 3.04 15.32C2.98667 15.3733 2.96 15.44 2.96 15.52ZM10.36 15.12V15.24C10.4133 15.2667 10.44 15.2533 10.44 15.2C10.4667 15.12 10.4533 15.08 10.4 15.08C10.4 15.1333 10.3867 15.1467 10.36 15.12ZM10.08 17.04C9.81333 17.4933 9.72 17.8533 9.8 18.12C9.77333 18.0933 9.72 18.08 9.64 18.08C9.66667 18.1333 9.66667 18.1733 9.64 18.2C9.61333 18.2533 9.6 18.2933 9.6 18.32C9.65333 18.32 9.69333 18.2933 9.72 18.24C9.77333 18.16 9.82667 18.12 9.88 18.12C9.82667 17.9867 9.84 17.8667 9.92 17.76C10 17.6267 10.0267 17.5067 10 17.4C10.0533 17.3467 10.1333 17.3333 10.24 17.36C10.2933 17.4133 10.28 17.48 10.2 17.56C10.12 17.64 10.08 17.7067 10.08 17.76H10.32C10.32 17.6533 10.3467 17.52 10.4 17.36H10.24C10.1867 17.28 10.1867 17.16 10.24 17C10.32 16.8133 10.3733 16.68 10.4 16.6C10.4533 16.4933 10.44 16.4 10.36 16.32C10.3867 16.24 10.44 16.1333 10.52 16C10.6 15.84 10.6533 15.7067 10.68 15.6C10.7333 15.4667 10.76 15.3467 10.76 15.24C10.6 15.5067 10.3733 16.1067 10.08 17.04ZM10.84 15.36V15.48C10.8933 15.5067 10.92 15.4933 10.92 15.44C10.9467 15.36 10.9333 15.32 10.88 15.32C10.88 15.3733 10.8667 15.3867 10.84 15.36ZM10.32 15.52C10.32 15.4933 10.3333 15.48 10.36 15.48C10.36 15.4 10.3333 15.36 10.28 15.36C10.28 15.4667 10.2933 15.52 10.32 15.52ZM11.04 15.68C11.04 15.6267 11.04 15.56 11.04 15.48C11.0667 15.4267 11.0533 15.3867 11 15.36C11 15.5733 11.0133 15.68 11.04 15.68ZM3.12 15.76C3.14667 15.76 3.17333 15.7333 3.2 15.68C3.22667 15.6267 3.21333 15.5867 3.16 15.56C3.13333 15.5867 3.12 15.6533 3.12 15.76ZM11.12 15.76H11.24C11.2667 15.7067 11.24 15.68 11.16 15.68C11.1067 15.6533 11.08 15.6667 11.08 15.72C11.1333 15.72 11.1467 15.7333 11.12 15.76ZM10.24 15.76C10.16 15.76 10.12 15.7733 10.12 15.8C10.2 15.8 10.24 15.7867 10.24 15.76ZM18.44 15.76C18.3333 15.76 18.28 15.7733 18.28 15.8C18.3867 15.8 18.44 15.7867 18.44 15.76ZM2.8 16.16C2.8 16.1067 2.81333 16.0667 2.84 16.04C2.86667 15.9867 2.88 15.9467 2.88 15.92C2.82667 15.8933 2.78667 15.92 2.76 16C2.73333 16.08 2.74667 16.1333 2.8 16.16ZM10.24 15.92C10.16 15.92 10.12 15.9333 10.12 15.96C10.2 15.96 10.24 15.9467 10.24 15.92ZM10.88 16.08L10.84 16.12C10.8133 16.12 10.8 16.1333 10.8 16.16L10.88 16.08ZM18.16 16.2C18.32 16.2 18.3733 16.16 18.32 16.08H18.16V16.2ZM2.8 16.52C2.88 16.5467 2.93333 16.5067 2.96 16.4C2.98667 16.2933 2.97333 16.2133 2.92 16.16L2.8 16.52ZM17.36 16.16C17.3067 16.16 17.28 16.1733 17.28 16.2C17.3333 16.2 17.36 16.1867 17.36 16.16ZM10.56 16.4C10.56 16.48 10.5467 16.5333 10.52 16.56C10.6267 16.6667 10.7067 16.6933 10.76 16.64C10.6533 16.6133 10.64 16.5467 10.72 16.44C10.8 16.3333 10.8 16.28 10.72 16.28C10.6933 16.3067 10.6533 16.3333 10.6 16.36L10.56 16.4ZM11.04 16.4H11.12C11.1467 16.3733 11.1467 16.3467 11.12 16.32H11C11.0267 16.3467 11.04 16.3733 11.04 16.4ZM2.4 17.24C2.4 17.2133 2.44 17.0933 2.52 16.88C2.62667 16.64 2.66667 16.4533 2.64 16.32C2.64 16.4 2.58667 16.5467 2.48 16.76C2.4 16.9733 2.37333 17.1333 2.4 17.24ZM9.8 16.76C9.90667 16.76 9.98667 16.6667 10.04 16.48C9.93333 16.48 9.85333 16.5733 9.8 16.76ZM2.68 16.96H2.72C2.8 16.88 2.8 16.8267 2.72 16.8V16.84C2.69333 16.8933 2.68 16.9333 2.68 16.96ZM2.4 17.72C2.48 17.6667 2.54667 17.5733 2.6 17.44C2.68 17.28 2.68 17.1733 2.6 17.12C2.49333 17.3867 2.42667 17.5867 2.4 17.72ZM9.52 17.72C9.52 17.6933 9.54667 17.6267 9.6 17.52C9.65333 17.4133 9.68 17.3333 9.68 17.28C9.70667 17.2267 9.69333 17.1867 9.64 17.16C9.64 17.2133 9.61333 17.28 9.56 17.36C9.53333 17.44 9.50667 17.5067 9.48 17.56C9.48 17.6133 9.49333 17.6667 9.52 17.72ZM16.04 17.28L16 17.32C15.9733 17.32 15.9467 17.3333 15.92 17.36L16 17.32C16.0267 17.32 16.04 17.3067 16.04 17.28ZM15.36 17.48C15.3867 17.48 15.4133 17.48 15.44 17.48C15.6267 17.48 15.7067 17.44 15.68 17.36C15.6533 17.3867 15.5867 17.4 15.48 17.4C15.4 17.4 15.36 17.4267 15.36 17.48ZM2 18C2.10667 17.9733 2.17333 17.8933 2.2 17.76C2.25333 17.6267 2.25333 17.52 2.2 17.44C2.2 17.4667 2.13333 17.6533 2 18ZM14.16 17.76C14.1867 17.7067 14.2667 17.6667 14.4 17.64C14.5333 17.6133 14.6 17.56 14.6 17.48C14.3333 17.5333 14.1867 17.6267 14.16 17.76ZM14.6 17.64V17.72C14.6267 17.7467 14.6533 17.7467 14.68 17.72C14.68 17.6667 14.6667 17.6267 14.64 17.6C14.64 17.6267 14.6267 17.64 14.6 17.64ZM9.36 17.96C9.41333 17.9867 9.44 17.9733 9.44 17.92C9.46667 17.8133 9.45333 17.76 9.4 17.76C9.42667 17.8133 9.42667 17.8533 9.4 17.88C9.37333 17.9067 9.36 17.9333 9.36 17.96ZM14.16 17.96L14.32 17.92C14.4 17.8933 14.4267 17.84 14.4 17.76C14.24 17.8667 14.16 17.9333 14.16 17.96ZM2.36 18.08C2.36 18.0533 2.37333 18.0133 2.4 17.96C2.42667 17.88 2.41333 17.84 2.36 17.84C2.36 17.8667 2.34667 17.9067 2.32 17.96C2.29333 18.0133 2.30667 18.0533 2.36 18.08ZM13.28 18.12C13.3333 18.2267 13.3867 18.2667 13.44 18.24C13.4933 18.2133 13.56 18.1733 13.64 18.12C13.7467 18.0667 13.84 18.0533 13.92 18.08C13.8667 17.9733 13.8133 17.9333 13.76 17.96C13.7333 17.9867 13.6667 18.0267 13.56 18.08C13.4533 18.1333 13.36 18.1467 13.28 18.12ZM10.16 18.16C10.2133 18.1333 10.2267 18.1067 10.2 18.08C10.2 18.0533 10.2133 18.0133 10.24 17.96C10.1333 17.9333 10.08 17.9733 10.08 18.08C10.08 18.1333 10.1067 18.16 10.16 18.16ZM9.32 18.16H9.4V18.08H9.32V18.16ZM2.24 18.32C2.29333 18.2133 2.28 18.1467 2.2 18.12C2.2 18.2267 2.21333 18.2933 2.24 18.32ZM1.92 18.4C2 18.4267 2.04 18.4 2.04 18.32C2.06667 18.24 2.05333 18.1867 2 18.16C2 18.1867 1.98667 18.2267 1.96 18.28C1.93333 18.3067 1.92 18.3467 1.92 18.4ZM9.2 18.56L9.28 18.44C9.33333 18.3867 9.36 18.3467 9.36 18.32C9.36 18.2933 9.33333 18.2667 9.28 18.24C9.28 18.2933 9.26667 18.3467 9.24 18.4C9.21333 18.4267 9.18667 18.4533 9.16 18.48C9.16 18.5067 9.17333 18.5333 9.2 18.56ZM10.16 18.44H10.12C10.0933 18.44 10.08 18.4533 10.08 18.48C10.1333 18.48 10.16 18.4667 10.16 18.44ZM9.52 18.64C9.54667 18.6933 9.57333 18.72 9.6 18.72C9.65333 18.6933 9.69333 18.6667 9.72 18.64C9.77333 18.5867 9.8 18.5333 9.8 18.48C9.77333 18.5067 9.73333 18.52 9.68 18.52C9.62667 18.52 9.58667 18.5333 9.56 18.56C9.53333 18.56 9.52 18.5867 9.52 18.64ZM2.2 18.56C2.14667 18.56 2.12 18.5733 2.12 18.6C2.17333 18.6 2.2 18.5867 2.2 18.56ZM1.72 19.2C1.72 19.1733 1.73333 19.12 1.76 19.04C1.81333 18.9333 1.84 18.8667 1.84 18.84C1.86667 18.7867 1.86667 18.72 1.84 18.64C1.84 18.72 1.8 18.8267 1.72 18.96C1.66667 19.0667 1.66667 19.1467 1.72 19.2ZM2 18.84C2.08 18.8933 2.12 18.8667 2.12 18.76C2.12 18.6533 2.08 18.6267 2 18.68V18.84ZM9.56 18.92L9.4 18.96C9.4 19.0133 9.4 19.04 9.4 19.04C9.48 19.04 9.53333 19 9.56 18.92ZM1.96 19.28C1.96 19.2267 1.97333 19.2 2 19.2C2 19.1467 1.97333 19.12 1.92 19.12C1.92 19.2 1.93333 19.2533 1.96 19.28ZM1.84 19.44H1.92V19.36H1.84V19.44ZM1.76 20.12C1.76 19.9067 1.74667 19.8 1.72 19.8C1.72 19.8533 1.70667 19.92 1.68 20C1.68 20.0533 1.70667 20.0933 1.76 20.12ZM7 20C7.02667 20 7.04 20.0133 7.04 20.04C7.06667 20.0667 7.09333 20.08 7.12 20.08C7.12 20.0267 7.14667 20 7.2 20C7.28 20 7.30667 19.96 7.28 19.88C7.17333 19.88 7.08 19.92 7 20ZM6.64 20.24V20.08V20.24ZM6.04 20.24C6.12 20.24 6.17333 20.2 6.2 20.12C6.12 20.12 6.06667 20.16 6.04 20.24ZM8 20.24C7.89333 20.24 7.84 20.24 7.84 20.24C7.81333 20.2667 7.81333 20.2933 7.84 20.32C7.94667 20.32 8 20.2933 8 20.24ZM5.92 20.28C5.86667 20.28 5.81333 20.3067 5.76 20.36C5.81333 20.36 5.86667 20.3333 5.92 20.28ZM6.32 20.36H6.28C6.25333 20.36 6.24 20.3733 6.24 20.4C6.29333 20.4 6.32 20.3867 6.32 20.36ZM6.08 20.88C6.13333 20.8533 6.25333 20.8 6.44 20.72C6.65333 20.64 6.8 20.5733 6.88 20.52C6.48 20.5733 6.21333 20.6933 6.08 20.88ZM8.84 20.96C8.84 20.9333 8.85333 20.9067 8.88 20.88C8.90667 20.8267 8.92 20.7867 8.92 20.76C8.94667 20.7067 8.96 20.6533 8.96 20.6C8.90667 20.6 8.85333 20.6267 8.8 20.68C8.77333 20.7333 8.76 20.8 8.76 20.88C8.76 20.9333 8.78667 20.96 8.84 20.96ZM8.96 21.32H9.04C9.04 21.2667 9.05333 21.1867 9.08 21.08C9.10667 20.9733 9.12 20.8933 9.12 20.84C9.09333 20.84 9.04 21 8.96 21.32ZM8.36 21.08L8.32 21.12C8.29333 21.2 8.24 21.3067 8.16 21.44C8.08 21.5467 8.02667 21.64 8 21.72C8.26667 21.56 8.37333 21.36 8.32 21.12C8.34667 21.1467 8.36 21.1333 8.36 21.08ZM8.6 21.28C8.68 21.3067 8.73333 21.28 8.76 21.2C8.78667 21.0667 8.74667 21 8.64 21C8.61333 21.0533 8.6 21.1067 8.6 21.16C8.6 21.2133 8.6 21.2533 8.6 21.28ZM8.4 21.84C8.50667 21.84 8.57333 21.8133 8.6 21.76C8.57333 21.76 8.57333 21.6933 8.6 21.56C8.65333 21.4267 8.65333 21.3467 8.6 21.32C8.54667 21.3733 8.50667 21.4667 8.48 21.6C8.45333 21.7333 8.42667 21.8133 8.4 21.84ZM8.2 23.52C8.09333 23.5467 8.02667 23.6533 8 23.84C8 24.0267 7.98667 24.1333 7.96 24.16C8.14667 24.0267 8.22667 23.8133 8.2 23.52C8.30667 23.3867 8.4 23.2267 8.48 23.04C8.56 22.8267 8.64 22.5867 8.72 22.32C8.8 22.0267 8.86667 21.8133 8.92 21.68C8.76 21.84 8.6 22.1467 8.44 22.6C8.30667 23.0267 8.21333 23.3067 8.16 23.44L8.2 23.52ZM8.2 22.32C8.14667 22.32 8.12 22.4133 8.12 22.6C8.12 22.7867 8.06667 22.8933 7.96 22.92C7.93333 22.9733 7.93333 23.0267 7.96 23.08C7.98667 23.1333 8 23.1867 8 23.24C7.81333 23.24 7.73333 23.36 7.76 23.6C7.76 23.7067 7.81333 23.76 7.92 23.76C7.89333 23.68 7.89333 23.5867 7.92 23.48C7.97333 23.3733 8 23.2933 8 23.24H8.08C8.18667 22.8667 8.34667 22.4533 8.56 22C8.50667 22.0267 8.46667 22.0267 8.44 22C8.41333 21.9733 8.38667 21.96 8.36 21.96C8.33333 21.9867 8.30667 22.04 8.28 22.12C8.25333 22.2 8.22667 22.2667 8.2 22.32ZM7.84 22.4H7.92V22.28H7.84V22.4ZM7.84 22.64C7.84 22.5867 7.85333 22.56 7.88 22.56C7.88 22.5067 7.84 22.48 7.76 22.48L7.8 22.56C7.8 22.5867 7.81333 22.6133 7.84 22.64ZM7.64 23.12C7.72 22.8533 7.74667 22.7067 7.72 22.68C7.64 22.9467 7.61333 23.0933 7.64 23.12ZM7.6 23.4V23.2C7.46667 23.3333 7.46667 23.4 7.6 23.4ZM7.24 24.2C7.24 24.12 7.26667 24.0267 7.32 23.92C7.4 23.8133 7.45333 23.7333 7.48 23.68C7.50667 23.6 7.49333 23.52 7.44 23.44C7.44 23.52 7.4 23.6533 7.32 23.84C7.24 24 7.21333 24.12 7.24 24.2ZM7.6 23.92C7.62667 23.9733 7.6 24.08 7.52 24.24C7.46667 24.4 7.44 24.52 7.44 24.6C7.54667 24.5733 7.61333 24.52 7.64 24.44C7.69333 24.36 7.73333 24.2667 7.76 24.16C7.78667 24.0267 7.81333 23.92 7.84 23.84C7.70667 23.84 7.62667 23.8667 7.6 23.92ZM7.88 23.96H7.96V23.88H7.88V23.96ZM6.96 24.32C7.04 24.2933 7.09333 24.3067 7.12 24.36C7.14667 24.4133 7.17333 24.44 7.2 24.44V24.24C7.04 24.2667 6.96 24.2933 6.96 24.32ZM7.76 24.36C7.92 24.6267 7.84 24.8267 7.52 24.96C7.52 24.9867 7.53333 25.0267 7.56 25.08C7.61333 25.1067 7.62667 25.1467 7.6 25.2C7.44 25.4133 7.28 25.8133 7.12 26.4C6.96 26.9867 6.8 27.3867 6.64 27.6C6.66667 27.6 6.68 27.64 6.68 27.72C6.70667 27.8 6.73333 27.84 6.76 27.84C6.89333 27.44 7.10667 26.84 7.4 26.04C7.69333 25.2133 7.89333 24.64 8 24.32C8 24.2933 7.97333 24.2533 7.92 24.2C7.92 24.3067 7.86667 24.36 7.76 24.36ZM7.12 25.56L7.2 25.4C7.22667 25.2667 7.28 25.2 7.36 25.2C7.36 24.9867 7.37333 24.88 7.4 24.88C7.48 24.9067 7.50667 24.9333 7.48 24.96C7.48 24.7733 7.45333 24.6667 7.4 24.64C7.4 24.72 7.34667 24.8667 7.24 25.08C7.13333 25.2933 7.09333 25.4533 7.12 25.56ZM6.92 24.92C7.02667 24.92 7.06667 24.8933 7.04 24.84H6.96V24.88L6.92 24.92ZM6.8 25.36C6.85333 25.36 6.89333 25.3333 6.92 25.28C6.97333 25.2 7 25.1333 7 25.08C7 25 6.97333 24.96 6.92 24.96C6.92 25.0133 6.90667 25.0667 6.88 25.12C6.88 25.1467 6.86667 25.1867 6.84 25.24C6.81333 25.2933 6.8 25.3333 6.8 25.36ZM7.24 25.64C7.21333 25.64 7.2 25.64 7.2 25.64C7.17333 25.64 7.16 25.6533 7.16 25.68C7.21333 25.68 7.24 25.6667 7.24 25.64ZM7 26C7 25.9733 7.01333 25.9333 7.04 25.88C7.06667 25.8 7.08 25.7467 7.08 25.72C7.08 25.6933 7.05333 25.68 7 25.68C7 25.7067 6.98667 25.7733 6.96 25.88C6.93333 25.96 6.94667 26 7 26ZM6.56 25.92C6.58667 26 6.61333 26.0133 6.64 25.96C6.69333 25.9067 6.69333 25.8667 6.64 25.84L6.56 25.92ZM6.88 26.24C6.98667 26.24 7.04 26.2 7.04 26.12L7 26.08C6.97333 26.0533 6.94667 26.04 6.92 26.04C6.92 26.0667 6.90667 26.1067 6.88 26.16C6.88 26.1867 6.88 26.2133 6.88 26.24ZM6.52 26.16C6.57333 26.1867 6.62667 26.16 6.68 26.08C6.62667 26.08 6.57333 26.1067 6.52 26.16ZM6.4 26.56C6.18667 26.7733 6.13333 26.96 6.24 27.12C6.34667 26.96 6.42667 26.8533 6.48 26.8C6.48 26.7733 6.45333 26.76 6.4 26.76C6.34667 26.76 6.32 26.7467 6.32 26.72C6.37333 26.6933 6.4 26.64 6.4 26.56C6.50667 26.4533 6.56 26.3467 6.56 26.24C6.45333 26.24 6.4 26.3467 6.4 26.56ZM7 26.36H6.96C6.90667 26.3333 6.85333 26.32 6.8 26.32C6.8 26.3733 6.82667 26.4133 6.88 26.44C6.96 26.4933 7 26.4667 7 26.36ZM6.72 26.6H6.8V26.52H6.72V26.6ZM6.72 27.04C6.72 27.0133 6.73333 26.9733 6.76 26.92C6.81333 26.84 6.81333 26.7867 6.76 26.76C6.70667 26.7867 6.66667 26.84 6.64 26.92C6.61333 26.9733 6.64 27.0133 6.72 27.04ZM6.56 27.32C6.61333 27.2133 6.6 27.1467 6.52 27.12C6.52 27.2533 6.53333 27.32 6.56 27.32ZM6.08 27.6C6.29333 27.3867 6.29333 27.28 6.08 27.28C6.08 27.3067 6.06667 27.3467 6.04 27.4C6.04 27.4533 6.04 27.4933 6.04 27.52C6.04 27.5467 6.05333 27.5733 6.08 27.6ZM6.4 27.52C6.48 27.52 6.52 27.4933 6.52 27.44C6.44 27.44 6.4 27.4667 6.4 27.52ZM5.92 27.8C5.97333 27.8 6 27.76 6 27.68C6 27.7067 5.98667 27.72 5.96 27.72L5.92 27.8ZM6.24 28.04C6.37333 28.0933 6.44 28.04 6.44 27.88C6.44 27.8 6.4 27.76 6.32 27.76C6.4 27.8133 6.4 27.8667 6.32 27.92C6.26667 27.9733 6.24 28.0133 6.24 28.04ZM5.76 28.48H5.72C5.69333 28.5067 5.68 28.6 5.68 28.76L5.52 29.04H5.56C5.64 28.88 5.68 28.7867 5.68 28.76H5.72C5.72 28.7333 5.73333 28.6933 5.76 28.64C5.78667 28.5867 5.78667 28.5333 5.76 28.48H5.8C5.90667 28.1067 5.94667 27.8933 5.92 27.84C5.92 27.8933 5.89333 27.9867 5.84 28.12C5.78667 28.2533 5.76 28.3733 5.76 28.48ZM6.56 28.28C6.61333 28.1733 6.6 28.1067 6.52 28.08C6.52 28.2133 6.53333 28.28 6.56 28.28ZM6.24 28.44C6.24 28.4133 6.25333 28.3733 6.28 28.32C6.30667 28.2667 6.29333 28.2267 6.24 28.2C6.16 28.3333 6.16 28.4133 6.24 28.44ZM6.08 28.68C6.18667 28.5733 6.17333 28.4933 6.04 28.44C6.04 28.4667 6.04 28.5067 6.04 28.56C6.04 28.64 6.05333 28.68 6.08 28.68ZM6.16 29.24C6.18667 29.24 6.21333 29.2133 6.24 29.16C6.26667 29.1333 6.28 29.08 6.28 29C6.28 28.9467 6.26667 28.92 6.24 28.92C6.24 28.9467 6.22667 29 6.2 29.08C6.17333 29.16 6.16 29.2133 6.16 29.24ZM5.36 29.48C5.41333 29.5067 5.44 29.48 5.44 29.4C5.46667 29.32 5.49333 29.28 5.52 29.28C5.46667 29.2533 5.42667 29.28 5.4 29.36C5.4 29.44 5.38667 29.48 5.36 29.48ZM6.08 29.6C5.92 29.92 5.88 30.0933 5.96 30.12C6.04 29.96 6.08 29.7867 6.08 29.6C6.16 29.5733 6.2 29.4933 6.2 29.36C6.14667 29.3333 6.10667 29.3333 6.08 29.36C6.08 29.3867 6.08 29.4267 6.08 29.48C6.08 29.5333 6.08 29.5733 6.08 29.6ZM5.68 29.76C5.73333 29.7867 5.77333 29.76 5.8 29.68C5.82667 29.6 5.81333 29.5467 5.76 29.52C5.76 29.5467 5.74667 29.5867 5.72 29.64C5.66667 29.6667 5.65333 29.7067 5.68 29.76ZM5.36 29.76L5.4 29.72H5.44C5.44 29.6133 5.4 29.5867 5.32 29.64C5.32 29.72 5.33333 29.76 5.36 29.76ZM5.28 30.08C5.28 30.0533 5.29333 30.0267 5.32 30C5.34667 29.9733 5.36 29.9467 5.36 29.92C5.30667 29.8933 5.26667 29.9067 5.24 29.96C5.21333 30.0133 5.22667 30.0533 5.28 30.08ZM5.56 30.16C5.61333 30.16 5.66667 30.1333 5.72 30.08C5.61333 30.08 5.56 30.1067 5.56 30.16ZM5.72 30.88L5.92 30.16C5.70667 30.5067 5.64 30.7467 5.72 30.88ZM17.6 15.8H17.64C17.6667 15.8267 17.6933 15.84 17.72 15.84V15.96C17.6133 15.9333 17.52 15.9333 17.44 15.96C17.4133 15.9067 17.4133 15.88 17.44 15.88C17.4667 15.8533 17.4933 15.84 17.52 15.84C17.5733 15.84 17.6 15.8267 17.6 15.8ZM17.08 16C17.1067 15.9733 17.1333 15.96 17.16 15.96C17.1867 15.96 17.2 15.9733 17.2 16H17.08ZM16.96 16.04H17.04V16.16H16.96V16.04ZM15.6 16.44C15.6533 16.4133 15.68 16.4267 15.68 16.48C15.7067 16.5333 15.7333 16.56 15.76 16.56C15.8133 16.4267 15.9467 16.3467 16.16 16.32C16.4 16.2667 16.56 16.2133 16.64 16.16C16.4533 16.3467 16.28 16.44 16.12 16.44C16.0933 16.4933 16.1067 16.5333 16.16 16.56C16.2133 16.5867 16.24 16.6267 16.24 16.68C16.16 16.68 16.0933 16.68 16.04 16.68C16.0133 16.6533 16.0133 16.6 16.04 16.52C16.0133 16.52 15.9867 16.5333 15.96 16.56C15.9333 16.5867 15.9067 16.5867 15.88 16.56C15.88 16.5867 15.8933 16.6267 15.92 16.68C15.9467 16.7067 15.9467 16.7333 15.92 16.76C15.8933 16.68 15.8133 16.6533 15.68 16.68C15.5733 16.7067 15.52 16.6533 15.52 16.52C15.6 16.52 15.6267 16.4933 15.6 16.44ZM18.2 16.4L18.28 16.32L18.2 16.4ZM14.96 16.44V16.4V16.44ZM14.44 16.64L14.6 16.56L14.44 16.64ZM14.96 16.64H15.16C15.16 16.6667 15.1333 16.68 15.08 16.68C15.0267 16.68 14.9867 16.6933 14.96 16.72C14.96 16.72 14.96 16.7467 14.96 16.8V16.64ZM15.16 16.72H15.28C15.28 16.7733 15.2267 16.8 15.12 16.8C15.12 16.7733 15.12 16.76 15.12 16.76C15.1467 16.76 15.16 16.7467 15.16 16.72ZM13.88 16.88L13.96 16.8L13.88 16.88ZM14.44 16.8C14.4133 16.88 14.36 16.9333 14.28 16.96C14.2267 16.9867 14.16 17 14.08 17C14.0267 17 13.9733 17.0267 13.92 17.08C13.8667 17.1333 13.84 17.2 13.84 17.28C13.7867 17.1467 13.7867 17.0667 13.84 17.04C13.8933 16.9867 14 16.9467 14.16 16.92C14.32 16.8667 14.4133 16.8267 14.44 16.8ZM15.8 16.96C15.8533 17.0133 15.88 17.0667 15.88 17.12C15.8267 17.12 15.8 17.0667 15.8 16.96ZM14.4 17.04C14.4 17.0133 14.4133 17 14.44 17H14.48C14.48 17.0267 14.4533 17.04 14.4 17.04ZM10.08 17.04V17.2C10.1333 17.2 10.16 17.1733 10.16 17.12C10.16 17.0667 10.1333 17.04 10.08 17.04ZM12.8 17.04C12.8 17.12 12.76 17.16 12.68 17.16C12.68 17.08 12.72 17.04 12.8 17.04ZM13.12 17.36C13.0933 17.36 13.0533 17.3867 13 17.44C13.08 17.4667 13.12 17.44 13.12 17.36H13.2V17.12C13.36 17.12 13.4533 17.16 13.48 17.24C13.5067 17.2133 13.52 17.1867 13.52 17.16C13.52 17.08 13.5733 17.04 13.68 17.04C13.7067 17.1467 13.6533 17.2267 13.52 17.28C13.4133 17.3333 13.36 17.4 13.36 17.48C13.3333 17.48 13.3067 17.48 13.28 17.48C13.2533 17.4533 13.2267 17.44 13.2 17.44C13.2 17.4933 13.2133 17.52 13.24 17.52C13.1867 17.5733 13.0533 17.5733 12.84 17.52C12.6533 17.44 12.56 17.5067 12.56 17.72C12.5067 17.6667 12.4267 17.6533 12.32 17.68C12.24 17.7067 12.2 17.7867 12.2 17.92C12.12 17.9467 12.0667 17.9333 12.04 17.88C12.0133 17.8267 11.9733 17.8133 11.92 17.84C11.9733 17.7333 12.0933 17.64 12.28 17.56C12.4933 17.4533 12.6267 17.3467 12.68 17.24C12.7333 17.32 12.8133 17.3467 12.92 17.32C13.0267 17.2667 13.0933 17.28 13.12 17.36ZM15.76 17.12C15.52 17.36 15.4 17.36 15.4 17.12C15.48 17.0933 15.6 17.0933 15.76 17.12ZM11.8 17.52C11.8 17.4933 11.8133 17.48 11.84 17.48C11.84 17.5333 11.8267 17.5467 11.8 17.52ZM11.36 17.64C11.4667 17.6133 11.52 17.64 11.52 17.72H11.36V17.64ZM11.76 17.88L11.92 17.96C12 17.9867 12.0267 18.04 12 18.12C11.84 18.12 11.7467 18.04 11.72 17.88H11.76ZM11.48 17.92C11.5067 18 11.4667 18.08 11.36 18.16C11.3333 18.24 11.2933 18.2667 11.24 18.24C11.2133 18.1867 11.2 18.1467 11.2 18.12H11.16C11.1333 18.1467 11.1067 18.16 11.08 18.16C11.08 18.32 11.12 18.4 11.2 18.4C11.1467 18.48 11.0667 18.4533 10.96 18.32C10.9333 18.32 10.8933 18.36 10.84 18.44C10.8133 18.52 10.7733 18.56 10.72 18.56C10.7467 18.4533 10.7067 18.3733 10.6 18.32C10.6533 18.2133 10.72 18.1467 10.8 18.12C10.9067 18.0667 11.0267 18.0267 11.16 18C11.2933 17.9733 11.4 17.9467 11.48 17.92ZM13.16 18.08H13V17.92H13.12C13.12 17.9467 13.12 17.9733 13.12 18C13.1467 18.0267 13.16 18.0533 13.16 18.08ZM12.76 18.12C12.7333 18.1733 12.64 18.2 12.48 18.2C12.5067 18.1467 12.6 18.12 12.76 18.12ZM12.44 18.32C12.4667 18.3467 12.5067 18.3333 12.56 18.28C12.6133 18.2267 12.68 18.2133 12.76 18.24C12.7867 18.32 12.7333 18.3867 12.6 18.44C12.52 18.4133 12.4667 18.3733 12.44 18.32ZM10.96 18.8C10.88 18.88 10.8133 18.92 10.76 18.92C10.84 18.8133 10.9067 18.7733 10.96 18.8ZM11.28 18.84C11.28 18.9467 11.2267 18.9867 11.12 18.96C11.1467 18.96 11.16 18.9333 11.16 18.88C11.1867 18.8267 11.2267 18.8133 11.28 18.84ZM8.4 19.04L8.48 18.96L8.44 19C8.41333 19 8.4 19.0133 8.4 19.04ZM8.08 19.16C8.02667 19.2133 8 19.2667 8 19.32H7.92C7.92 19.2933 7.90667 19.28 7.88 19.28C7.88 19.2 7.94667 19.16 8.08 19.16ZM7.72 19.32C7.77333 19.2133 7.81333 19.2133 7.84 19.32C7.84 19.3733 7.82667 19.4 7.8 19.4C7.77333 19.4267 7.74667 19.4267 7.72 19.4L7.76 19.36C7.78667 19.3333 7.77333 19.32 7.72 19.32ZM8.16 19.36C8.13333 19.3867 8.08 19.4133 8 19.44C7.94667 19.44 7.90667 19.44 7.88 19.44C7.88 19.3867 7.97333 19.36 8.16 19.36ZM8.12 19.44C8.17333 19.44 8.18667 19.48 8.16 19.56C8.16 19.6133 8.13333 19.6267 8.08 19.6V19.52C8.10667 19.52 8.12 19.4933 8.12 19.44ZM6.28 19.92C6.30667 19.8933 6.33333 19.88 6.36 19.88C6.38667 19.88 6.4 19.8933 6.4 19.92H6.28ZM8.2 22.32C8.2 22.3467 8.22667 22.36 8.28 22.36L8.32 22.4C8.32 22.3733 8.29333 22.36 8.24 22.36L8.2 22.32Z" fill="#50735F"/>
</svg>
