<svg width="9" height="30" viewBox="0 0 9 30" fill="none" xmlns="http://www.w3.org/2000/svg">
<path d="M3.12 18.04C3.2 17.9867 3.26667 17.7733 3.32 17.4L3.24 17.36C3.21333 17.36 3.2 17.3467 3.2 17.32C3.2 17.32 3.2 17.2933 3.2 17.24C3.17333 17.1867 3.14667 17.2133 3.12 17.32C3.09333 17.4 3.08 17.44 3.08 17.44C3 17.4133 3 17.28 3.08 17.04C3.13333 17.04 3.22667 17.0933 3.36 17.2C3.46667 17.04 3.38667 16.92 3.12 16.84C3.46667 15.2667 4.09333 12.9067 5 9.76C5.93333 6.61333 6.58667 4.21333 6.96 2.56C6.64 2.88 6.25333 3.44 5.8 4.24C5.34667 5.01333 4.98667 5.56 4.72 5.88C4.66667 5.88 4.53333 5.90667 4.32 5.96C4.10667 5.98667 3.90667 6 3.72 6C3.53333 5.97333 3.38667 5.89333 3.28 5.76C3.28 5.65333 3.2 5.52 3.04 5.36C2.90667 5.2 2.85333 5.02667 2.88 4.84C3.01333 4.76 3.10667 4.73333 3.16 4.76C3.42667 4.46667 3.77333 4.04 4.2 3.48C4.65333 2.89333 5.06667 2.37333 5.44 1.92C5.84 1.46667 6.25333 1.08 6.68 0.759999C6.86667 0.759999 6.97333 0.746666 7 0.719999C7.77333 1.04 8.10667 1.64 8 2.52C8.13333 2.57333 8.22667 2.74667 8.28 3.04C8.33333 3.30667 8.36 3.45333 8.36 3.48C8.28 3.66667 8.22667 3.77333 8.2 3.8C8.25333 3.82667 8.28 3.90667 8.28 4.04C8.30667 4.17333 8.34667 4.25333 8.4 4.28C8.34667 4.49333 8.22667 4.92 8.04 5.56C7.88 6.17333 7.77333 6.68 7.72 7.08C7.50667 7.53333 7.26667 8.25333 7 9.24C6.76 10.2 6.57333 10.8533 6.44 11.2C6.46667 11.28 6.46667 11.3867 6.44 11.52C6.41333 11.6533 6.4 11.7467 6.4 11.8C6.18667 12.1733 6.02667 12.7333 5.92 13.48C5.44 14.8933 5.17333 15.8533 5.12 16.36C4.98667 16.5733 4.85333 17 4.72 17.64C4.61333 18.2533 4.53333 18.6133 4.48 18.72C4.48 18.7733 4.45333 18.8133 4.4 18.84C4.34667 18.8667 4.32 18.8933 4.32 18.92C4.42667 19.1067 4.37333 19.3333 4.16 19.6C4.16 19.9733 4.05333 20.6133 3.84 21.52C3.65333 22.4 3.54667 23.08 3.52 23.56L3.32 23.76C3.32 24.2933 3.25333 24.96 3.12 25.76C2.98667 26.56 2.90667 27.16 2.88 27.56C2.85333 27.96 2.93333 28.5333 3.12 29.28C3.12 29.44 3.06667 29.5467 2.96 29.6C2.88 29.6533 2.77333 29.6667 2.64 29.64C2.53333 29.6133 2.42667 29.6133 2.32 29.64C2.26667 29.56 2.2 29.44 2.12 29.28C2.04 29.12 1.96 28.9867 1.88 28.88C1.8 28.7733 1.70667 28.72 1.6 28.72C1.12 27.0667 1.14667 25.4533 1.68 23.88C1.73333 23.72 1.76 23.4533 1.76 23.08C1.78667 22.7067 1.82667 22.44 1.88 22.28C1.96 21.9867 2.06667 21.48 2.2 20.76C2.36 20.04 2.49333 19.5067 2.6 19.16C2.62667 19.1333 2.68 19.0933 2.76 19.04C2.84 18.96 2.90667 18.9067 2.96 18.88C2.98667 18.8267 2.97333 18.8 2.92 18.8C2.86667 18.7733 2.84 18.7467 2.84 18.72C3.02667 18.5867 3.12 18.36 3.12 18.04ZM5.92 7.4C5.92 7.34667 5.94667 7.29333 6 7.24C6.05333 7.18667 6.04 7.14667 5.96 7.12C5.96 7.14667 5.93333 7.2 5.88 7.28C5.82667 7.33333 5.84 7.37333 5.92 7.4ZM5.76 8.16C5.89333 7.89333 5.90667 7.73333 5.8 7.68C5.69333 7.97333 5.68 8.13333 5.76 8.16ZM5.52 8.4C5.6 8.42667 5.66667 8.4 5.72 8.32C5.74667 8.26667 5.73333 8.22667 5.68 8.2C5.65333 8.25333 5.61333 8.29333 5.56 8.32C5.53333 8.34667 5.52 8.37333 5.52 8.4ZM6.2 8.56C6.25333 8.50667 6.26667 8.45333 6.24 8.4C6.24 8.34667 6.21333 8.32 6.16 8.32C6.16 8.48 6.17333 8.56 6.2 8.56ZM5.44 9.16C5.38667 9.16 5.34667 9.17333 5.32 9.2L5.36 9.4C5.36 9.37333 5.37333 9.34667 5.4 9.32C5.45333 9.26667 5.46667 9.21333 5.44 9.16C5.49333 9.21333 5.53333 9.18667 5.56 9.08C5.61333 8.97333 5.58667 8.92 5.48 8.92C5.45333 8.92 5.44 9 5.44 9.16ZM5.8 9.84L5.84 9.68L5.8 9.64V9.84ZM5.6 10.52H5.56C5.58667 10.5467 5.57333 10.56 5.52 10.56V10.68C5.57333 10.68 5.6 10.6267 5.6 10.52C5.62667 10.4933 5.66667 10.44 5.72 10.36C5.69333 10.36 5.65333 10.4133 5.6 10.52ZM5.52 10.96C5.52 10.9067 5.53333 10.8933 5.56 10.92C5.56 10.84 5.53333 10.8 5.48 10.8C5.48 10.9067 5.49333 10.96 5.52 10.96ZM5.36 11.44C5.36 11.4133 5.37333 11.3733 5.4 11.32C5.48 11.1867 5.46667 11.1067 5.36 11.08C5.38667 11.1333 5.37333 11.2133 5.32 11.32C5.29333 11.4 5.30667 11.44 5.36 11.44ZM5.2 12.28C5.17333 12.2 5.2 12.0667 5.28 11.88C5.36 11.6933 5.34667 11.5867 5.24 11.56C5.26667 11.6667 5.24 11.8133 5.16 12C5.08 12.16 5.09333 12.2533 5.2 12.28ZM4.72 13.92C4.72 13.84 4.77333 13.6133 4.88 13.24C5.01333 12.84 5.05333 12.5733 5 12.44C5 12.4667 4.93333 12.6933 4.8 13.12C4.69333 13.52 4.66667 13.7867 4.72 13.92ZM3.16 19.68C2.73333 21.28 2.46667 22.6533 2.36 23.8C2.04 25.16 1.89333 26.2 1.92 26.92C2.02667 25.9867 2.22667 24.7333 2.52 23.16C2.84 21.56 3.05333 20.4 3.16 19.68C3.32 19.3067 3.50667 18.64 3.72 17.68C3.93333 16.6933 4.13333 15.9867 4.32 15.56C4.32 15.3733 4.37333 15.12 4.48 14.8C4.61333 14.4533 4.65333 14.1733 4.6 13.96C3.8 17 3.32 18.9067 3.16 19.68ZM4.04 14.12C4.09333 14.12 4.09333 14.1467 4.04 14.2C4.01333 14.2533 4.01333 14.3067 4.04 14.36C4.12 14.3333 4.16 14.28 4.16 14.2C4.16 14.12 4.18667 14.0667 4.24 14.04C4.10667 13.9867 4.04 14.0133 4.04 14.12ZM3.84 14.76C3.84 14.7067 3.82667 14.68 3.8 14.68V14.88C3.93333 14.9067 4.01333 14.84 4.04 14.68C4.04 14.6267 4 14.5867 3.92 14.56C3.92 14.6667 3.89333 14.7333 3.84 14.76ZM3.44 16.44C3.44 16.4667 3.4 16.5067 3.32 16.56C3.26667 16.5867 3.25333 16.64 3.28 16.72C3.54667 16.6133 3.65333 16.3067 3.6 15.8C3.68 15.7467 3.73333 15.6667 3.76 15.56C3.78667 15.4533 3.82667 15.3733 3.88 15.32C3.85333 15.32 3.84 15.3067 3.84 15.28C3.84 15.2533 3.82667 15.24 3.8 15.24C3.45333 15.8267 3.33333 16.2267 3.44 16.44ZM4.12 18.04C4.12 18.0133 4.13333 17.9867 4.16 17.96C4.18667 17.9333 4.18667 17.92 4.16 17.92C4.16 17.8933 4.13333 17.88 4.08 17.88C4.08 17.9867 4.09333 18.04 4.12 18.04ZM3.68 19.4C3.76 19.4 3.81333 19.3467 3.84 19.24C3.86667 19.1067 3.85333 19.0267 3.8 19C3.77333 19.1067 3.73333 19.24 3.68 19.4ZM2.64 19.68C2.72 19.6 2.73333 19.48 2.68 19.32C2.70667 19.32 2.73333 19.3067 2.76 19.28C2.81333 19.28 2.84 19.2667 2.84 19.24C2.81333 19.2667 2.77333 19.2667 2.72 19.24C2.69333 19.2133 2.66667 19.2 2.64 19.2C2.64 19.28 2.62667 19.3733 2.6 19.48C2.57333 19.5867 2.58667 19.6533 2.64 19.68ZM2.44 20.04C2.52 20.0667 2.57333 20.0133 2.6 19.88C2.6 19.8267 2.58667 19.8 2.56 19.8C2.56 19.8267 2.53333 19.8667 2.48 19.92C2.42667 19.9467 2.41333 19.9867 2.44 20.04ZM3.52 20.36H3.6V20.28H3.52V20.36ZM3.28 21.8C3.33333 21.6933 3.30667 21.6267 3.2 21.6C3.2 21.6267 3.21333 21.6667 3.24 21.72C3.24 21.7733 3.25333 21.8 3.28 21.8ZM2.2 22.12C2.25333 22.1733 2.29333 22.1467 2.32 22.04C2.37333 21.9333 2.34667 21.88 2.24 21.88C2.26667 21.9333 2.26667 21.9867 2.24 22.04C2.21333 22.0667 2.2 22.0933 2.2 22.12ZM2.2 22.52C2.2 22.36 2.18667 22.28 2.16 22.28C2.16 22.3067 2.16 22.3467 2.16 22.4C2.16 22.48 2.17333 22.52 2.2 22.52ZM2.12 23.08C2.12 23.0533 2.13333 22.9867 2.16 22.88C2.18667 22.7733 2.17333 22.72 2.12 22.72C2.12 22.7733 2.09333 22.8533 2.04 22.96C2.01333 23.04 2.04 23.08 2.12 23.08ZM1.96 23.28H2.08V23.2H1.96V23.28ZM1.96 23.76C2.06667 23.5467 2.08 23.4267 2 23.4C2 23.4267 1.98667 23.4667 1.96 23.52C1.96 23.5733 1.94667 23.6267 1.92 23.68C1.92 23.7067 1.93333 23.7333 1.96 23.76ZM1.88 24.2H1.96V24H1.88V24.2ZM1.68 24.52C1.68 24.4933 1.69333 24.48 1.72 24.48L1.76 24.4C1.81333 24.4533 1.85333 24.48 1.88 24.48C1.88 24.2667 1.82667 24.16 1.72 24.16C1.74667 24.24 1.73333 24.3067 1.68 24.36C1.65333 24.44 1.65333 24.4933 1.68 24.52ZM1.64 24.92C1.58667 25.0267 1.57333 25.1733 1.6 25.36C1.57333 25.28 1.58667 25.2267 1.64 25.2C1.69333 25.1733 1.72 25.1333 1.72 25.08C1.66667 25.08 1.64 25.0267 1.64 24.92ZM1.64 25.92C1.61333 25.92 1.6 25.92 1.6 25.92C1.54667 25.92 1.52 25.9333 1.52 25.96C1.6 25.96 1.64 25.9467 1.64 25.92ZM2.96 17.68C2.98667 17.7333 3 17.7733 3 17.8C3 17.8267 3.01333 17.8667 3.04 17.92C3.06667 17.92 3.08 17.9067 3.08 17.88C3.10667 17.8267 3.13333 17.8 3.16 17.8C3.13333 17.8533 3.12 17.9333 3.12 18.04C3.09333 18.04 3.06667 18.0267 3.04 18C3.01333 17.9733 2.98667 17.96 2.96 17.96C2.93333 17.9867 2.89333 18.1333 2.84 18.4C2.78667 18.64 2.72 18.8 2.64 18.88C2.66667 18.6933 2.70667 18.4667 2.76 18.2C2.84 17.9333 2.89333 17.76 2.92 17.68H2.96ZM2.96 18.36C3.04 18.3867 3.04 18.4267 2.96 18.48L2.92 18.52C2.86667 18.4933 2.86667 18.4667 2.92 18.44L2.96 18.36Z" fill="#50735F"/>
</svg>
