<svg width="114" height="113" viewBox="0 0 114 113" fill="none" xmlns="http://www.w3.org/2000/svg">
<path d="M87.9623 112.733C87.4352 112.089 87.0315 111.362 86.7698 110.586C86.4688 109.794 86.1983 108.988 85.9011 108.193C85.1848 106.256 84.5943 104.283 83.9275 102.331C83.2849 100.459 82.6499 98.5866 82.0225 96.7144C81.4193 94.8276 80.6862 92.9804 79.828 91.1847C79.3898 90.2992 78.8831 89.4462 78.4754 88.5463C78.0677 87.6464 77.7134 86.7392 77.3591 85.8357C77.0048 84.9321 76.6542 83.9888 76.2161 83.0925C75.778 82.1962 75.2865 81.3035 74.7683 80.436C73.7625 78.7591 72.6271 77.1507 71.7203 75.4159C71.2874 74.566 70.912 73.6908 70.5964 72.7956C70.2503 71.8946 69.8405 71.0167 69.3696 70.1681C68.9047 69.2899 68.4475 68.4116 68.0665 67.4972C67.6855 66.5828 67.3388 65.5745 67.0035 64.6059C66.7035 63.741 66.3209 62.9038 65.8606 62.1048C65.4136 61.3735 65.0313 60.6083 64.7176 59.8171C64.5765 59.4172 64.482 59.0039 64.4356 58.5846C64.3861 58.122 65.1443 58.1328 65.1976 58.5846C65.3805 60.2797 66.6302 61.6748 67.2969 63.2072C67.6779 64.1179 67.9637 65.0757 68.299 66.0046C68.6419 66.958 69.0452 67.891 69.5067 68.7983C69.9449 69.6549 70.4173 70.4934 70.8212 71.3644C71.225 72.2354 71.4993 73.1426 71.888 74.0172C72.65 75.7629 73.7282 77.3568 74.7416 78.9795C75.821 80.6425 76.7465 82.3911 77.5077 84.2057C78.243 86.0128 78.8679 87.8741 79.8204 89.598C81.7254 93.0388 82.7655 96.7722 84.0532 100.441C84.7276 102.363 85.3525 104.293 86.004 106.223C86.3164 107.149 86.6669 108.056 86.9946 108.97C87.2418 109.754 87.5356 110.524 87.8747 111.276C88.042 111.621 88.2531 111.945 88.5033 112.241C88.8157 112.602 88.2785 113.101 87.9623 112.743V112.733Z" fill="#50735F"/>
<path d="M87.5936 112.266C88.7333 112.233 89.8511 111.96 90.8663 111.467C91.053 111.377 91.2473 111.294 91.434 111.211L91.6322 111.117C91.6729 111.097 91.7112 111.073 91.7464 111.045C91.7464 111.045 91.7045 111.106 91.7121 111.11C91.7031 111.069 91.6916 111.03 91.6779 110.99C91.5979 110.792 91.495 110.604 91.4035 110.412C91.1634 109.869 91.0082 109.296 90.9425 108.71C90.8494 108.126 90.6923 107.553 90.4739 107C90.2453 106.422 89.9824 105.855 89.7652 105.273C89.5481 104.691 89.4528 104.069 89.2738 103.466C88.8568 102.301 88.3473 101.167 87.7498 100.076C87.1706 98.9312 86.6865 97.7458 86.302 96.53C85.9819 95.4457 85.7495 94.3615 85.338 93.3134C84.9266 92.2652 84.2255 91.4376 83.6502 90.5087C83.3479 90.0233 83.0929 89.5128 82.8882 88.9835C82.6951 88.4174 82.5511 87.8372 82.4577 87.2487C82.3549 86.6708 82.2175 86.0988 82.0462 85.5356C81.8439 84.9592 81.5662 84.4091 81.2194 83.8984C80.8923 83.4251 80.6019 82.9299 80.3508 82.4166C80.1047 81.8681 79.9071 81.3011 79.7602 80.7215C79.387 79.5622 78.8958 78.4401 78.2934 77.3711C78.0372 76.8549 77.7457 76.3551 77.4209 75.8749C77.0399 75.3508 76.6589 74.8448 76.3236 74.3063C75.9868 73.7741 75.7133 73.208 75.5083 72.6185C75.3178 72.0727 75.1844 71.5053 74.9444 70.9776C74.4567 69.8934 73.6261 68.9862 72.9175 68.032C72.5618 67.5939 72.3027 67.0925 72.1555 66.5574C72.0374 66.0478 72.0488 65.5238 71.984 65.007C71.8354 63.8396 70.9363 62.9758 70.6315 61.8554C70.3419 60.8036 70.1743 59.7302 69.7933 58.6966C69.5495 58.0424 69.1685 57.334 68.3874 57.1822C67.927 57.1241 67.4587 57.1687 67.0196 57.3123C66.5416 57.43 66.0819 57.6061 65.6518 57.8364C65.2616 58.0177 64.9454 58.3163 64.7527 58.6857C64.5736 59.1086 63.8421 58.917 64.0211 58.4869C64.4021 57.5581 65.4042 57.0666 66.3529 56.7557C67.3015 56.4449 68.3074 56.2389 69.1875 56.7051C69.9495 57.1135 70.3305 57.9304 70.5896 58.6857C70.7496 59.152 70.8906 59.6326 71.0087 60.1133C71.1203 60.7899 71.2885 61.457 71.5116 62.1084C71.7402 62.6541 72.1098 63.1348 72.365 63.6697C72.6119 64.2132 72.7513 64.7951 72.7765 65.3865C72.7719 65.9466 72.8941 66.5012 73.1347 67.0128C73.4541 67.5265 73.8132 68.0169 74.2091 68.4802C74.5989 68.9674 74.9589 69.4754 75.2873 70.0018C75.5921 70.5312 75.8336 71.0913 76.0074 71.6715C76.1807 72.293 76.4141 72.8979 76.7046 73.4786C77.0338 74.048 77.4003 74.5972 77.8019 75.1231C78.5125 76.178 79.1305 77.2864 79.6497 78.4373C79.9503 78.9887 80.2051 79.5615 80.4117 80.1505C80.5623 80.7703 80.748 81.382 80.968 81.9828C81.4519 83.1213 82.3205 84.0538 82.732 85.2356C83.1435 86.4175 83.1816 87.7077 83.6464 88.8787C84.0731 89.963 84.8199 90.8918 85.4447 91.8749C86.0249 92.8812 86.4471 93.9624 86.6982 95.0843C87.0181 96.3283 87.4371 97.5473 87.9517 98.731C88.4965 99.9418 89.1595 101.102 89.6738 102.324C89.9194 102.915 90.1094 103.526 90.2415 104.149C90.3952 104.767 90.6042 105.371 90.8663 105.956C91.1306 106.536 91.3558 107.131 91.5407 107.738C91.7045 108.338 91.7274 108.963 91.8989 109.545C92.0703 110.127 92.9618 111.171 92.1503 111.688C91.7728 111.9 91.3793 112.084 90.973 112.241C90.4616 112.481 89.9254 112.67 89.3728 112.805C88.7951 112.922 88.207 112.987 87.6164 113C87.1287 113 87.1364 112.295 87.6164 112.277L87.5936 112.266Z" fill="#50735F"/>
<path d="M66.1701 56.3294C67.2038 56.3799 68.2318 56.5068 69.2447 56.7089C70.4297 56.9076 71.6146 57.1317 72.7957 57.3594C73.2681 57.4498 73.7405 57.551 74.2168 57.6233C75.1464 57.7678 76.0951 57.7642 77.0171 57.9521C77.8325 58.1148 78.6135 58.4365 79.4441 58.5304C79.7848 58.5787 80.1319 58.5689 80.469 58.5015C80.5399 58.4927 80.6063 58.4637 80.6595 58.4184C80.6138 58.4798 80.6595 58.4184 80.6366 58.3606C80.3868 57.6872 79.9805 57.0758 79.4479 56.5715C78.8989 55.9953 78.3026 55.4611 77.6648 54.9741C76.9676 54.4247 76.2513 53.8898 75.5427 53.3657C74.8531 52.8133 74.1333 52.2957 73.3862 51.8152C72.682 51.4633 72.0256 51.0313 71.4317 50.5286C70.9783 50.0768 71.565 49.4443 72.007 49.2022C72.5074 48.9912 73.0315 48.8348 73.5691 48.7359C74.239 48.4978 74.8613 48.1531 75.4093 47.7167C75.7804 47.4567 76.17 47.2213 76.5752 47.012C76.9981 46.806 77.4362 46.6325 77.8477 46.4048C78.2725 46.1441 78.682 45.8618 79.0745 45.5591C79.4898 45.2627 79.9127 44.9736 80.3356 44.6844C81.0976 44.1568 81.8596 43.6363 82.6216 43.0942C83.2274 42.6569 83.9246 42.1581 84.2333 41.4786V41.8401C84.1304 41.663 83.8523 41.6377 83.6618 41.6196C83.3018 41.5889 82.9397 41.5889 82.5797 41.6196C81.7148 41.6846 80.8614 41.6774 79.9927 41.6738H78.2592C77.7289 41.6466 77.1972 41.6648 76.6704 41.728C75.7027 41.8798 74.7654 42.3099 73.7939 42.3171C73.2701 42.2707 72.7427 42.2768 72.2203 42.3352C71.7467 42.4447 71.2654 42.522 70.7802 42.5665C70.3039 42.6026 69.8277 42.5918 69.3514 42.6352C68.9108 42.697 68.4607 42.6315 68.0598 42.4472C67.681 42.2406 67.34 41.9769 67.0502 41.6666C66.7149 41.3413 66.3682 41.0413 66.0024 40.745C65.1338 40.0402 64.2384 39.3679 63.3354 38.6921C62.3449 37.9476 61.3923 37.1488 60.356 36.4657C59.876 36.1477 59.3845 35.8441 58.9121 35.5152C58.5311 35.2369 58.15 34.7924 57.6624 34.702L58.0434 34.6117C57.8083 34.932 57.6688 35.3066 57.6395 35.6959C57.5671 36.0971 57.4986 36.5019 57.4414 36.9067C57.318 37.9142 57.3514 38.9334 57.5405 39.9318C57.7386 41.0811 57.6129 42.2485 57.8948 43.3905C58.0815 44.1567 58.3329 45.1796 57.8338 45.8988C57.3347 46.618 56.3098 46.5096 55.5478 46.5819C54.9839 46.6318 54.4239 46.7163 53.8714 46.8349C53.6276 46.8855 53.3876 46.9505 53.1437 46.9903C52.0007 47.1565 50.8577 47.2577 49.7376 47.4457C49.0328 47.553 48.3375 47.7101 47.6574 47.9155C47.4097 47.9906 47.1719 48.0925 46.9487 48.2191C46.8784 48.2572 46.8164 48.3074 46.7658 48.3673C46.7315 48.4034 46.7658 48.3348 46.7391 48.407C46.7391 48.407 46.7391 48.4649 46.7163 48.4793L46.6248 48.1179C47.1963 48.6022 48.0269 48.7685 48.7127 49.0685C49.6042 49.4588 50.4577 49.9214 51.353 50.3045C52.0057 50.5943 52.6944 50.8044 53.4028 50.9298C54.0315 51.0418 54.6639 51.1358 55.2811 51.2912C55.8656 51.423 56.4071 51.6886 56.8585 52.0646C57.1044 52.3174 57.2735 52.6286 57.348 52.9652C57.4225 53.3018 57.3994 53.6513 57.2814 53.9765C57.0566 54.8476 56.6489 55.6969 56.3327 56.5426C55.9784 57.4823 55.6545 58.4292 55.3459 59.3834C55.0068 60.4387 54.6639 61.4941 54.2677 62.5349C54.1084 62.9583 53.9227 63.3723 53.7114 63.7746C53.54 64.0963 53.3076 64.4975 53.4295 64.8589L52.8732 64.642C53.3626 64.3969 53.8723 64.1902 54.3972 64.024C55.0425 63.7618 55.6589 63.4397 56.2374 63.0626C57.228 62.4699 58.3939 62.2856 59.4302 61.7832C60.4665 61.2808 61.3352 60.4532 62.2687 59.799C62.5774 59.6174 62.8671 59.408 63.1335 59.1737C63.4307 58.8702 63.7012 58.5413 63.9793 58.2196C64.4632 57.6702 65.2214 56.6149 66.1053 56.7739C66.5854 56.8534 66.3758 57.5474 65.8996 57.4642C65.9415 57.4642 65.9224 57.4642 65.8577 57.4859L65.7319 57.551C65.5778 57.6514 65.4348 57.7664 65.3052 57.8943C64.989 58.1943 64.7032 58.5196 64.4175 58.8485C64.1317 59.1774 63.9108 59.4484 63.6288 59.7303C63.3458 59.9745 63.0397 60.1935 62.7144 60.3845C61.7886 61.017 60.9618 61.8049 59.9636 62.3362C58.9654 62.8675 57.9024 63.012 56.9461 63.5108C56.6108 63.6843 56.3098 63.9047 55.986 64.0963C55.657 64.2851 55.3131 64.4495 54.9573 64.5878C54.3672 64.7771 53.7917 65.0054 53.2352 65.2709C53.1848 65.2982 53.1285 65.3143 53.0707 65.3179C53.0128 65.3214 52.9548 65.3124 52.9012 65.2915C52.8475 65.2706 52.7996 65.2383 52.7611 65.1972C52.7226 65.156 52.6945 65.1071 52.6789 65.054C52.4465 64.3312 52.9342 63.6517 53.2428 63.0337C53.639 62.1449 53.9724 61.2321 54.241 60.3014C54.8697 58.4039 55.5097 56.5209 56.2336 54.6524C56.4698 54.0488 56.8813 53.2067 56.3479 52.6393C55.9215 52.2708 55.3926 52.0262 54.8239 51.9345C54.2143 51.7863 53.5895 51.6996 52.9723 51.5731C52.2133 51.4191 51.4774 51.1763 50.7815 50.8503C49.9014 50.4635 49.0594 49.9973 48.1679 49.6286C47.4821 49.3467 46.6439 49.1624 46.0876 48.6456C45.7066 48.2842 46.1638 47.8432 46.4686 47.6372C46.8292 47.4217 47.2224 47.2596 47.6345 47.1565C48.7102 46.869 49.8084 46.6635 50.9187 46.5421C51.6807 46.4445 52.4427 46.4048 53.1742 46.2458C54.0904 46.0411 55.0213 45.9009 55.9593 45.8265C56.5118 45.7831 57.1671 45.8265 57.2966 45.194C57.4681 44.37 57.0871 43.5459 56.9804 42.7364C56.8547 41.7605 56.908 40.7811 56.7289 39.8089C56.5804 38.9733 56.5446 38.1231 56.6222 37.2789C56.6806 36.5487 56.7978 35.8237 56.9728 35.1104C57.0362 34.793 57.1657 34.4907 57.3538 34.2213C57.6357 33.8599 58.0396 34.0009 58.3863 34.2213C58.733 34.4418 59.0264 34.7273 59.3654 34.9442C59.7045 35.161 60.1274 35.4538 60.5313 35.7104C61.3619 36.2489 62.1239 36.8669 62.9087 37.4633C63.6936 38.0596 64.5127 38.6668 65.3052 39.2704C66.0601 39.8211 66.779 40.415 67.4579 41.0485C67.7128 41.3272 68.0078 41.5706 68.3342 41.7714C68.7095 41.9265 69.1271 41.9645 69.5267 41.8798C69.9496 41.8401 70.3763 41.8617 70.803 41.8256C71.2298 41.7895 71.6641 41.6774 72.1022 41.6015C72.5801 41.5461 73.0627 41.5376 73.5424 41.5762C74.005 41.5783 74.4651 41.5124 74.9064 41.381C75.7436 41.1161 76.6155 40.9629 77.4972 40.9257C78.5449 40.9257 79.5965 40.9473 80.6442 40.9546C81.3529 40.9546 82.0349 40.9293 82.7397 40.8859C83.3112 40.8498 84.0199 40.81 84.5228 41.1244C84.6608 41.1861 84.7697 41.2943 84.8281 41.4279C84.8866 41.5615 84.8905 41.7111 84.839 41.8473C84.676 42.1595 84.4597 42.444 84.199 42.6894C83.6411 43.2032 83.0383 43.6712 82.3968 44.0881C81.5701 44.6664 80.7319 45.2338 79.9051 45.8121C79.1467 46.3971 78.3315 46.9126 77.4705 47.3517C76.6591 47.7497 75.882 48.2077 75.1464 48.7215C74.5529 49.1023 73.8903 49.3756 73.1919 49.5275C72.7194 49.6395 72.0832 49.7515 71.9727 50.2792C71.9384 50.1599 71.9079 50.0443 71.8774 49.9178C72.6051 50.6406 73.63 51.0237 74.4568 51.6309C75.4855 52.3863 76.499 53.1561 77.5048 53.9223C78.3831 54.552 79.1992 55.256 79.9432 56.0258C80.3191 56.4256 80.6534 56.8589 80.9414 57.3197C81.1665 57.6253 81.3079 57.9793 81.3529 58.3497C81.3529 59.1954 80.2594 59.2605 79.6117 59.2243C78.4459 59.1593 77.3714 58.6605 76.217 58.5015C75.2112 58.3714 74.2015 58.3172 73.2033 58.1401C72.4985 58.0064 71.7936 57.869 71.085 57.7389C70.1439 57.5618 69.18 57.3775 68.2465 57.2474C67.5448 57.1204 66.8343 57.0419 66.1205 57.0125C66.0195 57.0125 65.9226 56.9744 65.8511 56.9066C65.7797 56.8388 65.7395 56.7469 65.7395 56.651C65.7395 56.5552 65.7797 56.4633 65.8511 56.3955C65.9226 56.3277 66.0195 56.2896 66.1205 56.2896L66.1701 56.3294Z" fill="#C58A46"/>
<path d="M90.1623 104.243C90.0664 105.509 89.7577 106.752 89.2479 107.926C89.0422 108.479 88.9279 109.053 88.665 109.588C88.3811 110.023 88.1376 110.48 87.9373 110.954L87.3848 110.542L87.4725 110.485C87.8535 110.221 88.2345 110.846 87.8535 111.11L87.7658 111.168C87.4839 111.356 87.1334 111.041 87.2134 110.756C87.2655 110.54 87.3475 110.332 87.4572 110.138C87.5944 109.917 87.7544 109.722 87.8763 109.491C88.1182 108.95 88.3218 108.394 88.4859 107.828C88.9088 106.657 89.3736 105.49 89.4079 104.236C89.4079 104.14 89.4481 104.048 89.5195 103.98C89.591 103.912 89.6879 103.874 89.7889 103.874C89.89 103.874 89.9869 103.912 90.0583 103.98C90.1298 104.048 90.1699 104.14 90.1699 104.236L90.1623 104.243Z" fill="#50735F"/>
<path d="M86.9606 96.8048C87.0287 97.1634 87.0758 97.5254 87.1016 97.889C87.0635 98.2866 86.9454 98.6552 86.9454 99.06C86.9431 99.4477 86.8789 99.8328 86.7549 100.202C86.6758 100.572 86.6173 100.946 86.5796 101.323C86.5415 101.507 86.5148 101.684 86.4691 101.879C86.4093 102.039 86.3622 102.204 86.3281 102.371C86.3281 102.544 86.3548 102.714 86.3281 102.891C86.3054 103.095 86.262 103.295 86.1986 103.491C86.1025 103.803 86.0325 104.122 85.9891 104.445C85.9763 104.756 85.8792 105.059 85.7071 105.323C85.6734 105.377 85.6254 105.422 85.568 105.453C85.5105 105.484 85.4455 105.5 85.3794 105.5C85.3133 105.5 85.2484 105.484 85.1909 105.453C85.1335 105.422 85.0855 105.377 85.0518 105.323C84.9642 105.162 84.9412 104.976 84.987 104.799C85.0823 104.348 85.8138 104.543 85.7147 104.995V104.962H85.0556C85.1874 104.742 85.257 104.493 85.2575 104.239C85.308 103.891 85.3896 103.548 85.5014 103.213C85.5558 103.049 85.584 102.878 85.5852 102.707C85.5681 102.538 85.5681 102.369 85.5852 102.201C85.6157 102.027 85.6957 101.868 85.7376 101.698C85.7795 101.529 85.81 101.337 85.8443 101.142C85.9167 100.78 85.909 100.448 86.0157 100.108C86.1381 99.7323 86.201 99.3413 86.2024 98.948C86.2024 98.5685 86.3358 98.2252 86.3662 97.8457C86.3967 97.4662 86.2291 97.159 86.2215 96.8048C86.2215 96.7089 86.2616 96.617 86.3331 96.5492C86.4045 96.4814 86.5014 96.4434 86.6025 96.4434C86.7035 96.4434 86.8004 96.4814 86.8719 96.5492C86.9433 96.617 86.9835 96.7089 86.9835 96.8048H86.9606Z" fill="#50735F"/>
<path d="M84.234 90.4799C84.2633 91.0669 84.2467 91.6552 84.1845 92.24C84.0893 92.7929 83.914 93.3242 83.8035 93.888C83.6917 94.3891 83.5138 94.8749 83.2739 95.3337C83.0728 95.7959 82.7964 96.2252 82.4548 96.6059C82.1195 96.9457 81.5899 96.4324 81.9214 96.0927C82.2229 95.7408 82.4657 95.3471 82.6415 94.9253C82.8537 94.5069 83.0049 94.0632 83.0911 93.6061C83.1863 93.1182 83.3501 92.6448 83.4378 92.1605C83.4993 91.6059 83.5134 91.0474 83.4797 90.4907C83.4797 90.3948 83.5198 90.3029 83.5913 90.2351C83.6627 90.1674 83.7596 90.1293 83.8607 90.1293C83.9617 90.1293 84.0586 90.1674 84.1301 90.2351C84.2015 90.3029 84.2417 90.3948 84.2417 90.4907L84.234 90.4799Z" fill="#50735F"/>
<path d="M80.9147 82.2105C80.9147 82.9008 80.9147 83.5911 80.9147 84.285C80.9268 84.6262 80.9179 84.9677 80.888 85.3078C80.8499 85.6151 80.7699 85.9223 80.7509 86.2331C80.7427 86.5274 80.7134 86.8208 80.6632 87.1113C80.6196 87.2661 80.5928 87.4248 80.5833 87.5848C80.5833 87.7402 80.6099 87.8956 80.5833 88.051C80.5452 88.6763 80.2823 89.269 80.2556 89.8979C80.2556 89.9937 80.2155 90.0857 80.144 90.1534C80.0725 90.2212 79.9756 90.2593 79.8746 90.2593C79.7736 90.2593 79.6766 90.2212 79.6052 90.1534C79.5337 90.0857 79.4936 89.9937 79.4936 89.8979C79.5165 89.2835 79.745 88.7124 79.8136 88.0908C79.8479 87.78 79.7832 87.48 79.8479 87.1655C79.9134 86.8532 79.9541 86.5367 79.9698 86.2186C79.9889 85.9259 80.0575 85.6403 80.0994 85.3512C80.1356 85.0114 80.1471 84.6697 80.1337 84.3284C80.1337 83.6056 80.1337 82.908 80.1337 82.196C80.1337 82.1002 80.1738 82.0082 80.2452 81.9405C80.3167 81.8727 80.4136 81.8346 80.5147 81.8346C80.6157 81.8346 80.7126 81.8727 80.7841 81.9405C80.8555 82.0082 80.8957 82.1002 80.8957 82.196L80.9147 82.2105Z" fill="#50735F"/>
<path d="M77.2956 74.6281C77.2956 75.9401 77.3642 77.2592 77.2728 78.5712C77.2444 78.8248 77.1909 79.0753 77.1128 79.3193C77.0366 79.6121 77.0175 79.9157 76.926 80.2084C76.8346 80.5012 76.6822 80.7614 76.587 81.0505C76.4599 81.3172 76.3788 81.6015 76.3469 81.8926C76.3774 82.3552 75.6192 82.348 75.5849 81.8926C75.5963 81.6222 75.6609 81.3562 75.7754 81.1084C75.8707 80.8301 75.9621 80.5554 76.084 80.2843C76.2048 79.994 76.2867 79.6904 76.3279 79.3808C76.3774 79.1061 76.4879 78.8459 76.5108 78.5676C76.6136 77.2592 76.5108 75.9364 76.5336 74.6245C76.5336 74.5286 76.5738 74.4367 76.6452 74.3689C76.7167 74.3011 76.8136 74.2631 76.9146 74.2631C77.0157 74.2631 77.1126 74.3011 77.184 74.3689C77.2555 74.4367 77.2956 74.5286 77.2956 74.6245V74.6281Z" fill="#50735F"/>
<path d="M74.103 68.867C74.0943 69.5918 74.1376 70.3163 74.2326 71.0356C74.3196 71.654 74.3094 72.2813 74.2021 72.8969C74.0764 73.6016 73.9278 74.3028 73.7677 74.9967C73.6944 75.5667 73.4407 76.1023 73.0401 76.5327C72.6819 76.8472 72.1485 76.3376 72.5066 76.0195C72.8648 75.7015 72.96 75.1196 73.0705 74.657C73.2267 73.9883 73.3829 73.3089 73.4858 72.633C73.5627 72.0806 73.5537 71.5204 73.4591 70.9705C73.3582 70.2737 73.32 69.57 73.3448 68.867C73.3448 68.7712 73.385 68.6792 73.4564 68.6115C73.5279 68.5437 73.6248 68.5056 73.7258 68.5056C73.8269 68.5056 73.9238 68.5437 73.9952 68.6115C74.0667 68.6792 74.1068 68.7712 74.1068 68.867H74.103Z" fill="#50735F"/>
<path d="M72.084 63.5362C72.0345 64.653 71.5163 65.6541 71.2191 66.7167C71.0654 67.2119 70.8718 67.6953 70.64 68.1624C70.5181 68.4154 70.4457 68.6828 70.3352 68.943C70.2911 69.0538 70.2336 69.1593 70.1637 69.2575C70.1142 69.3297 69.9809 69.4418 69.9694 69.5249C69.9694 69.6208 69.9293 69.7127 69.8578 69.7805C69.7864 69.8483 69.6895 69.8863 69.5884 69.8863C69.4056 69.8863 69.1846 69.7165 69.2074 69.5249C69.2511 69.2937 69.3545 69.0764 69.5084 68.8924C69.6387 68.6633 69.7409 68.4207 69.8132 68.1696C70.0113 67.6853 70.2818 67.2299 70.4304 66.7239C70.739 65.6794 71.2763 64.6277 71.322 63.529C71.322 63.0663 72.084 63.07 72.084 63.529V63.5362Z" fill="#50735F"/>
<path d="M70.0678 57.9232C70.0834 59.119 69.7904 60.3002 69.2143 61.3639C68.8905 61.9386 68.5857 62.5313 68.2428 63.0987C68.1056 63.33 67.9113 63.5288 67.7589 63.7529C67.6489 63.8863 67.5639 64.0367 67.5075 64.1974C67.4503 64.6528 66.6921 64.6528 66.7455 64.1974C66.8375 63.7824 67.0424 63.3974 67.3398 63.0806C67.7116 62.5466 68.0414 61.9873 68.3266 61.4073C68.6516 60.8798 68.9075 60.3166 69.0886 59.7303C69.2362 59.1383 69.3066 58.5314 69.2982 57.9232C69.2982 57.8273 69.3383 57.7354 69.4098 57.6676C69.4812 57.5998 69.5781 57.5618 69.6792 57.5618C69.7802 57.5618 69.8771 57.5998 69.9486 57.6676C70.02 57.7354 70.0602 57.8273 70.0602 57.9232H70.0678Z" fill="#50735F"/>
<path d="M63.7213 47.1455C63.4948 46.7724 63.2265 46.4234 62.9212 46.1047C62.6606 45.7306 62.4495 45.3276 62.2926 44.9047C62.0659 44.4864 61.8723 44.0527 61.7134 43.6072C61.5458 43.1482 61.3324 42.7182 61.1381 42.2628C61.0478 42.0693 60.9367 41.8852 60.8066 41.7134C60.6814 41.5155 60.5694 41.3103 60.4714 41.099C60.2351 40.6472 59.9837 40.2027 59.7665 39.7437C59.5728 39.3153 59.4037 38.8774 59.2598 38.4317C59.1046 38.0012 58.8839 37.5945 58.6045 37.2246C58.3307 36.843 58.1008 36.4347 57.9187 36.0066C57.8344 35.7954 57.7644 35.5793 57.7091 35.3596C57.652 35.1681 57.4843 35.0452 57.45 34.8392C57.37 34.3874 58.1054 34.1959 58.1816 34.6549C58.2083 34.7958 58.3492 34.9115 58.4025 35.0524C58.4559 35.1934 58.4826 35.4139 58.5588 35.6018C58.708 35.9921 58.9049 36.3645 59.1455 36.7114C59.4103 37.0483 59.6352 37.4119 59.8161 37.7956C60.0027 38.2293 60.1209 38.6847 60.2999 39.1184C60.6788 39.9966 61.135 40.8429 61.6639 41.6484C61.7676 41.8384 61.8568 42.0353 61.9306 42.2375C62.0335 42.4688 62.1592 42.6892 62.2545 42.9242C62.4373 43.3723 62.5669 43.8349 62.7917 44.265C62.9098 44.4927 63.0431 44.7168 63.1498 44.9481C63.2193 45.183 63.3245 45.407 63.4622 45.6131C63.8061 45.9819 64.1134 46.38 64.3804 46.8022C64.426 46.8848 64.4361 46.9809 64.4087 47.0704C64.3814 47.16 64.3186 47.236 64.2335 47.2826C64.1484 47.3293 64.0476 47.3429 63.9522 47.3208C63.8567 47.2986 63.774 47.2423 63.7213 47.1636V47.1455Z" fill="#C58A46"/>
<path d="M84.5039 41.4859C84.4087 41.9269 83.8105 42.122 83.4257 42.2558C82.8847 42.4437 82.3208 42.5811 81.7683 42.7328C81.0063 42.9425 80.2901 43.1955 79.5357 43.3798C79.2111 43.4867 78.9101 43.6497 78.648 43.8605C78.317 44.0672 77.9692 44.2485 77.6078 44.4026C76.9174 44.7114 76.2059 44.9759 75.478 45.1941C75.1343 45.3151 74.778 45.4011 74.4151 45.4507C73.9808 45.4567 73.5471 45.4845 73.1158 45.5339C72.7577 45.6097 72.4186 45.7652 72.0681 45.87C71.7089 45.9615 71.339 46.0101 70.967 46.0145C70.6574 46.0518 70.3555 46.1335 70.0717 46.2567C69.6907 46.3832 69.3097 46.4952 68.9592 46.6506C68.6148 46.7941 68.248 46.8832 67.8733 46.9145C67.4856 46.9712 67.1092 47.0833 66.757 47.247C66.366 47.4001 65.9844 47.5739 65.614 47.7674C65.4921 47.8252 65.3663 47.8722 65.233 47.9228L65.092 47.9843C65.0501 48.0023 64.932 48.0963 64.951 48.0493C64.791 48.483 64.0595 48.2915 64.2195 47.8505C64.3795 47.4096 65.0692 47.2253 65.5035 46.9904C65.8016 46.8333 66.1125 46.6992 66.4331 46.5892C66.7688 46.4299 67.123 46.3086 67.4885 46.2278C67.8032 46.2068 68.1148 46.1547 68.4181 46.0724C68.7763 45.9567 69.1078 45.7868 69.4697 45.6748C69.8061 45.5467 70.1495 45.4357 70.4984 45.3423C70.8375 45.2772 71.188 45.3134 71.5271 45.2519C71.8804 45.1649 72.2277 45.0575 72.5672 44.9303C72.9506 44.8161 73.3503 44.7588 73.7521 44.7604C74.1256 44.7628 74.4975 44.7153 74.857 44.6194C75.2723 44.4966 75.68 44.3556 76.0914 44.2291C76.8208 44.009 77.5145 43.694 78.1527 43.293C78.4111 43.0958 78.6908 42.925 78.987 42.7834C79.3109 42.6606 79.6614 42.6208 79.9891 42.5124C80.8387 42.2341 81.7036 41.9992 82.5608 41.7534C82.797 41.6847 83.0371 41.6233 83.2657 41.5365C83.3902 41.4946 83.5101 41.4414 83.6238 41.3775L83.6924 41.3378C83.7204 41.3191 83.746 41.2972 83.7686 41.2727C83.7343 41.3378 83.7267 41.345 83.7419 41.2727C83.841 40.8209 84.5687 41.0161 84.4734 41.4679L84.5039 41.4859Z" fill="#C58A46"/>
<path d="M64.651 47.8505C64.0354 49.0433 63.3551 50.205 62.6127 51.3309C62.2317 51.9092 61.9269 52.4983 61.5802 53.0838C61.2335 53.6693 60.8486 54.103 60.5705 54.6741C60.2695 55.2993 59.9266 55.9137 59.6637 56.5498C59.5478 56.8577 59.4142 57.1593 59.2637 57.4534C59.0999 57.7534 58.8827 58.0389 58.7189 58.3316C57.9964 59.4084 57.2076 60.4439 56.3567 61.4326C55.4613 62.5892 54.745 63.8722 53.6897 64.9023C53.3468 65.2348 52.8134 64.7215 53.1563 64.3927C54.1012 63.4783 54.7488 62.3579 55.5223 61.3206C56.2957 60.2833 57.1872 59.3545 57.8807 58.281C58.2617 57.7384 58.5895 57.1638 58.8598 56.5643C59.1189 55.9318 59.4428 55.3391 59.7323 54.7247C60.0085 54.1426 60.3387 53.585 60.7191 53.0585C61.1001 52.5272 61.3744 51.9345 61.7097 51.3851C62.4984 50.0949 63.3518 48.8552 63.9957 47.4818C64.1976 47.0626 64.8491 47.4348 64.6472 47.8432L64.651 47.8505Z" fill="#C58A46"/>
<path d="M64.1819 47.1672H64.4295C64.5306 47.1672 64.6275 47.2053 64.6989 47.2731C64.7704 47.3409 64.8105 47.4328 64.8105 47.5287C64.8105 47.6245 64.7704 47.7164 64.6989 47.7842C64.6275 47.852 64.5306 47.8901 64.4295 47.8901C63.9067 47.939 63.3875 48.0187 62.8751 48.1286C62.616 48.1611 62.3531 48.1684 62.1131 48.1973C61.8731 48.2262 61.5301 48.3166 61.2368 48.3635C60.6424 48.4647 60.0595 48.3346 59.469 48.4069C59.2289 48.4358 58.9965 48.5009 58.7565 48.5262C58.514 48.5443 58.2747 48.5905 58.044 48.6635C57.5182 48.8406 56.9886 48.7683 56.4552 48.8948C55.9429 49.0288 55.4131 49.0933 54.8817 49.0864C53.6663 49.0575 52.4548 49.0575 51.2394 49.0466L47.0827 49.0141C46.9816 49.0141 46.8847 48.976 46.8133 48.9082C46.7418 48.8405 46.7017 48.7485 46.7017 48.6527C46.7017 48.5568 46.7418 48.4649 46.8133 48.3971C46.8847 48.3293 46.9816 48.2912 47.0827 48.2912C49.5287 48.3093 51.9747 48.2912 54.4169 48.3491C54.9629 48.3904 55.5124 48.3551 56.0476 48.2443C56.2973 48.1776 56.552 48.1292 56.8096 48.0997C57.0997 48.1029 57.3894 48.0787 57.6744 48.0274C57.881 47.9509 58.0938 47.8904 58.3107 47.8467C58.5698 47.807 58.8251 47.7925 59.0727 47.7419C59.6427 47.6931 60.2153 47.6787 60.7872 47.6985C61.1104 47.6559 61.4309 47.5968 61.7473 47.5214C62.0407 47.4744 62.3341 47.46 62.6236 47.4347C63.2446 47.3769 63.8314 47.1745 64.4562 47.1672C64.4562 47.4094 64.4562 47.6479 64.4562 47.8901H64.2048C64.1037 47.8901 64.0068 47.852 63.9353 47.7842C63.8639 47.7164 63.8238 47.6245 63.8238 47.5287C63.8238 47.4328 63.8639 47.3409 63.9353 47.2731C64.0068 47.2053 64.1037 47.1672 64.2048 47.1672H64.1819Z" fill="#C58A46"/>
<path d="M80.6169 59.1015C79.6644 58.1943 78.5061 57.5148 77.4279 56.7486C76.8904 56.3907 76.316 56.0855 75.7134 55.8378C75.1381 55.574 74.6504 55.1909 74.0789 54.9234C72.8573 54.3379 71.6729 53.6851 70.5318 52.9682C69.9565 52.6067 69.3888 52.2887 68.8326 51.8839C68.2763 51.4791 67.7696 51.0563 67.2133 50.6695C66.5885 50.2394 65.9598 49.813 65.3807 49.3287C65.1064 49.0974 64.794 48.9022 64.5235 48.6636C64.2912 48.4074 64.0141 48.191 63.7043 48.0239L64.2606 47.8143V47.9047C64.1691 48.3601 63.4414 48.1613 63.5291 47.7095V47.6155C63.5455 47.5631 63.5743 47.515 63.6131 47.4747C63.652 47.4343 63.7001 47.4029 63.7536 47.3827C63.8071 47.3625 63.8648 47.3541 63.9223 47.3582C63.9797 47.3622 64.0355 47.3785 64.0853 47.4059C64.3563 47.5342 64.6013 47.7067 64.8092 47.9155C65.0395 48.131 65.2839 48.3326 65.5408 48.5191C66.1085 48.9383 66.638 49.3901 67.221 49.7913C68.3297 50.5611 69.3545 51.4357 70.5242 52.1188C71.6939 52.8019 72.9093 53.5464 74.159 54.1609C74.4333 54.2982 74.7228 54.4138 74.9819 54.5729C75.241 54.7319 75.5115 54.9343 75.8048 55.0861C76.3993 55.344 76.9793 55.6311 77.5422 55.9463C78.1594 56.3402 78.7538 56.7811 79.3596 57.1932C79.9955 57.6167 80.5955 58.0867 81.1541 58.5991C81.5008 58.928 80.9598 59.434 80.6131 59.1051L80.6169 59.1015Z" fill="#C58A46"/>
<path d="M16.7626 37.3374C14.613 39.5665 16.6397 41.9866 19.5262 40.5855C22.1057 39.3754 21.4301 36 18.605 36C18.2979 36 17.4995 36.5732 16.7626 37.3374ZM19.8947 38.6112C19.8947 38.9296 19.342 39.1844 18.6664 39.1844C17.3153 39.1844 17.0082 38.1654 18.2365 37.7196C19.1577 37.4011 19.8947 37.7833 19.8947 38.6112Z" fill="#50735F"/>
<path d="M58.9286 1.33744C56.779 3.5665 58.8057 5.98663 61.6922 4.5855C64.2717 3.37544 63.5961 0 60.771 0C60.4639 0 59.6655 0.573187 58.9286 1.33744ZM62.0607 2.61119C62.0607 2.92963 61.508 3.18438 60.8324 3.18438C59.4813 3.18438 59.1742 2.16538 60.4025 1.71956C61.3238 1.40113 62.0607 1.78325 62.0607 2.61119Z" fill="#50735F"/>
<path d="M5.5638 7.14526C3.84846 8.53513 3.84846 9.81809 5.50254 11.6356C7.09536 13.3997 9.66838 13.4531 11.445 11.796C15.2433 8.26785 9.60712 3.88441 5.5638 7.14526ZM10.4648 8.05402C11.8738 9.17661 11.8738 9.97846 10.4035 11.101C8.81071 12.3305 7.21789 12.0098 6.11516 10.2457C5.31875 9.06969 5.31875 8.6955 5.99264 8.00056C7.0341 6.87798 9.05576 6.93143 10.4648 8.05402Z" fill="#50735F"/>
<path d="M1.84387 57.5367C4.71814 57.8025 13.8582 55.4913 19.7943 58.9498C16.837 61.2771 17.205 62.8734 18.502 64.4846C21.9547 68.7485 25.8224 62.7947 21.5059 58.8705C25.2402 56.5273 29.6325 57.9964 33.1853 60.5363C33.2344 60.5688 33.2901 60.5914 33.3489 60.6025C33.4076 60.6137 33.4681 60.6132 33.5267 60.6011C33.5852 60.589 33.6405 60.5655 33.689 60.5322C33.7375 60.4989 33.7783 60.4564 33.8087 60.4074C33.8391 60.3585 33.8585 60.3041 33.8657 60.2476C33.8729 60.1912 33.8677 60.134 33.8505 60.0796C33.8332 60.0251 33.8043 59.9747 33.7656 59.9313C33.7268 59.888 33.679 59.8528 33.6252 59.8278C29.6448 56.9712 24.8007 55.5745 20.7164 58.2806C17.3624 56.0582 12.9683 55.8503 9.01814 56.0189C7.24442 56.1006 5.50009 56.2902 3.77527 56.4196C3.17679 56.4642 2.2044 56.3067 1.6674 56.5109C0.80164 56.8597 0.793989 57.4408 1.84387 57.5367ZM20.5857 59.5138C23.7342 62.2338 22.0002 67.0549 19.2713 63.8316C18.5728 62.9169 17.645 61.8199 20.5857 59.5138Z" fill="#50735F"/>
<path d="M101.392 1.49844C98.4277 2.41814 96.4236 4.24743 94.4848 6.72708C91.8026 10.1641 90.1484 14.445 91.2769 18.6241C86.2819 21.3117 84.4142 27.322 84.6281 29.5368C84.8237 31.4879 86.4004 30.7623 86.0119 30.0202C85.297 28.6543 86.9693 22.2706 91.6189 19.6662C93.2262 24.0171 98.3689 24.0807 100.648 22.559C102.35 21.4223 102.516 17.2921 96.8145 17.2247C95.3564 17.2147 93.9117 17.4895 92.5704 18.0319C91.2045 12.2677 96.2456 3.67863 103.727 2.34574C104.367 2.23149 104.685 2.35963 104.95 1.97386C105.051 1.82599 105.086 1.6463 105.047 1.47408C105.008 1.30187 104.899 1.15116 104.744 1.0549C104.223 0.721611 101.978 1.31358 101.392 1.49844ZM100.379 20.3304C100.358 22.3037 96.8281 22.4171 95.1311 21.667C94.0378 21.0977 93.2194 20.1487 92.8478 19.0193C95.3456 17.9847 100.053 17.6516 100.379 20.3304Z" fill="#50735F"/>
<path d="M48.5899 26.0666C47.7899 24.8901 43.9131 22.1505 43.4895 18.7973C45.4108 19.1824 45.9681 18.5359 46.2368 17.5317C46.9414 14.8664 43.1998 15.2864 42.9128 18.1721C40.7381 17.4968 39.9644 15.3615 39.9093 13.2055C39.9075 13.1765 39.8993 13.1481 39.8854 13.1223C39.8714 13.0964 39.852 13.0736 39.8283 13.0552C39.8046 13.0368 39.7772 13.0232 39.7477 13.0153C39.7183 13.0075 39.6874 13.0055 39.6571 13.0095C39.6267 13.0135 39.5976 13.0234 39.5715 13.0385C39.5454 13.0537 39.5229 13.0738 39.5054 13.0977C39.4878 13.1215 39.4757 13.1485 39.4697 13.177C39.4637 13.2054 39.464 13.2348 39.4705 13.2632C39.5276 15.6823 40.4753 17.9662 42.9142 18.6593C43.0403 20.6391 44.3471 22.3748 45.672 23.8222C46.2695 24.4703 46.9031 25.0729 47.5052 25.6872C47.714 25.9005 47.9561 26.3199 48.2128 26.4592C48.6348 26.6775 48.8826 26.4959 48.5899 26.0666ZM43.4764 18.3176C43.6257 16.2579 46.2118 15.3867 45.7169 17.4466C45.5523 18.0024 45.3835 18.703 43.4764 18.3176Z" fill="#50735F"/>
<path d="M67.4494 17.1608C67.4494 16.5114 67.4965 15.862 67.5521 15.2166C67.6976 13.5931 67.9158 13.2806 67.5307 13.0695C66.491 12.4891 66.5124 15.6915 66.4824 17.1608C66.4824 17.2824 66.5334 17.3991 66.624 17.4851C66.7147 17.5711 66.8377 17.6195 66.9659 17.6195C67.0941 17.6195 67.2171 17.5711 67.3078 17.4851C67.3985 17.3991 67.4494 17.2824 67.4494 17.1608Z" fill="#50735F"/>
<path d="M69.5675 16.3977C70.6756 15.4033 70.5901 15.521 71.5913 14.6808C72.109 14.4819 71.878 13.7554 71.2148 13.934C70.8554 14.0071 69.9697 14.8756 69.7087 15.1232C68.5877 16.1948 67.8517 16.6778 68.2796 17.0836C68.7074 17.4895 69.0326 16.8848 69.5675 16.3977Z" fill="#50735F"/>
<path d="M69.8764 19.5555C74.292 18.5002 74.3305 18.6464 74.4161 18.3379C74.6942 17.3841 72.4693 18.0335 69.6368 18.7438C69.5438 18.7891 69.4703 18.8635 69.4285 18.9543C69.3867 19.0452 69.3792 19.1469 69.4074 19.2424C69.4356 19.3378 69.4977 19.4211 69.5831 19.4782C69.6685 19.5352 69.7721 19.5626 69.8764 19.5555Z" fill="#50735F"/>
<path d="M67.428 21.597C67.3839 21.6358 67.3489 21.6829 67.3254 21.7354C67.3018 21.7878 67.2901 21.8444 67.2911 21.9014C67.2911 21.9501 67.92 26.8207 67.9243 26.8694C67.9064 26.9648 67.9251 27.0631 67.9769 27.1466C68.0288 27.2301 68.1104 27.2932 68.207 27.3246C68.3037 27.3559 68.4089 27.3535 68.5038 27.3177C68.5987 27.2818 68.677 27.215 68.7244 27.1292C68.917 26.8247 68.7244 25.8547 68.5875 24.771C68.3308 22.8106 68.2666 20.7974 67.428 21.597Z" fill="#50735F"/>
<path d="M64.1985 22.6118C63.8562 23.2125 63.5125 23.8132 63.1674 24.4139C62.9919 24.7183 62.8122 25.0227 62.6325 25.3231C62.4913 25.5625 62.3287 25.7939 62.2047 26.0415C62.1559 26.134 62.1158 26.2305 62.0849 26.3297C62.0292 26.492 62.0036 26.6787 62.1747 26.7802C62.252 26.825 62.3408 26.8488 62.4314 26.8488C62.522 26.8488 62.6109 26.825 62.6881 26.7802C63.0219 26.5935 63.4155 25.7614 64.1643 24.5073C65.7816 21.8203 66.2694 21.4307 65.6918 21.1141C65.6343 21.0743 65.5664 21.0503 65.4955 21.0445C65.4246 21.0388 65.3534 21.0516 65.2896 21.0816C65.1091 21.2019 64.9622 21.3621 64.8617 21.5484C64.6136 21.8771 64.3953 22.2465 64.1985 22.6118Z" fill="#50735F"/>
<path d="M59.7868 22.2059C59.9194 22.1207 63.736 20.5824 63.8815 20.5215C63.9814 20.4634 64.059 20.3765 64.103 20.2734C64.1469 20.1704 64.1549 20.0567 64.1257 19.949C64.0965 19.8414 64.0317 19.7455 63.9407 19.6754C63.8498 19.6053 63.7375 19.5647 63.6205 19.5596C62.9697 19.7676 62.3313 20.0088 61.7079 20.282C62.1358 20.1197 59.5985 21.0735 59.2006 21.4997C59.1285 21.5804 59.088 21.6822 59.086 21.788C59.084 21.8937 59.1206 21.9969 59.1895 22.08C59.2585 22.1631 59.3557 22.221 59.4645 22.2439C59.5733 22.2669 59.6872 22.2535 59.7868 22.2059Z" fill="#50735F"/>
<path d="M64.7581 18.1229C65.1859 17.717 64.6939 17.3964 63.2862 16.1625C63.0423 15.9514 61.7972 14.7947 61.472 14.7947C61.3745 14.7979 61.2799 14.8276 61.1996 14.8804C61.1194 14.9332 61.0568 15.0067 61.0194 15.0923C60.9819 15.1778 60.9712 15.2718 60.9885 15.3629C61.0058 15.4541 61.0504 15.5386 61.1169 15.6064C64.1933 18.1676 64.3088 18.5531 64.7581 18.1229Z" fill="#50735F"/>
<path d="M25.3436 19.1426C25.3436 18.6521 25.3792 18.1616 25.4212 17.6742C25.5311 16.448 25.6959 16.2119 25.405 16.0525C24.6197 15.6141 24.6359 18.0328 24.6133 19.1426C24.6133 19.2344 24.6518 19.3226 24.7202 19.3875C24.7887 19.4525 24.8816 19.489 24.9785 19.489C25.0753 19.489 25.1682 19.4525 25.2367 19.3875C25.3051 19.3226 25.3436 19.2344 25.3436 19.1426Z" fill="#50735F"/>
<path d="M26.9448 18.5663C27.7818 17.8152 27.7171 17.9041 28.4733 17.2695C28.8643 17.1193 28.6898 16.5706 28.1889 16.7055C27.9175 16.7607 27.2485 17.4167 27.0514 17.6037C26.2047 18.413 25.6489 18.7778 25.9721 19.0843C26.2952 19.3909 26.5408 18.9341 26.9448 18.5663Z" fill="#50735F"/>
<path d="M27.1774 20.9512C30.5124 20.1541 30.5415 20.2645 30.6062 20.0315C30.8162 19.3111 29.1358 19.8016 26.9965 20.3381C26.9263 20.3723 26.8707 20.4285 26.8391 20.4971C26.8076 20.5657 26.802 20.6426 26.8232 20.7147C26.8445 20.7868 26.8914 20.8497 26.9559 20.8928C27.0205 20.9359 27.0987 20.9565 27.1774 20.9512Z" fill="#50735F"/>
<path d="M25.3281 22.4932C25.2948 22.5225 25.2684 22.5581 25.2505 22.5977C25.2327 22.6373 25.2239 22.68 25.2247 22.7231C25.2247 22.7599 25.6997 26.4385 25.7029 26.4753C25.6894 26.5474 25.7035 26.6216 25.7427 26.6847C25.7818 26.7477 25.8435 26.7954 25.9164 26.8191C25.9894 26.8428 26.069 26.841 26.1406 26.8139C26.2123 26.7868 26.2714 26.7363 26.3072 26.6715C26.4527 26.4416 26.3072 25.7089 26.2038 24.8904C26.0099 23.4098 25.9615 21.8893 25.3281 22.4932Z" fill="#50735F"/>
<path d="M22.8878 23.2597C22.6293 23.7134 22.3697 24.1671 22.109 24.6208C21.9765 24.8507 21.8408 25.0806 21.705 25.3074C21.5984 25.4883 21.4756 25.663 21.3819 25.85C21.3451 25.92 21.3148 25.9928 21.2914 26.0677C21.2494 26.1903 21.23 26.3313 21.3593 26.408C21.4176 26.4418 21.4847 26.4598 21.5532 26.4598C21.6216 26.4598 21.6887 26.4418 21.7471 26.408C21.9991 26.267 22.2964 25.6385 22.862 24.6913C24.0835 22.6619 24.4519 22.3676 24.0156 22.1285C23.9722 22.0984 23.9209 22.0803 23.8674 22.076C23.8138 22.0716 23.76 22.0813 23.7119 22.104C23.5755 22.1948 23.4646 22.3158 23.3887 22.4565C23.2013 22.7048 23.0365 22.9838 22.8878 23.2597Z" fill="#50735F"/>
<path d="M19.5567 22.9528C19.6569 22.8885 22.5394 21.7266 22.6493 21.6806C22.7248 21.6368 22.7834 21.5711 22.8166 21.4933C22.8498 21.4154 22.8558 21.3296 22.8338 21.2483C22.8117 21.167 22.7627 21.0945 22.6941 21.0416C22.6254 20.9886 22.5406 20.958 22.4522 20.9541C21.9607 21.1113 21.4785 21.2934 21.0077 21.4998C21.3308 21.3771 19.4145 22.0975 19.1139 22.4194C19.0595 22.4804 19.0289 22.5573 19.0274 22.6372C19.0259 22.717 19.0535 22.7949 19.1056 22.8577C19.1577 22.9205 19.2311 22.9642 19.3133 22.9815C19.3955 22.9989 19.4815 22.9887 19.5567 22.9528Z" fill="#50735F"/>
<path d="M23.3121 19.8692C23.6353 19.5627 23.2637 19.3205 22.2005 18.3886C22.0163 18.2291 21.0759 17.3555 20.8303 17.3555C20.7566 17.3579 20.6851 17.3804 20.6245 17.4202C20.5639 17.4601 20.5166 17.5156 20.4884 17.5802C20.4601 17.6448 20.452 17.7158 20.4651 17.7847C20.4781 17.8535 20.5118 17.9174 20.562 17.9686C22.8856 19.9029 22.9728 20.1942 23.3121 19.8692Z" fill="#50735F"/>
</svg>
