<svg width="21" height="32" viewBox="0 0 21 32" fill="none" xmlns="http://www.w3.org/2000/svg">
<path d="M11.88 14.12C11.8533 14.1733 11.7867 14.1867 11.68 14.16C11.6 14.1067 11.5333 14.0933 11.48 14.12C11.4 14.12 11.3467 14.1867 11.32 14.32C11.2933 14.4267 11.2667 14.4933 11.24 14.52C11.16 14.4667 11.0533 14.48 10.92 14.56C10.7867 14.64 10.68 14.6533 10.6 14.6C10.5467 14.6533 10.56 14.6933 10.64 14.72C10.6933 14.7467 10.72 14.7867 10.72 14.84C10.5867 14.8133 10.4533 14.8133 10.32 14.84C10.2133 14.8667 10.1333 14.9067 10.08 14.96C10.0267 14.9867 9.93333 15.0533 9.8 15.16C9.69333 15.24 9.61333 15.2933 9.56 15.32C9.56 15.3467 9.61333 15.3467 9.72 15.32C9.74667 15.2933 9.76 15.32 9.76 15.4C9.6 15.4267 9.4 15.52 9.16 15.68C8.92 15.8133 8.73333 15.8933 8.6 15.92C10.68 16.4533 12.2 17.1867 13.16 18.12C13.16 18.1467 13.16 18.1867 13.16 18.24L13.12 18.28C13.28 18.44 13.4133 18.6267 13.52 18.84C13.6267 19.0533 13.7333 19.3067 13.84 19.6C13.9467 19.8667 14.04 20.08 14.12 20.24C14.04 20.96 14.1067 21.6667 14.32 22.36C14.08 23.6133 13.5467 24.64 12.72 25.44C12.72 25.4667 12.7067 25.5067 12.68 25.56C12.6533 25.6133 12.6667 25.64 12.72 25.64C12.6933 25.6667 12.64 25.72 12.56 25.8C12.48 25.8533 12.4133 25.8933 12.36 25.92C12.3067 26.08 12.1733 26.24 11.96 26.4C11.7733 26.56 11.6667 26.7067 11.64 26.84C11.08 27.08 10.7867 27.32 10.76 27.56C10.6 27.56 10.4133 27.64 10.2 27.8C9.98667 27.9867 9.78667 28.0933 9.6 28.12C9.57333 28.12 9.56 28.1733 9.56 28.28C9.53333 28.28 9.50667 28.2533 9.48 28.2C9.45333 28.1733 9.42667 28.16 9.4 28.16C9.34667 28.1867 9.32 28.2267 9.32 28.28C9.34667 28.3333 9.34667 28.3733 9.32 28.4C9.16 28.3467 9.05333 28.3333 9 28.36C8.94667 28.3867 8.86667 28.4267 8.76 28.48C8.68 28.56 8.61333 28.6133 8.56 28.64C8.56 28.6133 8.57333 28.5867 8.6 28.56C8.65333 28.5333 8.68 28.4933 8.68 28.44C8.62667 28.4133 8.52 28.5333 8.36 28.8C8.41333 28.8267 8.49333 28.8 8.6 28.72C8.73333 28.64 8.82667 28.6 8.88 28.6C8.82667 28.7333 8.62667 28.8267 8.28 28.88C8.28 28.72 8.24 28.6267 8.16 28.6C8.13333 28.68 8.17333 28.8267 8.28 29.04C7.29333 29.44 6.73333 29.7067 6.6 29.84C6.30667 29.68 6.10667 29.6667 6 29.8C6 29.8267 6.02667 29.84 6.08 29.84C6.13333 29.84 6.17333 29.8267 6.2 29.8C6.25333 29.8 6.30667 29.8133 6.36 29.84C6.25333 29.92 6.13333 29.9467 6 29.92C5.86667 29.92 5.74667 29.9467 5.64 30C5.64 30.0533 5.69333 30.08 5.8 30.08C3.82667 30.88 2.28 31.08 1.16 30.68V30.48C1.02667 30.4533 0.906667 30.4 0.8 30.32C0.693333 30.24 0.613333 30.16 0.56 30.08C0.506667 30.0267 0.44 29.9333 0.36 29.8C0.28 29.6667 0.213333 29.5733 0.16 29.52C0.106667 29.1467 0.0799999 28.8933 0.0799999 28.76C0.0533333 28.6267 0.0666666 28.36 0.12 27.96C0.173333 27.5867 0.2 27.3467 0.2 27.24C0.28 26.9733 0.466667 26.6267 0.76 26.2C1.05333 25.8 1.24 25.4933 1.32 25.28C1.34667 25.3067 1.36 25.3467 1.36 25.4C2.29333 24.76 3.21333 24.3333 4.12 24.12C4.06667 24.0933 3.66667 24.2 2.92 24.44C2.94667 24.3067 3.17333 24.1733 3.6 24.04C3.92 23.9333 4.30667 23.88 4.76 23.88C4.73333 23.96 4.62667 24.0533 4.44 24.16C4.25333 24.2667 4.2 24.4133 4.28 24.6C4.17333 24.7333 3.88 24.9467 3.4 25.24C3.4 25.2667 3.41333 25.3067 3.44 25.36C3.46667 25.3867 3.48 25.4133 3.48 25.44C3.10667 25.5467 2.92 25.72 2.92 25.96C2.70667 25.96 2.52 26.0933 2.36 26.36C2.38667 26.3867 2.4 26.3867 2.4 26.36C2.42667 26.3333 2.46667 26.3067 2.52 26.28C2.44 26.44 2.18667 26.72 1.76 27.12C1.33333 27.52 1.06667 27.88 0.96 28.2C1.2 28.68 1.85333 28.8933 2.92 28.84C2.94667 28.8933 2.92 28.9333 2.84 28.96C2.78667 29.0133 2.76 29.0533 2.76 29.08C2.68 29.1067 2.30667 29.1867 1.64 29.32C1.66667 29.4 1.65333 29.4667 1.6 29.52C1.94667 29.5733 2.45333 29.5333 3.12 29.4C3.81333 29.2667 4.25333 29.1867 4.44 29.16C4.62667 29.0533 4.82667 28.9467 5.04 28.84C5.28 28.76 5.54667 28.6667 5.84 28.56C6.13333 28.4533 6.36 28.36 6.52 28.28C6.52 28.2533 6.50667 28.2267 6.48 28.2C6.42667 28.12 6.44 28.08 6.52 28.08C6.54667 28.16 6.6 28.2 6.68 28.2C6.73333 28.2 6.76 28.16 6.76 28.08C6.78667 28.0267 6.81333 27.9867 6.84 27.96C6.76 27.9333 6.69333 27.9467 6.64 28C6.61333 28.0533 6.57333 28.08 6.52 28.08C6.49333 28.0267 6.46667 28 6.44 28C6.41333 28.0267 6.37333 28.04 6.32 28.04C6.26667 28.0667 6.22667 28.08 6.2 28.08C7.18667 27.6 7.96 27.2 8.52 26.88C9.10667 26.5867 9.77333 26.1867 10.52 25.68C11.2933 25.1467 11.9333 24.56 12.44 23.92C12.9467 23.28 13.3467 22.5733 13.64 21.8C13.6133 21.4533 13.56 21.08 13.48 20.68C13.4267 20.4667 13.28 20.2133 13.04 19.92C12.8 19.6267 12.6533 19.4133 12.6 19.28C11.5067 18.5333 10.2533 18.0133 8.84 17.72C7.37333 17.5333 6.46667 17.24 6.12 16.84C6.12 16.7867 6.10667 16.6933 6.08 16.56C6.05333 16.4267 6.08 16.3467 6.16 16.32C6.05333 16.24 6.01333 16.1733 6.04 16.12C6.06667 16.04 6.12 15.92 6.2 15.76C6.30667 15.5733 6.36 15.4 6.36 15.24C6.46667 15.16 6.64 15.0667 6.88 14.96C7.14667 14.8267 7.37333 14.7067 7.56 14.6C7.77333 14.4933 7.94667 14.3733 8.08 14.24C8.10667 14.24 8.13333 14.2533 8.16 14.28C8.18667 14.3067 8.22667 14.3067 8.28 14.28C8.38667 14.2 8.48 14.2 8.56 14.28C8.29333 14.4667 8.05333 14.5733 7.84 14.6C7.78667 14.6267 7.70667 14.68 7.6 14.76C7.52 14.84 7.45333 14.8933 7.4 14.92C7.34667 14.9467 7.28 14.9333 7.2 14.88V15.08C7.09333 15.08 7.01333 15.0933 6.96 15.12C6.90667 15.12 6.85333 15.16 6.8 15.24C6.74667 15.2933 6.70667 15.3333 6.68 15.36C6.94667 15.3333 7.4 15.1333 8.04 14.76C8.68 14.36 9.16 14.1467 9.48 14.12C9.42667 13.88 9.38667 13.7467 9.36 13.72C9.33333 13.72 9.30667 13.76 9.28 13.84C9.25333 13.92 9.18667 13.9333 9.08 13.88C9.21333 13.72 9.38667 13.5867 9.6 13.48C9.84 13.3733 10.04 13.3467 10.2 13.4C10.1733 13.4533 10.0933 13.48 9.96 13.48C9.85333 13.48 9.78667 13.4933 9.76 13.52C9.86667 13.5733 9.86667 13.6267 9.76 13.68C9.68 13.7067 9.62667 13.6667 9.6 13.56C9.54667 13.56 9.53333 13.5867 9.56 13.64C9.58667 13.6933 9.6 13.7333 9.6 13.76C9.68 13.76 9.78667 13.7333 9.92 13.68C10.0533 13.6 10.1733 13.56 10.28 13.56C10.3333 13.56 10.3467 13.5467 10.32 13.52C10.2933 13.4667 10.28 13.4267 10.28 13.4C10.4933 13.3733 10.6667 13.2933 10.8 13.16C10.7733 13.1067 10.68 13.12 10.52 13.2C10.3867 13.28 10.2933 13.2933 10.24 13.24C10.2933 13.1333 10.4 13.0667 10.56 13.04C10.72 13.0133 10.84 13.0533 10.92 13.16C10.9467 13.1067 11 13.0667 11.08 13.04C11.16 12.9867 11.2133 12.9467 11.24 12.92C11.2667 12.84 11.24 12.8 11.16 12.8C11.1067 12.8 11.08 12.7733 11.08 12.72C11.3467 12.4267 11.8133 12.2133 12.48 12.08C12.48 12.0267 12.4533 12.0267 12.4 12.08C12.3467 12.1067 12.2933 12.1067 12.24 12.08C12.8267 11.5467 13.32 11.2 13.72 11.04C13.8 10.96 14.08 10.7333 14.56 10.36C15.0667 9.96 15.4 9.70667 15.56 9.6C15.72 9.46667 15.9867 9.22667 16.36 8.88C16.76 8.53333 17.0533 8.25333 17.24 8.04C17.4533 7.8 17.6933 7.52 17.96 7.2C18.2267 6.85333 18.4533 6.52 18.64 6.2C18.6667 6.2 18.7067 6.16 18.76 6.08C18.84 6 18.9067 5.96 18.96 5.96C18.96 5.93333 19.0133 5.81333 19.12 5.6C19.2267 5.38667 19.2933 5.24 19.32 5.16C19.3467 5.08 19.3867 4.94667 19.44 4.76C19.52 4.54667 19.56 4.38667 19.56 4.28C19.5867 4.14667 19.5867 4 19.56 3.84C19.5333 3.65333 19.4933 3.48 19.44 3.32C19.1467 2.78667 18.4133 2.36 17.24 2.04C17.0533 2.04 16.7067 2.05333 16.2 2.08C15.72 2.08 15.4133 2.06666 15.28 2.04C15.0667 2.12 14.3867 2.26667 13.24 2.48C11 3.36 9.10667 4.24 7.56 5.12C6.04 6 4.78667 7.10667 3.8 8.44C3.77333 8.44 3.73333 8.45333 3.68 8.48C3.65333 8.48 3.62667 8.48 3.6 8.48C3.6 8.56 3.56 8.65333 3.48 8.76C3.4 8.84 3.37333 8.92 3.4 9L3.36 9.04C3.33333 9.06667 3.30667 9.08 3.28 9.08C3.28 9.8 3.18667 10.2533 3 10.44C2.94667 10.4667 2.90667 10.4667 2.88 10.44C2.85333 10.4133 2.81333 10.4 2.76 10.4C2.76 10.32 2.74667 10.2667 2.72 10.24C2.69333 10.1867 2.64 10.1467 2.56 10.12C2.50667 10.0933 2.46667 10.08 2.44 10.08C2.30667 9.78667 2.30667 8.90667 2.44 7.44C2.46667 7.38667 2.58667 7.25333 2.8 7.04C2.77333 6.98667 2.77333 6.93333 2.8 6.88C2.82667 6.82667 2.84 6.78667 2.84 6.76C3 6.62667 3.30667 6.36 3.76 5.96C4.21333 5.56 4.54667 5.28 4.76 5.12C5 4.93333 5.30667 4.69333 5.68 4.4C6.08 4.08 6.45333 3.81333 6.8 3.6C7.17333 3.38667 7.54667 3.18667 7.92 3C9.14667 2.22667 11.0533 1.42667 13.64 0.599998C13.7467 0.599998 13.8 0.639998 13.8 0.719999C13.9067 0.586666 14.1467 0.519999 14.52 0.519999C14.8933 0.519999 15.1333 0.466666 15.24 0.359999C15.3733 0.359999 15.5867 0.359999 15.88 0.359999C16.1733 0.333332 16.44 0.333332 16.68 0.359999C16.9467 0.386665 17.1867 0.439998 17.4 0.519999C17.4 0.546665 17.3867 0.573332 17.36 0.599998C17.3333 0.626666 17.32 0.653333 17.32 0.679999C17.4 0.653333 17.4933 0.64 17.6 0.64C17.7333 0.64 17.84 0.626666 17.92 0.599998C18.0267 0.706665 18.24 0.853332 18.56 1.04C18.88 1.2 19.0933 1.34667 19.2 1.48C19.2267 1.66667 19.3467 1.8 19.56 1.88C19.6133 2.09333 19.68 2.36 19.76 2.68C19.84 2.97333 19.92 3.24 20 3.48C20.08 3.72 20.1733 3.94667 20.28 4.16C20.36 5.44 20.04 6.49333 19.32 7.32C19.2933 7.48 19.1733 7.69333 18.96 7.96C18.7467 8.22667 18.6267 8.38667 18.6 8.44C18.4933 8.44 18.4267 8.42667 18.4 8.4C18.4533 8.53333 18.36 8.72 18.12 8.96C17.88 9.2 17.76 9.37333 17.76 9.48C17.5467 9.48 17.4267 9.50667 17.4 9.56C17.3733 9.58667 17.3867 9.61333 17.44 9.64C17.4933 9.64 17.5067 9.66667 17.48 9.72C16.76 10.28 16.3333 10.7333 16.2 11.08C16.0667 11.1067 15.88 11.2267 15.64 11.44C15.4 11.6267 15.2 11.7333 15.04 11.76C15.04 11.7867 15.0667 11.8 15.12 11.8H15.16V11.88C15.1333 11.9067 15.0933 11.92 15.04 11.92C14.9867 11.92 14.96 11.9333 14.96 11.96C14.96 11.96 14.9733 11.9867 15 12.04C14.8933 12.0133 14.7333 12.04 14.52 12.12C14.52 12.1733 14.6 12.2 14.76 12.2C14.7067 12.36 14.5333 12.48 14.24 12.56C13.9467 12.64 13.76 12.72 13.68 12.8C13.8667 12.8 13.88 12.8533 13.72 12.96C13.56 13.0667 13.44 13.0667 13.36 12.96C13.36 12.9867 13.3333 13.0133 13.28 13.04C13.2533 13.0667 13.2133 13.0933 13.16 13.12C13.1333 13.1467 13.1067 13.1733 13.08 13.2C13.08 13.2533 13.1067 13.2667 13.16 13.24C13.2133 13.1867 13.2667 13.1733 13.32 13.2C13.16 13.2533 12.92 13.3867 12.6 13.6C12.28 13.7867 11.9867 13.9067 11.72 13.96C11.72 14.0667 11.7733 14.12 11.88 14.12ZM14.2 1.52H14.44V1.4C14.6533 1.42667 14.8133 1.44 14.92 1.44C15.0267 1.41333 15.1733 1.38667 15.36 1.36C15.5733 1.30667 15.72 1.28 15.8 1.28H15.72C15.6667 1.25333 15.64 1.21333 15.64 1.16C17.16 1.21333 17.9867 1.24 18.12 1.24C18.04 1.24 17.9333 1.17333 17.8 1.04C17.7733 1.04 17.7467 1.06667 17.72 1.12C17.6933 1.17333 17.64 1.18667 17.56 1.16C17.5867 1.08 17.5867 1.02667 17.56 1C17.5333 0.973332 17.48 0.946665 17.4 0.919999C17.3467 0.893332 17.3067 0.866666 17.28 0.84C17.2533 0.919999 17.2667 0.973332 17.32 1C17.3733 1.02667 17.4 1.05333 17.4 1.08C17.32 1.10667 17.2667 1.10667 17.24 1.08C17.2133 1.02667 17.2 0.973333 17.2 0.919999C17.2 0.866666 17.1867 0.826666 17.16 0.799998C17.1067 0.826666 17.08 0.879999 17.08 0.959998C17.08 1.04 17.0667 1.08 17.04 1.08C16.96 1.08 16.92 1.04 16.92 0.959998C16.9733 0.906665 17 0.853332 17 0.799998C16.8667 0.799998 16.6533 0.813332 16.36 0.84C16.0667 0.84 15.88 0.813333 15.8 0.759998L15.6 0.959998C15.5733 0.959998 15.5467 0.933332 15.52 0.879999C15.52 0.826665 15.5067 0.799998 15.48 0.799998L15.36 0.919999C15.36 0.946665 15.3867 0.973332 15.44 1C15.4933 1 15.5067 1.02667 15.48 1.08C15.4267 1.13333 15.3867 1.16 15.36 1.16C15.3333 1.13333 15.3067 1.08 15.28 1C15.2533 0.893333 15.2 0.84 15.12 0.84C15.0667 0.946667 15.0267 1.01333 15 1.04C15.08 1.04 15.12 1.08 15.12 1.16C15.0667 1.13333 15.0133 1.13333 14.96 1.16C14.9067 1.18667 14.8533 1.2 14.8 1.2C14.8267 0.933332 14.7067 0.866665 14.44 1V1.16C14.3867 1.13333 14.3733 1.08 14.4 1C14.3467 0.973332 14.3067 0.999998 14.28 1.08C14.2533 1.13333 14.2267 1.16 14.2 1.16C14.1733 1.10667 14.1467 1.08 14.12 1.08C14.0933 1.08 14.0533 1.09333 14 1.12C13.9733 1.12 13.92 1.10667 13.84 1.08C13.84 1.18667 13.7867 1.22667 13.68 1.2C13.6 1.17333 13.5333 1.2 13.48 1.28L13.68 1.48C13.6267 1.58667 13.56 1.64 13.48 1.64C13.5067 1.45333 13.4267 1.33333 13.24 1.28C13.24 1.33333 13.1867 1.37333 13.08 1.4C13 1.4 12.8933 1.41333 12.76 1.44C12.6533 1.44 12.5733 1.48 12.52 1.56C12.52 1.58667 12.5333 1.62667 12.56 1.68C12.5867 1.73333 12.5733 1.77333 12.52 1.8C12.4667 1.8 12.4533 1.76 12.48 1.68C12.48 1.62667 12.48 1.57333 12.48 1.52C12.4267 1.52 12.3467 1.54667 12.24 1.6C12.16 1.62667 12.08 1.65333 12 1.68C12 1.78667 11.9867 1.85333 11.96 1.88C11.96 1.77333 11.9333 1.72 11.88 1.72C11.8267 1.74667 11.7867 1.78667 11.76 1.84C11.7333 1.89333 11.7067 1.93333 11.68 1.96C11.68 1.90667 11.64 1.89333 11.56 1.92C11.4533 1.94667 11.3733 1.94667 11.32 1.92C11.24 2.08 11.04 2.16 10.72 2.16C10.72 2.21333 10.6667 2.24 10.56 2.24C10.56 2.32 10.5867 2.4 10.64 2.48C10.72 2.53333 10.7333 2.6 10.68 2.68C10.7867 2.70667 10.8933 2.64 11 2.48C10.84 2.42667 10.7467 2.38667 10.72 2.36L10.76 2.28C10.76 2.25333 10.7733 2.24 10.8 2.24C10.8267 2.24 10.84 2.26667 10.84 2.32C10.8667 2.37333 10.9067 2.4 10.96 2.4C11.0933 2.18666 11.2 2.14666 11.28 2.28L11.16 2.32C11.1067 2.37333 11.08 2.42667 11.08 2.48C11.5067 2.32 11.7733 2.21333 11.88 2.16C11.88 2.21333 11.92 2.24 12 2.24C12.24 2.05333 12.4133 1.98667 12.52 2.04C12.52 1.93333 12.5467 1.88 12.6 1.88C13.08 1.93333 13.6133 1.81333 14.2 1.52ZM12.92 1.16H13V1.04H12.92V1.16ZM12.36 1.4C12.44 1.4 12.52 1.38667 12.6 1.36C12.68 1.30667 12.6933 1.25333 12.64 1.2C12.6133 1.2 12.56 1.22667 12.48 1.28C12.4 1.30667 12.36 1.34667 12.36 1.4ZM11.92 1.48C12.1067 1.42667 12.2267 1.36 12.28 1.28C12.2533 1.30667 12.2 1.32 12.12 1.32C12.0667 1.32 12.0133 1.33333 11.96 1.36C11.9333 1.38667 11.92 1.42667 11.92 1.48ZM16 1.28C15.92 1.28 15.88 1.29333 15.88 1.32C15.96 1.32 16 1.30667 16 1.28ZM16.28 1.28C16.2267 1.28 16.2 1.29333 16.2 1.32C16.2533 1.32 16.28 1.30667 16.28 1.28ZM18.6 1.44C18.5733 1.44 18.5467 1.44 18.52 1.44L18.48 1.4C18.4533 1.42667 18.44 1.45333 18.44 1.48C18.52 1.56 18.5733 1.54667 18.6 1.44ZM11.64 1.56L11.84 1.48L11.8 1.44C11.8 1.46667 11.7733 1.48 11.72 1.48C11.6933 1.48 11.6667 1.49333 11.64 1.52C11.64 1.52 11.64 1.53333 11.64 1.56ZM11.2 1.72C11.2533 1.72 11.3067 1.70666 11.36 1.68C11.4133 1.62667 11.4667 1.61333 11.52 1.64C11.4933 1.42667 11.4133 1.41333 11.28 1.6C11.2267 1.65333 11.2 1.69333 11.2 1.72ZM10.68 2.04C10.84 2.04 10.8933 1.96 10.84 1.8L10.8 1.76C10.7733 1.76 10.7467 1.76 10.72 1.76C10.72 1.81333 10.6933 1.86667 10.64 1.92C10.5867 1.97333 10.6 2.01333 10.68 2.04ZM10.04 2.24C10.04 2.16 10.0133 2.12 9.96 2.12C9.96 2.22667 9.98667 2.26666 10.04 2.24ZM10.2 2.2H10.28V2.12H10.2V2.2ZM9.96 2.68C10.0933 2.73333 10.16 2.73333 10.16 2.68C10.1867 2.62667 10.2133 2.57333 10.24 2.52C10.2933 2.46667 10.3733 2.46667 10.48 2.52V2.36C10.16 2.41333 9.98667 2.52 9.96 2.68ZM9.48 2.76C9.45333 2.81333 9.45333 2.85333 9.48 2.88C9.50667 2.90667 9.52 2.93333 9.52 2.96C9.6 2.96 9.72 2.84 9.88 2.6C9.82667 2.62666 9.76 2.65333 9.68 2.68C9.6 2.70667 9.53333 2.73333 9.48 2.76ZM10.04 2.92C10.0933 2.89333 10.16 2.88 10.24 2.88C10.3467 2.88 10.4267 2.86667 10.48 2.84C10.5333 2.81333 10.56 2.76 10.56 2.68C10.3467 2.68 10.1733 2.76 10.04 2.92ZM9.24 3C9.13333 2.94667 9.01333 2.96 8.88 3.04C8.77333 3.12 8.77333 3.21333 8.88 3.32C8.90667 3.21333 9.02667 3.16 9.24 3.16V3C9.26667 3 9.29333 3.02667 9.32 3.08C9.37333 3.10667 9.42667 3.10667 9.48 3.08C9.48 3.02667 9.46667 2.98666 9.44 2.96C9.41333 2.93333 9.4 2.90667 9.4 2.88C9.37333 2.88 9.33333 2.89333 9.28 2.92C9.2 2.92 9.18667 2.94667 9.24 3ZM9.88 3H10V2.92H9.88V3ZM8.52 3.32L8.44 3.4L8.52 3.48C8.54667 3.45333 8.54667 3.42667 8.52 3.4C8.52 3.37333 8.52 3.34667 8.52 3.32C8.54667 3.29333 8.57333 3.29333 8.6 3.32C8.62667 3.34667 8.65333 3.36 8.68 3.36C8.68 3.33333 8.69333 3.30667 8.72 3.28C8.74667 3.22667 8.76 3.18666 8.76 3.16C8.6 3.13333 8.52 3.18667 8.52 3.32ZM8.16 3.48C8.26667 3.53333 8.33333 3.56 8.36 3.56V3.36C8.30667 3.36 8.24 3.4 8.16 3.48ZM7.56 3.88C7.64 3.8 7.73333 3.74666 7.84 3.72C7.97333 3.69333 8.06667 3.65333 8.12 3.6C8.01333 3.54667 7.89333 3.56 7.76 3.64C7.65333 3.69333 7.58667 3.77333 7.56 3.88ZM7.08 3.8L7.16 3.76C7.21333 3.76 7.24 3.74666 7.24 3.72L7.2 3.68C7.17333 3.65333 7.14667 3.64 7.12 3.64C7.12 3.66667 7.10667 3.70667 7.08 3.76V3.8ZM7.44 4.04C7.44 3.98667 7.45333 3.96 7.48 3.96C7.48 3.90667 7.45333 3.88 7.4 3.88C7.4 3.96 7.41333 4.01333 7.44 4.04ZM7.2 4.08H7.32V3.96H7.2V4.08ZM6.52 4.12H6.64V4.04H6.52V4.12ZM20.12 5.12C20.12 5.01333 20.0933 4.93333 20.04 4.88C20.0933 5.04 20.12 5.12 20.12 5.12ZM19.44 6.76C19.36 6.78667 19.32 6.84 19.32 6.92C19.4 6.92 19.44 6.86667 19.44 6.76H19.48C19.56 6.68 19.56 6.62667 19.48 6.6V6.64C19.4533 6.69333 19.44 6.73333 19.44 6.76ZM19.2 7.2H19.32V7.16C19.3467 7.13333 19.36 7.10667 19.36 7.08C19.3333 7.08 19.3067 7.08 19.28 7.08C19.2533 7.05333 19.2267 7.04 19.2 7.04V7.2ZM18.52 7.88C18.6533 7.88 18.72 7.84 18.72 7.76C18.56 7.76 18.4933 7.8 18.52 7.88ZM18.04 8.64H18.2C18.2 8.56 18.1467 8.52 18.04 8.52V8.64ZM17.24 8.72C17.2933 8.72 17.3467 8.69333 17.4 8.64C17.2933 8.64 17.24 8.66667 17.24 8.72ZM17.72 9H18C18.0267 8.92 17.9867 8.88 17.88 8.88C17.8 8.90667 17.7467 8.94667 17.72 9ZM16.6 9.16C16.6 9.24 16.5733 9.30667 16.52 9.36C16.4933 9.38667 16.4533 9.4 16.4 9.4C16.3467 9.37333 16.2933 9.37333 16.24 9.4C16.1867 9.4 16.1467 9.41333 16.12 9.44C16.2 9.46667 16.3333 9.50667 16.52 9.56C16.52 9.50667 16.56 9.45333 16.64 9.4C16.72 9.32 16.7733 9.26667 16.8 9.24C16.8267 9.21333 16.8133 9.17333 16.76 9.12C16.76 9.14667 16.7067 9.16 16.6 9.16ZM17.72 9.16V9.24C17.7467 9.26667 17.7733 9.26667 17.8 9.24C17.8 9.18667 17.7867 9.14667 17.76 9.12C17.76 9.14667 17.7467 9.16 17.72 9.16ZM16.96 9.6V9.44V9.6ZM17.08 9.64C17.1067 9.64 17.1333 9.65333 17.16 9.68H17.2C17.2 9.57333 17.16 9.53333 17.08 9.56V9.64ZM15.76 10.2C16.0533 9.98667 16.2533 9.8 16.36 9.64C16.2267 9.66667 16.0933 9.74667 15.96 9.88C15.8267 10.0133 15.76 10.12 15.76 10.2ZM15.24 10.56C15.4267 10.5333 15.56 10.4133 15.64 10.2C15.6133 10.2267 15.5467 10.28 15.44 10.36C15.3333 10.44 15.2667 10.5067 15.24 10.56ZM15.96 10.52C15.9067 10.4667 15.88 10.48 15.88 10.56H15.92L15.96 10.52C16.0133 10.52 16.0267 10.4933 16 10.44C15.9733 10.36 15.9733 10.3067 16 10.28C15.9467 10.2533 15.8933 10.3067 15.84 10.44C15.8667 10.44 15.9067 10.4667 15.96 10.52ZM16.24 10.32C16.2133 10.32 16.1733 10.32 16.12 10.32H16.24ZM15.56 10.64V10.52V10.64ZM16.12 10.88C16.0667 10.88 16.04 10.8933 16.04 10.92C16.0933 10.92 16.12 10.9067 16.12 10.88ZM15.32 11.12C15.3467 11.1733 15.3867 11.1867 15.44 11.16C15.4667 11.1067 15.4533 11.0533 15.4 11C15.4 11.0267 15.3867 11.04 15.36 11.04L15.32 11.12ZM14.44 11.24C14.4933 11.24 14.5467 11.2 14.6 11.12C14.4933 11.12 14.44 11.16 14.44 11.24ZM15.32 11.36C15.32 11.2533 15.2667 11.2133 15.16 11.24C15.16 11.32 15.2133 11.36 15.32 11.36ZM15.56 11.36C15.6133 11.36 15.6667 11.3333 15.72 11.28C15.6133 11.28 15.56 11.3067 15.56 11.36ZM13.88 11.72C13.9067 11.72 13.9467 11.7067 14 11.68C14.08 11.6533 14.1333 11.6267 14.16 11.6C14.1867 11.5467 14.2 11.48 14.2 11.4C14.12 11.4267 14.0133 11.5333 13.88 11.72ZM15.04 11.52C15.04 11.5467 15.0667 11.56 15.12 11.56C15.2267 11.48 15.2267 11.4267 15.12 11.4C15.12 11.4267 15.1067 11.4533 15.08 11.48C15.0533 11.48 15.04 11.4933 15.04 11.52ZM13.68 11.6C13.5733 11.6 13.5333 11.64 13.56 11.72C13.5867 11.7733 13.6 11.8267 13.6 11.88C13.44 11.9333 13.36 12 13.36 12.08C13.4933 12.0267 13.5733 11.96 13.6 11.88H13.8C13.8267 11.8267 13.8 11.8 13.72 11.8C13.6667 11.7733 13.64 11.7467 13.64 11.72C13.64 11.6933 13.64 11.68 13.64 11.68L13.68 11.6ZM14.8 11.76C14.8 11.7067 14.8133 11.6933 14.84 11.72C14.84 11.64 14.8133 11.6 14.76 11.6C14.76 11.7067 14.7733 11.76 14.8 11.76ZM12.88 12.12C13.0133 12.0667 13.08 12.04 13.08 12.04C13 12.04 12.9333 12.0667 12.88 12.12ZM13.16 12.2H13.32C13.32 12.12 13.2667 12.08 13.16 12.08V12.2ZM13.6 12.24C13.6 12.2133 13.6133 12.2 13.64 12.2C13.6933 12.1733 13.7067 12.1333 13.68 12.08C13.6267 12.0533 13.5867 12.0667 13.56 12.12C13.5333 12.1733 13.5467 12.2133 13.6 12.24ZM12.52 12.44H12.64V12.32H12.52V12.44ZM12.64 12.56C12.72 12.5867 12.8133 12.52 12.92 12.36C12.8133 12.36 12.72 12.4267 12.64 12.56ZM13.12 12.48C13.2533 12.6133 13.32 12.5733 13.32 12.36C13.2133 12.3867 13.1467 12.4267 13.12 12.48ZM11.68 12.6C11.7333 12.6 11.8 12.56 11.88 12.48C11.7467 12.5067 11.68 12.5467 11.68 12.6ZM12.88 12.72C12.9333 12.7467 12.96 12.72 12.96 12.64L13 12.56C12.92 12.56 12.88 12.6133 12.88 12.72ZM12.28 12.6L12.2 12.68L12.28 12.6ZM11.28 12.8H11.48V12.72H11.44L11.4 12.68L11.28 12.8ZM12.2 12.84C12.28 12.8667 12.3467 12.84 12.4 12.76C12.4533 12.7333 12.4533 12.7067 12.4 12.68C12.4 12.7067 12.3733 12.72 12.32 12.72C12.2133 12.7467 12.1733 12.7867 12.2 12.84ZM11.56 12.96V13.04H11.68C11.7067 12.96 11.6933 12.92 11.64 12.92L11.6 12.96H11.56ZM12 13.04C12 13.0133 12.0133 13 12.04 13C12.0933 12.9733 12.12 12.9467 12.12 12.92C12.0667 12.92 12.0267 12.96 12 13.04ZM11.32 13.24C11.32 13.2133 11.3467 13.2 11.4 13.2C11.3467 13.12 11.3067 13.08 11.28 13.08C11.28 13.1867 11.2933 13.24 11.32 13.24ZM12.2 13.28C12.2 13.1733 12.1867 13.1067 12.16 13.08C12.1067 13.1067 12.08 13.1467 12.08 13.2C12.1067 13.2533 12.1467 13.28 12.2 13.28ZM11.76 13.2C11.7333 13.2 11.7067 13.2 11.68 13.2H11.76ZM12.72 13.16C12.6667 13.16 12.64 13.1733 12.64 13.2C12.6933 13.2 12.72 13.1867 12.72 13.16ZM11.24 13.44C11.3733 13.4133 11.5067 13.3333 11.64 13.2C11.4267 13.2533 11.2933 13.3333 11.24 13.44ZM11 13.32C11.16 13.32 11.2267 13.2933 11.2 13.24C11.0667 13.24 11 13.2667 11 13.32ZM12.04 13.52C12.0933 13.5467 12.1467 13.5467 12.2 13.52C12.2533 13.4933 12.2667 13.4533 12.24 13.4C12.1067 13.4 12.04 13.44 12.04 13.52ZM10.72 13.52C10.88 13.52 10.9467 13.4933 10.92 13.44C10.7867 13.3867 10.72 13.4133 10.72 13.52ZM11 13.64C11.0533 13.64 11.1067 13.5733 11.16 13.44C11.08 13.4133 11.0267 13.4267 11 13.48C11 13.5067 11 13.56 11 13.64ZM10.36 13.68C10.4933 13.68 10.56 13.64 10.56 13.56C10.48 13.56 10.4133 13.6 10.36 13.68ZM11.96 13.68C11.96 13.6267 11.9467 13.6133 11.92 13.64C11.8933 13.72 11.92 13.7467 12 13.72C12.08 13.6933 12.1333 13.6667 12.16 13.64C12.1333 13.6133 12.0667 13.6267 11.96 13.68ZM10.76 13.72C10.92 13.72 10.9867 13.6933 10.96 13.64H10.76V13.72ZM11.16 13.76C11.2667 13.7067 11.32 13.68 11.32 13.68H11.16V13.76ZM10.36 13.76C10.3067 13.76 10.28 13.7733 10.28 13.8C10.3333 13.8 10.36 13.7867 10.36 13.76ZM9.76 14.16C9.76 14.1333 9.8 14.1067 9.88 14.08C9.96 14.0533 9.98667 14.0133 9.96 13.96C9.85333 13.96 9.77333 13.9867 9.72 14.04C9.69333 14.0933 9.70667 14.1333 9.76 14.16ZM10.12 14.12C10.2 14.12 10.2667 14.0667 10.32 13.96C10.1867 13.96 10.12 14.0133 10.12 14.12ZM11.28 13.96C11.2267 13.96 11.2 13.9733 11.2 14C11.2533 14 11.28 13.9867 11.28 13.96ZM9.16 14.36C9.29333 14.3867 9.38667 14.3733 9.44 14.32C9.46667 14.2667 9.44 14.2267 9.36 14.2C9.38667 14.2533 9.36 14.28 9.28 14.28C9.2 14.3067 9.16 14.3333 9.16 14.36ZM9.72 14.36C9.64 14.36 9.54667 14.3867 9.44 14.44C9.36 14.4933 9.33333 14.5467 9.36 14.6C9.38667 14.5733 9.44 14.5467 9.52 14.52C9.62667 14.4667 9.69333 14.4133 9.72 14.36C9.85333 14.28 9.93333 14.2267 9.96 14.2C9.8 14.2 9.72 14.2533 9.72 14.36ZM10.84 14.36H10.96V14.24H10.84V14.36ZM10.56 14.36C10.5067 14.36 10.48 14.3733 10.48 14.4C10.5333 14.4 10.56 14.3867 10.56 14.36ZM9 14.72C9.05333 14.7467 9.10667 14.7467 9.16 14.72C9.24 14.6667 9.24 14.6267 9.16 14.6C9.16 14.6267 9.13333 14.64 9.08 14.64C9.05333 14.64 9.02667 14.6533 9 14.68C9 14.68 9 14.6933 9 14.72ZM8.56 14.76C8.66667 14.76 8.70667 14.7333 8.68 14.68H8.6C8.6 14.7067 8.58667 14.72 8.56 14.72C8.56 14.72 8.56 14.7333 8.56 14.76ZM8.76 14.88C8.86667 14.88 8.90667 14.84 8.88 14.76H8.8C8.8 14.7867 8.78667 14.8133 8.76 14.84V14.88ZM8.84 15.08H9C9 15 8.94667 14.96 8.84 14.96V15.08ZM8.8 15.12C8.77333 15.12 8.73333 15.12 8.68 15.12H8.8ZM8.76 15.44C8.62667 15.44 8.56 15.4533 8.56 15.48C8.58667 15.5333 8.61333 15.56 8.64 15.56C8.69333 15.5333 8.73333 15.4933 8.76 15.44ZM9.64 16.4C9.64 16.4533 9.61333 16.48 9.56 16.48C9.50667 16.5333 9.48 16.5733 9.48 16.6C9.72 16.4667 9.84 16.3867 9.84 16.36C9.84 16.3867 9.77333 16.4 9.64 16.4ZM9.24 16.56H9.32C9.34667 16.5067 9.32 16.48 9.24 16.48C9.18667 16.4533 9.16 16.4667 9.16 16.52C9.21333 16.52 9.24 16.5333 9.24 16.56ZM10.2 16.64C10.2533 16.6133 10.3067 16.6133 10.36 16.64C10.4133 16.6667 10.4533 16.68 10.48 16.68C10.48 16.5733 10.4267 16.52 10.32 16.52C10.24 16.5467 10.2 16.5867 10.2 16.64ZM10 16.8C10 16.7733 10.0133 16.7467 10.04 16.72C10.0933 16.6667 10.0933 16.6267 10.04 16.6C10.04 16.6267 10.0267 16.6533 10 16.68C9.94667 16.7333 9.94667 16.7733 10 16.8ZM10.52 16.8H10.68C10.68 16.72 10.6267 16.68 10.52 16.68V16.8ZM10.56 16.88C10.5067 16.88 10.48 16.8933 10.48 16.92C10.5333 16.92 10.56 16.9067 10.56 16.88ZM10.76 17.04C10.8667 17.04 10.92 16.9867 10.92 16.88C10.84 16.8533 10.8 16.88 10.8 16.96L10.76 17.04ZM11.28 17.28C11.28 17.2533 11.2933 17.2267 11.32 17.2C11.3733 17.2 11.4 17.1867 11.4 17.16C11.3733 17.16 11.3467 17.1467 11.32 17.12C11.2933 17.0667 11.2533 17.0533 11.2 17.08C11.1733 17.16 11.2 17.2267 11.28 17.28ZM11.76 17.48C11.7333 17.4267 11.6667 17.3867 11.56 17.36C11.48 17.3333 11.4267 17.3067 11.4 17.28C11.4 17.36 11.52 17.4267 11.76 17.48ZM11.92 17.64C11.8933 17.64 11.8667 17.64 11.84 17.64C11.8133 17.6133 11.7867 17.6 11.76 17.6C11.7333 17.6533 11.7467 17.6933 11.8 17.72C11.88 17.72 11.92 17.6933 11.92 17.64ZM3.36 24.8C3.30667 24.8 3.28 24.8133 3.28 24.84C3.33333 24.84 3.36 24.8267 3.36 24.8ZM12.16 25.56C12.24 25.56 12.28 25.5333 12.28 25.48C12.2 25.48 12.16 25.5067 12.16 25.56ZM1.32 25.64H1.4V25.52H1.32V25.64ZM12.48 25.56C12.4533 25.56 12.4133 25.5467 12.36 25.52C12.3333 25.5467 12.3333 25.5733 12.36 25.6C12.4133 25.6 12.4533 25.5867 12.48 25.56ZM1.48 25.76C1.53333 25.76 1.57333 25.7867 1.6 25.84C1.62667 25.8933 1.66667 25.9067 1.72 25.88C1.74667 25.7733 1.72 25.7067 1.64 25.68C1.58667 25.6533 1.53333 25.68 1.48 25.76ZM11.04 25.72L11 25.68C10.9733 25.6533 10.9467 25.6533 10.92 25.68C10.8933 25.7067 10.8933 25.7333 10.92 25.76C10.9733 25.76 11.0133 25.7467 11.04 25.72ZM11.88 25.96C11.88 25.9333 11.9067 25.8933 11.96 25.84C12.0133 25.7867 12.0133 25.7467 11.96 25.72C11.96 25.7467 11.9333 25.7733 11.88 25.8C11.8267 25.88 11.8267 25.9333 11.88 25.96ZM10.68 25.96C10.6 25.96 10.56 25.9733 10.56 26C10.64 26 10.68 25.9867 10.68 25.96ZM10.8 26.64C10.9333 26.5867 11 26.5333 11 26.48C10.8667 26.5333 10.8 26.5867 10.8 26.64ZM10.28 26.6C10.2267 26.6 10.2 26.6133 10.2 26.64C10.2533 26.64 10.28 26.6267 10.28 26.6ZM10 26.88C10 26.8533 10.0267 26.8267 10.08 26.8C10.1333 26.8 10.1467 26.7733 10.12 26.72C10.0667 26.6933 10.0133 26.7067 9.96 26.76C9.90667 26.8133 9.92 26.8533 10 26.88ZM9.4 26.84V26.92H9.56V26.76H9.48L9.4 26.84ZM10.28 27.24V27.08C10.1733 27.0533 10.12 27.08 10.12 27.16C10.12 27.24 10.1733 27.2667 10.28 27.24ZM9.96 27.4C9.98667 27.4 10.0267 27.3867 10.08 27.36C10.16 27.36 10.2133 27.3467 10.24 27.32C10.16 27.32 10.0933 27.28 10.04 27.2C10.0133 27.1467 9.98667 27.12 9.96 27.12V27.4ZM10.36 27.32C10.36 27.2933 10.3867 27.2667 10.44 27.24C10.4933 27.2133 10.5067 27.1733 10.48 27.12C10.4 27.0933 10.3467 27.1333 10.32 27.24C10.32 27.2667 10.3333 27.2933 10.36 27.32ZM9.36 27.56C9.38667 27.56 9.42667 27.5467 9.48 27.52C9.53333 27.4933 9.58667 27.48 9.64 27.48C9.64 27.4267 9.62667 27.4 9.6 27.4C9.46667 27.4 9.38667 27.4533 9.36 27.56ZM10.68 27.4C10.5733 27.4 10.52 27.4133 10.52 27.44C10.6 27.44 10.6533 27.4267 10.68 27.4ZM8.84 27.48V27.6C8.89333 27.6267 8.92 27.6 8.92 27.52C8.94667 27.4667 8.93333 27.44 8.88 27.44C8.88 27.4933 8.86667 27.5067 8.84 27.48ZM9.56 27.8C9.58667 27.7733 9.62667 27.7333 9.68 27.68C9.76 27.6533 9.81333 27.6267 9.84 27.6C9.86667 27.5733 9.86667 27.52 9.84 27.44C9.84 27.4933 9.78667 27.5467 9.68 27.6C9.54667 27.68 9.50667 27.7467 9.56 27.8ZM9 28.04C9.05333 28.0133 9.08 27.9067 9.08 27.72L9.32 27.6C9.21333 27.5733 9.10667 27.5867 9 27.64C8.92 27.6933 8.81333 27.76 8.68 27.84C8.57333 27.9467 8.49333 28.0133 8.44 28.04C8.57333 28.0667 8.68 28.0267 8.76 27.92C8.86667 27.84 8.96 27.8 9.04 27.8C9.04 27.8267 9.02667 27.8533 9 27.88C8.97333 27.9333 8.97333 27.9867 9 28.04ZM8.56 27.72C8.69333 27.72 8.76 27.68 8.76 27.6C8.70667 27.6 8.64 27.64 8.56 27.72ZM7.2 27.84C7.14667 27.8133 7.10667 27.8133 7.08 27.84C7.05333 27.8667 7.05333 27.8933 7.08 27.92C7.16 27.92 7.2 27.8933 7.2 27.84C7.33333 27.8133 7.4 27.76 7.4 27.68C7.4 27.7067 7.36 27.72 7.28 27.72C7.22667 27.7467 7.2 27.7867 7.2 27.84ZM8.04 27.84H8.12V27.72H8.04V27.84ZM8.28 27.92C8.30667 27.92 8.34667 27.9067 8.4 27.88C8.48 27.8533 8.53333 27.8267 8.56 27.8C8.50667 27.7467 8.44 27.7333 8.36 27.76C8.30667 27.8133 8.28 27.8667 8.28 27.92ZM7.48 28.12L7.8 27.92C7.58667 27.92 7.48 27.9867 7.48 28.12ZM8.2 27.92L8.08 27.96H8.16L8.2 27.92ZM9.32 27.92C9.24 27.92 9.18667 27.9333 9.16 27.96C9.26667 27.96 9.32 27.9467 9.32 27.92ZM9.64 27.96L9.56 28C9.53333 28 9.52 28.0133 9.52 28.04L9.56 28C9.61333 28 9.64 27.9867 9.64 27.96ZM8.36 28.4C8.44 28.5333 8.52 28.5067 8.6 28.32C8.62667 28.2667 8.62667 28.2267 8.6 28.2C8.57333 28.28 8.52 28.32 8.44 28.32C8.38667 28.32 8.36 28.3467 8.36 28.4ZM6.64 28.56C6.53333 28.56 6.48 28.5733 6.48 28.6C6.56 28.6267 6.61333 28.6133 6.64 28.56C6.96 28.4267 7.13333 28.3333 7.16 28.28C6.84 28.4133 6.66667 28.5067 6.64 28.56ZM7.4 28.4C7.45333 28.4 7.52 28.36 7.6 28.28C7.46667 28.28 7.4 28.32 7.4 28.4ZM7.88 28.36V28.44C7.90667 28.4667 7.93333 28.4667 7.96 28.44C7.96 28.3867 7.94667 28.3467 7.92 28.32C7.92 28.3467 7.90667 28.36 7.88 28.36ZM8.16 28.44C8.18667 28.52 8.21333 28.5333 8.24 28.48C8.26667 28.4267 8.25333 28.3867 8.2 28.36C8.2 28.3867 8.18667 28.4 8.16 28.4C8.16 28.4 8.16 28.4133 8.16 28.44ZM7.64 28.76C7.66667 28.76 7.69333 28.76 7.72 28.76C7.72 28.68 7.69333 28.6267 7.64 28.6V28.76ZM7.88 28.76C7.98667 28.7067 8.04 28.6667 8.04 28.64H7.92L7.88 28.68C7.88 28.7067 7.88 28.7333 7.88 28.76ZM5.96 28.84C6.12 28.84 6.2 28.7867 6.2 28.68C6.04 28.7333 5.96 28.7867 5.96 28.84ZM6.44 28.84C6.49333 28.8667 6.53333 28.8533 6.56 28.8C6.58667 28.7467 6.57333 28.7067 6.52 28.68C6.52 28.7067 6.50667 28.7333 6.48 28.76C6.45333 28.7867 6.44 28.8133 6.44 28.84ZM5.96 29.04C6.14667 28.9867 6.25333 28.92 6.28 28.84C6.09333 28.8933 5.98667 28.96 5.96 29.04ZM7.56 28.92H7.64V28.84H7.56V28.92ZM7.6 29.08H7.68V29C7.62667 28.9733 7.6 29 7.6 29.08ZM6.4 29.16C6.42667 29.2133 6.50667 29.1733 6.64 29.04C6.50667 29.04 6.42667 29.08 6.4 29.16ZM5.08 29.16C5.16 29.24 5.22667 29.2533 5.28 29.2C5.30667 29.1733 5.32 29.1333 5.32 29.08C5.29333 29.08 5.25333 29.08 5.2 29.08C5.14667 29.1067 5.10667 29.1333 5.08 29.16ZM6.12 29.32C6.22667 29.32 6.28 29.2933 6.28 29.24C6.25333 29.1867 6.21333 29.16 6.16 29.16C6.10667 29.1867 6.09333 29.24 6.12 29.32ZM4.92 29.28C4.89333 29.28 4.86667 29.28 4.84 29.28L4.8 29.24C4.77333 29.2667 4.76 29.2933 4.76 29.32C4.84 29.4 4.89333 29.3867 4.92 29.28ZM4.52 29.4H4.6V29.32H4.52V29.4ZM5.16 29.4H5C5.08 29.48 5.13333 29.48 5.16 29.4ZM4.44 29.48C4.36 29.48 4.32 29.4933 4.32 29.52C4.4 29.52 4.44 29.5067 4.44 29.48ZM4.72 29.6V29.48V29.6ZM4.12 29.52C4.06667 29.52 4.04 29.5333 4.04 29.56C4.09333 29.56 4.12 29.5467 4.12 29.52ZM3.72 29.8C3.74667 29.7733 3.74667 29.7333 3.72 29.68C3.72 29.6267 3.68 29.6 3.6 29.6C3.6 29.7067 3.64 29.7733 3.72 29.8ZM4.6 30.44C4.62667 30.3867 4.68 30.3467 4.76 30.32C4.86667 30.32 4.93333 30.3067 4.96 30.28C4.85333 30.1733 4.73333 30.1867 4.6 30.32C4.54667 30.3467 4.54667 30.3867 4.6 30.44ZM4.44 30.44C4.44 30.4667 4.34667 30.48 4.16 30.48L3.88 30.44C3.88 30.52 3.92 30.5733 4 30.6C4.21333 30.6267 4.36 30.5733 4.44 30.44ZM2.32 30.76C2.24 30.76 2.2 30.7733 2.2 30.8C2.28 30.8 2.32 30.7867 2.32 30.76ZM16.68 0.959998H16.48C16.48 0.906665 16.5467 0.906665 16.68 0.959998ZM16.28 0.959998C16.28 0.933332 16.3333 0.919999 16.44 0.919999C16.4133 0.946665 16.36 0.959998 16.28 0.959998ZM15.88 1C15.88 0.973332 15.8933 0.959998 15.92 0.959998C15.9733 0.959998 16.0133 0.973332 16.04 1C16.0933 1.02667 16.1467 1.02667 16.2 1C16.1733 1.05333 16.0667 1.05333 15.88 1ZM14.6 1.16L14.68 1.08L14.6 1.16ZM15.16 1.16H15.28V1.24H15.16V1.16ZM13.84 1.32C13.84 1.29333 13.8533 1.28 13.88 1.28C13.9067 1.28 13.92 1.29333 13.92 1.32H13.84ZM14.44 1.4L14.36 1.32L14.44 1.4ZM14.2 1.52C14.12 1.52 14.0933 1.49333 14.12 1.44C14.1733 1.44 14.2 1.46667 14.2 1.52ZM12.92 1.48C13.08 1.53333 13.16 1.6 13.16 1.68C13 1.62667 12.92 1.56 12.92 1.48ZM12.84 1.64H12.92V1.72H12.84V1.64ZM12.12 1.8C12.1467 1.74667 12.1867 1.74667 12.24 1.8C12.2933 1.85333 12.3067 1.90667 12.28 1.96C12.2267 1.98667 12.1867 1.96 12.16 1.88C12.16 1.82667 12.1467 1.8 12.12 1.8ZM11.96 1.96C11.9867 2.01333 11.9733 2.05333 11.92 2.08C11.8933 2.08 11.88 2.09333 11.88 2.12C11.8267 2.09333 11.8133 2.05333 11.84 2C11.8667 1.94666 11.9067 1.93333 11.96 1.96ZM11.32 2.12H11.72C11.6933 2.17333 11.64 2.21333 11.56 2.24C11.48 2.24 11.4267 2.25333 11.4 2.28C11.3733 2.28 11.3467 2.25333 11.32 2.2V2.12ZM11.08 12.84C11.08 12.8933 11.0533 12.9333 11 12.96C10.9733 12.96 10.92 12.96 10.84 12.96C10.7867 12.96 10.7467 12.96 10.72 12.96C10.88 12.8 11 12.76 11.08 12.84ZM8.92 13.92C8.86667 13.9467 8.86667 13.9733 8.92 14C8.97333 14.0267 9 14.0667 9 14.12C8.81333 14.2 8.62667 14.2133 8.44 14.16L8.92 13.92ZM11.88 14.12C11.88 14.04 11.92 14 12 14C12 14.08 11.96 14.12 11.88 14.12ZM10.04 15.16L10.08 15.12L10.12 15.16H10.04ZM14.12 20.52C14.2533 20.6267 14.32 20.8533 14.32 21.2C14.2667 21.1733 14.2267 21.08 14.2 20.92C14.1733 20.7333 14.1467 20.6 14.12 20.52ZM14.32 21.44C14.3733 21.4667 14.4 21.5467 14.4 21.68C14.4 21.8133 14.36 21.8933 14.28 21.92C14.28 21.6267 14.2933 21.4667 14.32 21.44ZM6.2 28.08C6.14667 28.1867 6.04 28.28 5.88 28.36C5.74667 28.4667 5.64 28.48 5.56 28.4C5.13333 28.64 4.73333 28.7867 4.36 28.84C4.36 28.76 4.33333 28.7333 4.28 28.76C4.30667 28.7067 4.34667 28.6667 4.4 28.64C4.45333 28.64 4.52 28.64 4.6 28.64C4.68 28.6667 4.74667 28.68 4.8 28.68C4.90667 28.5467 5.14667 28.4267 5.52 28.32C5.89333 28.2133 6.12 28.1333 6.2 28.08ZM4.84 28.56C4.84 28.5867 4.78667 28.6 4.68 28.6C4.68 28.5467 4.69333 28.5067 4.72 28.48C4.77333 28.48 4.81333 28.5067 4.84 28.56ZM8.88 28.6C8.85333 28.52 8.88 28.48 8.96 28.48C9.04 28.48 9.06667 28.52 9.04 28.6H8.88ZM4.24 28.76C4.10667 28.8933 3.73333 29.0133 3.12 29.12C3.17333 29.0667 3.24 29.0133 3.32 28.96C3.42667 28.9067 3.49333 28.8667 3.52 28.84C3.6 28.84 3.64 28.8667 3.64 28.92C3.69333 28.8667 3.78667 28.8267 3.92 28.8C4.08 28.8 4.18667 28.7867 4.24 28.76ZM3.28 28.88C3.25333 28.96 3.18667 29 3.08 29C3.08 28.92 3.14667 28.88 3.28 28.88ZM2.76 29.08C2.78667 29.08 2.82667 29.08 2.88 29.08C2.98667 29.0533 3.02667 29.08 3 29.16C2.97333 29.1333 2.93333 29.12 2.88 29.12C2.82667 29.1467 2.78667 29.16 2.76 29.16V29.08Z" fill="#50735F"/>
</svg>
