<svg width="21" height="29" viewBox="0 0 21 29" fill="none" xmlns="http://www.w3.org/2000/svg">
<path d="M12.36 17.68V17.6C12.3333 17.6 12.32 17.6133 12.32 17.64C12.32 17.6667 12.3333 17.68 12.36 17.68L12.4 17.76C12.4 17.7867 12.4133 17.8 12.44 17.8C12.44 17.8267 12.4133 17.8533 12.36 17.88C12.28 17.88 12.2533 17.9067 12.28 17.96C12.2267 17.9867 12.1733 17.9867 12.12 17.96C12.0933 17.9067 12.0533 17.88 12 17.88C12 17.96 11.9333 18.0533 11.8 18.16C11.6667 18.24 11.6133 18.36 11.64 18.52C11.6133 18.4933 11.56 18.48 11.48 18.48C11.4 18.48 11.3333 18.4533 11.28 18.4C11.28 18.5333 11.2667 18.64 11.24 18.72C11.24 18.7733 11.1867 18.8533 11.08 18.96C11 19.0667 10.9467 19.16 10.92 19.24C10.76 19.16 10.6533 19.24 10.6 19.48C10.4667 19.4 10.3067 19.48 10.12 19.72C9.96 19.96 9.8 20.04 9.64 19.96C9.64 19.9867 9.65333 20.0267 9.68 20.08C9.73333 20.1067 9.74667 20.1467 9.72 20.2C9.58667 20.12 9.41333 20.24 9.2 20.56V20.44C9.06667 20.44 9 20.56 9 20.8C8.81333 20.7467 8.69333 20.7333 8.64 20.76C8.69333 20.7867 8.72 20.84 8.72 20.92C8.72 20.9733 8.73333 21.0133 8.76 21.04C8.57333 20.96 8.41333 21.1067 8.28 21.48H8.12C8.12 21.5333 8.08 21.6 8 21.68C7.94667 21.7333 7.92 21.8 7.92 21.88C7.57333 21.9067 7.21333 22.1067 6.84 22.48C6.49333 22.8267 6.21333 23.0267 6 23.08V23.32C5.97333 23.2933 5.96 23.3067 5.96 23.36L6 23.32C6.05333 23.32 6.10667 23.3067 6.16 23.28C6.24 23.2267 6.29333 23.24 6.32 23.32C6.4 23.2133 6.57333 23.1467 6.84 23.12C7.13333 23.0933 7.32 23.04 7.4 22.96C7.45333 22.96 7.53333 23.0133 7.64 23.12C7.66667 23.12 7.68 23.0667 7.68 22.96C7.70667 22.96 7.72 22.9733 7.72 23L7.76 23.08C7.86667 22.9733 7.97333 22.9067 8.08 22.88C8.18667 22.8267 8.30667 22.8 8.44 22.8C8.57333 22.8 8.68 22.7867 8.76 22.76V22.92C9 22.5733 9.34667 22.5067 9.8 22.72C9.90667 22.6667 9.96 22.6 9.96 22.52C9.98667 22.6 10.0267 22.64 10.08 22.64C10.16 22.64 10.2 22.68 10.2 22.76C10.2267 22.7067 10.2933 22.68 10.4 22.68C10.5333 22.6533 10.6 22.6 10.6 22.52C10.68 22.4933 10.72 22.52 10.72 22.6C10.72 22.68 10.7467 22.7067 10.8 22.68C10.8533 22.5733 10.96 22.52 11.12 22.52C11.3067 22.4933 11.4267 22.44 11.48 22.36C11.4267 22.2 11.3467 22.2133 11.24 22.4C11.16 22.4 11.1333 22.36 11.16 22.28C11.16 22.2267 11.1467 22.2 11.12 22.2C11.0667 22.2 11.0533 22.2267 11.08 22.28C11.08 22.3333 11.08 22.3867 11.08 22.44C11.0267 22.4133 10.9733 22.36 10.92 22.28C10.8933 22.2 10.8667 22.1467 10.84 22.12C10.92 22.1467 11.0667 22.1733 11.28 22.2C11.52 22.2 11.6933 22.2267 11.8 22.28C11.9067 22.3333 11.9333 22.4133 11.88 22.52C11.8533 22.52 11.84 22.48 11.84 22.4C11.76 22.4 11.6933 22.4667 11.64 22.6L11.68 22.64C11.7333 22.64 11.76 22.6533 11.76 22.68C11.8667 22.68 11.9067 22.6267 11.88 22.52C11.9333 22.5733 11.9867 22.5733 12.04 22.52C12.0933 22.44 12.1467 22.4 12.2 22.4C12.2 22.4533 12.24 22.48 12.32 22.48C12.3733 22.48 12.3867 22.5333 12.36 22.64C12.8133 22.5067 13.2533 22.8267 13.68 23.6C13.68 23.6533 13.6667 23.6933 13.64 23.72C13.5867 23.7733 13.56 23.8133 13.56 23.84C13.5867 23.8933 13.6533 23.9467 13.76 24C13.8667 24.08 13.9333 24.1333 13.96 24.16C13.9333 24.2933 13.9467 24.44 14 24.6C14.08 24.76 14.12 24.9067 14.12 25.04C14.0933 25.04 14.0533 25.04 14 25.04L13.96 25V24.88C13.9333 24.88 13.92 24.8933 13.92 24.92C13.92 24.9733 13.9333 25 13.96 25V25.08C13.5333 24.6533 13.0667 24.3467 12.56 24.16C11.6267 23.9467 10.8 23.8533 10.08 23.88C9.78667 23.9333 9.4 23.9867 8.92 24.04C8.44 24.0933 8.06667 24.1467 7.8 24.2C7.29333 24.36 6.53333 24.6267 5.52 25C4.37333 25.5067 3.12 26.3867 1.76 27.64C1.73333 27.6667 1.66667 27.7867 1.56 28C1.45333 28.24 1.33333 28.3867 1.2 28.44C1.14667 28.36 1.04 28.2533 0.88 28.12C0.72 27.9867 0.6 27.8667 0.52 27.76C0.52 27.5467 0.493333 27.4267 0.44 27.4C0.44 27.32 0.466667 27.2 0.52 27.04C0.6 26.88 0.613333 26.76 0.56 26.68C0.453333 26.68 0.373333 26.76 0.32 26.92C0.24 26.8667 0.173333 26.8 0.12 26.72C0.28 26.56 0.346667 26.3333 0.32 26.04C0.72 25.4533 1.17333 24.8933 1.68 24.36C2.18667 23.8533 2.82667 23.24 3.6 22.52C4.37333 21.8 4.89333 21.32 5.16 21.08H5.32C5.53333 20.8133 5.92 20.48 6.48 20.08C7.06667 19.6533 7.46667 19.3067 7.68 19.04C7.73333 19.04 7.78667 19.0133 7.84 18.96C7.92 18.9067 7.98667 18.88 8.04 18.88C8.04 18.7733 8.08 18.6933 8.16 18.64C8.24 18.56 8.30667 18.5467 8.36 18.6C8.57333 18.3333 8.81333 18.1867 9.08 18.16C9.02667 18 9.14667 17.8133 9.44 17.6C9.76 17.36 9.93333 17.2 9.96 17.12C10.0133 17.0933 10.08 17.08 10.16 17.08C10.2667 17.08 10.3467 17.0533 10.4 17C10.3467 16.8933 10.3733 16.7867 10.48 16.68C10.6133 16.5733 10.76 16.4667 10.92 16.36C11.08 16.2267 11.1867 16.1067 11.24 16C11.2667 16 11.28 16 11.28 16L11.36 16.04C11.44 15.8267 11.68 15.64 12.08 15.48C12.08 15.4533 12.0667 15.4133 12.04 15.36C12.0133 15.3067 12.0133 15.2667 12.04 15.24C12.0933 15.24 12.16 15.2133 12.24 15.16C12.3467 15.08 12.44 15.04 12.52 15.04C12.4933 14.9067 12.5467 14.8 12.68 14.72C12.84 14.64 12.92 14.5467 12.92 14.44C12.9733 14.4133 13 14.4533 13 14.56C13.2667 14.1333 13.52 13.8667 13.76 13.76C14 13.4933 14.44 13.0267 15.08 12.36C15.72 11.6933 16.2533 11.1067 16.68 10.6C17.1067 10.0933 17.4933 9.56 17.84 9H18.04C18.76 7.88 19.1733 6.97333 19.28 6.28C19.76 5.02667 19.5333 3.96 18.6 3.08C17.6667 2.2 16.5067 1.86666 15.12 2.08C14.8533 2.13333 14.5733 2.2 14.28 2.28C14.0133 2.36 13.7733 2.44 13.56 2.52C13.3467 2.6 13.0933 2.72 12.8 2.88C12.5333 3.01333 12.32 3.12 12.16 3.2C12 3.28 11.76 3.41333 11.44 3.6C11.12 3.78667 10.8933 3.92 10.76 4C10.6533 4.08 10.4267 4.24 10.08 4.48C9.73333 4.69333 9.52 4.82667 9.44 4.88C9.33333 4.98667 8.82667 5.42667 7.92 6.2C7.04 6.97333 6.44 7.64 6.12 8.2C5.98667 8.22667 5.84 8.34667 5.68 8.56C5.54667 8.77333 5.42667 8.90667 5.32 8.96C5.29333 9.06667 5.22667 9.2 5.12 9.36C5.01333 9.52 4.94667 9.66667 4.92 9.8C4.73333 9.96 4.56 10.2 4.4 10.52C4.24 10.8133 4.12 11.0667 4.04 11.28C3.96 11.4933 3.84 11.8133 3.68 12.24C3.54667 12.6667 3.46667 12.9333 3.44 13.04C3.44 13.1733 3.49333 13.4267 3.6 13.8C3.73333 14.1467 3.73333 14.3733 3.6 14.48C3.54667 14.4533 3.49333 14.4533 3.44 14.48L3.32 14.52L3.2 14.28C2.90667 14.1467 2.68 13.9333 2.52 13.64C2.38667 13.32 2.28 12.9467 2.2 12.52C2.12 12.0667 2.04 11.76 1.96 11.6C1.98667 11.5467 2 11.4667 2 11.36C2.02667 11.2533 2.06667 11.1733 2.12 11.12C2.04 11.0667 2.02667 10.92 2.08 10.68C2.16 10.44 2.2 10.2933 2.2 10.24H2.36C3.58667 7.94667 4.82667 6.28 6.08 5.24C6.16 5.10667 6.32 4.93333 6.56 4.72C6.8 4.50667 6.96 4.32 7.04 4.16C7.25333 4.05333 7.6 3.8 8.08 3.4C8.56 3 8.97333 2.77333 9.32 2.72C9.34667 2.61333 9.42667 2.50667 9.56 2.4C9.61333 2.32 9.65333 2.26667 9.68 2.24L9.8 2.36C11.16 1.37333 12.9467 0.693333 15.16 0.32C17.2667 0.479999 18.8133 1.56 19.8 3.56C19.7733 3.53333 19.7467 3.49333 19.72 3.44C19.6933 3.38667 19.6667 3.34667 19.64 3.32C19.8533 3.8 20 4.17333 20.08 4.44C20.16 4.68 20.2533 5.02667 20.36 5.48C20.4667 5.90667 20.5067 6.32 20.48 6.72C20.4533 7.12 20.3733 7.53333 20.24 7.96C20.2133 8.04 20.16 8.14667 20.08 8.28C20.0267 8.38667 19.9733 8.49333 19.92 8.6C19.8933 8.70667 19.88 8.82667 19.88 8.96C19.6933 9.22667 19.3867 9.74667 18.96 10.52C18.5333 11.2933 18.1733 11.8533 17.88 12.2C17.8267 12.2 17.7733 12.2267 17.72 12.28C17.6933 12.3333 17.64 12.3467 17.56 12.32C17.56 12.4 17.4933 12.5333 17.36 12.72C17.2533 12.88 17.1867 13 17.16 13.08C17.0267 13.0533 16.9067 13.0933 16.8 13.2C16.6933 13.28 16.6533 13.4 16.68 13.56C16.6533 13.5867 16.52 13.7467 16.28 14.04C16.04 14.3333 15.8133 14.5067 15.6 14.56C15.6 14.5867 15.6 14.6267 15.6 14.68C15.6267 14.7067 15.64 14.7333 15.64 14.76C15.6133 14.76 15.5733 14.7733 15.52 14.8C15.4667 14.8267 15.4133 14.8267 15.36 14.8C15.3067 14.8533 15.2933 14.9467 15.32 15.08C15.24 15.08 15.1067 15.1467 14.92 15.28C14.76 15.4133 14.6267 15.4933 14.52 15.52C14.5733 15.6267 14.5333 15.7467 14.4 15.88C14.2667 15.9867 14.2 16.08 14.2 16.16C13.9333 16.1333 13.6667 16.3733 13.4 16.88C13.2133 16.8533 13.0533 16.9867 12.92 17.28C12.7867 17.5467 12.6 17.68 12.36 17.68ZM15.8 0.88C15.72 0.88 15.68 0.893333 15.68 0.919999C15.76 0.919999 15.8 0.906666 15.8 0.88ZM17.12 0.999998C17.0667 0.999998 17.04 1.01333 17.04 1.04C17.0933 1.04 17.12 1.02667 17.12 0.999998ZM13.64 1.28H13.72V1.16H13.64V1.28ZM15.36 1.32C15.44 1.37333 15.5467 1.4 15.68 1.4C15.84 1.4 15.9333 1.34667 15.96 1.24C15.56 1.24 15.36 1.26667 15.36 1.32ZM15.12 1.32C15.1467 1.37333 15.1733 1.4 15.2 1.4C15.2533 1.37333 15.2933 1.33333 15.32 1.28C15.1867 1.28 15.12 1.29333 15.12 1.32ZM14.52 1.48C14.7333 1.48 14.8533 1.49333 14.88 1.52C14.8533 1.41333 14.7733 1.33333 14.64 1.28C14.56 1.28 14.52 1.34667 14.52 1.48ZM14.92 1.36C14.9733 1.36 15.0267 1.33333 15.08 1.28C14.9467 1.28 14.8933 1.30667 14.92 1.36ZM12.84 1.48C12.8667 1.48 12.9067 1.48 12.96 1.48C12.9867 1.48 13 1.48 13 1.48C13.0267 1.45333 13.04 1.41333 13.04 1.36C12.9333 1.36 12.8667 1.4 12.84 1.48ZM13.96 1.48C13.9867 1.48 14 1.50667 14 1.56C14.2933 1.56 14.44 1.49333 14.44 1.36C14.3867 1.38667 14.32 1.4 14.24 1.4C14.16 1.4 14.0933 1.4 14.04 1.4C14.0133 1.4 13.9867 1.42667 13.96 1.48ZM13.72 1.6H13.8C13.8533 1.6 13.88 1.58667 13.88 1.56C13.8533 1.56 13.8267 1.53333 13.8 1.48C13.8 1.42667 13.7867 1.4 13.76 1.4C13.76 1.42667 13.7467 1.46667 13.72 1.52C13.72 1.54666 13.72 1.57333 13.72 1.6ZM12.48 1.88C12.5067 2.01333 12.5067 2.12 12.48 2.2C12.7467 2.12 12.8933 2.05333 12.92 2L12.96 2.08C12.96 2.13333 12.9867 2.14667 13.04 2.12C13.12 2.09333 13.1333 2.05333 13.08 2C13.0267 1.92 13 1.86667 13 1.84C13.2667 1.89333 13.4533 1.86666 13.56 1.76C13.5333 1.76 13.52 1.69333 13.52 1.56H13.4C13.2133 1.72 12.9067 1.82667 12.48 1.88ZM11.8 1.96V2.04H11.96V1.88H11.84C11.84 1.93333 11.8267 1.96 11.8 1.96ZM12.04 2.12C12.0667 2.12 12.1067 2.12 12.16 2.12C12.2133 2.12 12.2533 2.12 12.28 2.12C12.3067 2.09333 12.32 2.05333 12.32 2C12.1333 2 12.04 2.04 12.04 2.12ZM10.64 2.28C10.6667 2.28 10.6933 2.26667 10.72 2.24C10.8267 2.18667 10.88 2.14667 10.88 2.12C10.72 2.12 10.64 2.17333 10.64 2.28ZM11.28 2.72C11.36 2.69333 11.44 2.66666 11.52 2.64C11.6 2.58667 11.68 2.53333 11.76 2.48C11.8667 2.42667 11.9467 2.38667 12 2.36C11.8133 2.30667 11.5733 2.42667 11.28 2.72ZM10.56 3.2L10.76 3.12C10.8933 3.04 10.9733 2.94667 11 2.84C10.8667 2.84 10.7467 2.88 10.64 2.96C10.5333 3.04 10.5067 3.12 10.56 3.2ZM9.16 3.28C9.18667 3.25333 9.25333 3.22666 9.36 3.2C9.46667 3.14667 9.53333 3.09333 9.56 3.04C9.50667 3.01333 9.44 3.01333 9.36 3.04C9.28 3.06667 9.21333 3.10667 9.16 3.16C9.13333 3.21333 9.13333 3.25333 9.16 3.28ZM8.88 3.48C8.96 3.48 9.01333 3.44 9.04 3.36C9.04 3.33333 9.01333 3.30667 8.96 3.28C8.96 3.30667 8.93333 3.33333 8.88 3.36C8.85333 3.38667 8.85333 3.42667 8.88 3.48ZM9.08 4.16H9.16V4.04H9.08V4.16ZM7 5.08C6.94667 5.08 6.92 5.09333 6.92 5.12C6.97333 5.12 7 5.10667 7 5.08ZM6.68 5.36C6.6 5.36 6.56 5.37333 6.56 5.4C6.64 5.4 6.68 5.38667 6.68 5.36ZM20.24 6.04C20.2133 5.96 20.2 5.85333 20.2 5.72C20.2267 5.56 20.2133 5.46667 20.16 5.44C20.16 5.46667 20.1467 5.53333 20.12 5.64C20.12 5.74667 20.12 5.84 20.12 5.92C20.1467 6 20.1867 6.04 20.24 6.04ZM6.92 6.08C6.97333 6.10667 7 6.09333 7 6.04C7.02667 5.93333 7.01333 5.88 6.96 5.88C6.90667 5.96 6.89333 6.02667 6.92 6.08ZM20.12 7.6C20.12 7.54667 20.1333 7.48 20.16 7.4C20.2133 7.29333 20.24 7.22667 20.24 7.2C20.2667 7.14667 20.24 7.08 20.16 7C20.16 7.05333 20.1333 7.13333 20.08 7.24C20.0533 7.34667 20.04 7.42667 20.04 7.48C20.04 7.50667 20.0667 7.54667 20.12 7.6ZM19.44 9.28C19.5467 9.12 19.5467 9 19.44 8.92C19.44 8.94667 19.4133 9.01333 19.36 9.12C19.3333 9.22667 19.36 9.28 19.44 9.28ZM18.52 10.44H18.6V10.36H18.52V10.44ZM18.44 10.64C18.4667 10.64 18.48 10.6533 18.48 10.68C18.48 10.68 18.4933 10.68 18.52 10.68C18.5467 10.6267 18.5333 10.5867 18.48 10.56L18.44 10.64ZM17.08 10.92C17.08 10.8667 17.0533 10.8133 17 10.76C17 10.8133 17.0267 10.8667 17.08 10.92ZM18.48 10.76L18.4 10.8C18.3733 10.8 18.36 10.8133 18.36 10.84L18.4 10.8C18.4533 10.8 18.48 10.7867 18.48 10.76ZM18.24 11C18.2933 11.0267 18.32 11.0133 18.32 10.96C18.3467 10.88 18.3333 10.84 18.28 10.84C18.28 10.8667 18.2667 10.8933 18.24 10.92C18.24 10.9467 18.24 10.9733 18.24 11ZM16.08 12.04C15.76 12.0667 15.6 12.3067 15.6 12.76C15.6533 12.68 15.76 12.5733 15.92 12.44C16.1067 12.3067 16.2267 12.1867 16.28 12.08C16.2267 12.0533 16.1733 12.0667 16.12 12.12C16.0933 12.1467 16.0667 12.16 16.04 12.16L16.08 12.12C16.08 12.0933 16.08 12.0667 16.08 12.04C16.08 12.0133 16.1067 11.9867 16.16 11.96C16.24 11.9333 16.28 11.8933 16.28 11.84C16.12 11.84 16.0533 11.9067 16.08 12.04ZM15.16 13.08C15.1333 13.08 15.1067 13.0667 15.08 13.04C15.0533 12.9867 15.0133 12.9733 14.96 13C14.3733 13.8 13.5067 14.6267 12.36 15.48C12.3867 15.5867 12.3467 15.68 12.24 15.76C12.1333 15.84 12.08 15.9067 12.08 15.96C11.9467 16.0133 11.7733 16.1467 11.56 16.36C11.3467 16.5733 11.16 16.7067 11 16.76C10.7867 17.1067 10.56 17.3067 10.32 17.36C10.24 17.52 10.0533 17.72 9.76 17.96C9.49333 18.2 9.32 18.36 9.24 18.44L9.2 18.4C9.17333 18.4 9.14667 18.4 9.12 18.4C9.06667 18.5333 8.94667 18.6667 8.76 18.8C8.57333 18.9333 8.45333 19.0533 8.4 19.16C8.26667 19.1867 8.13333 19.2933 8 19.48C7.89333 19.64 7.77333 19.72 7.64 19.72C7.61333 19.8267 7.53333 19.92 7.4 20C7.26667 20.08 7.18667 20.16 7.16 20.24C6.86667 20.4267 6.44 20.76 5.88 21.24C5.34667 21.6933 4.89333 22.0133 4.52 22.2C4.49333 22.28 4.44 22.3733 4.36 22.48C4.28 22.56 4.22667 22.6267 4.2 22.68C4.17333 22.7067 4.14667 22.72 4.12 22.72C4.09333 22.72 4.04 22.72 3.96 22.72C3.93333 22.88 3.81333 23.04 3.6 23.2C3.38667 23.36 3.26667 23.52 3.24 23.68C3.37333 23.7067 3.44 23.6933 3.44 23.64C3.46667 23.56 3.46667 23.48 3.44 23.4C4.08 23.1867 4.88 22.6 5.84 21.64C6.21333 21.4267 6.73333 21.04 7.4 20.48C8.06667 19.8933 8.49333 19.5333 8.68 19.4L8.76 19.48C8.76 19.3467 8.8 19.2667 8.88 19.24C8.93333 19.2133 8.97333 19.2133 9 19.24C9.02667 19.1867 9.06667 19.12 9.12 19.04C9.17333 18.96 9.2 18.9067 9.2 18.88C9.81333 18.4 10.4267 17.8933 11.04 17.36C11.6533 16.8 12.36 16.1333 13.16 15.36C13.96 14.5867 14.52 14.04 14.84 13.72C14.8133 13.6667 14.8267 13.6267 14.88 13.6C14.88 13.5467 14.88 13.5067 14.88 13.48C14.9867 13.4533 15.08 13.4 15.16 13.32C15.24 13.24 15.32 13.1467 15.4 13.04C15.48 12.9333 15.5467 12.8533 15.6 12.8C15.4667 12.7467 15.4133 12.6933 15.44 12.64C15.44 12.6133 15.4267 12.6 15.4 12.6C15.2933 12.6533 15.2133 12.8133 15.16 13.08ZM16.36 13.76V13.6V13.76ZM15.84 13.8V13.88H15.92C15.92 13.8533 15.9333 13.84 15.96 13.84V13.76H15.88C15.88 13.7867 15.8667 13.8 15.84 13.8ZM14.64 14.8C14.6667 14.8267 14.6933 14.8267 14.72 14.8C14.6933 14.7467 14.6667 14.7067 14.64 14.68V14.8ZM13 16.4V16.24V16.4ZM13.24 16.6C13.3467 16.6267 13.4 16.6 13.4 16.52C13.4267 16.4133 13.4 16.36 13.32 16.36C13.2933 16.3867 13.2667 16.4267 13.24 16.48C13.24 16.5333 13.24 16.5733 13.24 16.6ZM12.36 16.52C12.36 16.4933 12.3467 16.48 12.32 16.48C12.2933 16.48 12.28 16.4933 12.28 16.52H12.36ZM12.76 17.08C12.7867 17.0533 12.8267 17.0133 12.88 16.96C12.96 16.9067 13.0133 16.8533 13.04 16.8C13.0667 16.7467 13.08 16.68 13.08 16.6C13 16.6267 12.92 16.6933 12.84 16.8C12.76 16.9067 12.7333 17 12.76 17.08ZM12.52 16.88C12.6 16.9067 12.64 16.8667 12.64 16.76C12.6667 16.7333 12.6533 16.7067 12.6 16.68C12.6 16.7067 12.5733 16.7333 12.52 16.76C12.4933 16.7867 12.4933 16.8267 12.52 16.88ZM12.04 17.4C12.12 17.32 12.1733 17.2267 12.2 17.12C12.12 17.0933 12.0533 17.1467 12 17.28C12 17.3333 12.0133 17.3733 12.04 17.4ZM11.4 17.24L11.32 17.32L11.4 17.24ZM11.88 17.68V17.44H11.76C11.76 17.5467 11.8 17.6267 11.88 17.68ZM12.04 17.48C12.04 17.4533 12.0267 17.44 12 17.44C11.9733 17.44 11.96 17.4533 11.96 17.48H12.04ZM11.52 18.2C11.5733 18.2267 11.6133 18.2 11.64 18.12C11.6667 17.9867 11.64 17.9067 11.56 17.88C11.5067 18.0667 11.4933 18.1733 11.52 18.2ZM11.12 18.32C11.12 18.2667 11.1333 18.1867 11.16 18.08C11.1867 18 11.16 17.9467 11.08 17.92C11.08 18.1867 11.0933 18.32 11.12 18.32ZM10.4 18.16C10.48 18.1867 10.5333 18.1467 10.56 18.04C10.56 18.0133 10.5467 17.9867 10.52 17.96C10.52 17.9867 10.4933 18.0133 10.44 18.04C10.3867 18.0667 10.3733 18.1067 10.4 18.16ZM10.76 18.4C10.8667 18.4267 10.9467 18.36 11 18.2C10.9733 18.2 10.8667 18.1867 10.68 18.16C10.6533 18.2133 10.6533 18.2667 10.68 18.32C10.7333 18.3467 10.76 18.3733 10.76 18.4ZM11 18.56C11.08 18.5867 11.12 18.5867 11.12 18.56C11.1467 18.5067 11.16 18.44 11.16 18.36C11.1067 18.3333 11.0667 18.3733 11.04 18.48C11.0133 18.5067 11 18.5333 11 18.56ZM10.52 18.76C10.52 18.7067 10.5467 18.6667 10.6 18.64C10.68 18.5867 10.7067 18.52 10.68 18.44C10.6 18.4667 10.5333 18.5067 10.48 18.56C10.4267 18.6133 10.44 18.68 10.52 18.76ZM10.32 18.88C10.4533 18.88 10.52 18.8667 10.52 18.84C10.4933 18.7867 10.4533 18.7733 10.4 18.8C10.3467 18.8 10.32 18.8267 10.32 18.88ZM10.2 18.88C10.1467 18.88 10.12 18.8933 10.12 18.92C10.1733 18.92 10.2 18.9067 10.2 18.88ZM11 18.88C10.92 18.88 10.88 18.8933 10.88 18.92C10.96 18.92 11 18.9067 11 18.88ZM9.72 19.28C9.77333 19.28 9.81333 19.2533 9.84 19.2C9.86667 19.1467 9.89333 19.12 9.92 19.12C9.78667 19.12 9.72 19.1733 9.72 19.28ZM9.12 19.84C9.2 19.84 9.24 19.8133 9.24 19.76C9.13333 19.76 9.09333 19.7867 9.12 19.84ZM9.56 20.04C9.56 19.9333 9.50667 19.88 9.4 19.88C9.4 19.9867 9.45333 20.04 9.56 20.04ZM8.6 20.32C8.6 20.2933 8.62667 20.2267 8.68 20.12C8.6 20.0933 8.56 20.1333 8.56 20.24C8.53333 20.2667 8.54667 20.2933 8.6 20.32ZM6.2 20.52C6.2 20.4933 6.24 20.48 6.32 20.48C6.32 20.4 6.29333 20.36 6.24 20.36C6.21333 20.36 6.18667 20.3733 6.16 20.4C6.13333 20.4533 6.14667 20.4933 6.2 20.52ZM7.76 20.68C7.70667 20.68 7.68 20.6933 7.68 20.72C7.73333 20.72 7.76 20.7067 7.76 20.68ZM8 20.96C7.92 20.9333 7.82667 20.92 7.72 20.92C7.72 21 7.77333 21.04 7.88 21.04C7.96 21.04 8 21.0133 8 20.96ZM7.76 21.2C7.81333 21.2 7.86667 21.16 7.92 21.08C7.86667 21.08 7.81333 21.12 7.76 21.2ZM5.04 21.44C5.14667 21.44 5.21333 21.4 5.24 21.32C5.10667 21.24 5.04 21.28 5.04 21.44ZM7.16 21.48C7.02667 21.48 6.96 21.4933 6.96 21.52C6.98667 21.5733 7.01333 21.6 7.04 21.6C7.09333 21.5733 7.13333 21.5333 7.16 21.48ZM7.56 21.48C7.50667 21.48 7.48 21.4933 7.48 21.52C7.53333 21.52 7.56 21.5067 7.56 21.48ZM4.76 21.68C4.84 21.68 4.88 21.6267 4.88 21.52C4.82667 21.4933 4.8 21.52 4.8 21.6L4.76 21.68ZM7.8 21.72C7.8 21.6667 7.76 21.64 7.68 21.64C7.70667 21.64 7.73333 21.6533 7.76 21.68L7.8 21.72ZM4.52 21.96C4.52 21.9333 4.54667 21.92 4.6 21.92C4.65333 21.8933 4.66667 21.8533 4.64 21.8C4.58667 21.7733 4.53333 21.7867 4.48 21.84C4.42667 21.8933 4.44 21.9333 4.52 21.96ZM6.8 21.96H6.92V21.88H6.8V21.96ZM7.08 22.04H7.2V21.96H7.08V22.04ZM5.96 22.64C5.96 22.6133 5.97333 22.6 6 22.6C6.05333 22.5733 6.06667 22.5333 6.04 22.48C5.98667 22.4533 5.94667 22.4667 5.92 22.52C5.89333 22.5733 5.90667 22.6133 5.96 22.64ZM5.72 22.64C5.64 22.64 5.6 22.6533 5.6 22.68C5.68 22.68 5.72 22.6667 5.72 22.64ZM9.24 23.12C9.50667 23.2533 9.69333 23.2133 9.8 23C9.74667 23 9.72 22.9867 9.72 22.96C9.72 22.9333 9.70667 22.92 9.68 22.92C9.68 22.9467 9.64 22.9733 9.56 23C9.50667 23.0267 9.46667 23.0133 9.44 22.96C9.44 22.9333 9.42667 22.92 9.4 22.92C9.4 22.9467 9.37333 22.9733 9.32 23C9.29333 23.0267 9.26667 23.0667 9.24 23.12ZM10.28 23.16C10.36 23.1867 10.4 23.16 10.4 23.08C10.4 22.9733 10.3733 22.92 10.32 22.92C10.2667 22.9733 10.2533 23.0533 10.28 23.16ZM10.68 23.12C10.76 23.12 10.8133 23.1067 10.84 23.08C10.8933 23.0533 10.9067 23.0133 10.88 22.96C10.7467 22.96 10.68 23.0133 10.68 23.12ZM8.88 23.16C8.90667 23.16 8.94667 23.16 9 23.16C9.10667 23.1867 9.14667 23.16 9.12 23.08C8.96 23.0267 8.88 23.0533 8.88 23.16ZM11.76 23.12C11.7067 23.1467 11.6533 23.1467 11.6 23.12C11.5467 23.0933 11.5067 23.08 11.48 23.08C11.4267 23.2133 11.48 23.2667 11.64 23.24C11.72 23.24 11.76 23.2 11.76 23.12ZM8.28 23.16H7.88C7.88 23.2933 7.93333 23.3467 8.04 23.32C8.14667 23.2933 8.22667 23.24 8.28 23.16ZM7.56 23.24C7.53333 23.32 7.56 23.3733 7.64 23.4C7.74667 23.4267 7.8 23.4 7.8 23.32C7.66667 23.24 7.58667 23.2133 7.56 23.24ZM7.32 23.32V23.4H7.44C7.44 23.3733 7.45333 23.36 7.48 23.36V23.24H7.4C7.4 23.2933 7.37333 23.32 7.32 23.32ZM6.96 23.48C7.09333 23.5333 7.16 23.4933 7.16 23.36C7.08 23.3333 7.01333 23.3333 6.96 23.36C6.93333 23.3867 6.93333 23.4267 6.96 23.48ZM6.72 23.6C6.72 23.5733 6.73333 23.56 6.76 23.56C6.78667 23.5333 6.81333 23.5333 6.84 23.56C6.84 23.4533 6.82667 23.4 6.8 23.4L6.76 23.44C6.65333 23.52 6.64 23.5733 6.72 23.6ZM2.48 24.28C2.48 24.3067 2.46667 24.3333 2.44 24.36C2.44 24.3867 2.44 24.4133 2.44 24.44C2.54667 24.4667 2.64 24.4533 2.72 24.4C2.82667 24.3733 2.93333 24.2933 3.04 24.16C3.14667 24.0267 3.21333 23.9467 3.24 23.92C3.10667 23.92 2.96 23.9733 2.8 24.08C2.66667 24.2133 2.56 24.28 2.48 24.28ZM19.88 3.68C19.88 3.62667 19.9067 3.61333 19.96 3.64C19.9867 3.69333 19.9867 3.74667 19.96 3.8H19.88V3.68ZM15.88 12.2C15.9333 12.2 15.9467 12.24 15.92 12.32C15.92 12.3733 15.8933 12.3867 15.84 12.36V12.28C15.8667 12.28 15.88 12.2533 15.88 12.2ZM17.52 12.6C17.52 12.5733 17.5467 12.56 17.6 12.56C17.6 12.5867 17.5733 12.6 17.52 12.6ZM8.48 21.16H8.6V21.24H8.48V21.16ZM9.4 22V21.88C9.45333 21.9067 9.49333 21.8933 9.52 21.84C9.57333 21.8133 9.61333 21.8 9.64 21.8C9.82667 21.96 10.1467 22.04 10.6 22.04C10.6 22.0933 10.5733 22.1467 10.52 22.2C10.4933 22.2267 10.4933 22.28 10.52 22.36H10.28C10.2267 22.2533 10.2 22.1733 10.2 22.12C10.0933 22.1467 10.0133 22.16 9.96 22.16C9.90667 22.1333 9.81333 22.1067 9.68 22.08C9.54667 22.0267 9.45333 22 9.4 22ZM7.92 22.04C8.02667 22.04 8.05333 22.1067 8 22.24C7.97333 22.32 7.96 22.3733 7.96 22.4L7.92 22.36H7.8C7.8 22.3067 7.82667 22.2667 7.88 22.24C7.93333 22.1867 7.94667 22.12 7.92 22.04ZM7.56 22.12C7.61333 22.1467 7.62667 22.1867 7.6 22.24C7.57333 22.2933 7.56 22.3467 7.56 22.4C7.48 22.3467 7.48 22.2533 7.56 22.12ZM7.08 22.36C7.13333 22.3333 7.17333 22.3333 7.2 22.36C7.22667 22.4133 7.21333 22.4533 7.16 22.48C7.13333 22.5067 7.10667 22.5067 7.08 22.48V22.36ZM7.28 22.36H7.44C7.44 22.3867 7.42667 22.4133 7.4 22.44C7.34667 22.44 7.32 22.4533 7.32 22.48C7.29333 22.48 7.28 22.44 7.28 22.36ZM14.04 24.44C14.04 24.4133 14.08 24.4 14.16 24.4C14.16 24.4267 14.12 24.44 14.04 24.44Z" fill="#50735F"/>
</svg>
