<svg width="18" height="18" viewBox="0 0 18 18" fill="none" xmlns="http://www.w3.org/2000/svg">
<path d="M17.6124 0H0.38756C0.284772 0 0.186195 0.0408318 0.113513 0.113513C0.0408318 0.186195 0 0.284772 0 0.38756V17.6124C0 17.7152 0.0408318 17.8138 0.113513 17.8865C0.186195 17.9592 0.284772 18 0.38756 18H17.6124C17.7152 18 17.8138 17.9592 17.8865 17.8865C17.9592 17.8138 18 17.7152 18 17.6124V0.38756C18 0.284772 17.9592 0.186195 17.8865 0.113513C17.8138 0.0408318 17.7152 0 17.6124 0ZM13.7024 6.88995L8.01818 12.5742C7.92398 12.671 7.81156 12.7482 7.68741 12.8014C7.56325 12.8546 7.42981 12.8828 7.29474 12.8842C7.1563 12.883 7.0195 12.8541 6.89233 12.7994C6.76516 12.7447 6.65017 12.6652 6.55407 12.5655L4.29761 10.3091C4.19833 10.2132 4.11964 10.098 4.06633 9.97067C4.01303 9.84333 3.98622 9.70646 3.98756 9.56842C3.98756 9.43312 4.01504 9.29924 4.06834 9.17488C4.12163 9.05052 4.19963 8.93828 4.29761 8.84498C4.3911 8.746 4.50499 8.66855 4.6314 8.61798C4.75781 8.56742 4.89371 8.54496 5.02966 8.55215C5.1629 8.55219 5.29477 8.57888 5.41753 8.63065C5.5403 8.68242 5.65147 8.75822 5.7445 8.85359L7.27751 10.3866L12.2469 5.43445C12.3356 5.33526 12.4445 5.25626 12.5663 5.20278C12.6882 5.14929 12.8201 5.12256 12.9531 5.1244C13.0912 5.12307 13.228 5.14987 13.3554 5.20317C13.4827 5.25648 13.5979 5.33517 13.6938 5.43445C13.7907 5.52839 13.8677 5.64083 13.9203 5.7651C13.9729 5.88937 14 6.02295 14 6.15789C14 6.29284 13.9729 6.42642 13.9203 6.55069C13.8677 6.67496 13.7907 6.7874 13.6938 6.88134L13.7024 6.88995Z" fill="#884F56"/>
</svg>
