<svg width="77" height="20" viewBox="0 0 77 20" fill="none" xmlns="http://www.w3.org/2000/svg">
<g clip-path="url(#clip0_1_49392)">
<path d="M8.67887 9.36144C8.67887 8.19304 7.8078 7.37186 6.73783 7.37186C5.66784 7.37186 4.79678 8.20688 4.79678 9.36144C4.79678 10.5022 5.66784 11.3511 6.73783 11.3511C7.80888 11.35 8.67887 10.5298 8.67887 9.36144ZM8.69416 12.839V11.9347C8.16627 12.561 7.38046 12.9498 6.43945 12.9498C4.4842 12.9498 3 11.4192 3 9.36144C3 7.31646 4.54103 5.75928 6.48317 5.75928C7.39688 5.75928 8.16739 6.14911 8.69524 6.76047V5.88389H10.4505V12.839H8.69416Z" fill="white"/>
<path d="M18.9768 11.2946C18.3626 11.2946 18.1921 11.072 18.1921 10.4883V7.40056H19.32V5.88388H18.1921V4.18717H16.3931V5.88388H14.0761V5.46103C14.0761 4.87629 14.3045 4.65368 14.933 4.65368H15.3275V3.3042H14.4619C12.9777 3.3042 12.2782 3.7771 12.2782 5.22351V5.88281H11.2793V7.39952H12.2782V12.8379H14.0772V7.39952H16.3942V10.8078C16.3942 12.2265 16.9505 12.839 18.4063 12.839H19.3342V11.2946H18.9768Z" fill="white"/>
<path d="M25.4281 8.73527C25.3002 7.83097 24.5428 7.28883 23.6586 7.28883C22.7733 7.28883 22.0455 7.81714 21.8608 8.73527H25.4281ZM21.8455 9.8206C21.9744 10.8495 22.7307 11.4342 23.6871 11.4342C24.4434 11.4342 25.0292 11.0859 25.3712 10.5299H27.2128C26.7844 12.0041 25.4281 12.9499 23.6445 12.9499C21.4892 12.9499 19.9766 11.4758 19.9766 9.37537C19.9766 7.27499 21.5755 5.7583 23.6881 5.7583C25.815 5.7583 27.356 7.28887 27.356 9.37537C27.356 9.52877 27.3418 9.68108 27.3134 9.8206H21.8455Z" fill="white"/>
<path d="M38.7933 9.36144C38.7933 8.23455 37.9222 7.37186 36.8522 7.37186C35.7822 7.37186 34.9111 8.20688 34.9111 9.36144C34.9111 10.5022 35.7822 11.3511 36.8522 11.3511C37.9222 11.35 38.7933 10.4883 38.7933 9.36144ZM33.1406 5.88389H34.8958V6.78816C35.4237 6.14804 36.2085 5.75928 37.1506 5.75928C39.0774 5.75928 40.59 7.30367 40.59 9.3476C40.59 11.3926 39.049 12.9508 37.108 12.9508C36.2085 12.9508 35.4664 12.6026 34.9527 12.0189V15.701H33.1406V5.88389Z" fill="white"/>
<path d="M46.9171 9.36144C46.9171 8.19304 46.0472 7.37186 44.976 7.37186C43.9061 7.37186 43.035 8.20688 43.035 9.36144C43.035 10.5022 43.9061 11.3511 44.976 11.3511C46.0472 11.35 46.9171 10.5298 46.9171 9.36144ZM46.9325 12.839V11.9347C46.4046 12.561 45.6186 12.9498 44.6776 12.9498C42.7224 12.9498 41.2383 11.4192 41.2383 9.36144C41.2383 7.31646 42.7793 5.75928 44.7204 5.75928C45.634 5.75928 46.4046 6.14911 46.9325 6.76047V5.88389H48.6879V12.839H46.9325Z" fill="white"/>
<path d="M29.9759 6.56556C29.9759 6.56556 30.423 5.75928 31.5169 5.75928C31.9847 5.75928 32.2875 5.91584 32.2875 5.91584V7.69031C32.2875 7.69031 31.6273 7.29302 31.0208 7.3729C30.4142 7.45279 30.0306 7.99598 30.0328 8.72239V12.8401H28.2207V5.88496H29.9759V6.56556Z" fill="white"/>
<path d="M56.8855 5.88403L52.4537 15.6787H50.5849L52.3249 11.8923L49.3828 5.88403H51.501L53.2223 9.8984L54.9884 5.88403H56.8855Z" fill="white"/>
<path d="M71.0326 5.72634L66.639 3.25531C65.3492 2.52997 63.7373 3.43638 63.7373 4.88811V5.1416C63.7373 5.3706 63.8628 5.58255 64.0661 5.69652L64.8957 6.16303C65.1393 6.30044 65.4432 6.12895 65.4432 5.85522V5.22468C65.4432 4.90941 65.7931 4.71237 66.0729 4.87L69.8783 7.01086C70.1584 7.16849 70.1584 7.56258 69.8783 7.71917L66.0729 9.86002C65.7931 10.0177 65.4432 9.8206 65.4432 9.50533V9.1698C65.4432 7.71808 63.8312 6.81062 62.5406 7.537L58.147 10.008C56.8572 10.7334 56.8572 12.5483 58.147 13.2736L62.5406 15.7447C63.83 16.47 65.4432 15.5636 65.4432 14.1119V13.8584C65.4432 13.6294 65.3176 13.4185 65.1144 13.3035L64.2847 12.8359C64.0411 12.6985 63.7373 12.87 63.7373 13.1437V13.7743C63.7373 14.0895 63.3877 14.2866 63.1076 14.1289L59.3022 11.9881C59.0224 11.8304 59.0224 11.4364 59.3022 11.2787L63.1076 9.13784C63.3877 8.98021 63.7373 9.17726 63.7373 9.49253V9.82806C63.7373 11.2798 65.3492 12.1873 66.639 11.4609L71.0326 8.98981C72.3224 8.26659 72.3224 6.45168 71.0326 5.72634Z" fill="white"/>
</g>
<defs>
<clipPath id="clip0_1_49392">
<rect width="69" height="13" fill="white" transform="translate(3 3)"/>
</clipPath>
</defs>
</svg>
