<svg width="66" height="20" viewBox="0 0 66 20" fill="none" xmlns="http://www.w3.org/2000/svg">
<g clip-path="url(#clip0_1_49387)">
<path d="M9.63324 4.77067C10.0406 4.27524 10.3315 3.61467 10.2442 2.9541C9.63324 2.98163 8.9059 3.33943 8.46949 3.80734C8.09127 4.2202 7.74214 4.90829 7.82942 5.54134C8.52768 5.62391 9.19684 5.2661 9.63324 4.77067ZM10.2442 5.70648C9.25502 5.65143 8.4113 6.22943 7.9458 6.22943C7.48029 6.22943 6.75294 5.734 5.96741 5.734C4.94912 5.76153 4.01811 6.28448 3.49442 7.16524C2.44704 8.89924 3.20348 11.459 4.25087 12.8627C4.74546 13.5508 5.35644 14.3214 6.14197 14.2939C6.89841 14.2664 7.18935 13.826 8.09127 13.826C8.99318 13.826 9.25502 14.2939 10.0697 14.2664C10.8843 14.2389 11.408 13.5783 11.9026 12.8627C12.4845 12.0645 12.7172 11.2938 12.7172 11.2663C12.6881 11.2388 11.117 10.6883 11.117 8.98181C11.0879 7.55057 12.339 6.86248 12.3972 6.83495C11.728 5.8441 10.6224 5.734 10.2442 5.70648Z" fill="white"/>
<path d="M18.7974 3.7522C20.9503 3.7522 22.4341 5.15591 22.4341 7.16515C22.4341 9.20191 20.9212 10.6056 18.7392 10.6056H16.3826V14.1562H14.666V3.7522H18.7974ZM16.3826 9.25695H18.3319C19.8156 9.25695 20.6594 8.48629 20.6594 7.19267C20.6594 5.87153 19.8156 5.12839 18.3319 5.12839H16.3535V9.25695H16.3826ZM22.8705 12.0369C22.8705 10.7157 23.947 9.89 25.8672 9.7799L28.0783 9.66981V9.09181C28.0783 8.23857 27.4673 7.74315 26.4782 7.74315C25.5181 7.74315 24.9362 8.18353 24.7907 8.8441H23.2196C23.3069 7.46791 24.558 6.44953 26.5363 6.44953C28.4856 6.44953 29.7367 7.41286 29.7367 8.95419V14.1837H28.1656V12.9451H28.1365C27.671 13.7984 26.6527 14.3213 25.6053 14.3213C23.9761 14.3213 22.8705 13.3855 22.8705 12.0369ZM28.0783 11.3488V10.7432L26.0999 10.8533C25.1107 10.9084 24.558 11.3212 24.558 11.9818C24.558 12.6424 25.1398 13.0828 26.0126 13.0828C27.1764 13.0828 28.0783 12.3396 28.0783 11.3488ZM31.1914 16.9911V15.725C31.3077 15.7526 31.5987 15.7526 31.7151 15.7526C32.4715 15.7526 32.8788 15.4498 33.1407 14.6791C33.1407 14.6516 33.2861 14.2112 33.2861 14.2112L30.3767 6.61467H32.1515L34.188 12.8075H34.2171L36.2537 6.61467H37.9994L35.0027 14.6241C34.3044 16.4682 33.5189 17.0462 31.8605 17.0462C31.7442 17.0187 31.3368 17.0187 31.1914 16.9911Z" fill="white"/>
</g>
<defs>
<clipPath id="clip0_1_49387">
<rect width="35" height="14" fill="white" transform="translate(3 3)"/>
</clipPath>
</defs>
</svg>
