<svg width="66" height="20" viewBox="0 0 66 20" fill="none" xmlns="http://www.w3.org/2000/svg">
<g clip-path="url(#clip0_1_49378)">
<path d="M20.4832 9.5V13.7961H19.0957V3.17139H22.7032C23.582 3.17139 24.4145 3.49475 25.062 4.09527C25.7095 4.6496 26.0332 5.4811 26.0332 6.35879C26.0332 7.23648 25.7095 8.02178 25.062 8.6223C24.4145 9.22283 23.6282 9.54619 22.7032 9.54619L20.4832 9.5ZM20.4832 4.46483V8.16036H22.7957C23.3045 8.16036 23.8132 7.97559 24.137 7.60603C24.877 6.91312 24.877 5.75826 24.1832 5.06535L24.137 5.01916C23.767 4.6496 23.3045 4.41863 22.7957 4.46483H20.4832Z" fill="white"/>
<path d="M29.2245 6.31299C30.242 6.31299 31.0282 6.59015 31.6295 7.14448C32.2307 7.69882 32.5082 8.43792 32.5082 9.36181V13.7965H31.2132V12.7802H31.167C30.612 13.6117 29.8257 14.0274 28.9007 14.0274C28.1145 14.0274 27.4207 13.7965 26.8657 13.3345C26.357 12.8726 26.0332 12.2258 26.0332 11.5329C26.0332 10.7938 26.3107 10.1933 26.8657 9.73136C27.4207 9.26942 28.207 9.08464 29.132 9.08464C29.9645 9.08464 30.612 9.22322 31.1207 9.54658V9.22322C31.1207 8.76128 30.9357 8.29934 30.5657 8.02217C30.1957 7.69881 29.7332 7.51404 29.2245 7.51404C28.4382 7.51404 27.837 7.8374 27.4207 8.48412L26.2182 7.74501C26.9582 6.77493 27.9295 6.31299 29.2245 6.31299ZM27.467 11.5791C27.467 11.9487 27.652 12.272 27.9295 12.4568C28.2532 12.6878 28.6232 12.8264 28.9932 12.8264C29.5482 12.8264 30.1032 12.5954 30.5195 12.1797C30.982 11.7639 31.2132 11.2558 31.2132 10.7014C30.797 10.3781 30.1957 10.1933 29.4095 10.1933C28.8545 10.1933 28.392 10.3319 28.022 10.6091C27.652 10.84 27.467 11.1634 27.467 11.5791Z" fill="white"/>
<path d="M39.9995 6.5437L35.4208 17.0298H34.0333L35.7445 13.3804L32.7383 6.5899H34.2183L36.392 11.8098H36.4383L38.5658 6.5899H39.9995V6.5437Z" fill="white"/>
<path d="M14.9792 8.57659C14.9792 8.16084 14.933 7.74509 14.8867 7.32935H9.10547V9.68525H12.3892C12.2505 10.4244 11.8342 11.1173 11.1867 11.533V13.0574H13.1755C14.3317 11.995 14.9792 10.4244 14.9792 8.57659Z" fill="white"/>
<path d="M9.10594 14.5353C10.7709 14.5353 12.1584 13.981 13.1759 13.0571L11.1872 11.5327C10.6322 11.9022 9.93844 12.1332 9.10594 12.1332C7.53344 12.1332 6.14594 11.0707 5.68344 9.59253H3.64844V11.1631C4.71219 13.2419 6.79344 14.5353 9.10594 14.5353Z" fill="white"/>
<path d="M5.68234 9.59253C5.40484 8.85342 5.40484 8.02192 5.68234 7.23662V5.66602H3.64734C2.76859 7.3752 2.76859 9.40775 3.64734 11.1631L5.68234 9.59253Z" fill="white"/>
<path d="M9.10461 4.74199C9.98336 4.74199 10.8159 5.06535 11.4634 5.66587L13.2209 3.91049C12.1109 2.89422 10.6309 2.29369 9.15086 2.33989C6.83836 2.33989 4.71086 3.63333 3.69336 5.71207L5.72836 7.28267C6.14461 5.80445 7.53211 4.74199 9.10461 4.74199Z" fill="white"/>
</g>
<defs>
<clipPath id="clip0_1_49378">
<rect width="37" height="16" fill="white" transform="translate(3 2)"/>
</clipPath>
</defs>
</svg>
