<svg width="66" height="20" viewBox="0 0 66 20" fill="none" xmlns="http://www.w3.org/2000/svg">
<path d="M11.0404 2.5C12.5768 2.5 14.0009 2.95841 15.1891 3.7377C13.5093 5.28212 12.44 7.49526 12.44 9.96392C12.44 12.4283 13.5038 14.6585 15.1859 16.1922C13.9983 16.9703 12.5754 17.4278 11.0404 17.4278C6.8677 17.4278 3.5 14.0853 3.5 9.96392C3.5 5.84249 6.8677 2.5 11.0404 2.5Z" stroke="white"/>
<path d="M28.5 9.96392C28.5 14.0853 25.1323 17.4278 20.9596 17.4278C19.4244 17.4278 18.0012 16.9701 16.8135 16.1919C18.5113 14.6439 19.56 12.431 19.56 9.96392C19.56 7.49508 18.4906 5.2818 16.8105 3.73737C17.9967 2.95838 19.4207 2.5 20.957 2.5C25.1315 2.5 28.5 5.86485 28.5 9.96392Z" stroke="white"/>
</svg>
