<svg width="66" height="20" viewBox="0 0 66 20" fill="none" xmlns="http://www.w3.org/2000/svg">
<g clip-path="url(#clip0_1_49356)">
<path d="M24.9871 6.30371H21.7331C21.5104 6.30371 21.321 6.47014 21.2863 6.6963L19.9702 15.2808C19.944 15.4502 20.0716 15.6029 20.2386 15.6029H21.7921C22.0148 15.6029 22.2041 15.4365 22.2389 15.2099L22.5938 12.8945C22.6281 12.6678 22.8179 12.5014 23.0401 12.5014H24.0702C26.2137 12.5014 27.4508 11.4343 27.7739 9.31958C27.9195 8.39441 27.7801 7.66749 27.359 7.1584C26.8965 6.59938 26.0762 6.30371 24.9871 6.30371ZM25.3625 9.43903C25.1846 10.6403 24.2924 10.6403 23.4298 10.6403H22.9388L23.2833 8.39686C23.3037 8.26126 23.4179 8.1614 23.5511 8.1614H23.7762C24.3638 8.1614 24.9181 8.1614 25.2046 8.50602C25.3754 8.71161 25.4277 9.01707 25.3625 9.43903Z" fill="white"/>
<path d="M13.3505 6.50055C13.2605 6.47362 13.1677 6.44915 13.0726 6.42712C12.9769 6.40558 12.8789 6.38649 12.7781 6.36985C12.425 6.31111 12.0382 6.2832 11.6238 6.2832H8.12563C8.0395 6.2832 7.95767 6.30327 7.88439 6.3395C7.72309 6.41929 7.60319 6.57642 7.57417 6.7688L6.83001 11.6179L6.80859 11.7594C6.8576 11.4402 7.12263 11.2052 7.43713 11.2052H8.74655C11.3183 11.2052 13.3319 10.1308 13.9205 7.02236C13.9381 6.93034 13.9528 6.84076 13.9662 6.75313C13.8172 6.67187 13.6559 6.60236 13.4823 6.54313C13.4394 6.52845 13.3952 6.51425 13.3505 6.50055Z" fill="white"/>
<path d="M34.714 9.40028H33.1557C33.023 9.40028 32.9083 9.50014 32.8878 9.63574L32.8188 10.0841L32.7099 9.92161C32.3725 9.4179 31.6203 9.24951 30.8695 9.24951C29.1475 9.24951 27.6768 10.5913 27.3904 12.4734C27.2414 13.4123 27.4532 14.3101 27.9708 14.9362C28.4457 15.5118 29.1252 15.7517 29.9336 15.7517C31.321 15.7517 32.0904 14.8338 32.0904 14.8338L32.0209 15.2793C31.9947 15.4497 32.1223 15.6024 32.2883 15.6024H33.6919C33.9151 15.6024 34.1035 15.4359 34.1387 15.2093L34.9809 9.72238C35.0075 9.5535 34.8805 9.40028 34.714 9.40028ZM32.5419 12.5204C32.3916 13.4363 31.685 14.0511 30.7838 14.0511C30.3313 14.0511 29.9697 13.9018 29.7375 13.6189C29.5072 13.3379 29.4197 12.938 29.493 12.4925C29.6333 11.5845 30.3518 10.9496 31.2392 10.9496C31.6817 10.9496 32.0414 11.1008 32.2783 11.3862C32.5158 11.6745 32.61 12.0769 32.5419 12.5204Z" fill="white"/>
<path d="M43.0141 9.40039H41.4482C41.2988 9.40039 41.1584 9.47675 41.0737 9.60452L38.914 12.8774L37.9986 9.73228C37.941 9.5355 37.7645 9.40039 37.5646 9.40039H36.0259C35.8389 9.40039 35.709 9.58836 35.7685 9.76948L37.4933 14.9769L35.8717 17.3319C35.7442 17.5175 35.8727 17.7725 36.093 17.7725H37.657C37.8054 17.7725 37.9443 17.6981 38.0286 17.5728L43.2367 9.8385C43.3614 9.65347 43.2334 9.40039 43.0141 9.40039Z" fill="white"/>
<path d="M48.1981 6.30371H44.9435C44.7213 6.30371 44.532 6.47014 44.4972 6.6963L43.1812 15.2808C43.155 15.4502 43.2825 15.6029 43.4486 15.6029H45.1186C45.2737 15.6029 45.4065 15.4864 45.4308 15.3278L45.8043 12.8945C45.8385 12.6678 46.0284 12.5014 46.2506 12.5014H47.2802C49.4242 12.5014 50.6608 11.4343 50.9844 9.31958C51.1305 8.39441 50.9901 7.66749 50.569 7.1584C50.107 6.59938 49.2872 6.30371 48.1981 6.30371ZM48.5735 9.43903C48.396 10.6403 47.5039 10.6403 46.6407 10.6403H46.1502L46.4951 8.39686C46.5156 8.26126 46.6288 8.1614 46.7625 8.1614H46.9876C47.5747 8.1614 48.1295 8.1614 48.416 8.50602C48.5868 8.71161 48.6387 9.01707 48.5735 9.43903Z" fill="white"/>
<path d="M57.9248 9.40028H56.3675C56.2338 9.40028 56.1201 9.50014 56.1001 9.63574L56.0311 10.0841L55.9217 9.92161C55.5843 9.4179 54.8326 9.24951 54.0817 9.24951C52.3598 9.24951 50.8896 10.5913 50.6031 12.4734C50.4547 13.4123 50.6655 14.3101 51.1831 14.9362C51.6589 15.5118 52.3374 15.7517 53.1458 15.7517C54.5333 15.7517 55.3027 14.8338 55.3027 14.8338L55.2332 15.2793C55.207 15.4497 55.3345 15.6024 55.5016 15.6024H56.9047C57.1269 15.6024 57.3163 15.4359 57.351 15.2093L58.1937 9.72238C58.2194 9.5535 58.0918 9.40028 57.9248 9.40028ZM55.7528 12.5204C55.6034 13.4363 54.8959 14.0511 53.9947 14.0511C53.5431 14.0511 53.1806 13.9018 52.9484 13.6189C52.7181 13.3379 52.6315 12.938 52.7038 12.4925C52.8451 11.5845 53.5626 10.9496 54.45 10.9496C54.8925 10.9496 55.2522 11.1008 55.4892 11.3862C55.7276 11.6745 55.8218 12.0769 55.7528 12.5204Z" fill="white"/>
<path d="M59.7609 6.53917L58.4253 15.2808C58.3991 15.4502 58.5266 15.6029 58.6927 15.6029H60.0354C60.2586 15.6029 60.4479 15.4365 60.4822 15.2099L61.7992 6.62581C61.8254 6.45644 61.6979 6.30322 61.5318 6.30322H60.0283C59.8955 6.30371 59.7813 6.40357 59.7609 6.53917Z" fill="white"/>
<path d="M6.45629 17.2712L6.70513 15.645L6.15082 15.6318H3.50391L5.34337 3.63241C5.34908 3.59619 5.36764 3.56241 5.39476 3.53842C5.42188 3.51444 5.45662 3.50122 5.49278 3.50122H9.95584C11.4375 3.50122 12.46 3.81842 12.9939 4.44451C13.2441 4.73821 13.4035 5.04514 13.4806 5.3829C13.5615 5.7373 13.5629 6.16073 13.4839 6.67716L13.4782 6.71486V7.04577L13.7285 7.19164C13.9393 7.30668 14.1068 7.43835 14.2352 7.58912C14.4494 7.84024 14.5878 8.1594 14.6463 8.53779C14.7068 8.92695 14.6868 9.39003 14.5878 9.9143C14.4736 10.5174 14.289 11.0426 14.0397 11.4724C13.8103 11.8684 13.5182 12.1969 13.1713 12.4514C12.8402 12.6932 12.4467 12.8768 12.0018 12.9943C11.5707 13.1098 11.0792 13.1681 10.5401 13.1681H10.1928C9.94442 13.1681 9.70319 13.2601 9.51382 13.4251C9.32397 13.5935 9.19836 13.8235 9.15982 14.0751L9.13365 14.2215L8.694 17.0876L8.67402 17.1928C8.66879 17.2261 8.65975 17.2428 8.64642 17.254C8.63453 17.2643 8.6174 17.2712 8.60074 17.2712H6.45629Z" fill="white"/>
<path d="M14.2896 7.66592C13.9339 9.02984 13.2777 10.0219 12.3735 10.6832C11.3608 11.4239 10.0978 11.7053 8.74765 11.7053H7.43823C7.38294 11.7053 7.31742 11.7477 7.30392 11.8351L14.2896 7.66592ZM14.2896 7.66592C14.6619 8.16554 14.7688 8.90302 14.577 9.9164C14.3379 11.1796 13.8233 11.9708 13.1606 12.4555C12.4889 12.9469 11.6027 13.169 10.5419 13.169H10.1946C9.66486 13.169 9.23109 13.5614 9.14953 14.0717L9.12241 14.223L9.12226 14.223L9.12034 14.2355L8.68436 17.0819L8.66309 17.195L8.66161 17.2029L8.66038 17.2108C8.6532 17.2571 8.62015 17.2721 8.60253 17.2721H6.47081L6.63351 16.2094L6.63352 16.2093L7.3039 11.8353L14.2896 7.66592Z" fill="white" stroke="#DDDDDD"/>
<path d="M7.5744 6.76874C7.60342 6.57636 7.72332 6.41923 7.88462 6.33993C7.95837 6.30371 8.03974 6.28364 8.12586 6.28364H11.624C12.0384 6.28364 12.4252 6.31154 12.7783 6.37028C12.8792 6.38692 12.9772 6.40601 13.0728 6.42755C13.168 6.44958 13.2608 6.47406 13.3507 6.50098C13.3954 6.51469 13.4397 6.52888 13.483 6.54308C13.6566 6.60231 13.8179 6.67231 13.9669 6.75308C14.142 5.6042 13.9654 4.82196 13.3616 4.11364C12.696 3.33385 11.4946 3 9.95724 3H5.49417C5.18014 3 4.91226 3.23497 4.86373 3.55462L3.00475 15.6773C2.96812 15.9172 3.14797 16.1336 3.38302 16.1336H6.13841L6.83024 11.6178L7.5744 6.76874Z" fill="white"/>
</g>
<defs>
<clipPath id="clip0_1_49356">
<rect width="59" height="15" fill="white" transform="translate(3 3)"/>
</clipPath>
</defs>
</svg>
