<svg width="77" height="20" viewBox="0 0 77 20" fill="none" xmlns="http://www.w3.org/2000/svg">
<g clip-path="url(#clip0_1_49402)">
<mask id="mask0_1_49402" style="mask-type:luminance" maskUnits="userSpaceOnUse" x="3" y="4" width="49" height="13">
<path d="M52 4.00317H3V16.0004H52V4.00317Z" fill="white"/>
</mask>
<g mask="url(#mask0_1_49402)">
<path d="M15.5524 7.77448C15.1594 6.93398 14.4144 6.39105 13.2916 6.39105C12.947 6.39717 12.6084 6.48393 12.3019 6.64457C11.9954 6.80523 11.7292 7.03552 11.5238 7.31768L11.4828 7.36857V4.07447C11.4828 4.05543 11.4754 4.03717 11.4622 4.02371C11.449 4.01025 11.431 4.00269 11.4124 4.00269H9.82498C9.80654 4.00303 9.78897 4.01074 9.77604 4.02417C9.7631 4.03759 9.75586 4.05565 9.75586 4.07447V13.5235C9.75586 13.5422 9.76316 13.5601 9.77612 13.5733C9.78908 13.5866 9.80665 13.594 9.82498 13.594H11.525C11.5435 13.594 11.5612 13.5866 11.5744 13.5734C11.5875 13.5602 11.5951 13.5423 11.5954 13.5235V9.49462C11.5954 8.71156 12.1075 8.15687 12.9268 8.15687C13.8229 8.15687 14.0495 8.90862 14.0495 9.67471V13.5235C14.0495 13.5422 14.0568 13.5601 14.0697 13.5733C14.0827 13.5866 14.1003 13.594 14.1186 13.594H15.8148C15.8333 13.594 15.851 13.5866 15.8642 13.5734C15.8773 13.5602 15.8849 13.5423 15.8853 13.5235V9.44502C15.8853 9.30538 15.8853 9.16833 15.8673 9.03522C15.8382 8.59898 15.7315 8.17177 15.5524 7.77448Z" fill="white"/>
<path d="M7.06453 9.17495C7.06453 9.17495 6.19914 8.96743 5.88039 8.8839C5.56162 8.80038 5.00476 8.62288 5.00476 8.19349C5.00476 7.76411 5.45409 7.62706 5.90983 7.62706C6.36556 7.62706 6.87251 7.73931 6.91219 8.25483C6.91379 8.27342 6.92218 8.29068 6.93569 8.30327C6.9492 8.31584 6.96686 8.32276 6.98515 8.3227L8.66087 8.31618C8.67073 8.3162 8.68049 8.31415 8.68954 8.31016C8.69859 8.30617 8.70672 8.30031 8.71345 8.29295C8.72019 8.28562 8.72536 8.27693 8.72864 8.26745C8.73192 8.25796 8.73327 8.24789 8.73256 8.23786C8.62887 6.5882 7.20918 5.99829 5.89958 5.99829C4.34676 5.99829 3.21127 7.04238 3.21127 8.19349C3.21127 9.03399 3.44426 9.82229 5.27614 10.3704C5.59747 10.4657 6.034 10.5897 6.41549 10.698C6.87378 10.8285 7.12085 11.0256 7.12085 11.3362C7.12085 11.6964 6.60879 11.947 6.10569 11.947C5.37729 11.947 4.8601 11.6716 4.81786 11.177C4.81566 11.1589 4.80702 11.1422 4.79356 11.1302C4.78011 11.1182 4.76279 11.1116 4.74489 11.1117L3.07301 11.1196C3.06321 11.1196 3.05351 11.1216 3.04449 11.1255C3.03546 11.1294 3.0273 11.1351 3.02049 11.1423C3.01368 11.1494 3.00836 11.158 3.00485 11.1673C3.00133 11.1766 2.9997 11.1866 3.00004 11.1966C3.07685 12.7536 4.55159 13.5928 5.92648 13.5928C7.97472 13.5928 8.90026 12.4182 8.90026 11.3179C8.90283 10.8011 8.78632 9.6239 7.06453 9.17495Z" fill="white"/>
<path d="M28.622 6.38858C27.7708 6.38858 27.0576 6.86886 26.5981 7.44835V6.45645C26.5981 6.43798 26.5909 6.42024 26.5782 6.40707C26.5657 6.39389 26.5484 6.38631 26.5302 6.38599H24.9403C24.9221 6.38599 24.9043 6.39339 24.8914 6.40661C24.8785 6.41983 24.8711 6.43777 24.8711 6.45645V15.7228C24.8715 15.7412 24.879 15.7589 24.892 15.7717C24.9049 15.7847 24.9223 15.792 24.9403 15.792H26.6417C26.6596 15.792 26.6768 15.7847 26.6896 15.7717C26.7023 15.7588 26.7094 15.7411 26.7094 15.7228V12.6766H26.7351C27.0051 13.0969 27.7438 13.6007 28.7091 13.6007C30.5242 13.6007 32.0374 12.0658 32.0374 9.99202C32.0388 8.00172 30.5333 6.38858 28.622 6.38858ZM28.4645 11.8348C28.1063 11.8439 27.7532 11.7439 27.4509 11.5476C27.1487 11.3513 26.9104 11.0677 26.7668 10.7328C26.6234 10.3979 26.5809 10.027 26.6452 9.66744C26.7092 9.30788 26.8771 8.97596 27.127 8.71406C27.3771 8.45212 27.6979 8.27208 28.0488 8.19691C28.3995 8.12174 28.7643 8.15482 29.0965 8.29196C29.4289 8.42909 29.7134 8.66405 29.9142 8.96685C30.1149 9.26967 30.2225 9.62655 30.2235 9.99202C30.2272 10.2309 30.1845 10.4682 30.0981 10.6902C30.0117 10.9123 29.883 11.1148 29.7196 11.286C29.5562 11.4572 29.3612 11.5939 29.1457 11.688C28.9304 11.7822 28.6989 11.8321 28.4645 11.8348Z" fill="white"/>
<path d="M19.8363 5.98145C18.2502 5.98145 17.459 6.5309 16.824 6.97073L16.8048 6.98377C16.7721 7.00662 16.7491 7.04124 16.7402 7.08068C16.7315 7.12013 16.7376 7.16148 16.7575 7.19651L17.3847 8.29801C17.3965 8.31863 17.4126 8.33635 17.4318 8.34988C17.4511 8.36342 17.473 8.37245 17.4962 8.37633C17.5187 8.38049 17.5419 8.37948 17.564 8.37338C17.5862 8.36728 17.6067 8.35628 17.6242 8.34108L17.674 8.29933C18.0005 8.02003 18.5241 7.64676 19.7914 7.54496C20.4968 7.48756 21.1062 7.67548 21.5554 8.10356C22.0496 8.56819 22.3454 9.31863 22.3454 10.1108C22.3454 11.5687 21.503 12.4848 20.1499 12.5031C19.0348 12.4966 18.2859 11.9041 18.2859 11.0283C18.2859 10.5637 18.492 10.2609 18.8941 9.95813C18.9247 9.93575 18.9464 9.90281 18.9551 9.86538C18.9639 9.82796 18.959 9.78858 18.9414 9.75454L18.3781 8.66867C18.3678 8.64924 18.3537 8.63209 18.3368 8.61821C18.3199 8.60432 18.3004 8.59397 18.2796 8.58776C18.2582 8.58129 18.2359 8.57946 18.2138 8.58237C18.1917 8.58529 18.1705 8.59291 18.1515 8.60474C17.5192 8.98713 16.7434 9.68667 16.7856 11.0309C16.8368 12.7419 18.2322 14.0484 20.0461 14.1019H20.1371H20.2612C22.4169 14.0301 23.9736 12.3987 23.9736 10.1865C23.9736 8.15576 22.5219 5.98145 19.8363 5.98145Z" fill="white"/>
<path d="M38.7428 7.02539H37.6622C37.637 7.02573 37.6127 7.03615 37.5948 7.05442C37.5767 7.07271 37.5665 7.09741 37.5664 7.12328V9.43463C37.5665 9.46037 37.5768 9.48492 37.5949 9.50299C37.6128 9.52107 37.637 9.53122 37.6622 9.53122H38.7428C39.4008 9.53122 39.886 9.00264 39.886 8.2783C39.886 7.55396 39.4008 7.02539 38.7428 7.02539Z" fill="white"/>
<path d="M42.0605 11.1143C42.0605 11.4498 42.3383 11.6364 42.8222 11.6364C43.4802 11.6364 43.8692 11.2736 43.8692 10.6301V10.4448L42.8837 10.497C42.3638 10.5231 42.0605 10.7437 42.0605 11.1143Z" fill="white"/>
<path d="M50.0619 4.02369H35.545C35.307 4.02369 35.071 4.07154 34.8511 4.16449C34.631 4.25745 34.4312 4.39369 34.2629 4.56543C34.0945 4.73718 33.961 4.94106 33.87 5.16543C33.7788 5.3898 33.7322 5.63025 33.7324 5.87305V13.9752C33.7324 14.4655 33.9233 14.9357 34.2633 15.2824C34.6032 15.6292 35.0643 15.8242 35.545 15.8245H50.0619C50.3004 15.8252 50.5367 15.778 50.7572 15.6856C50.9777 15.5931 51.1781 15.4572 51.3471 15.2857C51.5159 15.1141 51.6502 14.9104 51.7419 14.6859C51.8335 14.4615 51.8807 14.2209 51.8811 13.9778V5.87565C51.8815 5.63209 51.8348 5.39082 51.7436 5.16572C51.6523 4.94063 51.5183 4.73615 51.3493 4.56404C51.1803 4.39193 50.9795 4.25559 50.7586 4.16286C50.5377 4.07013 50.3009 4.02283 50.0619 4.02369ZM38.7965 10.441H37.6547C37.6293 10.441 37.605 10.4513 37.5868 10.4696C37.5689 10.488 37.5587 10.5129 37.5587 10.5389V12.1963C37.5587 12.2223 37.5486 12.2472 37.5306 12.2655C37.5126 12.2839 37.4882 12.2942 37.4628 12.2942H36.6587C36.6335 12.2939 36.6091 12.2835 36.5912 12.2652C36.5732 12.2469 36.5632 12.2222 36.5628 12.1963V6.21759C36.5628 6.19165 36.5729 6.16674 36.591 6.14838C36.609 6.13002 36.6333 6.11971 36.6587 6.11971H38.7965C40.0076 6.11971 40.8743 7.01894 40.8743 8.28099C40.8743 9.54304 40.014 10.4436 38.8031 10.4436L38.7965 10.441ZM44.8133 12.195C44.8136 12.208 44.8113 12.2209 44.8064 12.2329C44.8016 12.2449 44.7946 12.2559 44.7857 12.2651C44.7767 12.2743 44.7661 12.2817 44.7543 12.2866C44.7427 12.2916 44.73 12.2942 44.7173 12.2942H43.9582C43.9455 12.2942 43.9329 12.2916 43.9212 12.2866C43.9094 12.2817 43.8987 12.2743 43.8898 12.2651C43.881 12.2559 43.8738 12.2449 43.8692 12.2329C43.8644 12.2209 43.862 12.208 43.8623 12.195V12.0162C43.8634 12.0005 43.8598 11.9848 43.8515 11.9715C43.8434 11.9582 43.8313 11.9478 43.8168 11.9421C43.8025 11.9364 43.7867 11.9356 43.7718 11.9398C43.7567 11.9439 43.7437 11.9529 43.7342 11.9653C43.5076 12.2172 43.1389 12.3999 42.5513 12.3999C41.686 12.3999 41.1136 11.9405 41.1136 11.147C41.1053 10.9535 41.1445 10.761 41.2277 10.5869C41.3108 10.4127 41.4354 10.2625 41.59 10.1499C41.9023 9.91108 42.3861 9.7871 43.1043 9.75838L43.8659 9.73228V9.50517C43.8659 9.04708 43.5639 8.85262 43.0786 8.85262C42.5935 8.85262 42.2875 9.02751 42.216 9.31333C42.2102 9.33352 42.1981 9.35117 42.1813 9.36348C42.1647 9.37579 42.1444 9.38201 42.1237 9.38119H41.3723C41.3585 9.38155 41.3447 9.3788 41.332 9.37317C41.3195 9.36753 41.3081 9.35912 41.2989 9.34855C41.2898 9.33796 41.283 9.3255 41.2791 9.31196C41.2752 9.29843 41.2741 9.28421 41.2763 9.27026C41.389 8.5916 41.9394 8.07607 43.1134 8.07607C44.3602 8.07607 44.8095 8.6673 44.8095 9.79622L44.8133 12.195ZM49.5423 8.31621L47.8525 12.9115C47.4684 13.9791 46.7963 14.2532 46.0602 14.2532C45.9216 14.2567 45.7831 14.2395 45.6493 14.2023C45.6284 14.1966 45.6101 14.184 45.5967 14.1666C45.5837 14.1491 45.5765 14.1277 45.5763 14.1057V13.4075C45.5763 13.3929 45.5794 13.3784 45.5854 13.3652C45.5915 13.352 45.6003 13.3402 45.6113 13.3309C45.6224 13.3215 45.6352 13.3148 45.6491 13.3111C45.6629 13.3074 45.6774 13.3069 45.6915 13.3096C45.8076 13.332 45.9254 13.3434 46.0436 13.3435C46.2471 13.3539 46.4482 13.2944 46.6148 13.1744C46.781 13.0544 46.9032 12.881 46.9614 12.6818L47.0115 12.5213C47.0192 12.4998 47.0192 12.4762 47.0115 12.4547L45.4316 8.31753C45.4268 8.30274 45.4255 8.28698 45.4277 8.27157C45.4301 8.25614 45.4359 8.24148 45.4445 8.22878C45.4535 8.21607 45.4652 8.20567 45.4787 8.1984C45.4922 8.19114 45.5073 8.18723 45.5225 8.18701H46.2907C46.3103 8.18721 46.3294 8.19339 46.3456 8.2048C46.3619 8.21619 46.3744 8.23227 46.3815 8.25097L47.4544 11.1692C47.4615 11.1883 47.474 11.2047 47.4904 11.2163C47.507 11.2279 47.5264 11.2341 47.5465 11.2341C47.5664 11.2341 47.5861 11.2279 47.6025 11.2163C47.6189 11.2047 47.6316 11.1883 47.6386 11.1692L48.5694 8.2588C48.5756 8.23896 48.5879 8.22167 48.6045 8.20946C48.6211 8.19724 48.6409 8.19075 48.6614 8.19094H49.4489C49.464 8.19087 49.4789 8.19448 49.4927 8.2014C49.5062 8.20834 49.5181 8.21843 49.5272 8.23087C49.5363 8.24331 49.5423 8.25774 49.5449 8.27303C49.5476 8.28829 49.5467 8.30398 49.5423 8.31883V8.31621Z" fill="white"/>
</g>
</g>
<defs>
<clipPath id="clip0_1_49402">
<rect width="49" height="12" fill="white" transform="translate(3 4)"/>
</clipPath>
</defs>
</svg>
