<svg width="66" height="20" viewBox="0 0 66 20" fill="none" xmlns="http://www.w3.org/2000/svg">
<g clip-path="url(#clip0_1_49375)">
<path d="M20.584 8.50235C20.5646 10.0285 21.947 10.8802 22.9883 11.3865C24.0583 11.9061 24.4177 12.2393 24.4136 12.7038C24.4054 13.415 23.5601 13.7287 22.7688 13.741C21.3885 13.7624 20.586 13.3691 19.9479 13.0716L19.4507 15.3934C20.0909 15.6879 21.2762 15.9446 22.5054 15.9558C25.3907 15.9558 27.2784 14.5346 27.2886 12.331C27.2999 9.53438 23.412 9.37953 23.4386 8.12947C23.4478 7.75048 23.8102 7.34602 24.6045 7.24313C24.9976 7.19117 26.0829 7.15144 27.3131 7.71686L27.796 5.47043C27.1345 5.23 26.284 4.99975 25.2253 4.99975C22.5095 4.99975 20.5993 6.44032 20.584 8.50235ZM32.4363 5.19332C31.9095 5.19332 31.4654 5.49998 31.2673 5.97066L27.1457 15.7908H30.0289L30.6027 14.2086H34.126L34.4588 15.7908H37L34.7825 5.19332H32.4363ZM32.8396 8.05612L33.6717 12.0355H31.3929L32.8396 8.05612ZM17.0882 5.19332L14.8156 15.7908H17.563L19.8346 5.19332H17.0882ZM13.0238 5.19332L10.1641 12.4063L9.00733 6.27324C8.87154 5.58861 8.33554 5.19332 7.74032 5.19332H3.06534L3 5.501C3.9597 5.70883 5.05009 6.04401 5.71065 6.40263C6.11495 6.62167 6.23032 6.8132 6.36304 7.3338L8.55402 15.7908H11.4576L15.909 5.19332H13.0238Z" fill="white"/>
</g>
<defs>
<clipPath id="clip0_1_49375">
<rect width="34" height="11" fill="white" transform="translate(3 5)"/>
</clipPath>
</defs>
</svg>
