<svg width="16" height="16" viewBox="0 0 16 16" fill="none" xmlns="http://www.w3.org/2000/svg">
<g clip-path="url(#clip0_1_107599)">
<path d="M15.978 6.16468C15.9229 5.99495 15.7762 5.87129 15.5996 5.84563L10.6393 5.12481L8.42087 0.629949C8.3419 0.46994 8.17895 0.368652 8.0005 0.368652C7.82208 0.368652 7.65911 0.469971 7.58013 0.629949L5.36163 5.12484L0.401364 5.84563C0.224791 5.87129 0.0780949 5.99498 0.0229667 6.16468C-0.0321928 6.33438 0.0138099 6.52067 0.141567 6.64521L3.73078 10.144L2.8836 15.0844C2.85345 15.2603 2.92576 15.438 3.07012 15.5429C3.21444 15.6477 3.40576 15.6616 3.5638 15.5786L8.00047 13.246L12.437 15.5786C12.5056 15.6146 12.5805 15.6324 12.6551 15.6324C12.7523 15.6324 12.8491 15.6022 12.9307 15.5429C13.0751 15.438 13.1474 15.2603 13.1172 15.0844L12.2698 10.144L15.8594 6.64524C15.9872 6.52067 16.0332 6.33438 15.978 6.16468ZM11.4389 9.64464C11.3284 9.75233 11.2779 9.90753 11.3041 10.0596L12.0326 14.3067L8.21867 12.3015C8.0821 12.2297 7.91893 12.2297 7.78236 12.3015L3.96823 14.3067L4.69652 10.0596C4.72259 9.9075 4.67218 9.75236 4.56174 9.64467L1.47621 6.63687L5.74037 6.01717C5.89306 5.99498 6.02501 5.8991 6.09333 5.76075L8.00047 1.89659L9.90755 5.76072C9.97587 5.89907 10.1078 5.99498 10.2605 6.01717L14.5247 6.63684L11.4389 9.64464Z" fill="#50735F"/>
<path d="M11.4389 9.64464C11.3284 9.75233 11.2779 9.90753 11.3041 10.0596L12.0326 14.3067L8.21867 12.3015C8.0821 12.2297 7.91893 12.2297 7.78236 12.3015L3.96823 14.3067L4.69652 10.0596C4.72259 9.9075 4.67218 9.75236 4.56174 9.64467L1.47621 6.63687L5.74037 6.01717C5.89306 5.99498 6.02501 5.8991 6.09333 5.76075L8.00047 1.89659L9.90755 5.76072C9.97587 5.89907 10.1078 5.99498 10.2605 6.01717L14.5247 6.63684L11.4389 9.64464Z" fill="#50735F"/>
</g>
<defs>
<clipPath id="clip0_1_107599">
<rect width="16.001" height="16.001" fill="white"/>
</clipPath>
</defs>
</svg>
