<svg width="102" height="99" viewBox="0 0 102 99" fill="none" xmlns="http://www.w3.org/2000/svg">
<path d="M83.6443 53.5832C84.2577 52.0032 84.6855 50.3624 84.9199 48.6913C85.0096 48.4628 85.0954 48.2343 85.1813 48.0058C85.539 47.0405 85.8232 46.0515 86.0316 45.0467C86.257 43.9814 86.4069 42.9026 86.4802 41.8178C86.5441 40.7577 86.4667 39.694 86.2501 38.6527C86.0243 37.6177 85.6721 36.6118 85.2007 35.6561C84.3133 33.8875 83.0275 32.3304 81.4365 31.0975C79.8474 29.7932 78.0663 28.7216 76.1509 27.9174C75.3122 27.5428 74.458 27.2207 73.592 26.9248C72.4275 26.3598 71.2231 25.8741 69.9877 25.4714C68.5878 25.0158 67.1532 24.6652 65.6968 24.4226C65.1975 24.1355 64.6904 23.8658 64.1755 23.6135C60.528 21.8557 56.4995 20.9508 52.4185 20.9728H51.7007C49.5032 21.035 47.3202 21.3378 45.1942 21.8755C43.6157 22.2782 42.0716 22.7966 40.5757 23.4263C38.7726 23.8487 37.0138 24.4293 35.3213 25.1605C32.4556 26.3681 29.8191 28.0252 27.5197 30.0637C26.7854 30.7308 26.0924 31.4387 25.4445 32.1838C24.0765 33.7409 22.8791 35.4291 21.8714 37.2218L21.7739 37.3979C21.6374 37.5814 21.5008 37.7724 21.3838 37.956C20.2112 39.6538 19.2391 41.4717 18.4855 43.3761C17.7428 45.2524 17.2195 47.2022 16.9252 49.1895C16.5887 51.2693 16.4581 53.3751 16.5351 55.4785C16.6003 57.1797 16.8447 58.8702 17.2646 60.5241L17.2295 61.041C17.169 62.04 17.1912 63.042 17.2958 64.0376C17.3531 64.5887 17.4416 65.1364 17.561 65.6782C17.6636 66.1457 17.7938 66.6072 17.9511 67.0604C18.2868 68.0278 18.7124 68.9642 19.2227 69.8585C19.7294 70.7325 20.3295 71.5535 21.0132 72.3082C21.708 73.0473 22.4821 73.7139 23.3225 74.2972C23.9949 74.7857 24.7028 75.2275 25.4406 75.6194C25.979 76.0409 26.5402 76.4347 27.1219 76.7993C27.9461 77.3117 28.8063 77.7685 29.6964 78.1665C31.589 79.0437 33.6049 79.6506 35.6802 79.9682C39.0164 80.5438 42.4354 80.5133 45.7598 79.8783C46.8287 79.7172 47.8936 79.53 48.9507 79.3015C49.7699 79.1217 50.5825 78.9207 51.3887 78.6984C53.1375 78.59 54.8778 78.3799 56.6001 78.0691C58.721 77.6823 60.8077 77.1388 62.8414 76.4435C64.8645 75.8052 66.8145 74.9705 68.6614 73.9525C69.5546 73.4431 70.4108 72.8762 71.2242 72.2557C71.9948 71.6668 72.696 70.9986 73.315 70.263C73.9744 69.4875 74.5593 68.6563 75.0626 67.7796C75.3806 67.2219 75.6608 66.6451 75.9013 66.0528C76.9267 64.9242 77.8408 63.7066 78.6318 62.4157C78.9049 61.9662 79.1662 61.5055 79.412 61.0372C79.8957 60.4117 80.3599 59.7674 80.7968 59.1157C81.947 57.3734 82.9016 55.5189 83.6443 53.5832ZM83.9096 39.7727C83.9291 39.9375 83.9447 40.1023 83.9525 40.2671V40.2409C83.8706 39.6715 83.7731 39.1172 83.6443 38.5403C83.7559 38.9462 83.8444 39.3576 83.9096 39.7727ZM55.6717 23.666C56.3661 23.7634 57.0552 23.8882 57.7392 24.0406L57.2516 24.078C56.9161 24.1042 56.5807 24.138 56.2491 24.1754C55.742 24.0256 55.2349 23.887 54.7278 23.7559C54.3728 23.6622 54.0139 23.5798 53.659 23.5012C54.3299 23.5124 55.0008 23.5686 55.6717 23.6473V23.666ZM43.3999 25.8048C45.2981 25.5783 47.2154 25.5369 49.1223 25.6812C48.7986 25.7823 48.4787 25.8872 48.1588 25.9996C45.794 25.7914 43.4113 25.8707 41.0672 26.2356C41.8356 26.0371 42.6158 25.8947 43.3999 25.7861V25.8048ZM26.369 63.0113C26.4782 63.412 26.607 63.8053 26.7591 64.1949C26.5718 63.8803 26.3924 63.5619 26.2247 63.236C26.1662 62.9588 26.1154 62.6779 26.0725 62.3969C26.0062 61.8875 25.9672 61.3706 25.9399 60.8575C26.0367 61.577 26.18 62.29 26.369 62.9925V63.0113ZM23.2484 42.0351C22.8595 43.213 22.5404 44.411 22.2927 45.6235L22.2576 45.7022C22.1406 45.9007 22.0235 46.0992 21.9104 46.2978C21.7544 46.5675 21.6022 46.8371 21.4579 47.1106C21.571 46.4476 21.7037 45.7846 21.848 45.1291C22.0859 44.4548 22.359 43.7881 22.6282 43.1289C22.8232 42.6906 23.0182 42.2524 23.2328 41.8216L23.3537 41.6455C23.3381 41.7504 23.2952 41.8815 23.2523 42.0126L23.2484 42.0351ZM24.8945 49.9012C24.5942 50.8189 24.325 51.7515 24.1144 52.6917C24.1144 51.965 24.1443 51.2384 24.2041 50.5117C24.2314 50.4405 24.2626 50.3694 24.2938 50.2982C24.5668 49.6877 24.8555 49.0883 25.1676 48.5002C25.0947 48.9098 25.0284 49.3218 24.9686 49.7363C24.9335 49.7551 24.9179 49.8113 24.8984 49.8674L24.8945 49.9012ZM28.5222 73.9263C27.8001 73.6221 27.0968 73.2781 26.4158 72.8962C26.0367 72.5423 25.6799 72.167 25.347 71.7725C25.2729 71.6751 25.1988 71.5815 25.1286 71.4841L25.5967 71.7987C26.3173 72.2605 27.0797 72.6591 27.8747 72.9899C28.0658 73.1023 28.2648 73.2146 28.4637 73.3195C29.4084 73.809 30.3888 74.2321 31.3971 74.5856C32.0174 74.8103 32.6454 75.0088 33.2851 75.1886C31.6549 74.9204 30.0594 74.4846 28.5262 73.8889L28.5222 73.9263ZM45.6662 69.1805C44.4291 69.6684 43.1661 70.0935 41.8825 70.454C40.7007 70.7922 39.4982 71.0599 38.282 71.2556C37.5959 71.0762 36.9212 70.8586 36.2614 70.6039C35.2655 70.1853 34.322 69.6601 33.4489 69.0381C33.1954 68.8434 32.9457 68.6411 32.7078 68.4313L32.7351 68.4051C32.962 68.1877 33.0897 67.8926 33.0901 67.5848C33.0901 67.4799 33.0628 67.3788 33.0472 67.2739C32.9923 67.0804 32.8846 66.9045 32.7351 66.7645L32.6571 66.6746C32.1071 65.9254 31.5766 65.1351 31.0539 64.3522C30.6638 63.7566 30.2737 63.1573 29.8602 62.5693C29.4467 61.9812 29.0801 61.4455 28.7329 60.8387C28.6315 60.6589 28.5339 60.4641 28.4403 60.2993C28.2342 58.4629 28.2565 56.6095 28.5067 54.7781C28.8839 52.3169 29.581 49.9108 30.5819 47.6162C31.1306 46.3925 31.7559 45.2017 32.4543 44.0503C33.1456 42.9243 33.9076 41.8398 34.7362 40.8027C36.4433 38.71 38.408 36.8234 40.5874 35.1841C42.7781 33.5739 45.168 32.2302 47.7024 31.1837C48.4826 30.8815 49.2628 30.6056 50.0429 30.3559H50.1833C52.9196 30.7318 55.5949 31.4405 58.1449 32.4647C59.3998 32.9814 60.6216 33.5693 61.8038 34.2252L61.9754 34.4275C62.4643 35.0604 62.8778 35.7439 63.2081 36.4652C63.6562 37.5505 63.973 38.6816 64.1521 39.8364C64.3297 41.7955 64.255 43.7681 63.9297 45.7097C63.4515 48.9636 62.5472 52.1464 61.2382 55.1826C60.8076 56.152 60.3259 57.0996 59.7949 58.0219C59.2581 58.9341 58.6573 59.8101 57.9966 60.6439C56.7749 62.1411 55.3755 63.4962 53.8267 64.6818C52.5986 65.5581 51.314 66.3588 49.9805 67.0791C48.5854 67.8457 47.1463 68.5361 45.6701 69.1468L45.6662 69.1805ZM61.0236 64.517C58.2136 66.554 55.1532 68.2511 51.9114 69.57C51.1989 69.8547 50.4785 70.1194 49.7504 70.3641L50.0858 70.1918C51.9168 69.2745 53.664 68.2107 55.309 67.0117C56.1778 66.3731 57.0038 65.6825 57.7821 64.944C58.4971 64.2575 59.1704 63.5322 59.7988 62.7715C61.1322 61.1859 62.2503 59.4439 63.1262 57.5874C64.0401 55.6946 64.7979 53.7358 65.3925 51.7291C65.9922 49.6623 66.42 47.5531 66.672 45.4212C66.7968 44.4062 66.8982 43.3873 66.9333 42.3647C66.9692 41.2769 66.8974 40.1882 66.7188 39.1134C66.6954 38.9561 66.6681 38.7988 66.6369 38.6415C66.9295 39.0423 67.2064 39.4505 67.4716 39.8701C67.888 40.5441 68.258 41.2436 68.5795 41.9639C69.1301 43.2194 69.5229 44.5335 69.7497 45.8782C69.9206 47.4084 69.8984 48.9529 69.6834 50.478C69.3764 52.4385 68.8169 54.3548 68.0178 56.1828C67.3632 57.6413 66.5802 59.0435 65.6773 60.3742C64.2538 61.8703 62.6981 63.2451 61.0276 64.4833L61.0236 64.517ZM65.4003 73.5068C66.4106 73.0161 67.4092 72.503 68.3844 71.9486C67.4298 72.526 66.4339 73.0379 65.4042 73.4806L65.4003 73.5068ZM68.2713 62.0411C67.5256 62.9517 66.7094 63.807 65.8294 64.5994C66.5304 63.8214 67.1818 63.0033 67.7798 62.1497C67.9437 61.9175 68.0997 61.6852 68.2557 61.4493C68.4117 61.2133 68.6458 61.0073 68.8174 60.7825C69.6393 59.7828 70.3949 58.7344 71.0799 57.6436C70.298 59.1863 69.3585 60.6505 68.2752 62.0149L68.2713 62.0411ZM68.6614 36.6525L68.088 36.1131L68.0568 36.0756C67.4317 35.3205 66.7596 34.6025 66.044 33.9256C65.2567 33.1759 64.4216 32.4741 63.5435 31.8242C63.7308 31.9141 63.9336 32.0115 64.0936 32.1089C64.8319 32.5089 65.5409 32.957 66.2156 33.4499C67.4619 34.3901 68.5903 35.4661 69.5781 36.6562C70.2092 37.465 70.7641 38.3261 71.2359 39.2295C70.4381 38.3085 69.578 37.4389 68.6614 36.6263V36.6525ZM72.804 45.2377C72.7299 45.7396 72.648 46.2416 72.5505 46.736C72.497 45.9291 72.385 45.1268 72.215 44.335C72.1708 44.1377 72.124 43.9392 72.0746 43.7394C72.3437 44.1814 72.5895 44.6346 72.8235 45.0954C72.8157 45.1216 72.8118 45.1665 72.804 45.2115V45.2377ZM79.5368 51.5305C79.5173 51.6729 79.4939 51.8152 79.4705 51.9576L79.4159 52.0887C79.0674 52.8603 78.6864 53.6094 78.2729 54.3361C78.4173 53.748 78.5382 53.1562 78.6318 52.5569C78.7254 51.9576 78.8035 51.3058 78.8503 50.684C79.157 49.2917 79.3551 47.8794 79.4432 46.4588C79.4783 45.882 79.49 45.3051 79.4744 44.7283C79.5485 45.0692 79.6148 45.41 79.6694 45.7546C79.8692 47.6692 79.8246 49.6001 79.5368 51.5043V51.5305ZM78.23 36.2854C78.1598 36.203 78.0935 36.1243 78.0194 36.0456C78.3471 36.3903 78.6591 36.7424 78.9634 37.1094C79.7929 38.153 80.4957 39.284 81.0581 40.4806L81.2453 40.9413C81.2453 41.02 81.2453 41.0987 81.2453 41.1773C80.906 40.3416 80.5045 39.5304 80.0439 38.7501C79.5158 37.879 78.9088 37.0542 78.23 36.2854Z" fill="#FFE185"/>
<path d="M65.0151 5.27046C64.8603 5.26943 64.7081 5.30823 64.5743 5.38283C64.3848 5.49882 64.2461 5.67735 64.1842 5.88477C63.8995 6.58148 63.6576 7.29317 63.4041 8.00111C63.1505 8.70906 62.8931 9.42074 62.6239 10.1362C62.1519 11.4547 61.6877 12.7769 61.2196 14.0954C60.9934 14.7247 60.7749 15.354 60.5526 15.9683C60.5021 16.1402 60.5063 16.3227 60.5647 16.4923C60.623 16.6618 60.7329 16.8108 60.8801 16.9199C61.0273 17.0291 61.2052 17.0934 61.3908 17.1048C61.5765 17.1161 61.7614 17.0738 61.9218 16.9834C62.1292 16.8624 62.2822 16.6714 62.3508 16.4478C63.4587 13.2976 64.5821 10.1512 65.6392 6.98602C65.7133 6.76502 65.7875 6.54027 65.8499 6.31178C65.9089 6.09876 65.8786 5.87202 65.7656 5.68016C65.6526 5.48831 65.4658 5.34662 65.2452 5.28545C65.1695 5.27133 65.0922 5.26629 65.0151 5.27046Z" fill="#FFE185"/>
<path d="M84.7844 13.5148C84.6373 13.5601 84.5036 13.6385 84.3943 13.7433C84.0561 14.0163 83.75 14.324 83.4816 14.661C83.1929 14.9944 82.9237 15.3465 82.6468 15.6911C82.1038 16.3754 81.6049 17.091 81.1528 17.8337C80.8929 18.2771 80.6724 18.7407 80.4935 19.2196C80.3129 19.6786 80.1822 20.1544 80.1035 20.6392L80.0684 20.8864C80.0683 21.0534 80.1141 21.2175 80.201 21.3622C80.3329 21.5782 80.5485 21.7353 80.8006 21.7992C81.0528 21.863 81.321 21.8285 81.5468 21.703C81.6572 21.6425 81.7539 21.5612 81.8309 21.464C81.908 21.3668 81.9639 21.2558 81.9954 21.1374C82.0188 21.0063 82.0344 20.8715 82.0656 20.7366C82.0968 20.6018 82.1475 20.4332 82.1943 20.2834C82.2738 20.0155 82.3676 19.7517 82.4751 19.493C82.7297 18.9732 83.0244 18.4724 83.3567 17.9947C83.6688 17.5303 84.0004 17.0845 84.3358 16.635C84.6011 16.2605 84.8702 15.9233 85.1472 15.5712C85.3133 15.3632 85.4944 15.1667 85.6894 14.9832C85.816 14.8599 85.9019 14.7035 85.9364 14.5335C85.9709 14.3636 85.9525 14.1876 85.8834 14.0277C85.8142 13.8678 85.6975 13.731 85.5478 13.6344C85.3982 13.5379 85.2222 13.4858 85.0419 13.4849L84.7844 13.5148Z" fill="#FFE185"/>
<path d="M95.9012 30.1686C95.2264 30.2923 94.5671 30.5096 93.9079 30.6969C92.6314 31.0661 91.3965 31.5568 90.2216 32.1619C90.0629 32.2525 89.9352 32.3859 89.8546 32.5455C89.7739 32.705 89.7437 32.8839 89.7678 33.0597C89.7919 33.2356 89.8692 33.4009 89.9901 33.535C90.1109 33.6691 90.2701 33.7662 90.4479 33.8143C90.6928 33.8751 90.9526 33.8429 91.1734 33.7244C91.6844 33.4621 92.2071 33.2185 92.7338 32.9975C93.3579 32.7502 93.9937 32.5479 94.6412 32.3605C95.2989 32.1439 95.9698 31.9662 96.6501 31.8285C96.8461 31.8116 97.0432 31.8116 97.2392 31.8285C97.3212 31.8445 97.402 31.8657 97.481 31.8922C97.6529 31.9371 97.8349 31.9319 98.0037 31.8772C98.1725 31.8225 98.3206 31.7207 98.4289 31.5848C98.5373 31.449 98.6011 31.2852 98.6122 31.1144C98.6233 30.9436 98.5813 30.7735 98.4913 30.6257C98.3663 30.4428 98.1764 30.3096 97.9569 30.251C97.6537 30.1569 97.339 30.1015 97.0207 30.0862H96.8374C96.5234 30.086 96.21 30.1136 95.9012 30.1686Z" fill="#FFE185"/>
<path d="M97.3759 44.5523C96.8922 44.4586 96.4046 44.3987 95.9209 44.3237L93.4868 43.949L93.1318 43.9041C92.8973 43.9025 92.6668 43.962 92.4648 44.0764C92.3135 44.1605 92.1812 44.2725 92.0753 44.406C91.9694 44.5395 91.892 44.6918 91.8478 44.8541C91.8035 45.0165 91.7932 45.1857 91.8175 45.3519C91.8417 45.5181 91.8999 45.678 91.9889 45.8225C92.0722 45.9646 92.184 46.0895 92.318 46.1898C92.4519 46.2902 92.6052 46.364 92.769 46.407L95.0705 46.7479C95.5737 46.8266 96.0769 46.8866 96.5762 46.9802C97.0755 47.0739 97.6216 47.1601 98.1365 47.2875C98.6514 47.4149 99.1 47.5348 99.572 47.6921L99.8802 47.8195C100.105 47.8757 100.342 47.8757 100.567 47.8195C100.73 47.7766 100.884 47.7031 101.018 47.6031C101.152 47.5031 101.264 47.3787 101.347 47.237C101.431 47.0953 101.485 46.9391 101.506 46.7773C101.526 46.6156 101.513 46.4515 101.468 46.2946C101.426 46.1381 101.352 45.9913 101.25 45.8626C101.148 45.734 101.021 45.6261 100.875 45.5452C100.3 45.276 99.6989 45.0614 99.0805 44.9045C98.8543 44.8445 98.628 44.7771 98.394 44.7321L97.3759 44.5523Z" fill="#FFE185"/>
<path d="M93.1476 62.166C93.6014 62.3917 94.0416 62.6419 94.4661 62.9153L94.5207 62.964C94.7231 63.1519 94.9921 63.259 95.2735 63.2638C95.556 63.2638 95.8268 63.156 96.0265 62.9642C96.2262 62.7724 96.3384 62.5122 96.3384 62.2409C96.3308 61.9711 96.2197 61.7136 96.0264 61.5177C95.8848 61.3625 95.7281 61.2207 95.5583 61.0944C95.4022 60.9782 95.2462 60.8508 95.0785 60.7197C94.9107 60.5885 94.6689 60.4424 94.4544 60.315C93.9356 60.0115 93.4167 59.723 92.894 59.4345C91.7238 58.7938 90.495 58.1943 89.2897 57.5611C89.1028 57.4632 88.894 57.4105 88.6812 57.4075C88.577 57.4085 88.4735 57.4224 88.373 57.4487C88.1413 57.501 87.9317 57.62 87.7722 57.7898C87.6127 57.9596 87.5109 58.172 87.4804 58.3988C87.4498 58.6256 87.492 58.8559 87.6014 59.059C87.7107 59.2622 87.8819 59.4284 88.0922 59.5357C89.2624 60.1277 90.4326 60.7197 91.6029 61.3229L93.1476 62.166Z" fill="#FFE185"/>
<path d="M84.929 72.3269C83.985 71.303 83.054 70.2717 82.136 69.2329C82.0347 69.1327 81.9134 69.0532 81.7794 68.9992C81.6453 68.9451 81.5013 68.9176 81.3559 68.9182C81.0617 68.9192 80.7799 69.0321 80.5723 69.2322C80.3646 69.4323 80.248 69.7033 80.248 69.9858C80.2551 70.2655 80.3705 70.5326 80.5718 70.7349C81.4924 71.7762 82.413 72.8138 83.3765 73.8177C84.1333 74.6331 84.941 75.4036 85.795 76.125C85.9844 76.2966 86.2329 76.3952 86.4932 76.4022C86.755 76.4022 87.006 76.3024 87.1911 76.1247C87.3762 75.9469 87.4801 75.7059 87.4801 75.4545C87.477 75.2038 87.3737 74.9637 87.1915 74.7841C86.423 73.9862 85.6858 73.1397 84.929 72.3269Z" fill="#FFE185"/>
<path d="M71.2556 86.1261C70.6978 85.1485 70.1205 84.1784 69.6485 83.1595C69.4537 82.6834 69.3124 82.1886 69.2272 81.6837C69.2272 81.5938 69.2272 81.5076 69.2272 81.414C69.2272 81.116 69.1039 80.8301 68.8844 80.6194C68.665 80.4087 68.3673 80.2903 68.057 80.2903C67.7466 80.2903 67.449 80.4087 67.2295 80.6194C67.01 80.8301 66.8867 81.116 66.8867 81.414C66.9032 81.9198 66.9778 82.4222 67.1091 82.9123C67.2641 83.4632 67.4731 83.9987 67.7332 84.5117C68.0882 85.2609 68.4939 85.9688 68.9034 86.6805C69.2825 87.3825 69.714 88.0573 70.1946 88.6995L70.3701 88.9205C70.5478 89.0909 70.7791 89.2002 71.0281 89.2314C71.2771 89.2626 71.5299 89.2138 71.7471 89.0928C72.0009 88.9468 72.1876 88.7139 72.2698 88.441C72.3112 88.3003 72.3222 88.1529 72.3021 88.008C72.282 87.863 72.2312 87.7236 72.1528 87.5982C71.8262 87.1235 71.5267 86.632 71.2556 86.1261Z" fill="#FFE185"/>
<path d="M51.5607 94.3479V94.4378C51.5607 94.3966 51.5607 94.3517 51.5607 94.3105V94.2355V94.288V94.2131V94.1906V94.1232V94.097C51.5626 94.0858 51.5626 94.0744 51.5607 94.0632V94.0295V93.9846V93.9621C51.4124 92.9021 51.233 91.8495 51.0692 90.7932C51.0107 90.3362 50.9404 89.8793 50.9014 89.4185C50.8351 88.6357 50.7688 87.8528 50.7103 87.0662C50.7054 86.8169 50.6023 86.5786 50.4216 86.3995C50.3303 86.3115 50.2218 86.2416 50.1023 86.194C49.9828 86.1464 49.8547 86.1218 49.7253 86.1218C49.596 86.1218 49.4679 86.1464 49.3484 86.194C49.2289 86.2416 49.1204 86.3115 49.0291 86.3995C48.9356 86.4854 48.8616 86.589 48.812 86.7038C48.7623 86.8185 48.7379 86.9419 48.7404 87.0662C48.7989 87.8753 48.8691 88.6843 48.9315 89.4934C48.9627 89.868 49.0173 90.2201 49.0603 90.5835C49.0876 90.8457 49.1227 91.1116 49.1578 91.3738C49.3372 92.7148 49.5128 94.0557 49.6298 95.4005C49.6382 95.6678 49.7494 95.9226 49.9418 96.1159C50.0393 96.2098 50.1551 96.2843 50.2827 96.3351C50.4102 96.3859 50.5469 96.4121 50.6849 96.4121C50.823 96.4121 50.9597 96.3859 51.0872 96.3351C51.2148 96.2843 51.3306 96.2098 51.428 96.1159C51.5274 96.0231 51.606 95.9118 51.659 95.7887C51.712 95.6657 51.7383 95.5336 51.7362 95.4005C51.6504 95.0559 51.6075 94.7038 51.5607 94.3479Z" fill="#FFE185"/>
<path d="M51.5097 93.9879V94.0477C51.5097 93.973 51.5097 93.8945 51.4785 93.8198V93.8945V93.7825C51.4785 93.846 51.4785 93.9132 51.5058 93.9767L51.5097 93.9879Z" fill="#FFE185"/>
<path d="M32.7362 88.4222C32.6511 88.4212 32.5665 88.4352 32.4865 88.4634C32.3137 88.5136 32.1484 88.5854 31.995 88.6769C31.8396 88.7805 31.6899 88.8918 31.5464 89.0102C31.2695 89.2494 31.0221 89.5184 30.8092 89.8118C30.4191 90.3837 30.1083 91.002 29.8847 91.651C29.6234 92.284 29.3698 92.9171 29.1435 93.5651L28.7535 94.7337C28.5818 95.2507 28.4102 95.7676 28.2464 96.2845C28.0796 96.7767 27.939 97.2768 27.8251 97.7828C27.7635 98.0155 27.797 98.2622 27.9187 98.472C27.9804 98.5736 28.0623 98.6625 28.1598 98.7337C28.2574 98.8049 28.3685 98.857 28.487 98.8869C28.6054 98.9168 28.7289 98.924 28.8502 98.9081C28.9716 98.8921 29.0885 98.8534 29.1943 98.7941C29.2994 98.7369 29.3916 98.66 29.4652 98.568C29.5389 98.476 29.5927 98.3708 29.6234 98.2585C29.8008 97.4981 30.0222 96.7478 30.2865 96.011C30.4347 95.5803 30.5752 95.1458 30.7234 94.7187C30.9145 94.1681 31.094 93.6175 31.3046 93.0781C31.4801 92.6174 31.6674 92.1567 31.8624 91.6997C32.0213 91.3416 32.2159 90.9991 32.4436 90.6771C32.5915 90.5052 32.7561 90.3471 32.9351 90.2051L33.0248 90.1489C33.243 90.079 33.4282 89.937 33.5476 89.7482C33.6112 89.6448 33.6526 89.5302 33.6694 89.4112C33.6861 89.2921 33.6778 89.1711 33.6451 89.0552C33.5805 88.8723 33.4583 88.7132 33.2955 88.5998C33.1327 88.4864 32.9373 88.4243 32.7362 88.4222Z" fill="#FFE185"/>
<path d="M19.4112 80.631C19.3081 80.6047 19.2018 80.5921 19.0952 80.5935C18.8966 80.5889 18.7011 80.6411 18.5335 80.7434C17.0512 81.6948 15.5611 82.6162 14.0944 83.6089C13.452 84.0359 12.8097 84.4641 12.1674 84.8936C11.5667 85.2982 10.962 85.699 10.3808 86.1297L10.1507 86.302C10.0089 86.4379 9.90672 86.6071 9.85422 86.7927C9.8061 86.9805 9.80925 87.177 9.86335 87.3632C9.91745 87.5495 10.0207 87.7192 10.1631 87.8559C10.3055 87.9926 10.4822 88.0917 10.6761 88.1437C10.8701 88.1956 11.0747 88.1986 11.2702 88.1524C11.4627 88.1028 11.6378 88.0044 11.7773 87.8678H11.8046C12.3195 87.4932 12.85 87.1186 13.3649 86.7815C13.9969 86.3507 14.6366 85.9275 15.2724 85.5005C16.7235 84.5303 18.198 83.5939 19.6686 82.6499C19.9206 82.502 20.1067 82.2699 20.1913 81.9982C20.231 81.8573 20.241 81.7102 20.2209 81.5655C20.2008 81.4208 20.151 81.2814 20.0743 81.1554C19.9333 80.9039 19.6952 80.7156 19.4112 80.631Z" fill="#FFE185"/>
<path d="M10.7473 70.0384L10.8682 70.0647V70.1059C10.8939 70.2035 10.9398 70.2952 11.0032 70.3754C11.0666 70.4556 11.1462 70.5228 11.2372 70.5728C11.3283 70.6228 11.4289 70.6546 11.533 70.6665C11.6372 70.6783 11.7427 70.6698 11.8434 70.6416C11.943 70.616 12.0364 70.5717 12.118 70.5113C12.1997 70.4508 12.2681 70.3754 12.3193 70.2894C12.4255 70.1112 12.4549 69.9001 12.4012 69.7013C12.3537 69.5158 12.2732 69.3397 12.1633 69.1805C12.0416 69.0007 11.8805 68.8485 11.6913 68.7347L11.4182 68.6186C11.3278 68.5875 11.2353 68.5624 11.1412 68.5437C10.9387 68.5017 10.7321 68.4804 10.5249 68.48H10.4274C10.0997 68.48 9.76816 68.5287 9.4405 68.5587L8.83977 68.6074C8.59402 68.6336 8.34828 68.671 8.10643 68.7047C7.49401 68.7947 6.88938 68.9183 6.28085 69.0344L5.11062 69.2592C3.94038 69.484 2.77014 69.7275 1.5999 69.9822C1.39041 70.0399 1.21291 70.1744 1.10565 70.3566C0.998389 70.5388 0.969956 70.7541 1.02649 70.9563C1.05582 71.0558 1.1054 71.1488 1.17235 71.2298C1.2393 71.3108 1.3223 71.3783 1.41657 71.4283C1.60957 71.5333 1.83731 71.5629 2.0524 71.5107C3.02369 71.3047 4.0028 71.1061 4.97019 70.9038L6.32377 70.6303C7.15854 70.4618 7.9933 70.2782 8.83977 70.1583C9.15183 70.1246 9.4678 70.1021 9.78377 70.0684C10.1033 70.0303 10.4258 70.0203 10.7473 70.0384ZM10.8955 70.0722L10.9345 70.1246L10.8916 70.0722H10.8955Z" fill="#FFE185"/>
<path d="M1.91957 49.2462L2.71924 49.486L3.92068 49.8607C4.31076 49.9731 4.67354 50.1042 5.04802 50.2353C5.57072 50.404 6.08953 50.5838 6.60833 50.7861C7.29759 51.0809 7.95924 51.4319 8.58602 51.8353C8.80534 51.9559 9.06522 51.989 9.30966 51.9273C9.5541 51.8656 9.76352 51.7141 9.89279 51.5055C10.0214 51.2911 10.0565 51.0365 9.99031 50.7974C9.91866 50.569 9.76167 50.3742 9.54952 50.2503C9.0498 49.9247 8.5286 49.6306 7.9892 49.3698C7.41189 49.0963 6.81897 48.8715 6.21044 48.6504C5.76575 48.4818 5.30936 48.3432 4.86077 48.1896C4.5058 48.0697 4.14693 47.9535 3.79196 47.8411L3.08981 47.6201C2.69973 47.4927 2.27455 47.384 1.87667 47.2454C1.79825 47.2066 1.72266 47.1628 1.65042 47.1142C1.51305 47.0299 1.35316 46.9856 1.19013 46.9868C0.930295 46.987 0.680942 47.0853 0.495786 47.2604C0.318321 47.4323 0.21875 47.6646 0.21875 47.9067C0.21875 48.1488 0.318321 48.3811 0.495786 48.553C0.603918 48.6678 0.727184 48.7686 0.862462 48.8528C0.955604 48.9025 1.05203 48.9463 1.15112 48.9839C1.40244 49.0839 1.65893 49.1714 1.91957 49.2462Z" fill="#FFE185"/>
<path d="M4.70382 30.0862C4.18502 29.884 3.67011 29.6854 3.1435 29.5206C3.08546 29.503 3.02492 29.4942 2.96406 29.4944C2.81651 29.4975 2.67381 29.5456 2.55667 29.6318C2.43953 29.718 2.35406 29.8378 2.31263 29.9739C2.26588 30.1397 2.28925 30.3166 2.37764 30.4661C2.46604 30.6155 2.61231 30.7253 2.78463 30.7717C3.51017 30.9665 4.21622 31.2174 4.92226 31.4684C5.62831 31.7194 6.27974 31.9628 6.95457 32.2175L8.97518 33.0716C9.15462 33.1465 9.32625 33.2289 9.50179 33.3113C9.96208 33.5323 10.4224 33.757 10.8788 33.993C11.7289 34.4383 12.5415 34.9467 13.309 35.5138C13.5235 35.6749 13.738 35.8397 13.9487 36.0082C14.1593 36.1768 14.3661 36.3828 14.565 36.5663C14.6597 36.6572 14.7881 36.7083 14.9219 36.7083C15.0558 36.7083 15.1842 36.6572 15.2789 36.5663C15.3735 36.4754 15.4267 36.3522 15.4267 36.2236C15.4267 36.0951 15.3735 35.9718 15.2789 35.8809C15.1306 35.7386 14.9863 35.5925 14.8303 35.4576C14.6742 35.3228 14.4987 35.1842 14.3271 35.0493C13.9565 34.7534 13.5703 34.4688 13.1763 34.1953C12.4282 33.6853 11.6464 33.2223 10.8359 32.8094C10.3639 32.5659 9.89187 32.3262 9.40817 32.1089L8.19113 31.562C7.0404 31.0339 5.87796 30.5395 4.70382 30.0862Z" fill="#FFE185"/>
<path d="M18.1823 21.9091C18.3227 21.9728 18.4554 22.0552 18.5919 22.1301L21.0767 23.5048L22.0363 24.0367C22.4966 24.2876 22.9257 24.5835 23.3665 24.8645C23.554 24.9685 23.7767 24.9974 23.9863 24.9448C24.1959 24.8922 24.3754 24.7624 24.486 24.5835C24.5958 24.3996 24.6252 24.1814 24.5679 23.9767C24.5041 23.779 24.3647 23.6117 24.1778 23.5085C23.7292 23.2201 23.2885 22.9204 22.8243 22.6582L21.7281 22.0477L19.2277 20.6505C18.7362 20.3771 18.2135 20.1523 17.7064 19.9014L15.483 18.8263C14.7808 18.4892 14.0631 18.1821 13.3531 17.8562L12.3077 17.3992L11.8123 17.182C11.5237 17.0621 11.2311 16.9385 10.9347 16.8411C10.6723 16.7615 10.3984 16.7223 10.1233 16.725H10.0999C9.92965 16.7243 9.76307 16.7723 9.62131 16.8628C9.47956 16.9533 9.36904 17.0822 9.3038 17.2332C9.23857 17.3842 9.22156 17.5504 9.25496 17.7107C9.28835 17.871 9.37064 18.0181 9.49135 18.1334C9.6551 18.2851 9.87237 18.372 10.0999 18.3768H10.135C10.3495 18.4253 10.5595 18.4904 10.763 18.5716C11.4105 18.8376 12.0503 19.1223 12.6939 19.4032C13.3375 19.6841 14.0397 19.9725 14.6989 20.2797L17.2149 21.4596L18.1823 21.9091Z" fill="#FFE185"/>
<path d="M25.6056 6.57393C25.5727 6.71402 25.5569 6.85733 25.5587 7.00094C25.5635 7.18283 25.5951 7.36315 25.6524 7.53658C25.7513 7.81316 25.8822 8.07826 26.0425 8.32693C26.161 8.51772 26.2913 8.70158 26.4325 8.87756L26.885 9.46189C27.7058 10.5142 28.6194 11.4967 29.6156 12.3986C31.0745 13.727 32.5347 15.053 33.9961 16.3765C34.2377 16.6111 34.5654 16.7456 34.9089 16.7511C35.1643 16.751 35.4138 16.6783 35.6261 16.542C35.8383 16.4058 36.0038 16.2122 36.1014 15.9857C36.1991 15.7592 36.2247 15.5099 36.1749 15.2695C36.1251 15.029 36.0022 14.8082 35.8217 14.6348C34.7139 13.6359 33.6113 12.637 32.5139 11.6382L31.2383 10.4732C31.0199 10.271 30.8131 10.0612 30.6025 9.85145C30.1344 9.37949 29.6819 8.89629 29.2645 8.38687C29.0421 8.10968 28.8276 7.82501 28.6092 7.54782C28.4907 7.40094 28.3801 7.24842 28.2776 7.09084C28.5103 6.96161 28.7499 6.84408 28.9954 6.73874C29.1814 6.63506 29.336 6.48658 29.4439 6.30797C29.528 6.17168 29.5831 6.02074 29.606 5.86388C29.629 5.70701 29.6193 5.54734 29.5776 5.39408C29.5359 5.24082 29.4629 5.09703 29.363 4.971C29.2631 4.84498 29.1381 4.73922 28.9954 4.65985C28.7954 4.5506 28.57 4.49136 28.34 4.48755C28.2336 4.48758 28.128 4.50532 28.0279 4.53998C27.041 4.89208 25.7889 5.42024 25.6056 6.57393Z" fill="#FFE185"/>
<path d="M46.1434 0.213867C45.772 0.213982 45.4158 0.355397 45.1527 0.607165L44.9342 0.880608C44.8073 1.08563 44.7412 1.32008 44.7431 1.55859C44.7008 1.97179 44.6878 2.38728 44.7041 2.80218C44.7041 3.14304 44.7041 3.4839 44.7314 3.82477C44.7548 4.57391 44.7977 5.34927 44.8367 6.10966C44.9147 7.53679 45.02 8.96392 45.1175 10.3873C45.1643 11.1364 45.219 11.8856 45.2736 12.6347C45.2785 13.0103 45.4335 13.3697 45.7066 13.6386C45.9845 13.9051 46.3612 14.0547 46.7539 14.0547C47.1467 14.0547 47.5234 13.9051 47.8013 13.6386C47.9394 13.5074 48.0489 13.351 48.1233 13.1786C48.1976 13.0062 48.2354 12.8213 48.2343 12.6347C48.0041 9.2898 47.7662 5.9486 47.5828 2.60365C47.5828 2.25155 47.5438 1.89945 47.5477 1.54735C47.5416 1.19293 47.3912 0.854899 47.1287 0.605656C46.8663 0.356413 46.5126 0.215777 46.1434 0.213867Z" fill="#FFE185"/>
</svg>
