<svg width="1331" height="468" viewBox="0 0 1331 468" fill="none" xmlns="http://www.w3.org/2000/svg">
<path d="M1306.84 12.5979C1306.75 12.5303 1306.73 12.4046 1306.78 12.2384C1306.79 12.2272 1306.8 12.2156 1306.8 12.2036C1306.77 12.2664 1306.76 12.3362 1306.76 12.4056C1306.77 12.475 1306.79 12.5414 1306.84 12.5979Z" fill="#884F56"/>
<path d="M1318.03 8.19217C1316.9 8.38546 1317.38 8.20184 1318 7.98535C1317.89 8.06073 1317.87 8.13225 1318.03 8.19217Z" fill="#884F56"/>
<path d="M1299.98 12.4047C1303.94 11.8917 1307.9 11.0903 1311.85 10.3218C1307.88 11.098 1303.92 11.9014 1299.98 12.4047Z" fill="#884F56"/>
<path d="M1290.75 10.7202C1292.64 10.61 1294.51 10.3568 1296.38 10.1577C1294.5 10.4225 1292.56 10.6177 1290.75 10.7202Z" fill="#884F56"/>
<path d="M1259.27 3.73819C1264.34 2.73546 1269.38 4.2802 1274.35 2.60383L1274.7 2.17603C1281.54 3.03357 1288.38 3.91821 1295.24 4.61702C1294.88 4.76994 1293.52 4.79124 1293.64 5.41843C1289.1 5.04676 1284.41 5.05257 1279.94 4.56669C1284.65 5.07773 1289.38 5.39713 1294.1 5.85784C1294.24 5.96646 1294.41 6.03176 1294.59 6.04491C1294.77 6.05807 1294.95 6.01845 1295.1 5.9314C1296.73 6.04367 1298.56 6.12498 1300.1 6.36695C1298.6 6.13659 1297.09 5.91398 1295.6 5.66814C1295.86 5.47456 1296.1 4.93642 1295.79 4.67316C1306.22 5.74557 1316.83 6.76959 1327.14 8.60469C1327.15 8.7402 1327.13 8.8755 1327.08 9.00345C1318.27 12.3194 1309.22 15.3605 1300.5 18.8991L1300.27 18.9959C1300.27 18.9801 1300.28 18.9639 1300.29 18.9475C1299.96 18.9969 1299.66 19.137 1299.42 19.3501L1298.32 19.7585C1297.97 19.5863 1297.15 19.6443 1297.67 20.0044L1296.13 20.5851C1293.44 18.3183 1290.86 15.9393 1288.18 13.6686C1288.23 13.6473 1288.27 13.6299 1288.31 13.6067L1288.17 13.6628C1284.23 10.3178 1280.24 6.97671 1276.18 3.79045L1275.35 3.68398C1269.39 10.9857 1263.54 18.3725 1257.62 25.7013C1257.52 25.4204 1257.32 25.1806 1257.06 25.0219C1256.65 25.1748 1256.61 25.2426 1256.08 25.5465C1261.27 19.0539 1266.37 12.4956 1271.6 6.03206C1269.31 7.6794 1265.83 7.21481 1263.15 7.69294C1259.66 8.31432 1256.2 9.82228 1253.3 11.758C1252.96 11.562 1252.58 11.4305 1252.19 11.3709C1252.71 10.5572 1253.18 9.71707 1253.6 8.8544C1252.52 9.24155 1251.33 9.55321 1250.17 9.4932C1250.05 9.59976 1249.91 9.67558 1249.75 9.71298C1249.6 9.75037 1249.43 9.74801 1249.28 9.70613C1248.01 8.4595 1258 3.98984 1259.27 3.73819ZM1318.99 7.56131C1319.08 7.58842 1318.27 7.79167 1318 7.98137C1317.39 8.19818 1316.9 8.38208 1318.03 8.1885C1317.87 8.12849 1317.89 8.05687 1318 7.98137C1318.53 7.7878 1319.16 7.58454 1318.99 7.56131ZM1321.02 8.83504C1321.16 8.80601 1320.26 9.10799 1320.39 9.24736C1320.76 9.63451 1322.18 8.59888 1321.02 8.83504ZM1323.75 8.32981C1323.63 8.30802 1323.5 8.33013 1323.4 8.39175C1323.22 8.56984 1323.14 8.77891 1323.38 8.88924C1323.78 8.93764 1323.9 8.75762 1323.75 8.32981ZM1325.53 9.04604C1317.74 10.4591 1310.91 13.4983 1303.51 15.8696C1310.76 13.5622 1318.06 10.3991 1325.53 9.04604ZM1312.25 12.0949H1312.27C1312.71 12.2691 1312.82 11.9497 1312.25 12.0949ZM1306.84 12.1297C1306.83 12.1529 1306.81 12.1781 1306.8 12.2033C1306.8 12.2153 1306.79 12.2269 1306.78 12.2381C1306.73 12.4104 1306.75 12.5304 1306.84 12.5982C1306.89 12.6401 1306.94 12.6687 1307.01 12.6807C1307.07 12.6926 1307.14 12.6875 1307.2 12.6659C1307.07 12.6868 1306.95 12.6627 1306.84 12.5982C1306.8 12.5424 1306.77 12.4773 1306.77 12.4093C1306.76 12.3413 1306.77 12.2729 1306.8 12.211C1306.81 12.1831 1306.83 12.1559 1306.84 12.1297ZM1311.85 10.3217C1314.76 9.75259 1317.66 9.2009 1320.55 8.79439C1317.64 9.2009 1314.74 9.76227 1311.85 10.3217C1307.9 11.096 1303.94 11.8916 1299.98 12.4046C1303.92 11.9013 1307.88 11.0979 1311.85 10.3217ZM1296.39 10.1572C1297.28 10.0643 1298.17 9.98101 1299.06 9.93649C1299.01 10.2763 1299.04 10.6238 1299.17 10.947C1299.43 10.8024 1299.69 10.6585 1299.95 10.5153L1300.18 10.0836L1300.59 9.84551C1301.16 9.81067 1301.74 9.78615 1302.32 9.77195C1302.27 9.8797 1302.25 9.99801 1302.25 10.1165L1303.2 10.8056L1303.77 10.2036L1303.42 9.79518C1303.46 9.7584 1303.5 9.71775 1303.53 9.68097C1307.59 9.34995 1311.75 8.59694 1315.73 8.32594C1311.77 8.5892 1307.82 8.75955 1303.87 9.24349C1303.98 9.07702 1304.08 8.90667 1304.19 8.73825C1304.08 8.90667 1303.99 9.07702 1303.87 9.24349C1303.51 9.28414 1303.15 9.32285 1302.79 9.34996C1302.77 9.31511 1302.75 9.2822 1302.73 9.24736L1302.05 8.99958L1302.72 9.25317C1302.68 9.29188 1302.64 9.3306 1302.6 9.36931C1302.13 9.40222 1301.66 9.439 1301.19 9.4932L1302.04 9.00926C1301.79 8.94732 1301.32 9.00926 1301.78 8.55629C1301.45 8.19818 1300.83 8.38788 1300.23 8.535C1299.39 7.6852 1299.14 9.3093 1299.08 9.72356C1298.2 9.88422 1297.29 10.0294 1296.38 10.1572C1294.5 10.3507 1292.63 10.6101 1290.74 10.7205C1292.57 10.6179 1294.5 10.4224 1296.39 10.1572ZM1303.17 7.35612C1303.16 7.41791 1303.16 7.48111 1303.18 7.54151C1303.2 7.60192 1303.23 7.65816 1303.27 7.7065L1303.66 8.05881C1304.04 7.89457 1304.39 7.6597 1304.68 7.36774C1304.79 7.36774 1306.81 7.44904 1306.84 7.45097C1306.16 7.39677 1305.49 7.2574 1304.81 7.23029C1304.85 7.17609 1304.89 7.12383 1304.94 7.06769C1305.03 7.00575 1305.95 6.53729 1305.85 6.22757C1305.65 5.62555 1303.51 6.93412 1303.32 7.11028C1297.27 6.21596 1290.94 7.17222 1284.91 6.9167C1290.99 7.18384 1297.09 7.149 1303.17 7.35612ZM1271.32 7.17609C1270.9 7.2845 1270.83 7.4342 1271.11 7.62519C1270.64 7.81877 1270.44 8.09946 1270.51 8.48661C1271.5 8.62598 1271.72 8.12462 1271.51 7.42194C1271.55 7.27095 1271.56 7.13544 1271.32 7.17609ZM1272.08 6.39018C1271.96 6.51406 1271.84 6.63989 1271.72 6.76571C1272.09 6.96316 1272.33 6.75991 1272.08 6.39018ZM1255.54 7.26321C1254.88 8.38208 1254.33 9.70614 1253.56 10.7476C1255.93 9.16163 1258.54 7.92977 1261.3 7.0948C1264.8 6.07271 1268.56 6.50245 1271.71 4.62864C1271.66 4.64025 1271.61 4.6538 1271.57 4.66348C1268.09 5.32745 1264.32 4.18921 1260.8 4.40021C1257.1 4.61895 1254.36 6.1424 1251.6 8.46531C1252.95 8.2156 1254.25 7.69488 1255.54 7.26321Z" fill="#884F56"/>
<path d="M1185.54 96.3338C1185.96 96.4693 1186.33 96.3338 1186.62 95.9253C1189.75 94.8103 1193.06 94.0496 1195.96 92.4197C1195.62 92.952 1194.36 93.3024 1194.36 93.9354C1192.46 94.7673 1190.52 95.5021 1188.55 96.1363C1188.59 96.0667 1188.64 95.9989 1188.69 95.9312C1188.43 95.8266 1188.13 95.9002 1187.87 96.1634C1187.79 96.236 1187.72 96.3237 1187.68 96.4209C1186.63 96.7809 1177.24 100.583 1176.77 99.4271C1176.58 98.9645 1184.79 96.6222 1185.54 96.3338Z" fill="#884F56"/>
<path d="M1233.21 61.6757C1233.8 61.4105 1234.4 61.153 1234.99 60.9014C1234.4 61.1646 1233.81 61.426 1233.21 61.6757Z" fill="#884F56"/>
<path d="M1177.06 92.2667C1178.97 91.4362 1181.25 91.233 1183.28 90.7897C1183.25 90.811 1183.23 90.8323 1183.2 90.8516L1183.55 91.2833L1184.31 90.5651C1191.56 89.0165 1198.23 86.8582 1203.34 81.5155C1209.06 75.5417 1215.51 65.3248 1225.01 64.5601C1235.14 51.7557 1245.32 38.9797 1255.52 26.2321L1255.88 27.4303L1256.12 27.5406C1247.25 38.5145 1238.21 49.3722 1229.52 60.4834C1229.38 60.3777 1229.2 60.3181 1229.02 60.3131C1228.92 60.7544 1228.92 60.8357 1229.34 60.7215C1228.07 62.3418 1226.77 63.9407 1225.47 65.5474C1227.97 64.1339 1230.55 62.8418 1233.2 61.6758C1233.8 61.4261 1234.39 61.1648 1234.99 60.9015C1243.98 57.0513 1253.44 54.0838 1261.97 49.4806C1257.47 51.8577 1252.62 53.4237 1247.85 55.2143C1249.18 53.4527 1243.82 54.7981 1245.77 56.0002C1242.08 57.3746 1238.58 59.2736 1234.99 60.9035C1234.39 61.159 1233.79 61.4165 1233.2 61.6778C1231.97 62.1996 1230.71 62.6609 1229.43 63.0599C1239.24 56.8093 1249.57 51.3795 1259.01 44.6295C1266.39 39.3527 1274.44 34.6971 1282.08 29.7416C1286.77 26.7025 1291.41 23.5917 1296.13 20.5874C1300.56 27.2851 1305.14 34.0429 1309.37 40.787L1309.6 40.7154C1311.81 36.6794 1313.98 32.6181 1316.26 28.6169C1316.23 29.035 1317.65 28.3033 1317.66 27.8426C1317.66 27.5852 1316.48 28.2511 1316.46 28.2685C1319.04 23.7014 1321.64 19.1446 1324.26 14.5981C1324.87 14.7027 1324.83 14.0774 1324.77 13.7193C1325.36 12.7127 1325.94 11.7061 1326.54 10.7053L1326.8 11.0673C1325.84 12.9798 1324.84 14.873 1323.84 16.7701C1323.78 16.7456 1323.72 16.7243 1323.66 16.7062C1323.61 16.7797 1323.57 16.8533 1323.52 16.9269C1323.6 16.9269 1323.68 16.9269 1323.76 16.9269C1320.37 23.3923 1316.83 29.79 1313.32 36.1935C1313.34 35.9051 1313.18 35.6844 1313.06 35.4482L1312.45 36.1044C1312.53 36.3271 1312.65 36.9446 1313.06 36.6619C1312.22 38.1912 1311.37 39.7198 1310.53 41.2478C1310.94 42.5041 1310.05 45.249 1309.83 46.5924C1309.28 49.8781 1308.38 53.1031 1307.15 56.2189C1306.49 57.9263 1298.31 72.6981 1296.15 71.0004C1296.45 70.8804 1297.51 69.8893 1296.4 70.2609C1296.31 69.8141 1296.25 69.3611 1296.23 68.9059C1296.36 68.8832 1296.48 68.8195 1296.57 68.7251C1296.65 68.6307 1296.71 68.511 1296.71 68.3852C1296.64 68.3436 1296.55 68.3217 1296.46 68.3217C1296.37 68.3217 1296.29 68.3436 1296.21 68.3852C1296.21 68.1529 1296.2 67.9071 1296.21 67.638C1294.66 67.6167 1292.78 67.4289 1291.37 66.7301C1291.91 66.343 1292.44 65.9558 1292.97 65.5687C1293.51 66.1939 1294.38 65.8358 1293.63 65.0421C1297.5 61.8307 1301.23 58.1431 1303.95 53.9851C1306.51 50.0903 1307.51 45.6458 1309.82 41.7298C1281.47 50.4155 1252.82 58.2534 1224.43 66.8308C1222.5 69.5583 1219.39 71.947 1217.2 74.5467C1217.16 73.695 1215.54 75.4875 1216.84 74.961C1210.71 82.0052 1205.83 87.8686 1197.34 92.4157C1197.47 92.1704 1197.5 91.8891 1197.43 91.624C1203.73 88.1667 1208.45 83.7842 1212.78 78.1763C1212.87 78.2038 1212.97 78.213 1213.06 78.2034L1213.02 78.2343L1213.12 78.2014H1213.07C1213.4 77.9433 1213.48 77.7033 1213.32 77.4813C1214.99 75.2436 1216.86 73.1898 1218.66 71.0546C1215.99 73.4124 1213.51 75.9289 1211.01 78.4454C1210.82 78.3756 1210.63 78.3282 1210.42 78.304C1213.1 75.5688 1215.78 72.8742 1218.61 70.2842C1220.39 68.6543 1222.9 67.3031 1224.32 65.4312C1218.62 67.7677 1214.2 71.283 1210.05 75.6675C1209.23 75.5204 1207.23 77.0032 1208.14 77.6827C1206.17 79.7442 1204.29 81.9297 1202.12 83.7939C1202.95 82.7853 1200.55 84.7521 1201.93 83.9603C1195.61 89.2333 1186.14 91.7518 1177.92 92.6945C1178.59 93.1145 1179.16 93.8037 1179.83 94.2431C1179.74 94.4192 1179.65 94.5973 1179.57 94.7754C1179.52 94.8006 1179.47 94.82 1179.42 94.8432C1179.01 94.0689 1177.64 93.8947 1177.08 93.3062C1176.63 92.8184 1175.95 91.3646 1177.06 92.2667ZM1255.03 50.0477C1254.53 49.3567 1253.48 49.6102 1252.88 49.9819C1252.4 50.3342 1252.35 50.7214 1252.75 51.1434C1248.02 53.5244 1243.03 56.068 1238.11 57.9185C1243.22 56.0021 1248.3 53.7508 1253.18 51.3582C1253.86 51.5518 1255.1 51.2498 1255.13 50.3904C1256.99 49.4225 1258.93 48.3114 1260.75 47.4499C1258.87 48.3423 1256.96 49.2521 1255.03 50.0477ZM1260.95 45.7058C1261.24 45.8316 1261.48 45.7349 1261.66 45.4116C1261.37 45.2374 1261.13 45.3354 1260.95 45.7058ZM1308.1 48.3927C1304.31 55.0265 1300.01 61.1009 1294.06 66.2017C1295.22 66.343 1296.38 66.4417 1297.53 66.6198C1297.38 67.6012 1297.25 68.5846 1297.12 69.568C1303.54 62.8547 1306.27 56.9584 1308.22 48.1739C1308.18 48.2475 1308.14 48.321 1308.1 48.3927ZM1283.98 41.2652C1283.48 41.1452 1283.19 41.3007 1283.12 41.7317L1283.78 41.6523C1283.98 41.5362 1284.06 41.3949 1283.98 41.2652ZM1294.26 25.3048C1294.42 25.1984 1294.57 25.082 1294.71 24.9564C1294.67 24.4008 1293.62 25.692 1294.27 25.3048H1294.26ZM1296.59 24.757C1296.09 24.6357 1295.8 24.7912 1295.73 25.2235L1296.39 25.1422C1296.58 25.0183 1296.67 24.8848 1296.6 24.757H1296.59ZM1296.77 26.656C1296.41 26.1914 1295.3 27.4013 1295.35 27.4303C1295.43 27.4593 1297.16 27.1303 1296.78 26.656H1296.77ZM1296.42 28.5182C1296.3 29.0544 1296.32 29.0621 1297.08 28.826C1297 28.7307 1296.9 28.6533 1296.79 28.5999C1296.68 28.5465 1296.56 28.5186 1296.43 28.5182H1296.42ZM1296.78 41.7007C1297.39 41.553 1297.96 41.3137 1298.48 40.9922L1296.2 41.782C1296.4 41.7709 1296.6 41.7437 1296.79 41.7007H1296.78ZM1294.01 36.2148C1294.38 36.1315 1296.03 35.9012 1295.88 35.185C1295.74 34.5694 1293.42 35.9283 1293.71 35.7831C1293.78 35.9427 1293.89 36.0892 1294.01 36.2167C1293.72 36.4069 1293.46 36.6263 1293.22 36.871C1293.46 36.6259 1293.73 36.4059 1294.02 36.2148H1294.01ZM1291.36 31.3754C1291.41 31.2089 1291.46 31.0424 1291.5 30.876C1291.44 30.8203 1291.36 30.7894 1291.27 30.7894C1291.18 30.7894 1291.1 30.8203 1291.04 30.876C1290.55 31.2225 1290.94 31.3289 1291.36 31.3812V31.3754ZM1289.62 25.0629C1289.65 25.0532 1289.7 24.9951 1289.74 24.9603C1289.65 24.8809 1289.57 24.9003 1289.51 25.0145C1289.54 25.0377 1289.58 25.0764 1289.62 25.0687V25.0629ZM1284.47 45.3438C1284.4 45.2478 1284.3 45.1699 1284.18 45.1165C1284.07 45.0631 1283.95 45.0355 1283.82 45.036C1283.7 45.5645 1283.72 45.5723 1284.47 45.3438ZM1284.17 43.1738C1283.8 42.7093 1282.7 43.9191 1282.74 43.9482C1282.79 43.9772 1284.55 43.6384 1284.17 43.1661V43.1738ZM1280.89 37.9221L1279.99 38.1273C1280.51 38.799 1281.87 38.9558 1280.89 37.9144V37.9221ZM1265.81 43.3423C1267.23 44.0507 1270.15 43.4758 1270.95 42.1808C1269.34 40.9671 1264.43 42.6493 1265.81 43.3306L1265.81 43.3423ZM1265.07 53.6676C1257.86 56.2073 1250.39 58.6328 1242.88 60.5531C1250.18 58.7006 1257.96 56.2035 1265.07 53.6676ZM1247.61 58.1741C1253.17 55.7273 1258.99 53.7508 1264.5 51.4531C1260.61 53.1101 1256.35 53.867 1252.45 55.5472C1250.35 56.4532 1248.28 57.4481 1246.19 58.3754C1240.8 60.7544 1235.25 63.3309 1229.63 65.1041C1235.73 63.1703 1241.78 60.7467 1247.61 58.176V58.1741ZM1222.86 67.2721C1222.61 67.4967 1222.35 67.7135 1222.07 67.9574C1222.16 67.8974 1222.24 67.8393 1222.32 67.7832C1222.59 67.5896 1222.84 67.396 1223.07 67.2528L1222.82 67.3302L1222.86 67.2721Z" fill="#884F56"/>
<path d="M1242.88 60.5544C1250.39 58.6342 1257.86 56.2087 1265.06 53.6689C1257.96 56.2029 1250.18 58.7 1242.88 60.5544Z" fill="#884F56"/>
<path d="M1179.83 95.2091C1180.07 95.0929 1180.31 94.9691 1180.54 94.8219L1180.56 94.791C1180.64 94.8821 1180.69 94.9905 1180.72 95.1071C1180.75 95.2237 1180.75 95.345 1180.72 95.4607C1182.62 94.1057 1186.01 93.7457 1188.21 93.043C1191.03 92.1487 1193.97 91.3337 1196.62 90.0464C1201.76 87.5532 1205.58 83.159 1209.48 79.2449C1210.85 80.538 1198.33 89.5664 1196.89 90.2787C1194.45 91.4924 1191.77 92.3016 1189.17 93.1688C1187.59 93.6934 1182.3 96.2079 1180.68 95.5614C1180.46 96.1247 1178.09 98.9451 1177.61 98.3412C1176.93 97.501 1179.45 95.0252 1179.83 95.2091Z" fill="#884F56"/>
<path d="M1251.56 12.1161L1251.5 12.1779L1251.35 12.0465L1251.51 11.9614C1251.53 12.0143 1251.54 12.0661 1251.56 12.1161Z" fill="#884F56"/>
<path d="M1303.43 9.79741L1303.02 9.72589C1303.19 9.71043 1303.37 9.69883 1303.54 9.6853C1303.5 9.72589 1303.47 9.75875 1303.43 9.79741Z" fill="#884F56"/>
<path d="M1330.34 10.9783C1331.11 11.3925 1315.15 40.0573 1314.13 42.053C1315.5 39.3584 1327.86 9.64258 1330.34 10.9783ZM1322.44 25.3281L1322.34 25.4384L1322.49 25.421L1322.44 25.3281ZM1325.64 19.1201C1325.64 19.1607 1325.62 19.2014 1325.61 19.2498H1325.76C1325.82 19.1278 1325.78 19.0833 1325.64 19.1201Z" fill="#884F56"/>
<path d="M1242.32 64.7538C1242.35 64.7907 1242.38 64.8245 1242.42 64.8543L1241.79 64.9664C1241.71 64.7306 1241.89 64.661 1242.32 64.7538Z" fill="#884F56"/>
<path d="M1266.05 56.9582C1265.66 57.5544 1268.8 57.6899 1269.38 56.1839C1269.24 56.064 1269.07 55.9887 1268.88 55.9686C1268.69 55.9485 1268.5 55.9845 1268.34 56.0716C1269.83 55.4909 1287.38 49.2965 1287.68 50.0708C1287.74 50.2431 1270.26 57.1053 1268.6 57.7383C1262.07 60.2277 1254.8 61.7686 1248.02 63.6153C1246.6 64.0024 1245.17 64.3025 1243.72 64.5832C1243.76 64.5391 1243.79 64.4911 1243.82 64.4399C1251.34 62.5332 1258.76 59.5657 1266.05 56.9582Z" fill="#884F56"/>
<path d="M1229.18 56.5477C1229.15 56.529 1229.12 56.5152 1229.08 56.5071C1229.85 55.0572 1230.99 52.6007 1232.4 51.5573C1232.48 51.3544 1232.61 51.1671 1232.76 51.0037C1233.08 50.226 1233.49 49.483 1233.98 48.7872C1234.23 49.0079 1234.56 49.0512 1234.97 48.9169C1234.86 48.6414 1234.67 48.406 1234.41 48.2472C1235.75 46.5418 1250.41 26.9693 1251.69 28.001C1251.72 28.0243 1246.82 34.2284 1246.41 34.8246C1246.16 34.9119 1245.95 35.0517 1245.77 35.233L1245.99 35.444C1243.02 39.9643 1239.64 44.2347 1235.9 48.2085C1232.03 52.3103 1229.45 57.3201 1225.79 61.5884C1226.84 60.365 1227.82 58.5164 1228.76 57.0452C1228.88 57.0154 1228.98 56.9512 1229.06 56.8618C1229.13 56.7724 1229.18 56.6624 1229.18 56.5477Z" fill="#884F56"/>
<path d="M1259.84 16.8316C1262.21 14.5087 1264.66 12.0386 1266.75 9.6499C1265.53 11.032 1264.72 12.5826 1263.76 14.1409C1262.36 16.4289 1260.57 18.6725 1258.74 20.7341C1257.11 22.5692 1254.79 23.9029 1253.28 25.3663C1255.63 23.0899 1257.02 20.0082 1259.18 17.5343C1259.67 17.451 1259.77 17.3097 1259.84 16.8316Z" fill="#884F56"/>
<path d="M1326.1 7.46459C1326.17 7.19745 1311.81 5.20362 1310.63 5.01585L1310.83 4.95003C1310.92 4.66378 1310.91 4.36108 1310.82 4.07796C1310.72 3.79483 1310.55 3.54321 1310.31 3.35303C1311.42 3.5408 1326.3 6.75804 1326.1 7.46459Z" fill="#884F56"/>
<path d="M1282.74 0.569588C1282.81 0.621385 1282.89 0.648562 1282.97 0.64607C1283.06 0.643577 1283.14 0.611588 1283.21 0.55604C1292.09 0.410858 1301.09 2.01947 1309.85 3.28159C1308.56 3.37257 1309.7 4.2727 1309.65 4.85149C1305.99 4.21656 1302.28 3.98234 1298.64 3.27191C1298.7 3.22352 1299.17 2.87121 1298.92 2.76087C1298.76 2.75936 1298.6 2.79352 1298.45 2.86069C1298.31 2.92785 1298.18 3.02619 1298.08 3.14802C1297.41 2.99316 1296.75 2.80346 1296.08 2.6486C1289.08 0.993521 1281.79 1.31292 1274.68 0.325684C1277.09 0.668313 1280.14 0.668312 1282.74 0.569588ZM1298.5 2.27693C1298.55 2.3079 1298.72 2.23434 1298.83 2.20918C1299.65 1.55683 1297.97 1.94592 1298.5 2.27693Z" fill="#884F56"/>
<path opacity="0.6" d="M-58 466.588C-37 465.088 8.9 460.888 24.5 456.088C44 450.088 131 403.588 146 396.088C161 388.588 213.5 355.588 221 324.088C228.5 292.588 188.5 285.588 168.5 302.088C154.804 313.387 158 370.088 184.5 387.588C211 405.088 293.5 364.088 332 275.588C370.5 187.088 537 222.588 566 196.088C595 169.588 798.5 217.588 822.5 233.588C846.5 249.588 942.5 212.588 960.5 196.088C976.379 181.532 987.5 138.588 999.5 120.088C1011.5 101.588 1058.5 94.0877 1083 95.0877C1095.5 95.598 1109 95.5884 1118 97.5879C1125 99.5884 1172.2 104.688 1179 95.0877" stroke="#50735F" stroke-dasharray="4 4"/>
</svg>
