<svg width="62" height="47" viewBox="0 0 62 47" fill="none" xmlns="http://www.w3.org/2000/svg">
<path fill-rule="evenodd" clip-rule="evenodd" d="M22.9776 20.4902C24.2533 21.4586 25.7316 21.9996 26.7239 22.2063L27 20.9881C26.1683 20.8149 24.8803 20.3445 23.7848 19.513C22.6989 18.6887 21.8411 17.5432 21.7348 16L20.4358 16C20.4358 17.0828 19.4617 19.9203 15 20.9926L15.3162 22.2018C17.8501 21.5928 19.4612 20.4559 20.4358 19.264L20.4358 31L21.7362 31L21.7362 19.3053C22.1074 19.7586 22.5325 20.1524 22.9776 20.4902Z" fill="white"/>
<path d="M35.34 31.112H36.586L38.378 30.454L39.358 29.152L39.666 28.158V21.046H38.504V28.004L38.322 28.634L37.65 29.516L36.404 29.964H35.522L34.276 29.516L33.604 28.634L33.422 28.004V21.046H32.26V28.158L32.568 29.152L33.548 30.454L35.34 31.112ZM42.2558 31H43.4178V26.856H46.7918L48.0798 26.212L48.7658 25.204L49.1438 23.832L48.7378 22.418L47.7018 21.382L46.3998 21.046H42.2558V31ZM43.4178 25.708V22.194H46.2738L47.0998 22.432L47.7018 23.034L47.9398 23.874L47.7018 24.7L47.2958 25.302L46.4558 25.708H43.4178Z" fill="white"/>
<path d="M61.6717 22.52C61.3029 20.6281 60.46 18.8578 59.5905 17.0786C58.721 15.2994 57.783 13.5467 56.5513 11.8903C54.3346 8.91944 51.2393 6.37895 47.5087 4.46846C43.6383 2.48298 39.1637 1.2188 34.5824 0.553179C30.3248 -0.0656218 25.2143 -0.523714 21.3156 1.23019C19.5465 2.02615 18.2613 3.34347 17.1431 4.61651C16.8711 4.92274 16.6057 5.23278 16.3403 5.54282L15.8029 5.79591C13.8202 6.74752 11.9793 7.78391 10.3203 9.04681C8.69135 10.2869 7.24935 11.6701 5.85741 13.0633C4.39387 14.4969 3.13927 16.0464 2.11553 17.6847C1.09745 19.3576 0.593423 21.1014 0.266301 22.916C-0.0674968 24.7902 -0.145935 26.6795 0.374789 28.5384C0.881532 30.2703 1.63534 31.9552 2.62291 33.5635C4.55393 36.7853 7.43294 39.8641 11.1348 42.0482C13.0624 43.1871 15.1403 44.2564 17.3284 45.0727C19.4079 45.8458 21.6511 46.3242 23.9242 46.6317C26.2491 46.9468 28.6508 47.1518 30.9957 46.8582C32.2425 46.7025 33.4575 46.352 34.6792 46.1141C35.9009 45.8762 37.1827 45.8952 38.4311 45.6839C39.2604 45.5238 40.0709 45.3121 40.8544 45.0511C41.1681 45.0208 41.4758 44.9618 41.7707 44.8752C41.8795 44.8436 41.9688 44.7822 42.021 44.7031C43.0792 44.4007 44.1457 44.116 45.1788 43.7642C46.2553 43.3972 47.4035 43.2226 48.4584 42.8037C49.5132 42.3848 50.5897 41.9268 51.6111 41.4484C53.5404 40.5462 55.0258 39.3339 56.3176 37.933C57.6995 36.4335 59.0397 34.7973 60.0495 33.1345C62.0306 29.8507 62.361 26.0543 61.6717 22.52ZM6.31471 35.8489C5.71951 34.9925 5.24727 34.0901 4.9061 33.1573C5.42849 33.9912 6.30303 34.9162 6.31471 35.8489ZM0.983974 24.6699C1.18091 21.8531 2.03711 19.1665 3.82126 16.6875C5.52362 14.3275 7.80512 12.1509 10.1951 10.1705C11.1852 9.35605 12.2626 8.60518 13.4163 7.92564C12.4967 8.66592 11.6188 9.44417 10.7459 10.1781C9.07935 11.5712 7.59998 13.0866 6.32973 14.7021C5.0714 16.2771 3.99748 17.9328 3.12027 19.6499C2.25406 21.4051 2.05046 23.283 2.19399 25.142C2.32922 26.8151 2.71671 28.4709 3.34892 30.0772C3.34892 30.1392 3.34892 30.2037 3.34892 30.2645C3.36894 31.8341 3.78241 33.3865 4.56729 34.839C2.27744 31.7552 0.736945 28.2157 0.985625 24.6699H0.983974ZM13.7417 8.6267L13.453 8.96836C12.1178 10.535 10.7959 12.1155 9.64267 13.7682C8.4894 15.4208 7.63988 17.1849 6.80539 18.9565C5.34836 22.0062 3.93473 25.0546 3.49412 28.2676C3.2855 27.4704 3.12862 26.6643 3.0218 25.8633C2.78147 24.036 2.92166 22.2011 3.62598 20.4396C4.32361 18.6983 5.57535 17.009 6.75366 15.4322C7.95186 13.8524 9.35763 12.3686 10.9495 11.0032C11.8508 10.2009 12.7787 9.39735 13.7434 8.6267H13.7417ZM29.6589 46.1862C27.2121 46.3469 24.6152 45.9939 22.2402 45.5674C19.8648 45.1326 17.5979 44.4092 15.5275 43.425C14.4444 42.9189 13.3695 42.3836 12.3431 41.8027C14.9367 43.0884 17.8624 44.0666 20.7064 44.7677C23.0781 45.3668 25.5441 45.7247 28.0399 45.8319C29.6286 45.8722 31.219 45.818 32.7966 45.6699C31.7668 45.8952 30.7437 46.1103 29.6605 46.1862H29.6589ZM60.9007 26.4783C60.8127 28.3643 60.3264 30.2275 59.4603 31.9968C58.6041 33.7469 57.1655 35.3832 55.8336 36.9435C54.5018 38.5037 52.9212 39.8299 50.8033 40.8195C49.8553 41.2637 48.8589 41.6635 47.8826 42.0723C46.7643 42.5405 45.4992 42.7366 44.3393 43.1353C43.1793 43.5339 42.0027 43.8161 40.8444 44.1666C40.549 44.2564 40.2553 44.345 39.9615 44.4298C39.2305 44.4602 38.4728 44.4298 37.7918 44.4804C36.4283 44.5766 35.0681 44.7183 33.7078 44.8411C31.0374 45.0828 28.3571 45.2207 25.6833 44.9031C20.7982 44.3273 16.1551 42.8164 12.0777 40.717C9.80832 39.5537 7.92354 38.009 6.57007 36.2032C6.64491 36.205 6.71776 36.1848 6.77342 36.1468C6.82909 36.1088 6.86325 36.056 6.86881 35.9994C6.95393 35.2807 6.5467 34.6758 6.14614 34.0456C5.59705 33.1826 5.09301 32.3031 4.64406 31.4059C4.53947 31.1916 4.43878 30.9756 4.34198 30.758C4.20345 29.0787 4.58898 27.3413 4.98454 25.7177C5.45686 23.7803 6.41485 21.9214 7.29441 20.0726C8.18899 18.1985 9.02514 16.3218 10.2085 14.5376C11.3167 12.8697 12.6335 11.2854 13.967 9.7175C14.8727 8.65032 15.7762 7.58143 16.6775 6.51087C18.2903 5.52078 20.0959 4.72635 22.0299 4.15588C22.9341 3.89913 23.8596 3.68777 24.8004 3.52316C25.0341 3.48647 25.2677 3.45104 25.5031 3.42067C26.0872 3.34474 26.6714 3.34601 27.2622 3.28148C27.6527 3.23845 28.0333 3.17898 28.4188 3.15493C28.6324 3.15493 28.8461 3.14226 29.0614 3.141C29.6672 3.141 29.6605 2.45513 29.0614 2.43109C28.6328 2.41766 28.2035 2.43121 27.7779 2.47159C26.5271 2.54302 25.2875 2.70059 24.0744 2.94233C23.4115 3.06925 22.7575 3.22172 22.115 3.39915L22.0366 3.42194C20.7169 3.78597 19.4339 4.22243 18.1979 4.72787C19.2944 3.51051 20.5562 2.37794 22.2869 1.65664C24.4249 0.770831 27.0169 0.717693 29.3918 0.813867C31.7987 0.91726 34.1872 1.19394 36.5251 1.64019C41.1882 2.526 45.6544 4.13311 49.3529 6.47291C53.0514 8.81271 55.7468 11.951 57.5844 15.331C59.5554 18.9236 61.0792 22.544 60.9023 26.4783H60.9007Z" fill="white"/>
</svg>
