<svg width="29" height="40" viewBox="0 0 29 40" fill="none" xmlns="http://www.w3.org/2000/svg">
<g filter="url(#filter0_d_1_67729)">
<path d="M15.88 14.12C15.8533 14.1733 15.7867 14.1867 15.68 14.16C15.6 14.1067 15.5333 14.0933 15.48 14.12C15.4 14.12 15.3467 14.1867 15.32 14.32C15.2933 14.4267 15.2667 14.4933 15.24 14.52C15.16 14.4667 15.0533 14.48 14.92 14.56C14.7867 14.64 14.68 14.6533 14.6 14.6C14.5467 14.6533 14.56 14.6933 14.64 14.72C14.6933 14.7467 14.72 14.7867 14.72 14.84C14.5867 14.8133 14.4533 14.8133 14.32 14.84C14.2133 14.8667 14.1333 14.9067 14.08 14.96C14.0267 14.9867 13.9333 15.0533 13.8 15.16C13.6933 15.24 13.6133 15.2933 13.56 15.32C13.56 15.3467 13.6133 15.3467 13.72 15.32C13.7467 15.2933 13.76 15.32 13.76 15.4C13.6 15.4267 13.4 15.52 13.16 15.68C12.92 15.8133 12.7333 15.8933 12.6 15.92C14.68 16.4533 16.2 17.1867 17.16 18.12C17.16 18.1467 17.16 18.1867 17.16 18.24L17.12 18.28C17.28 18.44 17.4133 18.6267 17.52 18.84C17.6267 19.0533 17.7333 19.3067 17.84 19.6C17.9467 19.8667 18.04 20.08 18.12 20.24C18.04 20.96 18.1067 21.6667 18.32 22.36C18.08 23.6133 17.5467 24.64 16.72 25.44C16.72 25.4667 16.7067 25.5067 16.68 25.56C16.6533 25.6133 16.6667 25.64 16.72 25.64C16.6933 25.6667 16.64 25.72 16.56 25.8C16.48 25.8533 16.4133 25.8933 16.36 25.92C16.3067 26.08 16.1733 26.24 15.96 26.4C15.7733 26.56 15.6667 26.7067 15.64 26.84C15.08 27.08 14.7867 27.32 14.76 27.56C14.6 27.56 14.4133 27.64 14.2 27.8C13.9867 27.9867 13.7867 28.0933 13.6 28.12C13.5733 28.12 13.56 28.1733 13.56 28.28C13.5333 28.28 13.5067 28.2533 13.48 28.2C13.4533 28.1733 13.4267 28.16 13.4 28.16C13.3467 28.1867 13.32 28.2267 13.32 28.28C13.3467 28.3333 13.3467 28.3733 13.32 28.4C13.16 28.3467 13.0533 28.3333 13 28.36C12.9467 28.3867 12.8667 28.4267 12.76 28.48C12.68 28.56 12.6133 28.6133 12.56 28.64C12.56 28.6133 12.5733 28.5867 12.6 28.56C12.6533 28.5333 12.68 28.4933 12.68 28.44C12.6267 28.4133 12.52 28.5333 12.36 28.8C12.4133 28.8267 12.4933 28.8 12.6 28.72C12.7333 28.64 12.8267 28.6 12.88 28.6C12.8267 28.7333 12.6267 28.8267 12.28 28.88C12.28 28.72 12.24 28.6267 12.16 28.6C12.1333 28.68 12.1733 28.8267 12.28 29.04C11.2933 29.44 10.7333 29.7067 10.6 29.84C10.3067 29.68 10.1067 29.6667 10 29.8C10 29.8267 10.0267 29.84 10.08 29.84C10.1333 29.84 10.1733 29.8267 10.2 29.8C10.2533 29.8 10.3067 29.8133 10.36 29.84C10.2533 29.92 10.1333 29.9467 10 29.92C9.86667 29.92 9.74667 29.9467 9.64 30C9.64 30.0533 9.69333 30.08 9.8 30.08C7.82667 30.88 6.28 31.08 5.16 30.68V30.48C5.02667 30.4533 4.90667 30.4 4.8 30.32C4.69333 30.24 4.61333 30.16 4.56 30.08C4.50667 30.0267 4.44 29.9333 4.36 29.8C4.28 29.6667 4.21333 29.5733 4.16 29.52C4.10667 29.1467 4.08 28.8933 4.08 28.76C4.05333 28.6267 4.06667 28.36 4.12 27.96C4.17333 27.5867 4.2 27.3467 4.2 27.24C4.28 26.9733 4.46667 26.6267 4.76 26.2C5.05333 25.8 5.24 25.4933 5.32 25.28C5.34667 25.3067 5.36 25.3467 5.36 25.4C6.29333 24.76 7.21333 24.3333 8.12 24.12C8.06667 24.0933 7.66667 24.2 6.92 24.44C6.94667 24.3067 7.17333 24.1733 7.6 24.04C7.92 23.9333 8.30667 23.88 8.76 23.88C8.73333 23.96 8.62667 24.0533 8.44 24.16C8.25333 24.2667 8.2 24.4133 8.28 24.6C8.17333 24.7333 7.88 24.9467 7.4 25.24C7.4 25.2667 7.41333 25.3067 7.44 25.36C7.46667 25.3867 7.48 25.4133 7.48 25.44C7.10667 25.5467 6.92 25.72 6.92 25.96C6.70667 25.96 6.52 26.0933 6.36 26.36C6.38667 26.3867 6.4 26.3867 6.4 26.36C6.42667 26.3333 6.46667 26.3067 6.52 26.28C6.44 26.44 6.18667 26.72 5.76 27.12C5.33333 27.52 5.06667 27.88 4.96 28.2C5.2 28.68 5.85333 28.8933 6.92 28.84C6.94667 28.8933 6.92 28.9333 6.84 28.96C6.78667 29.0133 6.76 29.0533 6.76 29.08C6.68 29.1067 6.30667 29.1867 5.64 29.32C5.66667 29.4 5.65333 29.4667 5.6 29.52C5.94667 29.5733 6.45333 29.5333 7.12 29.4C7.81333 29.2667 8.25333 29.1867 8.44 29.16C8.62667 29.0533 8.82667 28.9467 9.04 28.84C9.28 28.76 9.54667 28.6667 9.84 28.56C10.1333 28.4533 10.36 28.36 10.52 28.28C10.52 28.2533 10.5067 28.2267 10.48 28.2C10.4267 28.12 10.44 28.08 10.52 28.08C10.5467 28.16 10.6 28.2 10.68 28.2C10.7333 28.2 10.76 28.16 10.76 28.08C10.7867 28.0267 10.8133 27.9867 10.84 27.96C10.76 27.9333 10.6933 27.9467 10.64 28C10.6133 28.0533 10.5733 28.08 10.52 28.08C10.4933 28.0267 10.4667 28 10.44 28C10.4133 28.0267 10.3733 28.04 10.32 28.04C10.2667 28.0667 10.2267 28.08 10.2 28.08C11.1867 27.6 11.96 27.2 12.52 26.88C13.1067 26.5867 13.7733 26.1867 14.52 25.68C15.2933 25.1467 15.9333 24.56 16.44 23.92C16.9467 23.28 17.3467 22.5733 17.64 21.8C17.6133 21.4533 17.56 21.08 17.48 20.68C17.4267 20.4667 17.28 20.2133 17.04 19.92C16.8 19.6267 16.6533 19.4133 16.6 19.28C15.5067 18.5333 14.2533 18.0133 12.84 17.72C11.3733 17.5333 10.4667 17.24 10.12 16.84C10.12 16.7867 10.1067 16.6933 10.08 16.56C10.0533 16.4267 10.08 16.3467 10.16 16.32C10.0533 16.24 10.0133 16.1733 10.04 16.12C10.0667 16.04 10.12 15.92 10.2 15.76C10.3067 15.5733 10.36 15.4 10.36 15.24C10.4667 15.16 10.64 15.0667 10.88 14.96C11.1467 14.8267 11.3733 14.7067 11.56 14.6C11.7733 14.4933 11.9467 14.3733 12.08 14.24C12.1067 14.24 12.1333 14.2533 12.16 14.28C12.1867 14.3067 12.2267 14.3067 12.28 14.28C12.3867 14.2 12.48 14.2 12.56 14.28C12.2933 14.4667 12.0533 14.5733 11.84 14.6C11.7867 14.6267 11.7067 14.68 11.6 14.76C11.52 14.84 11.4533 14.8933 11.4 14.92C11.3467 14.9467 11.28 14.9333 11.2 14.88V15.08C11.0933 15.08 11.0133 15.0933 10.96 15.12C10.9067 15.12 10.8533 15.16 10.8 15.24C10.7467 15.2933 10.7067 15.3333 10.68 15.36C10.9467 15.3333 11.4 15.1333 12.04 14.76C12.68 14.36 13.16 14.1467 13.48 14.12C13.4267 13.88 13.3867 13.7467 13.36 13.72C13.3333 13.72 13.3067 13.76 13.28 13.84C13.2533 13.92 13.1867 13.9333 13.08 13.88C13.2133 13.72 13.3867 13.5867 13.6 13.48C13.84 13.3733 14.04 13.3467 14.2 13.4C14.1733 13.4533 14.0933 13.48 13.96 13.48C13.8533 13.48 13.7867 13.4933 13.76 13.52C13.8667 13.5733 13.8667 13.6267 13.76 13.68C13.68 13.7067 13.6267 13.6667 13.6 13.56C13.5467 13.56 13.5333 13.5867 13.56 13.64C13.5867 13.6933 13.6 13.7333 13.6 13.76C13.68 13.76 13.7867 13.7333 13.92 13.68C14.0533 13.6 14.1733 13.56 14.28 13.56C14.3333 13.56 14.3467 13.5467 14.32 13.52C14.2933 13.4667 14.28 13.4267 14.28 13.4C14.4933 13.3733 14.6667 13.2933 14.8 13.16C14.7733 13.1067 14.68 13.12 14.52 13.2C14.3867 13.28 14.2933 13.2933 14.24 13.24C14.2933 13.1333 14.4 13.0667 14.56 13.04C14.72 13.0133 14.84 13.0533 14.92 13.16C14.9467 13.1067 15 13.0667 15.08 13.04C15.16 12.9867 15.2133 12.9467 15.24 12.92C15.2667 12.84 15.24 12.8 15.16 12.8C15.1067 12.8 15.08 12.7733 15.08 12.72C15.3467 12.4267 15.8133 12.2133 16.48 12.08C16.48 12.0267 16.4533 12.0267 16.4 12.08C16.3467 12.1067 16.2933 12.1067 16.24 12.08C16.8267 11.5467 17.32 11.2 17.72 11.04C17.8 10.96 18.08 10.7333 18.56 10.36C19.0667 9.96 19.4 9.70667 19.56 9.6C19.72 9.46667 19.9867 9.22667 20.36 8.88C20.76 8.53333 21.0533 8.25333 21.24 8.04C21.4533 7.8 21.6933 7.52 21.96 7.2C22.2267 6.85333 22.4533 6.52 22.64 6.2C22.6667 6.2 22.7067 6.16 22.76 6.08C22.84 6 22.9067 5.96 22.96 5.96C22.96 5.93333 23.0133 5.81333 23.12 5.6C23.2267 5.38667 23.2933 5.24 23.32 5.16C23.3467 5.08 23.3867 4.94667 23.44 4.76C23.52 4.54667 23.56 4.38667 23.56 4.28C23.5867 4.14667 23.5867 4 23.56 3.84C23.5333 3.65333 23.4933 3.48 23.44 3.32C23.1467 2.78667 22.4133 2.36 21.24 2.04C21.0533 2.04 20.7067 2.05333 20.2 2.08C19.72 2.08 19.4133 2.06666 19.28 2.04C19.0667 2.12 18.3867 2.26667 17.24 2.48C15 3.36 13.1067 4.24 11.56 5.12C10.04 6 8.78667 7.10667 7.8 8.44C7.77333 8.44 7.73333 8.45333 7.68 8.48C7.65333 8.48 7.62667 8.48 7.6 8.48C7.6 8.56 7.56 8.65333 7.48 8.76C7.4 8.84 7.37333 8.92 7.4 9L7.36 9.04C7.33333 9.06667 7.30667 9.08 7.28 9.08C7.28 9.8 7.18667 10.2533 7 10.44C6.94667 10.4667 6.90667 10.4667 6.88 10.44C6.85333 10.4133 6.81333 10.4 6.76 10.4C6.76 10.32 6.74667 10.2667 6.72 10.24C6.69333 10.1867 6.64 10.1467 6.56 10.12C6.50667 10.0933 6.46667 10.08 6.44 10.08C6.30667 9.78667 6.30667 8.90667 6.44 7.44C6.46667 7.38667 6.58667 7.25333 6.8 7.04C6.77333 6.98667 6.77333 6.93333 6.8 6.88C6.82667 6.82667 6.84 6.78667 6.84 6.76C7 6.62667 7.30667 6.36 7.76 5.96C8.21333 5.56 8.54667 5.28 8.76 5.12C9 4.93333 9.30667 4.69333 9.68 4.4C10.08 4.08 10.4533 3.81333 10.8 3.6C11.1733 3.38667 11.5467 3.18667 11.92 3C13.1467 2.22667 15.0533 1.42667 17.64 0.599998C17.7467 0.599998 17.8 0.639998 17.8 0.719999C17.9067 0.586666 18.1467 0.519999 18.52 0.519999C18.8933 0.519999 19.1333 0.466666 19.24 0.359999C19.3733 0.359999 19.5867 0.359999 19.88 0.359999C20.1733 0.333332 20.44 0.333332 20.68 0.359999C20.9467 0.386665 21.1867 0.439998 21.4 0.519999C21.4 0.546665 21.3867 0.573332 21.36 0.599998C21.3333 0.626666 21.32 0.653333 21.32 0.679999C21.4 0.653333 21.4933 0.64 21.6 0.64C21.7333 0.64 21.84 0.626666 21.92 0.599998C22.0267 0.706665 22.24 0.853332 22.56 1.04C22.88 1.2 23.0933 1.34667 23.2 1.48C23.2267 1.66667 23.3467 1.8 23.56 1.88C23.6133 2.09333 23.68 2.36 23.76 2.68C23.84 2.97333 23.92 3.24 24 3.48C24.08 3.72 24.1733 3.94667 24.28 4.16C24.36 5.44 24.04 6.49333 23.32 7.32C23.2933 7.48 23.1733 7.69333 22.96 7.96C22.7467 8.22667 22.6267 8.38667 22.6 8.44C22.4933 8.44 22.4267 8.42667 22.4 8.4C22.4533 8.53333 22.36 8.72 22.12 8.96C21.88 9.2 21.76 9.37333 21.76 9.48C21.5467 9.48 21.4267 9.50667 21.4 9.56C21.3733 9.58667 21.3867 9.61333 21.44 9.64C21.4933 9.64 21.5067 9.66667 21.48 9.72C20.76 10.28 20.3333 10.7333 20.2 11.08C20.0667 11.1067 19.88 11.2267 19.64 11.44C19.4 11.6267 19.2 11.7333 19.04 11.76C19.04 11.7867 19.0667 11.8 19.12 11.8H19.16V11.88C19.1333 11.9067 19.0933 11.92 19.04 11.92C18.9867 11.92 18.96 11.9333 18.96 11.96C18.96 11.96 18.9733 11.9867 19 12.04C18.8933 12.0133 18.7333 12.04 18.52 12.12C18.52 12.1733 18.6 12.2 18.76 12.2C18.7067 12.36 18.5333 12.48 18.24 12.56C17.9467 12.64 17.76 12.72 17.68 12.8C17.8667 12.8 17.88 12.8533 17.72 12.96C17.56 13.0667 17.44 13.0667 17.36 12.96C17.36 12.9867 17.3333 13.0133 17.28 13.04C17.2533 13.0667 17.2133 13.0933 17.16 13.12C17.1333 13.1467 17.1067 13.1733 17.08 13.2C17.08 13.2533 17.1067 13.2667 17.16 13.24C17.2133 13.1867 17.2667 13.1733 17.32 13.2C17.16 13.2533 16.92 13.3867 16.6 13.6C16.28 13.7867 15.9867 13.9067 15.72 13.96C15.72 14.0667 15.7733 14.12 15.88 14.12ZM18.2 1.52H18.44V1.4C18.6533 1.42667 18.8133 1.44 18.92 1.44C19.0267 1.41333 19.1733 1.38667 19.36 1.36C19.5733 1.30667 19.72 1.28 19.8 1.28H19.72C19.6667 1.25333 19.64 1.21333 19.64 1.16C21.16 1.21333 21.9867 1.24 22.12 1.24C22.04 1.24 21.9333 1.17333 21.8 1.04C21.7733 1.04 21.7467 1.06667 21.72 1.12C21.6933 1.17333 21.64 1.18667 21.56 1.16C21.5867 1.08 21.5867 1.02667 21.56 1C21.5333 0.973332 21.48 0.946665 21.4 0.919999C21.3467 0.893332 21.3067 0.866666 21.28 0.84C21.2533 0.919999 21.2667 0.973332 21.32 1C21.3733 1.02667 21.4 1.05333 21.4 1.08C21.32 1.10667 21.2667 1.10667 21.24 1.08C21.2133 1.02667 21.2 0.973333 21.2 0.919999C21.2 0.866666 21.1867 0.826666 21.16 0.799998C21.1067 0.826666 21.08 0.879999 21.08 0.959998C21.08 1.04 21.0667 1.08 21.04 1.08C20.96 1.08 20.92 1.04 20.92 0.959998C20.9733 0.906665 21 0.853332 21 0.799998C20.8667 0.799998 20.6533 0.813332 20.36 0.84C20.0667 0.84 19.88 0.813333 19.8 0.759998L19.6 0.959998C19.5733 0.959998 19.5467 0.933332 19.52 0.879999C19.52 0.826665 19.5067 0.799998 19.48 0.799998L19.36 0.919999C19.36 0.946665 19.3867 0.973332 19.44 1C19.4933 1 19.5067 1.02667 19.48 1.08C19.4267 1.13333 19.3867 1.16 19.36 1.16C19.3333 1.13333 19.3067 1.08 19.28 1C19.2533 0.893333 19.2 0.84 19.12 0.84C19.0667 0.946667 19.0267 1.01333 19 1.04C19.08 1.04 19.12 1.08 19.12 1.16C19.0667 1.13333 19.0133 1.13333 18.96 1.16C18.9067 1.18667 18.8533 1.2 18.8 1.2C18.8267 0.933332 18.7067 0.866665 18.44 1V1.16C18.3867 1.13333 18.3733 1.08 18.4 1C18.3467 0.973332 18.3067 0.999998 18.28 1.08C18.2533 1.13333 18.2267 1.16 18.2 1.16C18.1733 1.10667 18.1467 1.08 18.12 1.08C18.0933 1.08 18.0533 1.09333 18 1.12C17.9733 1.12 17.92 1.10667 17.84 1.08C17.84 1.18667 17.7867 1.22667 17.68 1.2C17.6 1.17333 17.5333 1.2 17.48 1.28L17.68 1.48C17.6267 1.58667 17.56 1.64 17.48 1.64C17.5067 1.45333 17.4267 1.33333 17.24 1.28C17.24 1.33333 17.1867 1.37333 17.08 1.4C17 1.4 16.8933 1.41333 16.76 1.44C16.6533 1.44 16.5733 1.48 16.52 1.56C16.52 1.58667 16.5333 1.62667 16.56 1.68C16.5867 1.73333 16.5733 1.77333 16.52 1.8C16.4667 1.8 16.4533 1.76 16.48 1.68C16.48 1.62667 16.48 1.57333 16.48 1.52C16.4267 1.52 16.3467 1.54667 16.24 1.6C16.16 1.62667 16.08 1.65333 16 1.68C16 1.78667 15.9867 1.85333 15.96 1.88C15.96 1.77333 15.9333 1.72 15.88 1.72C15.8267 1.74667 15.7867 1.78667 15.76 1.84C15.7333 1.89333 15.7067 1.93333 15.68 1.96C15.68 1.90667 15.64 1.89333 15.56 1.92C15.4533 1.94667 15.3733 1.94667 15.32 1.92C15.24 2.08 15.04 2.16 14.72 2.16C14.72 2.21333 14.6667 2.24 14.56 2.24C14.56 2.32 14.5867 2.4 14.64 2.48C14.72 2.53333 14.7333 2.6 14.68 2.68C14.7867 2.70667 14.8933 2.64 15 2.48C14.84 2.42667 14.7467 2.38667 14.72 2.36L14.76 2.28C14.76 2.25333 14.7733 2.24 14.8 2.24C14.8267 2.24 14.84 2.26667 14.84 2.32C14.8667 2.37333 14.9067 2.4 14.96 2.4C15.0933 2.18666 15.2 2.14666 15.28 2.28L15.16 2.32C15.1067 2.37333 15.08 2.42667 15.08 2.48C15.5067 2.32 15.7733 2.21333 15.88 2.16C15.88 2.21333 15.92 2.24 16 2.24C16.24 2.05333 16.4133 1.98667 16.52 2.04C16.52 1.93333 16.5467 1.88 16.6 1.88C17.08 1.93333 17.6133 1.81333 18.2 1.52ZM16.92 1.16H17V1.04H16.92V1.16ZM16.36 1.4C16.44 1.4 16.52 1.38667 16.6 1.36C16.68 1.30667 16.6933 1.25333 16.64 1.2C16.6133 1.2 16.56 1.22667 16.48 1.28C16.4 1.30667 16.36 1.34667 16.36 1.4ZM15.92 1.48C16.1067 1.42667 16.2267 1.36 16.28 1.28C16.2533 1.30667 16.2 1.32 16.12 1.32C16.0667 1.32 16.0133 1.33333 15.96 1.36C15.9333 1.38667 15.92 1.42667 15.92 1.48ZM20 1.28C19.92 1.28 19.88 1.29333 19.88 1.32C19.96 1.32 20 1.30667 20 1.28ZM20.28 1.28C20.2267 1.28 20.2 1.29333 20.2 1.32C20.2533 1.32 20.28 1.30667 20.28 1.28ZM22.6 1.44C22.5733 1.44 22.5467 1.44 22.52 1.44L22.48 1.4C22.4533 1.42667 22.44 1.45333 22.44 1.48C22.52 1.56 22.5733 1.54667 22.6 1.44ZM15.64 1.56L15.84 1.48L15.8 1.44C15.8 1.46667 15.7733 1.48 15.72 1.48C15.6933 1.48 15.6667 1.49333 15.64 1.52C15.64 1.52 15.64 1.53333 15.64 1.56ZM15.2 1.72C15.2533 1.72 15.3067 1.70666 15.36 1.68C15.4133 1.62667 15.4667 1.61333 15.52 1.64C15.4933 1.42667 15.4133 1.41333 15.28 1.6C15.2267 1.65333 15.2 1.69333 15.2 1.72ZM14.68 2.04C14.84 2.04 14.8933 1.96 14.84 1.8L14.8 1.76C14.7733 1.76 14.7467 1.76 14.72 1.76C14.72 1.81333 14.6933 1.86667 14.64 1.92C14.5867 1.97333 14.6 2.01333 14.68 2.04ZM14.04 2.24C14.04 2.16 14.0133 2.12 13.96 2.12C13.96 2.22667 13.9867 2.26666 14.04 2.24ZM14.2 2.2H14.28V2.12H14.2V2.2ZM13.96 2.68C14.0933 2.73333 14.16 2.73333 14.16 2.68C14.1867 2.62667 14.2133 2.57333 14.24 2.52C14.2933 2.46667 14.3733 2.46667 14.48 2.52V2.36C14.16 2.41333 13.9867 2.52 13.96 2.68ZM13.48 2.76C13.4533 2.81333 13.4533 2.85333 13.48 2.88C13.5067 2.90667 13.52 2.93333 13.52 2.96C13.6 2.96 13.72 2.84 13.88 2.6C13.8267 2.62666 13.76 2.65333 13.68 2.68C13.6 2.70667 13.5333 2.73333 13.48 2.76ZM14.04 2.92C14.0933 2.89333 14.16 2.88 14.24 2.88C14.3467 2.88 14.4267 2.86667 14.48 2.84C14.5333 2.81333 14.56 2.76 14.56 2.68C14.3467 2.68 14.1733 2.76 14.04 2.92ZM13.24 3C13.1333 2.94667 13.0133 2.96 12.88 3.04C12.7733 3.12 12.7733 3.21333 12.88 3.32C12.9067 3.21333 13.0267 3.16 13.24 3.16V3C13.2667 3 13.2933 3.02667 13.32 3.08C13.3733 3.10667 13.4267 3.10667 13.48 3.08C13.48 3.02667 13.4667 2.98666 13.44 2.96C13.4133 2.93333 13.4 2.90667 13.4 2.88C13.3733 2.88 13.3333 2.89333 13.28 2.92C13.2 2.92 13.1867 2.94667 13.24 3ZM13.88 3H14V2.92H13.88V3ZM12.52 3.32L12.44 3.4L12.52 3.48C12.5467 3.45333 12.5467 3.42667 12.52 3.4C12.52 3.37333 12.52 3.34667 12.52 3.32C12.5467 3.29333 12.5733 3.29333 12.6 3.32C12.6267 3.34667 12.6533 3.36 12.68 3.36C12.68 3.33333 12.6933 3.30667 12.72 3.28C12.7467 3.22667 12.76 3.18666 12.76 3.16C12.6 3.13333 12.52 3.18667 12.52 3.32ZM12.16 3.48C12.2667 3.53333 12.3333 3.56 12.36 3.56V3.36C12.3067 3.36 12.24 3.4 12.16 3.48ZM11.56 3.88C11.64 3.8 11.7333 3.74666 11.84 3.72C11.9733 3.69333 12.0667 3.65333 12.12 3.6C12.0133 3.54667 11.8933 3.56 11.76 3.64C11.6533 3.69333 11.5867 3.77333 11.56 3.88ZM11.08 3.8L11.16 3.76C11.2133 3.76 11.24 3.74666 11.24 3.72L11.2 3.68C11.1733 3.65333 11.1467 3.64 11.12 3.64C11.12 3.66667 11.1067 3.70667 11.08 3.76V3.8ZM11.44 4.04C11.44 3.98667 11.4533 3.96 11.48 3.96C11.48 3.90667 11.4533 3.88 11.4 3.88C11.4 3.96 11.4133 4.01333 11.44 4.04ZM11.2 4.08H11.32V3.96H11.2V4.08ZM10.52 4.12H10.64V4.04H10.52V4.12ZM24.12 5.12C24.12 5.01333 24.0933 4.93333 24.04 4.88C24.0933 5.04 24.12 5.12 24.12 5.12ZM23.44 6.76C23.36 6.78667 23.32 6.84 23.32 6.92C23.4 6.92 23.44 6.86667 23.44 6.76H23.48C23.56 6.68 23.56 6.62667 23.48 6.6V6.64C23.4533 6.69333 23.44 6.73333 23.44 6.76ZM23.2 7.2H23.32V7.16C23.3467 7.13333 23.36 7.10667 23.36 7.08C23.3333 7.08 23.3067 7.08 23.28 7.08C23.2533 7.05333 23.2267 7.04 23.2 7.04V7.2ZM22.52 7.88C22.6533 7.88 22.72 7.84 22.72 7.76C22.56 7.76 22.4933 7.8 22.52 7.88ZM22.04 8.64H22.2C22.2 8.56 22.1467 8.52 22.04 8.52V8.64ZM21.24 8.72C21.2933 8.72 21.3467 8.69333 21.4 8.64C21.2933 8.64 21.24 8.66667 21.24 8.72ZM21.72 9H22C22.0267 8.92 21.9867 8.88 21.88 8.88C21.8 8.90667 21.7467 8.94667 21.72 9ZM20.6 9.16C20.6 9.24 20.5733 9.30667 20.52 9.36C20.4933 9.38667 20.4533 9.4 20.4 9.4C20.3467 9.37333 20.2933 9.37333 20.24 9.4C20.1867 9.4 20.1467 9.41333 20.12 9.44C20.2 9.46667 20.3333 9.50667 20.52 9.56C20.52 9.50667 20.56 9.45333 20.64 9.4C20.72 9.32 20.7733 9.26667 20.8 9.24C20.8267 9.21333 20.8133 9.17333 20.76 9.12C20.76 9.14667 20.7067 9.16 20.6 9.16ZM21.72 9.16V9.24C21.7467 9.26667 21.7733 9.26667 21.8 9.24C21.8 9.18667 21.7867 9.14667 21.76 9.12C21.76 9.14667 21.7467 9.16 21.72 9.16ZM20.96 9.6V9.44V9.6ZM21.08 9.64C21.1067 9.64 21.1333 9.65333 21.16 9.68H21.2C21.2 9.57333 21.16 9.53333 21.08 9.56V9.64ZM19.76 10.2C20.0533 9.98667 20.2533 9.8 20.36 9.64C20.2267 9.66667 20.0933 9.74667 19.96 9.88C19.8267 10.0133 19.76 10.12 19.76 10.2ZM19.24 10.56C19.4267 10.5333 19.56 10.4133 19.64 10.2C19.6133 10.2267 19.5467 10.28 19.44 10.36C19.3333 10.44 19.2667 10.5067 19.24 10.56ZM19.96 10.52C19.9067 10.4667 19.88 10.48 19.88 10.56H19.92L19.96 10.52C20.0133 10.52 20.0267 10.4933 20 10.44C19.9733 10.36 19.9733 10.3067 20 10.28C19.9467 10.2533 19.8933 10.3067 19.84 10.44C19.8667 10.44 19.9067 10.4667 19.96 10.52ZM20.24 10.32C20.2133 10.32 20.1733 10.32 20.12 10.32H20.24ZM19.56 10.64V10.52V10.64ZM20.12 10.88C20.0667 10.88 20.04 10.8933 20.04 10.92C20.0933 10.92 20.12 10.9067 20.12 10.88ZM19.32 11.12C19.3467 11.1733 19.3867 11.1867 19.44 11.16C19.4667 11.1067 19.4533 11.0533 19.4 11C19.4 11.0267 19.3867 11.04 19.36 11.04L19.32 11.12ZM18.44 11.24C18.4933 11.24 18.5467 11.2 18.6 11.12C18.4933 11.12 18.44 11.16 18.44 11.24ZM19.32 11.36C19.32 11.2533 19.2667 11.2133 19.16 11.24C19.16 11.32 19.2133 11.36 19.32 11.36ZM19.56 11.36C19.6133 11.36 19.6667 11.3333 19.72 11.28C19.6133 11.28 19.56 11.3067 19.56 11.36ZM17.88 11.72C17.9067 11.72 17.9467 11.7067 18 11.68C18.08 11.6533 18.1333 11.6267 18.16 11.6C18.1867 11.5467 18.2 11.48 18.2 11.4C18.12 11.4267 18.0133 11.5333 17.88 11.72ZM19.04 11.52C19.04 11.5467 19.0667 11.56 19.12 11.56C19.2267 11.48 19.2267 11.4267 19.12 11.4C19.12 11.4267 19.1067 11.4533 19.08 11.48C19.0533 11.48 19.04 11.4933 19.04 11.52ZM17.68 11.6C17.5733 11.6 17.5333 11.64 17.56 11.72C17.5867 11.7733 17.6 11.8267 17.6 11.88C17.44 11.9333 17.36 12 17.36 12.08C17.4933 12.0267 17.5733 11.96 17.6 11.88H17.8C17.8267 11.8267 17.8 11.8 17.72 11.8C17.6667 11.7733 17.64 11.7467 17.64 11.72C17.64 11.6933 17.64 11.68 17.64 11.68L17.68 11.6ZM18.8 11.76C18.8 11.7067 18.8133 11.6933 18.84 11.72C18.84 11.64 18.8133 11.6 18.76 11.6C18.76 11.7067 18.7733 11.76 18.8 11.76ZM16.88 12.12C17.0133 12.0667 17.08 12.04 17.08 12.04C17 12.04 16.9333 12.0667 16.88 12.12ZM17.16 12.2H17.32C17.32 12.12 17.2667 12.08 17.16 12.08V12.2ZM17.6 12.24C17.6 12.2133 17.6133 12.2 17.64 12.2C17.6933 12.1733 17.7067 12.1333 17.68 12.08C17.6267 12.0533 17.5867 12.0667 17.56 12.12C17.5333 12.1733 17.5467 12.2133 17.6 12.24ZM16.52 12.44H16.64V12.32H16.52V12.44ZM16.64 12.56C16.72 12.5867 16.8133 12.52 16.92 12.36C16.8133 12.36 16.72 12.4267 16.64 12.56ZM17.12 12.48C17.2533 12.6133 17.32 12.5733 17.32 12.36C17.2133 12.3867 17.1467 12.4267 17.12 12.48ZM15.68 12.6C15.7333 12.6 15.8 12.56 15.88 12.48C15.7467 12.5067 15.68 12.5467 15.68 12.6ZM16.88 12.72C16.9333 12.7467 16.96 12.72 16.96 12.64L17 12.56C16.92 12.56 16.88 12.6133 16.88 12.72ZM16.28 12.6L16.2 12.68L16.28 12.6ZM15.28 12.8H15.48V12.72H15.44L15.4 12.68L15.28 12.8ZM16.2 12.84C16.28 12.8667 16.3467 12.84 16.4 12.76C16.4533 12.7333 16.4533 12.7067 16.4 12.68C16.4 12.7067 16.3733 12.72 16.32 12.72C16.2133 12.7467 16.1733 12.7867 16.2 12.84ZM15.56 12.96V13.04H15.68C15.7067 12.96 15.6933 12.92 15.64 12.92L15.6 12.96H15.56ZM16 13.04C16 13.0133 16.0133 13 16.04 13C16.0933 12.9733 16.12 12.9467 16.12 12.92C16.0667 12.92 16.0267 12.96 16 13.04ZM15.32 13.24C15.32 13.2133 15.3467 13.2 15.4 13.2C15.3467 13.12 15.3067 13.08 15.28 13.08C15.28 13.1867 15.2933 13.24 15.32 13.24ZM16.2 13.28C16.2 13.1733 16.1867 13.1067 16.16 13.08C16.1067 13.1067 16.08 13.1467 16.08 13.2C16.1067 13.2533 16.1467 13.28 16.2 13.28ZM15.76 13.2C15.7333 13.2 15.7067 13.2 15.68 13.2H15.76ZM16.72 13.16C16.6667 13.16 16.64 13.1733 16.64 13.2C16.6933 13.2 16.72 13.1867 16.72 13.16ZM15.24 13.44C15.3733 13.4133 15.5067 13.3333 15.64 13.2C15.4267 13.2533 15.2933 13.3333 15.24 13.44ZM15 13.32C15.16 13.32 15.2267 13.2933 15.2 13.24C15.0667 13.24 15 13.2667 15 13.32ZM16.04 13.52C16.0933 13.5467 16.1467 13.5467 16.2 13.52C16.2533 13.4933 16.2667 13.4533 16.24 13.4C16.1067 13.4 16.04 13.44 16.04 13.52ZM14.72 13.52C14.88 13.52 14.9467 13.4933 14.92 13.44C14.7867 13.3867 14.72 13.4133 14.72 13.52ZM15 13.64C15.0533 13.64 15.1067 13.5733 15.16 13.44C15.08 13.4133 15.0267 13.4267 15 13.48C15 13.5067 15 13.56 15 13.64ZM14.36 13.68C14.4933 13.68 14.56 13.64 14.56 13.56C14.48 13.56 14.4133 13.6 14.36 13.68ZM15.96 13.68C15.96 13.6267 15.9467 13.6133 15.92 13.64C15.8933 13.72 15.92 13.7467 16 13.72C16.08 13.6933 16.1333 13.6667 16.16 13.64C16.1333 13.6133 16.0667 13.6267 15.96 13.68ZM14.76 13.72C14.92 13.72 14.9867 13.6933 14.96 13.64H14.76V13.72ZM15.16 13.76C15.2667 13.7067 15.32 13.68 15.32 13.68H15.16V13.76ZM14.36 13.76C14.3067 13.76 14.28 13.7733 14.28 13.8C14.3333 13.8 14.36 13.7867 14.36 13.76ZM13.76 14.16C13.76 14.1333 13.8 14.1067 13.88 14.08C13.96 14.0533 13.9867 14.0133 13.96 13.96C13.8533 13.96 13.7733 13.9867 13.72 14.04C13.6933 14.0933 13.7067 14.1333 13.76 14.16ZM14.12 14.12C14.2 14.12 14.2667 14.0667 14.32 13.96C14.1867 13.96 14.12 14.0133 14.12 14.12ZM15.28 13.96C15.2267 13.96 15.2 13.9733 15.2 14C15.2533 14 15.28 13.9867 15.28 13.96ZM13.16 14.36C13.2933 14.3867 13.3867 14.3733 13.44 14.32C13.4667 14.2667 13.44 14.2267 13.36 14.2C13.3867 14.2533 13.36 14.28 13.28 14.28C13.2 14.3067 13.16 14.3333 13.16 14.36ZM13.72 14.36C13.64 14.36 13.5467 14.3867 13.44 14.44C13.36 14.4933 13.3333 14.5467 13.36 14.6C13.3867 14.5733 13.44 14.5467 13.52 14.52C13.6267 14.4667 13.6933 14.4133 13.72 14.36C13.8533 14.28 13.9333 14.2267 13.96 14.2C13.8 14.2 13.72 14.2533 13.72 14.36ZM14.84 14.36H14.96V14.24H14.84V14.36ZM14.56 14.36C14.5067 14.36 14.48 14.3733 14.48 14.4C14.5333 14.4 14.56 14.3867 14.56 14.36ZM13 14.72C13.0533 14.7467 13.1067 14.7467 13.16 14.72C13.24 14.6667 13.24 14.6267 13.16 14.6C13.16 14.6267 13.1333 14.64 13.08 14.64C13.0533 14.64 13.0267 14.6533 13 14.68C13 14.68 13 14.6933 13 14.72ZM12.56 14.76C12.6667 14.76 12.7067 14.7333 12.68 14.68H12.6C12.6 14.7067 12.5867 14.72 12.56 14.72C12.56 14.72 12.56 14.7333 12.56 14.76ZM12.76 14.88C12.8667 14.88 12.9067 14.84 12.88 14.76H12.8C12.8 14.7867 12.7867 14.8133 12.76 14.84V14.88ZM12.84 15.08H13C13 15 12.9467 14.96 12.84 14.96V15.08ZM12.8 15.12C12.7733 15.12 12.7333 15.12 12.68 15.12H12.8ZM12.76 15.44C12.6267 15.44 12.56 15.4533 12.56 15.48C12.5867 15.5333 12.6133 15.56 12.64 15.56C12.6933 15.5333 12.7333 15.4933 12.76 15.44ZM13.64 16.4C13.64 16.4533 13.6133 16.48 13.56 16.48C13.5067 16.5333 13.48 16.5733 13.48 16.6C13.72 16.4667 13.84 16.3867 13.84 16.36C13.84 16.3867 13.7733 16.4 13.64 16.4ZM13.24 16.56H13.32C13.3467 16.5067 13.32 16.48 13.24 16.48C13.1867 16.4533 13.16 16.4667 13.16 16.52C13.2133 16.52 13.24 16.5333 13.24 16.56ZM14.2 16.64C14.2533 16.6133 14.3067 16.6133 14.36 16.64C14.4133 16.6667 14.4533 16.68 14.48 16.68C14.48 16.5733 14.4267 16.52 14.32 16.52C14.24 16.5467 14.2 16.5867 14.2 16.64ZM14 16.8C14 16.7733 14.0133 16.7467 14.04 16.72C14.0933 16.6667 14.0933 16.6267 14.04 16.6C14.04 16.6267 14.0267 16.6533 14 16.68C13.9467 16.7333 13.9467 16.7733 14 16.8ZM14.52 16.8H14.68C14.68 16.72 14.6267 16.68 14.52 16.68V16.8ZM14.56 16.88C14.5067 16.88 14.48 16.8933 14.48 16.92C14.5333 16.92 14.56 16.9067 14.56 16.88ZM14.76 17.04C14.8667 17.04 14.92 16.9867 14.92 16.88C14.84 16.8533 14.8 16.88 14.8 16.96L14.76 17.04ZM15.28 17.28C15.28 17.2533 15.2933 17.2267 15.32 17.2C15.3733 17.2 15.4 17.1867 15.4 17.16C15.3733 17.16 15.3467 17.1467 15.32 17.12C15.2933 17.0667 15.2533 17.0533 15.2 17.08C15.1733 17.16 15.2 17.2267 15.28 17.28ZM15.76 17.48C15.7333 17.4267 15.6667 17.3867 15.56 17.36C15.48 17.3333 15.4267 17.3067 15.4 17.28C15.4 17.36 15.52 17.4267 15.76 17.48ZM15.92 17.64C15.8933 17.64 15.8667 17.64 15.84 17.64C15.8133 17.6133 15.7867 17.6 15.76 17.6C15.7333 17.6533 15.7467 17.6933 15.8 17.72C15.88 17.72 15.92 17.6933 15.92 17.64ZM7.36 24.8C7.30667 24.8 7.28 24.8133 7.28 24.84C7.33333 24.84 7.36 24.8267 7.36 24.8ZM16.16 25.56C16.24 25.56 16.28 25.5333 16.28 25.48C16.2 25.48 16.16 25.5067 16.16 25.56ZM5.32 25.64H5.4V25.52H5.32V25.64ZM16.48 25.56C16.4533 25.56 16.4133 25.5467 16.36 25.52C16.3333 25.5467 16.3333 25.5733 16.36 25.6C16.4133 25.6 16.4533 25.5867 16.48 25.56ZM5.48 25.76C5.53333 25.76 5.57333 25.7867 5.6 25.84C5.62667 25.8933 5.66667 25.9067 5.72 25.88C5.74667 25.7733 5.72 25.7067 5.64 25.68C5.58667 25.6533 5.53333 25.68 5.48 25.76ZM15.04 25.72L15 25.68C14.9733 25.6533 14.9467 25.6533 14.92 25.68C14.8933 25.7067 14.8933 25.7333 14.92 25.76C14.9733 25.76 15.0133 25.7467 15.04 25.72ZM15.88 25.96C15.88 25.9333 15.9067 25.8933 15.96 25.84C16.0133 25.7867 16.0133 25.7467 15.96 25.72C15.96 25.7467 15.9333 25.7733 15.88 25.8C15.8267 25.88 15.8267 25.9333 15.88 25.96ZM14.68 25.96C14.6 25.96 14.56 25.9733 14.56 26C14.64 26 14.68 25.9867 14.68 25.96ZM14.8 26.64C14.9333 26.5867 15 26.5333 15 26.48C14.8667 26.5333 14.8 26.5867 14.8 26.64ZM14.28 26.6C14.2267 26.6 14.2 26.6133 14.2 26.64C14.2533 26.64 14.28 26.6267 14.28 26.6ZM14 26.88C14 26.8533 14.0267 26.8267 14.08 26.8C14.1333 26.8 14.1467 26.7733 14.12 26.72C14.0667 26.6933 14.0133 26.7067 13.96 26.76C13.9067 26.8133 13.92 26.8533 14 26.88ZM13.4 26.84V26.92H13.56V26.76H13.48L13.4 26.84ZM14.28 27.24V27.08C14.1733 27.0533 14.12 27.08 14.12 27.16C14.12 27.24 14.1733 27.2667 14.28 27.24ZM13.96 27.4C13.9867 27.4 14.0267 27.3867 14.08 27.36C14.16 27.36 14.2133 27.3467 14.24 27.32C14.16 27.32 14.0933 27.28 14.04 27.2C14.0133 27.1467 13.9867 27.12 13.96 27.12V27.4ZM14.36 27.32C14.36 27.2933 14.3867 27.2667 14.44 27.24C14.4933 27.2133 14.5067 27.1733 14.48 27.12C14.4 27.0933 14.3467 27.1333 14.32 27.24C14.32 27.2667 14.3333 27.2933 14.36 27.32ZM13.36 27.56C13.3867 27.56 13.4267 27.5467 13.48 27.52C13.5333 27.4933 13.5867 27.48 13.64 27.48C13.64 27.4267 13.6267 27.4 13.6 27.4C13.4667 27.4 13.3867 27.4533 13.36 27.56ZM14.68 27.4C14.5733 27.4 14.52 27.4133 14.52 27.44C14.6 27.44 14.6533 27.4267 14.68 27.4ZM12.84 27.48V27.6C12.8933 27.6267 12.92 27.6 12.92 27.52C12.9467 27.4667 12.9333 27.44 12.88 27.44C12.88 27.4933 12.8667 27.5067 12.84 27.48ZM13.56 27.8C13.5867 27.7733 13.6267 27.7333 13.68 27.68C13.76 27.6533 13.8133 27.6267 13.84 27.6C13.8667 27.5733 13.8667 27.52 13.84 27.44C13.84 27.4933 13.7867 27.5467 13.68 27.6C13.5467 27.68 13.5067 27.7467 13.56 27.8ZM13 28.04C13.0533 28.0133 13.08 27.9067 13.08 27.72L13.32 27.6C13.2133 27.5733 13.1067 27.5867 13 27.64C12.92 27.6933 12.8133 27.76 12.68 27.84C12.5733 27.9467 12.4933 28.0133 12.44 28.04C12.5733 28.0667 12.68 28.0267 12.76 27.92C12.8667 27.84 12.96 27.8 13.04 27.8C13.04 27.8267 13.0267 27.8533 13 27.88C12.9733 27.9333 12.9733 27.9867 13 28.04ZM12.56 27.72C12.6933 27.72 12.76 27.68 12.76 27.6C12.7067 27.6 12.64 27.64 12.56 27.72ZM11.2 27.84C11.1467 27.8133 11.1067 27.8133 11.08 27.84C11.0533 27.8667 11.0533 27.8933 11.08 27.92C11.16 27.92 11.2 27.8933 11.2 27.84C11.3333 27.8133 11.4 27.76 11.4 27.68C11.4 27.7067 11.36 27.72 11.28 27.72C11.2267 27.7467 11.2 27.7867 11.2 27.84ZM12.04 27.84H12.12V27.72H12.04V27.84ZM12.28 27.92C12.3067 27.92 12.3467 27.9067 12.4 27.88C12.48 27.8533 12.5333 27.8267 12.56 27.8C12.5067 27.7467 12.44 27.7333 12.36 27.76C12.3067 27.8133 12.28 27.8667 12.28 27.92ZM11.48 28.12L11.8 27.92C11.5867 27.92 11.48 27.9867 11.48 28.12ZM12.2 27.92L12.08 27.96H12.16L12.2 27.92ZM13.32 27.92C13.24 27.92 13.1867 27.9333 13.16 27.96C13.2667 27.96 13.32 27.9467 13.32 27.92ZM13.64 27.96L13.56 28C13.5333 28 13.52 28.0133 13.52 28.04L13.56 28C13.6133 28 13.64 27.9867 13.64 27.96ZM12.36 28.4C12.44 28.5333 12.52 28.5067 12.6 28.32C12.6267 28.2667 12.6267 28.2267 12.6 28.2C12.5733 28.28 12.52 28.32 12.44 28.32C12.3867 28.32 12.36 28.3467 12.36 28.4ZM10.64 28.56C10.5333 28.56 10.48 28.5733 10.48 28.6C10.56 28.6267 10.6133 28.6133 10.64 28.56C10.96 28.4267 11.1333 28.3333 11.16 28.28C10.84 28.4133 10.6667 28.5067 10.64 28.56ZM11.4 28.4C11.4533 28.4 11.52 28.36 11.6 28.28C11.4667 28.28 11.4 28.32 11.4 28.4ZM11.88 28.36V28.44C11.9067 28.4667 11.9333 28.4667 11.96 28.44C11.96 28.3867 11.9467 28.3467 11.92 28.32C11.92 28.3467 11.9067 28.36 11.88 28.36ZM12.16 28.44C12.1867 28.52 12.2133 28.5333 12.24 28.48C12.2667 28.4267 12.2533 28.3867 12.2 28.36C12.2 28.3867 12.1867 28.4 12.16 28.4C12.16 28.4 12.16 28.4133 12.16 28.44ZM11.64 28.76C11.6667 28.76 11.6933 28.76 11.72 28.76C11.72 28.68 11.6933 28.6267 11.64 28.6V28.76ZM11.88 28.76C11.9867 28.7067 12.04 28.6667 12.04 28.64H11.92L11.88 28.68C11.88 28.7067 11.88 28.7333 11.88 28.76ZM9.96 28.84C10.12 28.84 10.2 28.7867 10.2 28.68C10.04 28.7333 9.96 28.7867 9.96 28.84ZM10.44 28.84C10.4933 28.8667 10.5333 28.8533 10.56 28.8C10.5867 28.7467 10.5733 28.7067 10.52 28.68C10.52 28.7067 10.5067 28.7333 10.48 28.76C10.4533 28.7867 10.44 28.8133 10.44 28.84ZM9.96 29.04C10.1467 28.9867 10.2533 28.92 10.28 28.84C10.0933 28.8933 9.98667 28.96 9.96 29.04ZM11.56 28.92H11.64V28.84H11.56V28.92ZM11.6 29.08H11.68V29C11.6267 28.9733 11.6 29 11.6 29.08ZM10.4 29.16C10.4267 29.2133 10.5067 29.1733 10.64 29.04C10.5067 29.04 10.4267 29.08 10.4 29.16ZM9.08 29.16C9.16 29.24 9.22667 29.2533 9.28 29.2C9.30667 29.1733 9.32 29.1333 9.32 29.08C9.29333 29.08 9.25333 29.08 9.2 29.08C9.14667 29.1067 9.10667 29.1333 9.08 29.16ZM10.12 29.32C10.2267 29.32 10.28 29.2933 10.28 29.24C10.2533 29.1867 10.2133 29.16 10.16 29.16C10.1067 29.1867 10.0933 29.24 10.12 29.32ZM8.92 29.28C8.89333 29.28 8.86667 29.28 8.84 29.28L8.8 29.24C8.77333 29.2667 8.76 29.2933 8.76 29.32C8.84 29.4 8.89333 29.3867 8.92 29.28ZM8.52 29.4H8.6V29.32H8.52V29.4ZM9.16 29.4H9C9.08 29.48 9.13333 29.48 9.16 29.4ZM8.44 29.48C8.36 29.48 8.32 29.4933 8.32 29.52C8.4 29.52 8.44 29.5067 8.44 29.48ZM8.72 29.6V29.48V29.6ZM8.12 29.52C8.06667 29.52 8.04 29.5333 8.04 29.56C8.09333 29.56 8.12 29.5467 8.12 29.52ZM7.72 29.8C7.74667 29.7733 7.74667 29.7333 7.72 29.68C7.72 29.6267 7.68 29.6 7.6 29.6C7.6 29.7067 7.64 29.7733 7.72 29.8ZM8.6 30.44C8.62667 30.3867 8.68 30.3467 8.76 30.32C8.86667 30.32 8.93333 30.3067 8.96 30.28C8.85333 30.1733 8.73333 30.1867 8.6 30.32C8.54667 30.3467 8.54667 30.3867 8.6 30.44ZM8.44 30.44C8.44 30.4667 8.34667 30.48 8.16 30.48L7.88 30.44C7.88 30.52 7.92 30.5733 8 30.6C8.21333 30.6267 8.36 30.5733 8.44 30.44ZM6.32 30.76C6.24 30.76 6.2 30.7733 6.2 30.8C6.28 30.8 6.32 30.7867 6.32 30.76ZM20.68 0.959998H20.48C20.48 0.906665 20.5467 0.906665 20.68 0.959998ZM20.28 0.959998C20.28 0.933332 20.3333 0.919999 20.44 0.919999C20.4133 0.946665 20.36 0.959998 20.28 0.959998ZM19.88 1C19.88 0.973332 19.8933 0.959998 19.92 0.959998C19.9733 0.959998 20.0133 0.973332 20.04 1C20.0933 1.02667 20.1467 1.02667 20.2 1C20.1733 1.05333 20.0667 1.05333 19.88 1ZM18.6 1.16L18.68 1.08L18.6 1.16ZM19.16 1.16H19.28V1.24H19.16V1.16ZM17.84 1.32C17.84 1.29333 17.8533 1.28 17.88 1.28C17.9067 1.28 17.92 1.29333 17.92 1.32H17.84ZM18.44 1.4L18.36 1.32L18.44 1.4ZM18.2 1.52C18.12 1.52 18.0933 1.49333 18.12 1.44C18.1733 1.44 18.2 1.46667 18.2 1.52ZM16.92 1.48C17.08 1.53333 17.16 1.6 17.16 1.68C17 1.62667 16.92 1.56 16.92 1.48ZM16.84 1.64H16.92V1.72H16.84V1.64ZM16.12 1.8C16.1467 1.74667 16.1867 1.74667 16.24 1.8C16.2933 1.85333 16.3067 1.90667 16.28 1.96C16.2267 1.98667 16.1867 1.96 16.16 1.88C16.16 1.82667 16.1467 1.8 16.12 1.8ZM15.96 1.96C15.9867 2.01333 15.9733 2.05333 15.92 2.08C15.8933 2.08 15.88 2.09333 15.88 2.12C15.8267 2.09333 15.8133 2.05333 15.84 2C15.8667 1.94666 15.9067 1.93333 15.96 1.96ZM15.32 2.12H15.72C15.6933 2.17333 15.64 2.21333 15.56 2.24C15.48 2.24 15.4267 2.25333 15.4 2.28C15.3733 2.28 15.3467 2.25333 15.32 2.2V2.12ZM15.08 12.84C15.08 12.8933 15.0533 12.9333 15 12.96C14.9733 12.96 14.92 12.96 14.84 12.96C14.7867 12.96 14.7467 12.96 14.72 12.96C14.88 12.8 15 12.76 15.08 12.84ZM12.92 13.92C12.8667 13.9467 12.8667 13.9733 12.92 14C12.9733 14.0267 13 14.0667 13 14.12C12.8133 14.2 12.6267 14.2133 12.44 14.16L12.92 13.92ZM15.88 14.12C15.88 14.04 15.92 14 16 14C16 14.08 15.96 14.12 15.88 14.12ZM14.04 15.16L14.08 15.12L14.12 15.16H14.04ZM18.12 20.52C18.2533 20.6267 18.32 20.8533 18.32 21.2C18.2667 21.1733 18.2267 21.08 18.2 20.92C18.1733 20.7333 18.1467 20.6 18.12 20.52ZM18.32 21.44C18.3733 21.4667 18.4 21.5467 18.4 21.68C18.4 21.8133 18.36 21.8933 18.28 21.92C18.28 21.6267 18.2933 21.4667 18.32 21.44ZM10.2 28.08C10.1467 28.1867 10.04 28.28 9.88 28.36C9.74667 28.4667 9.64 28.48 9.56 28.4C9.13333 28.64 8.73333 28.7867 8.36 28.84C8.36 28.76 8.33333 28.7333 8.28 28.76C8.30667 28.7067 8.34667 28.6667 8.4 28.64C8.45333 28.64 8.52 28.64 8.6 28.64C8.68 28.6667 8.74667 28.68 8.8 28.68C8.90667 28.5467 9.14667 28.4267 9.52 28.32C9.89333 28.2133 10.12 28.1333 10.2 28.08ZM8.84 28.56C8.84 28.5867 8.78667 28.6 8.68 28.6C8.68 28.5467 8.69333 28.5067 8.72 28.48C8.77333 28.48 8.81333 28.5067 8.84 28.56ZM12.88 28.6C12.8533 28.52 12.88 28.48 12.96 28.48C13.04 28.48 13.0667 28.52 13.04 28.6H12.88ZM8.24 28.76C8.10667 28.8933 7.73333 29.0133 7.12 29.12C7.17333 29.0667 7.24 29.0133 7.32 28.96C7.42667 28.9067 7.49333 28.8667 7.52 28.84C7.6 28.84 7.64 28.8667 7.64 28.92C7.69333 28.8667 7.78667 28.8267 7.92 28.8C8.08 28.8 8.18667 28.7867 8.24 28.76ZM7.28 28.88C7.25333 28.96 7.18667 29 7.08 29C7.08 28.92 7.14667 28.88 7.28 28.88ZM6.76 29.08C6.78667 29.08 6.82667 29.08 6.88 29.08C6.98667 29.0533 7.02667 29.08 7 29.16C6.97333 29.1333 6.93333 29.12 6.88 29.12C6.82667 29.1467 6.78667 29.16 6.76 29.16V29.08Z" fill="#C58A46"/>
</g>
<defs>
<filter id="filter0_d_1_67729" x="0.0400391" y="0.32" width="28.3604" height="38.96" filterUnits="userSpaceOnUse" color-interpolation-filters="sRGB">
<feFlood flood-opacity="0" result="BackgroundImageFix"/>
<feColorMatrix in="SourceAlpha" type="matrix" values="0 0 0 0 0 0 0 0 0 0 0 0 0 0 0 0 0 0 127 0" result="hardAlpha"/>
<feOffset dy="4"/>
<feGaussianBlur stdDeviation="2"/>
<feComposite in2="hardAlpha" operator="out"/>
<feColorMatrix type="matrix" values="0 0 0 0 0 0 0 0 0 0 0 0 0 0 0 0 0 0 0.25 0"/>
<feBlend mode="normal" in2="BackgroundImageFix" result="effect1_dropShadow_1_67729"/>
<feBlend mode="normal" in="SourceGraphic" in2="effect1_dropShadow_1_67729" result="shape"/>
</filter>
</defs>
</svg>
